<?xml version="1.0" standalone="no"?>
<!DOCTYPE svg PUBLIC "-//W3C//DTD SVG 20010904//EN"
 "http://www.w3.org/TR/2001/REC-SVG-20010904/DTD/svg10.dtd">
<svg version="1.0" xmlns="http://www.w3.org/2000/svg"
 width="800.000000pt" height="450.000000pt" viewBox="0 0 800.000000 450.000000"
 preserveAspectRatio="xMidYMid meet">
<metadata>
Created by potrace 1.16, written by Peter Selinger 2001-2019
</metadata>
<g transform="translate(0.000000,450.000000) scale(0.100000,-0.100000)"
fill="#000000" stroke="none">
<path d="M5870 4450 c0 -16 -131 -150 -162 -166 -16 -8 -33 -12 -39 -9 -5 4
-8 1 -7 -7 2 -8 -5 -12 -17 -10 -17 2 -18 1 -5 -8 13 -10 13 -13 -4 -23 -10
-7 -26 -20 -35 -29 -8 -10 -23 -18 -32 -18 -10 0 -19 -3 -21 -8 -1 -4 -44 -35
-94 -69 -62 -42 -98 -60 -112 -56 -11 2 -23 -1 -27 -7 -5 -9 -1 -10 14 -5 11
3 21 2 21 -3 0 -5 -9 -12 -20 -15 -11 -3 -20 -1 -20 4 0 12 -11 11 -30 -1 -12
-8 -12 -12 -2 -18 18 -12 -88 -85 -110 -77 -9 4 -19 2 -23 -4 -3 -7 0 -8 9 -5
32 12 14 -4 -54 -50 -77 -51 -102 -60 -55 -20 36 31 16 22 -40 -19 -22 -16
-38 -30 -35 -31 8 -4 -21 -36 -32 -36 -6 0 -4 8 3 17 8 9 -5 4 -28 -12 -24
-15 -43 -30 -43 -32 0 -3 11 2 25 11 14 9 25 13 25 9 0 -13 -40 -34 -50 -28
-14 8 -70 -33 -70 -51 0 -8 -5 -14 -11 -14 -5 0 -7 5 -3 11 4 8 0 8 -15 0 -25
-14 -28 -23 -4 -14 23 9 8 -14 -19 -28 -15 -8 -19 -8 -14 0 10 16 -7 13 -30
-5 -17 -14 -17 -15 -1 -10 11 4 16 2 12 -5 -4 -6 -14 -8 -21 -5 -8 3 -33 -6
-55 -20 -36 -22 -44 -24 -75 -14 -40 14 -41 16 -11 41 22 19 22 19 -12 2 -25
-14 -35 -15 -38 -5 -3 6 -9 12 -15 12 -6 0 -38 22 -72 49 -50 40 -79 54 -151
75 -50 13 -104 27 -122 31 -35 7 -174 -17 -225 -39 l-33 -14 40 4 40 5 -37
-21 c-42 -23 -50 -35 -17 -27 20 5 20 5 2 -15 -13 -15 -15 -22 -5 -25 23 -9
12 -25 -13 -19 -39 10 -30 1 30 -29 30 -14 55 -30 55 -35 0 -15 -21 -23 -33
-11 -6 6 -16 11 -21 11 -6 0 -4 -5 4 -10 13 -8 12 -10 -3 -10 -10 0 -15 -4
-12 -10 3 -5 18 -10 33 -10 15 0 33 -4 39 -8 27 -17 -132 -5 -169 13 -35 17
-43 45 -12 45 19 0 18 16 -2 24 -13 5 -15 15 -10 49 l6 42 -15 -30 c-11 -19
-14 -43 -11 -65 4 -26 3 -30 -3 -14 -5 12 -16 24 -25 27 -25 10 -8 -53 23 -86
24 -25 38 -28 144 -41 65 -7 123 -18 130 -25 15 -15 -29 -62 -51 -54 -12 5
-14 2 -8 -13 4 -10 8 -64 9 -119 1 -95 0 -101 -26 -129 -15 -16 -27 -38 -27
-50 0 -20 -54 -86 -95 -116 -11 -8 -28 -27 -38 -42 -10 -16 -26 -28 -36 -28
-21 0 -84 -30 -89 -42 -2 -5 -10 -8 -18 -8 -19 0 -94 -48 -94 -60 0 -6 -6 -10
-13 -10 -18 0 -47 -32 -47 -51 0 -8 -7 -27 -15 -43 -8 -15 -13 -32 -10 -37 7
-10 -31 -49 -47 -49 -7 1 -2 10 11 21 34 28 22 32 -24 9 -42 -21 -80 -27 -70
-10 3 6 16 10 28 10 32 0 45 11 51 45 6 26 5 27 -3 8 -16 -36 -21 -27 -14 27
6 56 -11 93 -53 112 -47 22 -18 57 32 38 34 -13 87 -13 79 0 -4 6 -15 8 -26 5
-10 -4 -32 0 -48 8 -27 13 -31 13 -57 -9 -20 -16 -43 -24 -74 -24 -35 -1 -40
-3 -24 -10 19 -8 53 -44 81 -86 7 -11 3 2 -9 28 -12 26 -19 50 -17 53 9 9 68
-25 84 -48 8 -12 15 -33 15 -47 -1 -69 -30 -94 -46 -39 l-9 31 -11 -30 c-10
-25 -9 -30 2 -25 22 8 17 -31 -7 -53 -11 -10 -34 -19 -50 -20 -26 -2 -29 1
-29 30 0 38 -54 126 -81 133 -21 6 -21 24 -1 31 7 2 12 -3 12 -10 0 -8 16 -29
35 -48 24 -23 37 -47 42 -72 6 -40 17 -55 27 -39 4 5 -3 33 -14 61 -24 61 -25
71 -5 64 8 -4 15 -1 15 5 0 6 -9 11 -21 11 -12 0 -23 8 -26 20 -4 14 -14 20
-34 20 -36 0 -38 17 -4 32 15 6 28 23 31 37 7 39 27 74 44 79 13 5 13 3 1 -12
-8 -9 -12 -19 -9 -22 3 -2 12 6 21 20 14 21 14 25 2 30 -8 3 -15 14 -15 25 0
10 -6 18 -12 17 -7 0 -13 4 -14 9 0 6 9 9 20 7 20 -2 20 -2 2 9 -15 9 -16 13
-5 20 11 7 10 9 -3 9 -13 0 -18 8 -18 30 0 19 5 29 12 28 7 -2 13 4 13 12 0
22 15 30 63 30 23 0 42 5 42 10 0 6 7 10 15 10 8 0 20 10 26 23 12 21 11 22
-8 4 -28 -24 -112 -28 -127 -5 -9 14 -14 7 -33 -44 -24 -64 -31 -164 -12 -170
16 -5 -120 -104 -138 -100 -7 2 -21 -11 -31 -27 -9 -17 -34 -38 -54 -47 -39
-17 -79 -54 -60 -54 6 0 14 5 18 11 3 6 26 19 49 29 35 15 75 55 67 68 -8 10
1 12 13 2 8 -7 12 -16 9 -21 -3 -5 0 -9 5 -9 11 0 13 5 15 32 1 12 105 88 120
88 4 0 -1 -11 -11 -24 -10 -13 -21 -22 -24 -20 -4 2 -19 -8 -35 -22 -19 -17
-25 -28 -16 -31 20 -8 14 -26 -8 -20 -11 3 -18 2 -16 -2 3 -4 -17 -22 -45 -39
-27 -18 -49 -36 -49 -40 0 -5 -37 -9 -82 -9 -96 -2 -163 -21 -163 -48 0 -10
-15 -24 -35 -34 -19 -9 -35 -23 -35 -31 -1 -8 -6 -14 -12 -13 -14 3 -28 -96
-18 -134 9 -37 54 -89 74 -85 12 3 11 0 -4 -12 -11 -8 -21 -11 -23 -6 -2 5
-25 -5 -53 -22 -48 -31 -64 -46 -33 -34 9 3 12 2 9 -5 -4 -6 -14 -8 -22 -5 -8
3 -51 -18 -99 -49 -46 -30 -88 -55 -94 -55 -5 0 -10 -4 -10 -10 0 -13 23 -13
38 0 9 7 9 7 2 -2 -13 -16 -13 -48 0 -48 6 0 10 5 10 10 0 6 4 10 10 10 5 0
77 42 158 94 97 60 154 91 163 86 8 -4 39 -13 70 -20 49 -11 63 -10 108 5 48
16 86 49 75 66 -2 4 6 10 18 14 13 3 39 13 60 22 34 14 38 14 62 -3 14 -11 26
-24 26 -31 0 -6 12 -13 28 -15 l27 -3 -40 -27 c-53 -37 -31 -36 27 1 62 39 68
52 23 46 -29 -3 -42 1 -65 22 l-30 26 26 13 c14 8 31 11 38 7 6 -3 8 -3 4 2
-4 4 4 17 18 28 24 19 27 19 64 2 21 -10 46 -15 54 -12 9 4 16 3 16 -1 0 -15
86 -12 122 4 41 18 52 40 16 29 -22 -7 -22 -6 -6 10 15 16 19 16 47 2 40 -20
39 -13 -4 30 -48 48 -44 60 11 29 26 -14 41 -19 34 -11 -7 9 -10 18 -7 22 4 3
-1 12 -11 19 -15 12 -15 15 -2 24 13 8 12 10 -3 10 -22 0 -14 16 16 32 21 11
21 10 7 -7 -10 -12 -10 -16 -2 -11 7 4 19 2 27 -4 12 -10 15 -9 15 4 0 9 4 16
8 16 5 0 14 11 20 25 9 20 9 23 -3 18 -18 -6 -19 3 -3 21 10 10 22 3 61 -41
28 -30 59 -59 71 -65 20 -10 20 -10 -2 14 -12 13 -19 28 -15 32 5 4 1 13 -7
20 -8 6 -21 22 -28 34 -11 20 -10 27 8 52 12 18 16 31 10 35 -5 3 -10 14 -10
23 1 14 5 12 23 -8 27 -31 75 -66 142 -104 40 -23 46 -25 28 -7 -12 11 -25 21
-29 21 -4 0 -25 18 -46 40 -22 22 -43 40 -48 40 -4 0 -8 16 -7 35 1 19 3 35 6
34 4 0 24 -23 46 -51 22 -28 51 -58 65 -67 21 -13 20 -11 -5 14 -17 17 -37 45
-44 63 -11 25 -16 30 -23 20 -7 -9 -8 -5 -4 12 3 14 6 34 6 44 0 18 2 18 25
-4 14 -13 25 -18 25 -12 0 6 -4 14 -10 17 -5 3 -10 18 -10 33 1 23 4 20 22
-20 11 -27 24 -48 29 -48 5 0 17 -17 28 -37 33 -66 157 -163 208 -163 15 0 16
-2 3 -10 -20 -13 -82 -13 -117 1 -15 6 -43 12 -62 14 l-35 3 31 -19 c40 -25
147 -28 225 -5 57 16 97 52 127 116 11 23 10 22 -10 -3 -17 -22 -24 -26 -31
-15 -8 10 -9 9 -5 -4 6 -17 -37 -68 -56 -68 -6 0 -4 6 4 13 22 18 47 53 32 43
-32 -18 -8 24 70 124 26 34 47 68 47 76 0 10 7 13 24 8 19 -4 27 0 37 18 11
21 11 22 -4 9 -17 -13 -29 -9 -57 19 -39 39 -205 117 -215 101 -2 -5 14 -29
36 -55 45 -51 45 -52 -2 -31 -54 23 -94 52 -78 58 8 2 4 2 -9 0 -15 -2 -32 6
-50 24 -16 16 -36 26 -48 25 -11 -2 -27 4 -34 13 -11 13 -10 14 5 9 17 -7 17
-6 0 20 -23 35 -14 42 26 22 18 -9 34 -16 36 -16 2 0 -11 21 -29 46 -18 25
-45 62 -59 82 l-27 36 22 11 c16 9 23 8 29 -2 4 -7 13 -13 18 -13 6 0 7 4 4
10 -11 17 29 -2 56 -27 14 -13 29 -20 34 -16 4 5 6 3 2 -2 -9 -17 8 -37 28
-33 15 3 15 6 -6 32 l-22 28 34 -6 c33 -7 33 -6 14 9 -11 9 -19 21 -17 26 1 5
-2 9 -8 9 -5 0 -10 -5 -10 -12 0 -19 -61 44 -76 79 -10 23 -11 40 -4 60 10 27
10 28 -7 8 -25 -29 -83 -14 -83 21 0 21 28 17 40 -6 12 -23 30 -27 30 -6 0 17
-37 42 -81 54 -52 13 -42 34 26 55 53 17 68 18 134 7 62 -10 153 -48 234 -97
5 -3 -5 -14 -22 -24 -48 -29 -37 -31 14 -2 38 21 45 22 45 9 0 -12 6 -15 24
-10 31 7 43 -12 16 -28 -33 -21 -22 -29 13 -8 25 15 34 16 43 6 9 -10 4 -19
-23 -40 -43 -35 -55 -28 -13 8 17 14 29 26 26 26 -7 0 -88 -52 -96 -61 -3 -3
-15 -11 -28 -18 -12 -7 -21 -15 -18 -19 2 -4 -8 -8 -22 -9 l-27 -1 27 21 c15
12 37 30 50 40 l23 19 -27 -16 c-16 -9 -39 -23 -52 -31 -21 -14 -25 -14 -39 0
-9 8 -19 15 -24 15 -4 0 12 -18 36 -40 25 -22 47 -40 50 -40 7 0 119 74 141
93 48 41 46 41 117 1 101 -57 137 -72 201 -82 80 -13 148 -9 210 12 70 24 60
31 -15 12 -54 -14 -67 -14 -139 0 -43 9 -89 16 -101 15 -12 0 -25 4 -28 9 -3
6 -14 10 -24 10 -10 0 -37 14 -59 30 -23 17 -44 30 -47 30 -3 0 -24 12 -48 27
-23 15 -46 27 -52 28 -19 1 -95 45 -95 55 0 6 -7 10 -15 10 -8 0 -15 4 -15 8
0 4 -22 16 -49 26 -27 9 -57 24 -67 32 -18 13 -18 14 1 7 18 -6 18 -5 6 10 -7
9 -27 17 -45 17 -17 0 -69 3 -114 6 -46 3 -88 2 -92 -2 -5 -5 16 -8 48 -7 31
2 51 0 44 -3 -6 -3 -10 -9 -7 -14 5 -8 -65 -5 -121 6 -26 5 -30 9 -26 30 3 18
11 24 31 25 14 0 52 3 83 5 32 2 75 0 95 -5 89 -23 128 -35 133 -41 3 -4 21
-12 41 -19 19 -6 51 -28 70 -47 19 -20 61 -49 94 -65 33 -16 56 -29 50 -29 -5
0 -3 -5 5 -10 24 -16 62 -11 84 9 20 19 378 262 499 339 32 20 108 72 168 115
61 42 113 77 115 77 12 0 154 97 204 139 30 25 64 53 75 61 48 36 155 150 155
164 0 9 -2 16 -5 16 -3 0 -5 -4 -5 -10z m-1840 -1301 c0 -24 17 -59 29 -59 14
0 23 33 10 40 -6 4 1 8 15 8 14 0 26 -4 26 -8 0 -5 16 -25 36 -45 28 -29 38
-35 45 -24 14 22 74 -16 87 -54 8 -26 10 -28 11 -10 1 23 41 54 41 33 0 -6 5
-8 11 -4 14 8 5 -116 -9 -125 -5 -3 -15 -23 -23 -43 -7 -21 -17 -38 -21 -38
-4 0 -8 -9 -8 -20 0 -11 -4 -20 -10 -20 -5 0 -10 -9 -10 -20 0 -16 -7 -20 -36
-20 -27 0 -46 9 -77 36 -23 19 -42 38 -42 42 0 15 -17 32 -25 27 -5 -3 -14 4
-20 15 -6 12 -20 30 -31 41 -15 15 -18 27 -13 58 3 22 1 47 -5 59 -16 29 -21
82 -10 107 6 14 8 8 5 -22 -2 -24 0 -43 4 -43 3 0 11 -12 18 -27 11 -27 11
-26 6 12 -2 22 -8 59 -13 83 -5 23 -4 42 0 42 5 0 9 -9 9 -21z m-1164 -468
c16 2 48 -2 72 -9 38 -11 41 -15 32 -32 -7 -13 -7 -20 -1 -20 6 0 13 11 17 24
8 33 31 40 56 16 12 -11 28 -20 35 -20 7 0 13 -9 13 -20 0 -11 4 -20 9 -20 20
0 61 -48 55 -64 -7 -19 -16 -20 -32 -4 -9 9 -12 9 -12 0 0 -21 -27 -13 -59 17
-37 35 -38 41 -8 34 21 -4 21 -3 -3 11 -40 24 -60 20 -59 -11 1 -17 3 -21 6
-10 2 9 9 17 15 17 6 0 9 -3 5 -6 -3 -4 0 -19 9 -35 15 -30 28 -40 18 -14 -9
23 2 18 21 -11 13 -20 14 -32 6 -55 -11 -33 -5 -37 16 -11 13 15 13 15 3 -5
-11 -24 -30 -39 -30 -25 0 5 -10 13 -22 16 -22 7 -22 7 -3 16 l20 8 -20 7
c-11 5 -33 20 -48 34 -22 20 -25 27 -13 31 11 4 8 10 -14 22 -30 17 -30 17
-30 -7 0 -13 3 -25 8 -27 15 -7 42 -67 36 -82 -9 -24 -19 -20 -48 19 -21 27
-23 35 -12 35 9 0 16 5 16 10 0 6 -9 10 -20 10 -29 0 -45 36 -30 69 l11 26
-26 -27 c-14 -15 -25 -31 -24 -35 1 -4 1 -18 0 -31 -2 -37 -21 -15 -22 26 -2
29 -3 31 -6 10 -2 -14 -11 -32 -19 -38 -22 -19 -18 40 6 70 24 31 26 53 2 25
-9 -11 -26 -27 -36 -35 -17 -14 -17 -13 -2 23 19 46 14 47 -12 3 -12 -20 -18
-44 -15 -55 4 -16 2 -20 -10 -15 -13 4 -14 11 -5 37 6 18 15 37 20 44 5 7 6
18 2 25 -4 7 -3 10 1 5 5 -4 16 0 26 9 11 10 25 14 36 10 9 -4 14 -4 10 0 -4
4 -2 13 5 21 8 10 13 11 18 3 4 -7 20 -10 36 -9z"/>
<path d="M4501 2686 c-1 -11 11 -32 25 -47 25 -27 26 -30 15 -75 -7 -28 -28
-67 -51 -94 l-39 -47 5 -79 c5 -87 19 -201 35 -282 8 -38 7 -62 -1 -87 -13
-40 -20 -43 -37 -15 -7 10 -23 24 -35 30 l-23 11 23 -17 c25 -19 30 -39 6 -30
-8 3 -12 2 -9 -3 3 -5 2 -12 -3 -15 -5 -3 -9 1 -9 8 0 24 -25 76 -34 70 -5 -3
-9 -1 -9 5 0 6 -17 4 -42 -5 -24 -9 -56 -18 -72 -20 l-30 -4 31 32 c23 24 33
47 39 82 3 27 15 57 25 67 11 11 19 25 19 32 0 8 -4 7 -11 -3 -8 -11 -9 -6 -4
22 18 112 -76 -6 -135 -169 -26 -72 -49 -83 -52 -25 l-1 37 -4 -33 c-4 -33 -6
-33 -41 -28 -20 3 -53 10 -72 14 l-35 8 -7 94 c-4 52 -8 104 -10 115 -2 13 3
20 14 20 9 0 25 9 35 20 11 11 47 40 80 65 34 24 60 46 58 48 -2 2 -36 -21
-77 -51 -40 -31 -75 -53 -78 -51 -3 3 6 15 20 26 58 46 80 69 80 83 0 19 -38
19 -62 1 -28 -21 -23 -36 7 -23 14 7 25 15 25 20 0 4 5 7 10 7 18 0 11 -18
-10 -25 -11 -3 -20 -11 -20 -16 0 -5 -16 -24 -36 -41 -26 -23 -32 -33 -22 -39
7 -5 11 -9 8 -10 -50 -8 -56 -6 -78 28 -22 33 -23 35 -5 49 10 7 22 14 27 14
5 0 6 3 3 6 -4 4 -13 1 -22 -6 -12 -10 -18 -10 -29 -1 -12 10 -23 7 -57 -15
-37 -23 -44 -25 -54 -11 -9 13 -13 13 -30 1 -18 -13 -18 -14 6 -14 23 -1 23
-1 4 -12 -25 -13 -115 -100 -115 -110 0 -4 14 -15 31 -24 24 -12 34 -13 39 -4
8 12 20 -19 20 -52 0 -26 -34 -22 -66 7 -15 14 -34 25 -43 26 -10 0 -12 2 -3
6 14 6 16 23 2 23 -5 0 -30 -16 -56 -35 -25 -19 -51 -35 -57 -34 -8 0 -8 2 1
6 6 2 12 12 12 21 0 10 5 24 11 32 8 12 9 9 4 -10 -5 -20 2 -16 39 25 25 28
43 56 41 64 -4 11 -3 11 9 2 19 -16 55 2 58 29 0 11 1 26 2 33 1 17 -33 10
-66 -14 -31 -22 -64 -26 -35 -4 22 16 61 85 48 85 -5 0 -28 -11 -52 -24 -31
-18 -47 -22 -56 -15 -6 6 -20 9 -30 6 -14 -4 -12 -5 6 -6 15 -1 21 -6 18 -15
-3 -7 2 -24 10 -36 15 -21 15 -24 -2 -36 -27 -20 -37 -18 -86 22 l-44 37 45
-45 c25 -25 55 -48 68 -52 23 -8 29 -21 12 -31 -5 -3 -10 -17 -10 -31 0 -16
-6 -24 -17 -24 -27 -1 -51 -23 -68 -64 -8 -20 -20 -36 -26 -36 -15 0 -132
-109 -141 -130 -8 -20 -56 -60 -72 -60 -6 1 3 8 19 17 17 9 25 18 20 20 -19 6
-126 -58 -135 -81 -4 -11 -6 -24 -4 -27 2 -4 -7 -10 -21 -13 -13 -3 -44 -23
-68 -44 -24 -21 -58 -44 -75 -51 -20 -8 -32 -21 -32 -32 0 -18 -15 -30 -124
-101 -26 -18 -43 -34 -38 -36 14 -4 65 22 81 42 9 10 22 14 37 10 15 -4 24 -2
24 6 0 7 -7 10 -15 6 -8 -3 -15 0 -15 5 0 7 9 9 21 6 12 -3 30 0 40 6 23 14
25 29 4 21 -8 -4 -15 -1 -15 6 0 8 8 10 21 7 12 -3 29 -2 38 3 9 4 45 16 80
26 71 20 66 32 -7 16 -26 -6 -65 -13 -87 -17 l-40 -5 48 25 c27 14 52 23 56
21 4 -3 26 0 50 6 29 7 38 13 29 19 -9 6 -10 9 -1 9 7 0 10 6 7 13 -3 8 6 18
21 25 14 7 23 17 20 22 -4 6 1 7 11 3 11 -4 15 -3 10 5 -6 10 15 15 119 25 60
6 153 -11 218 -40 85 -38 80 -22 -8 22 -71 36 -79 38 -169 37 -55 -1 -111 -7
-137 -16 -63 -22 -80 -19 -39 6 23 14 48 21 75 19 22 -1 36 1 32 5 -7 7 28 36
48 41 5 1 36 7 67 14 46 10 69 10 120 0 35 -7 80 -14 99 -15 51 -4 89 -32 88
-65 -1 -14 1 -42 5 -62 7 -32 5 -36 -20 -48 -17 -7 -30 -9 -32 -3 -1 5 -9 18
-17 28 -17 24 -30 12 -16 -14 20 -37 12 -50 -54 -91 -89 -57 -112 -58 -170 -8
-37 32 -56 40 -93 43 -26 2 -38 1 -27 -2 71 -18 136 -74 87 -74 -18 0 -42 -18
-42 -31 0 -9 57 19 66 32 3 5 17 0 31 -11 14 -11 32 -20 39 -20 9 0 5 -12 -11
-36 -27 -40 -31 -54 -15 -54 6 0 10 5 10 11 0 6 6 9 14 6 7 -3 19 0 26 6 10 9
12 9 8 -1 -2 -8 -18 -20 -35 -27 -29 -13 -33 -12 -38 6 -10 31 -43 20 -82 -27
l-33 -41 41 7 c22 4 46 13 52 19 6 6 19 11 30 11 10 0 46 15 80 34 34 19 77
37 95 41 17 4 32 11 32 15 0 5 7 7 16 3 13 -5 15 -2 10 13 -5 15 -1 20 15 21
18 2 19 0 7 -14 -9 -12 -10 -15 0 -9 7 4 15 1 18 -8 4 -11 14 -13 33 -10 21 4
30 1 35 -11 3 -10 5 -19 4 -20 -2 0 -22 -16 -44 -33 -23 -18 -45 -32 -48 -32
-3 0 -6 12 -6 28 -1 24 -2 25 -11 9 -7 -13 -7 -22 0 -31 6 -7 8 -16 4 -19 -3
-4 3 -7 14 -7 17 0 23 -8 28 -41 5 -30 11 -39 22 -35 8 3 21 6 29 6 8 0 14 7
14 15 0 8 5 15 10 15 6 0 10 -4 10 -10 0 -5 5 -10 11 -10 6 0 9 6 6 13 -3 7 4
19 14 25 12 8 19 8 19 2 0 -5 -4 -10 -10 -10 -5 0 -7 -7 -4 -15 7 -17 44 -21
44 -5 0 5 8 9 18 7 9 -1 17 3 17 8 0 6 -4 9 -8 7 -4 -1 -3 7 3 18 8 15 17 18
43 14 17 -3 40 -5 50 -5 13 0 17 -5 12 -16 -5 -15 -4 -15 12 -2 22 19 67 23
56 6 -4 -7 -1 -7 10 1 9 8 21 11 26 8 5 -4 12 -2 16 4 3 5 1 10 -5 10 -6 0 -8
5 -5 10 4 6 11 8 16 5 5 -3 6 1 3 10 -4 9 -3 15 2 13 5 -2 10 0 12 5 6 18 1
27 -15 28 -15 0 -15 2 2 8 14 6 1 10 -43 12 -35 2 -68 0 -73 -6 -9 -9 -22 2
-33 30 -2 6 -9 5 -17 -2 -22 -21 -34 -15 -14 7 21 23 8 49 -17 34 -16 -11 -58
-13 -58 -3 0 5 5 11 10 14 19 12 11 26 -9 16 -18 -10 -31 -6 -31 11 0 5 5 6
12 2 7 -5 9 -2 5 8 -4 11 1 16 16 15 12 0 31 3 42 7 13 5 12 2 -4 -7 l-25 -15
35 -18 c43 -23 50 -25 128 -31 56 -5 62 -7 47 -19 -16 -11 -15 -12 13 -10 17
1 34 6 38 11 4 4 1 5 -7 0 -12 -6 -12 -5 -3 5 13 14 37 4 27 -12 -4 -7 -2 -8
5 -4 6 4 9 12 6 17 -4 5 2 9 12 10 12 1 10 3 -7 8 -24 7 -24 8 8 15 27 6 31
10 21 22 -9 11 -7 14 10 14 12 0 19 -4 16 -10 -3 -5 -2 -10 4 -10 5 0 11 6 14
13 2 6 7 9 11 6 14 -13 -7 -39 -31 -39 -18 0 -24 -4 -20 -14 3 -8 -1 -17 -10
-20 -14 -6 -14 -8 3 -20 10 -8 22 -12 27 -9 4 2 15 -1 24 -9 15 -11 16 -10 10
11 -4 18 -3 21 6 12 16 -16 21 -15 63 24 20 19 40 33 42 30 8 -7 -27 -42 -79
-80 -41 -29 -48 -32 -52 -17 -4 16 -5 16 -6 0 -1 -25 -15 -22 -31 7 -16 29
-32 32 -51 8 -12 -15 -12 -16 5 -10 28 11 59 -20 45 -45 -5 -10 -14 -16 -19
-13 -5 3 -12 0 -16 -6 -4 -7 -3 -9 3 -6 6 4 14 0 17 -9 9 -24 8 -25 -17 -19
-15 4 -28 1 -37 -10 -12 -14 -11 -16 11 -10 21 5 27 1 37 -20 7 -14 12 -35 12
-45 0 -11 5 -20 11 -20 6 0 8 9 4 20 -5 15 -3 18 9 14 9 -3 16 -1 16 5 0 6 -7
11 -15 11 -8 0 -19 8 -24 19 -8 14 -4 24 18 45 29 28 46 23 35 -11 -5 -17 -5
-17 6 0 9 14 9 22 -2 34 -11 13 -8 19 22 42 18 14 54 45 79 67 38 35 43 44 33
57 -11 13 -10 17 7 27 12 6 20 14 20 18 -4 22 3 32 21 32 11 0 20 -4 20 -10 0
-5 -4 -10 -10 -10 -5 0 -10 -5 -10 -12 0 -6 11 -2 23 11 26 23 57 20 57 -6 0
-9 6 -13 15 -9 21 8 19 -8 -5 -29 -18 -16 -20 -16 -26 -1 -3 9 -10 16 -14 16
-9 0 -18 -77 -10 -89 6 -11 136 -71 153 -71 6 0 21 -7 31 -15 11 -8 38 -15 60
-15 58 -1 159 -24 186 -43 31 -21 66 -75 80 -124 10 -34 10 -48 0 -72 -11 -28
-9 -36 31 -105 24 -42 46 -76 50 -76 4 0 10 9 14 19 3 11 13 25 23 33 15 11
14 10 -1 -15 -20 -31 -18 -47 3 -22 7 8 13 26 13 40 0 14 3 28 8 31 5 3 9 10
9 16 0 16 -48 -31 -56 -54 -9 -29 -22 -21 -42 24 -10 24 -26 49 -35 57 -30 24
-17 47 57 108 32 26 45 30 72 26 27 -4 34 -2 34 11 0 9 6 16 14 16 8 0 18 5
21 10 10 16 -22 11 -40 -6 -20 -21 -32 -10 -14 13 11 15 11 16 -1 6 -8 -7 -21
-13 -29 -13 -11 0 -10 4 5 15 14 11 15 14 4 14 -23 0 -54 -26 -38 -32 8 -4 7
-6 -4 -6 -13 -1 -18 7 -18 27 0 19 -11 39 -30 58 -41 40 -37 45 14 20 34 -16
44 -25 40 -38 -7 -22 24 -25 32 -3 4 8 12 15 19 15 7 0 18 -7 25 -15 7 -8 22
-15 35 -15 12 0 25 -3 29 -7 3 -4 22 -12 42 -19 29 -10 33 -10 23 2 -6 8 -18
14 -26 14 -22 0 -97 41 -110 60 -34 48 -171 107 -187 81 -11 -18 -26 -13 -26
9 0 18 5 20 43 14 46 -7 159 -44 224 -74 24 -11 47 -20 52 -20 4 0 20 -9 34
-20 24 -19 25 -19 20 -1 -5 18 -78 61 -103 61 -5 0 -10 4 -10 9 0 10 -17 17
-60 25 -14 2 -45 12 -69 20 -24 9 -59 16 -78 16 -23 0 -33 4 -31 13 3 7 30 14
69 17 75 6 57 20 -25 20 -54 0 -76 -12 -76 -42 0 -10 -7 -18 -16 -18 -21 0
-54 18 -54 30 0 12 -55 94 -72 107 -7 6 -26 13 -43 17 -43 10 -85 27 -85 36 0
4 25 17 56 29 60 23 127 27 170 11 15 -6 29 -8 32 -5 4 3 -4 8 -16 12 -21 5
-21 6 -5 19 15 11 16 13 2 14 -9 0 -18 -3 -22 -6 -3 -4 -39 -8 -79 -10 -57 -3
-86 -10 -130 -33 -51 -26 -61 -28 -88 -18 -16 6 -30 15 -30 20 0 5 -18 26 -39
47 l-39 39 30 16 c17 8 56 20 87 26 48 10 61 10 88 -4 18 -10 36 -17 40 -17 4
1 -9 10 -30 21 -21 11 -36 23 -33 27 2 4 -10 14 -27 22 l-32 15 60 6 c37 3 63
1 67 -5 4 -6 8 3 8 20 0 34 -16 44 -72 44 -23 0 -28 5 -34 36 -5 29 -9 33 -16
20 -5 -10 -5 -23 2 -35 6 -12 6 -22 1 -25 -11 -7 -25 69 -16 84 3 5 15 10 25
10 10 0 22 5 26 12 5 8 0 9 -14 6 -23 -6 -31 7 -9 15 7 4 6 6 -5 6 -9 1 -19 9
-22 19 -3 9 -4 2 -2 -15 1 -18 -1 -33 -6 -33 -4 0 -8 18 -8 41 0 36 3 41 30
50 17 6 30 15 30 21 0 5 -13 7 -30 3 -29 -6 -30 -6 -30 32 0 32 4 39 20 40 25
2 71 33 49 33 -22 0 -49 32 -49 58 0 12 -4 22 -10 22 -5 0 -9 -18 -8 -40 1
-31 6 -40 22 -43 16 -3 15 -5 -6 -6 -27 -1 -28 1 -28 48 0 51 8 60 53 62 20 1
19 2 -6 13 -15 7 -24 15 -21 19 4 4 1 7 -7 8 -8 0 -6 4 6 9 19 8 19 9 -2 9
-18 1 -23 -5 -24 -26 l-1 -28 -8 30 c-14 55 -12 63 20 70 17 4 30 11 30 16 0
6 5 7 10 4 6 -4 8 -10 5 -15 -3 -5 -1 -11 5 -15 5 -3 10 -18 10 -33 1 -29 28
-65 76 -99 49 -35 48 -14 -1 24 -25 19 -46 42 -46 51 -1 9 -2 26 -3 37 -2 42
-40 124 -61 131 -18 6 -17 7 8 11 16 3 36 -2 45 -9 10 -8 31 -22 47 -33 23
-13 19 -8 -14 24 -37 34 -51 41 -86 41 -42 0 -69 13 -78 40 -4 11 -6 10 -6 -4z
m-610 -412 c3 -10 4 -23 1 -29 -3 -5 2 -4 11 4 10 8 17 9 17 3 0 -6 -4 -14
-10 -17 -15 -9 -12 -25 4 -25 9 0 12 -7 9 -20 -4 -16 -2 -19 11 -14 19 7 20 1
4 -65 -9 -42 -15 -51 -34 -51 -18 0 -23 7 -29 47 -9 61 -41 148 -61 164 -14
12 -14 14 3 20 30 11 66 3 74 -17z m-85 -39 c9 -13 13 -29 9 -34 -3 -6 -1 -20
5 -31 18 -33 28 -108 17 -119 -7 -7 1 -8 25 -5 42 7 98 -18 98 -44 0 -37 -26
-56 -73 -57 -25 0 -43 2 -41 4 2 2 -3 12 -12 22 -9 10 -14 27 -11 39 3 11 1
18 -4 14 -5 -3 -9 -18 -9 -34 0 -24 -3 -28 -17 -23 -10 4 -21 11 -25 17 -4 5
-23 10 -42 10 -40 0 -42 3 -22 29 8 10 12 27 9 38 -5 18 -2 19 37 14 23 -3 54
-8 68 -11 27 -6 27 -6 5 10 -20 15 -56 98 -47 110 2 3 1 4 -2 2 -3 -3 -16 7
-29 22 -19 23 -21 28 -8 37 25 19 53 15 69 -10z m-269 -207 c15 -7 33 -18 40
-24 7 -6 31 -15 55 -18 40 -6 45 -11 71 -61 15 -30 27 -61 27 -68 0 -17 -26
-42 -32 -30 -8 21 -72 55 -108 59 -22 2 -57 11 -77 19 -27 12 -62 15 -120 13
-46 -2 -83 -6 -83 -9 0 -4 -9 -9 -20 -12 -31 -8 -24 19 8 31 15 6 53 13 84 17
42 5 56 10 52 20 -3 8 -12 11 -20 8 -20 -8 -17 10 7 41 23 29 68 35 116 14z
m485 -22 c19 -4 26 -11 22 -21 -7 -17 11 -21 21 -5 4 6 26 8 53 5 26 -3 70 -7
97 -9 36 -3 49 -8 46 -18 -2 -7 -4 -19 -4 -26 0 -10 -9 -12 -28 -8 -17 3 -29
0 -32 -7 -4 -10 -29 -11 -108 -4 -92 7 -137 12 -147 16 -2 0 4 8 12 17 9 8 16
28 16 44 0 19 4 28 13 26 6 -3 24 -7 39 -10z m447 -76 c10 -5 34 -11 55 -13
20 -2 39 -7 43 -10 3 -4 15 -7 25 -7 37 0 8 -17 -40 -24 -27 -3 -74 -20 -103
-36 -60 -33 -77 -35 -126 -18 -27 10 -33 17 -33 41 0 23 4 28 18 25 10 -3 43
7 73 23 62 32 64 32 88 19z"/>
<path d="M2805 1520 c-3 -5 7 -13 22 -17 l28 -7 -25 -7 c-36 -10 -59 -9 -35 1
11 5 14 9 7 9 -7 1 -27 -6 -43 -15 -17 -8 -37 -13 -45 -10 -8 3 -14 1 -14 -4
0 -5 -9 -12 -20 -15 -11 -4 -18 -11 -15 -16 8 -13 45 -11 45 2 0 6 12 8 33 5
19 -4 25 -3 14 2 -13 5 5 12 60 21 43 7 101 20 130 28 45 12 59 12 108 -1 94
-24 89 -37 -16 -42 -43 -2 -78 -9 -88 -18 -9 -7 -39 -26 -68 -40 -44 -24 -57
-26 -90 -18 -47 12 -73 12 -73 -1 0 -5 -15 -6 -33 -3 -18 3 -36 3 -40 -1 -4
-3 -48 -8 -99 -9 -66 -2 -95 -7 -107 -18 -14 -15 -12 -16 14 -16 17 0 50 5 75
11 25 6 107 11 182 13 76 1 141 5 144 9 26 26 127 61 189 66 59 5 71 9 80 28
7 18 15 21 40 16 16 -3 37 -12 46 -19 36 -32 89 -8 88 39 -1 30 -2 30 -8 7 -4
-14 -18 -30 -31 -37 -22 -11 -26 -9 -43 17 -17 27 -22 29 -63 23 -28 -4 -49
-1 -59 7 -8 7 -24 10 -35 7 -11 -3 -23 -1 -26 4 -3 5 -29 9 -57 9 -40 0 -48
-3 -37 -11 11 -8 5 -9 -25 -5 -27 4 -35 2 -25 -4 12 -8 12 -10 -5 -10 -11 0
-31 3 -45 7 l-25 7 25 7 25 7 -27 1 c-15 1 -30 -3 -33 -9z"/>
<path d="M3163 1370 c-58 -33 -185 -71 -235 -69 l-33 1 34 8 c56 13 82 32 79
54 -4 25 -10 24 -111 -17 -70 -28 -78 -34 -75 -56 2 -13 -2 -26 -8 -28 -6 -2
-9 7 -7 24 6 44 -9 56 -68 55 -30 0 -65 -4 -79 -10 -19 -7 -7 -8 45 -5 69 5
70 5 45 -13 -14 -10 -27 -21 -30 -26 -3 -4 -21 -14 -40 -22 -39 -16 -73 -52
-75 -78 -2 -24 -15 -36 -15 -15 0 9 -3 17 -7 17 -11 -1 -103 -140 -93 -140 5
0 12 4 15 10 4 6 16 3 32 -7 26 -17 26 -17 21 4 -4 16 -2 20 9 16 13 -5 13 -3
2 15 l-14 22 -12 -23 c-8 -14 -12 -16 -12 -7 0 8 10 28 24 44 18 23 27 27 37
18 9 -7 19 -8 28 -2 10 7 11 10 3 10 -7 0 -13 5 -13 11 0 5 5 7 10 4 6 -3 13
1 16 9 5 14 8 14 30 -1 26 -17 30 -43 13 -92 -16 -46 -3 -50 16 -5 9 21 15 54
13 74 -2 28 -9 38 -35 50 -18 8 -33 21 -33 28 0 8 5 10 13 5 6 -4 19 -8 27 -9
44 -3 50 -5 50 -15 0 -5 -4 -7 -10 -4 -5 3 -10 2 -10 -4 0 -20 21 -22 27 -3 6
24 28 23 47 -4 12 -15 17 -17 27 -6 10 9 10 12 1 12 -6 0 -11 11 -10 25 2 17
7 24 18 22 8 -2 14 -8 13 -14 -3 -13 29 -6 67 14 14 7 33 13 43 13 9 0 17 6
17 13 0 9 2 9 8 0 5 -8 13 -9 22 -3 20 13 43 13 35 0 -3 -5 -2 -10 4 -10 6 0
15 9 21 21 7 11 14 18 17 15 3 -3 0 -12 -6 -20 -8 -10 -9 -16 -1 -21 5 -3 10
-2 10 2 0 5 7 18 16 29 8 10 13 13 9 7 -3 -7 -4 -13 0 -13 3 0 10 12 16 28 6
15 13 22 16 15 3 -7 15 0 32 19 15 17 38 32 51 33 13 1 26 7 28 13 6 20 -20
13 -75 -18z"/>
<path d="M5064 968 c9 -13 21 -35 27 -50 6 -16 15 -28 20 -28 5 0 9 -7 9 -15
0 -8 4 -15 9 -15 12 0 100 -79 112 -102 10 -18 9 -19 -13 -9 -20 10 -21 10 -4
-1 82 -55 145 -165 148 -255 1 -27 6 -54 11 -60 6 -8 5 -24 -2 -44 -6 -18 -11
-44 -10 -58 1 -19 5 -12 16 24 21 73 23 78 28 73 2 -2 -2 -25 -10 -50 -12 -43
-12 -47 3 -51 15 -4 15 -5 1 -6 -17 -1 -34 -29 -24 -39 2 -3 38 -7 80 -10 46
-3 75 -9 75 -16 0 -7 18 -10 50 -8 44 4 49 2 44 -13 -6 -15 -4 -16 14 -6 11 6
32 11 46 11 20 0 24 -4 19 -18 -6 -15 -5 -15 10 -3 13 10 32 12 72 7 46 -5 54
-4 49 9 -4 10 0 15 12 15 9 0 14 3 11 7 -4 3 0 15 10 25 24 27 0 22 -26 -6
-27 -29 -106 -42 -95 -16 4 8 8 26 11 40 3 21 1 20 -14 -9 -15 -28 -24 -34
-55 -36 -26 -1 -35 2 -30 9 4 6 13 23 20 39 9 21 9 27 -1 27 -7 0 -17 -15 -22
-32 -9 -31 -13 -33 -58 -33 -39 -1 -46 2 -41 15 4 8 8 29 8 45 1 21 8 33 24
40 16 7 22 18 22 40 0 50 12 60 48 41 44 -22 53 -20 16 5 -24 15 -31 25 -27
40 6 22 -11 39 -37 38 -8 0 -4 -5 9 -10 l23 -9 -26 -21 c-15 -12 -26 -30 -26
-44 0 -31 -19 -72 -35 -79 -25 -9 -53 6 -85 45 -23 29 -38 39 -60 39 -28 0
-45 20 -17 20 14 1 57 35 57 46 0 4 -5 3 -12 -4 -19 -19 -30 -14 -18 7 15 29
12 34 -9 14 -10 -10 -21 -27 -24 -38 -3 -15 -5 -13 -6 8 -3 81 -104 244 -209
337 l-57 50 25 20 c82 65 200 14 281 -122 44 -73 70 -94 29 -23 -22 38 -40 75
-40 82 0 7 -6 13 -14 13 -7 0 -21 11 -30 25 -23 35 -66 54 -135 62 -59 6 -121
-8 -121 -28 0 -5 -4 -9 -10 -9 -5 0 -10 7 -10 15 0 20 -29 65 -42 65 -6 0 -3
-10 6 -22z"/>
<path d="M2214 531 c-32 -20 -74 -71 -74 -90 0 -7 -11 -24 -25 -39 -14 -15
-25 -31 -25 -37 0 -5 -16 -20 -36 -33 -19 -12 -38 -30 -41 -40 -4 -9 -28 -36
-53 -59 -37 -33 -46 -48 -45 -72 1 -16 7 -37 14 -45 18 -21 -3 -21 -24 0 -10
10 -13 24 -9 36 4 14 2 18 -5 14 -6 -4 -11 -18 -11 -31 0 -17 14 -33 56 -60
55 -37 79 -41 53 -8 -9 11 -10 14 -1 9 6 -4 12 -2 12 3 0 6 -12 11 -27 11 -14
0 -23 3 -20 7 4 3 3 11 -2 17 -12 16 -20 56 -11 56 4 0 13 13 19 30 5 16 15
30 21 30 6 0 8 -6 4 -12 -8 -13 4 -3 79 65 43 38 96 55 109 35 4 -7 6 -19 3
-26 -3 -7 0 -10 5 -7 6 4 19 -13 30 -37 20 -46 75 -106 87 -95 3 4 1 7 -5 7
-24 0 -11 19 16 23 19 3 14 4 -16 6 -39 1 -44 4 -61 38 -38 83 -62 113 -89
113 -25 0 -24 2 20 45 40 39 44 45 25 45 -20 1 -19 3 11 30 18 17 28 30 22 30
-5 0 -10 5 -10 10 0 6 13 10 29 10 16 0 31 5 33 12 8 23 38 -2 69 -57 21 -38
36 -54 46 -51 8 3 11 1 8 -4 -3 -6 -2 -10 4 -10 5 0 12 -18 16 -40 5 -30 2
-45 -12 -64 -24 -34 -61 -34 -69 -1 -4 14 -9 24 -12 21 -9 -10 20 -65 36 -69
10 -3 -3 -5 -27 -6 l-44 -1 26 -20 c30 -24 49 -26 41 -5 -4 9 0 15 10 15 9 0
16 4 16 9 0 5 8 11 18 13 20 6 24 17 23 78 0 90 -6 148 -13 144 -4 -3 -8 -12
-8 -19 0 -26 -27 -5 -59 46 -28 42 -37 49 -64 49 -18 0 -46 -9 -63 -19z"/>
</g>
</svg>
