<?xml version="1.0" standalone="no"?>
<!DOCTYPE svg PUBLIC "-//W3C//DTD SVG 20010904//EN"
 "http://www.w3.org/TR/2001/REC-SVG-20010904/DTD/svg10.dtd">
<svg version="1.0" xmlns="http://www.w3.org/2000/svg"
 width="1200.000000pt" height="630.000000pt" viewBox="0 0 1200.000000 630.000000"
 preserveAspectRatio="xMidYMid meet">
<metadata>
Created by potrace 1.16, written by Peter Selinger 2001-2019
</metadata>
<g transform="translate(0.000000,630.000000) scale(0.100000,-0.100000)"
fill="#000000" stroke="none">
<path d="M4437 5700 c-156 -40 -277 -177 -362 -410 -49 -136 -85 -292 -121
-525 -31 -201 -35 -244 -29 -340 11 -195 54 -590 69 -632 8 -22 39 -155 70
-294 l55 -254 51 -640 c28 -352 53 -650 56 -662 3 -16 12 -23 28 -23 18 0 47
25 112 98 159 177 327 400 376 497 21 41 55 177 63 250 4 33 20 125 37 205 22
103 31 171 31 235 -1 89 -2 93 -71 255 -277 655 -449 1265 -428 1517 11 135
73 254 160 303 64 37 148 41 234 9 31 -11 64 -23 73 -26 12 -3 38 26 93 102
42 59 76 110 76 114 0 10 -144 113 -207 148 -118 66 -271 97 -366 73z"/>
<path d="M5078 5393 c-102 -128 -168 -240 -168 -287 0 -19 17 -39 68 -80 72
-58 130 -116 180 -183 32 -41 72 -165 72 -222 0 -17 18 -45 49 -81 l49 -55 29
28 c51 48 108 54 177 20 42 -22 125 -101 156 -151 l28 -42 25 43 c25 41 85
103 137 140 l25 18 -107 105 c-68 65 -108 112 -108 124 0 11 -8 23 -17 26 -10
3 -47 19 -82 36 -81 40 -164 121 -230 223 -49 77 -69 121 -126 273 -28 75 -67
132 -90 132 -7 0 -37 -30 -67 -67z"/>
<path d="M4610 5145 c0 -9 22 -43 48 -78 68 -87 180 -247 240 -344 59 -94 126
-222 120 -229 -3 -2 -31 36 -64 84 -63 93 -244 334 -294 392 l-30 34 0 -26 c0
-48 40 -262 76 -408 64 -259 141 -435 240 -550 141 -163 168 -210 269 -465 73
-187 203 -448 280 -565 95 -143 212 -248 355 -320 98 -49 255 -106 350 -126
152 -32 396 -20 515 26 l30 12 -40 16 c-73 28 -147 83 -249 182 -86 83 -113
119 -180 232 -44 73 -81 135 -83 137 -10 13 -25 -23 -30 -72 -7 -66 21 -134
69 -168 36 -26 24 -39 -38 -39 -98 0 -212 70 -255 158 -19 39 -28 49 -32 38
-10 -24 -69 -46 -125 -46 -59 0 -102 29 -162 109 -70 93 -107 185 -160 401
-71 288 -112 382 -227 523 -61 75 -180 169 -259 206 l-52 23 -7 70 c-19 202
-104 381 -215 454 -37 25 -51 44 -32 44 4 0 31 -20 59 -45 117 -102 205 -294
225 -488 3 -24 12 -32 62 -52 126 -51 264 -174 365 -325 65 -97 96 -160 135
-270 l26 -75 81 -49 c44 -26 77 -52 72 -56 -4 -4 -33 -16 -63 -26 l-55 -18 62
-7 c69 -8 95 -19 137 -58 l29 -26 -6 60 c-2 33 -17 89 -32 125 -15 36 -34 80
-42 98 -16 39 -17 39 72 -24 108 -76 127 -103 165 -229 l18 -60 1 145 c1 132
-1 149 -23 196 -13 28 -52 79 -90 117 -46 46 -61 67 -49 67 10 -1 29 -7 43
-15 53 -30 71 -7 19 24 -18 11 -90 86 -161 168 -130 148 -1086 1133 -1100
1133 -5 0 -8 -7 -8 -15z"/>
<path d="M5730 4976 c0 -13 41 -151 58 -194 4 -12 -3 -13 -35 -7 -46 7 -66 -8
-33 -25 11 -6 62 -16 113 -21 90 -10 179 -30 206 -48 21 -14 4 -47 -55 -106
-30 -30 -54 -57 -54 -60 0 -9 94 -53 149 -69 79 -23 118 -20 218 19 172 66
328 66 588 0 167 -42 295 -90 466 -176 118 -60 145 -78 198 -134 116 -125 77
-126 -221 -8 -65 26 -121 43 -125 40 -3 -4 10 -58 31 -120 l37 -113 133 -27
c73 -14 158 -36 189 -47 119 -45 264 -164 311 -258 14 -28 26 -54 26 -56 0 -3
-28 24 -63 60 -35 35 -68 64 -75 64 -6 0 5 -26 25 -57 57 -90 130 -252 148
-328 16 -69 50 -140 79 -164 26 -22 39 30 33 134 -11 186 -127 525 -235 681
-44 64 -127 148 -210 212 -130 101 -385 239 -562 305 -125 47 -602 167 -915
231 l-250 52 -52 79 c-82 127 -102 155 -113 155 -5 0 -10 -7 -10 -14z m499
-302 c135 -28 161 -37 161 -58 0 -7 -39 -41 -86 -75 -78 -55 -92 -61 -136 -61
-54 0 -135 18 -144 31 -3 5 18 37 45 71 54 67 62 91 34 107 -26 15 -13 14 126
-15z m1459 -610 c32 -69 3 -89 -112 -80 -45 3 -91 9 -104 12 -21 6 -22 5 -11
-20 7 -14 10 -28 8 -31 -10 -9 -84 17 -115 40 -27 21 -73 109 -62 120 2 2 44
-11 93 -30 228 -85 321 -81 264 12 l-22 36 25 -17 c14 -9 30 -28 36 -42z"/>
<path d="M5904 4490 c-12 -5 -50 -35 -84 -67 -55 -51 -63 -63 -67 -104 -5 -44
-3 -47 34 -77 49 -38 127 -149 181 -258 52 -103 57 -107 126 -99 34 5 75 2
107 -5 47 -11 54 -11 88 8 94 53 235 66 365 32 109 -28 179 -83 257 -202 19
-29 42 -44 106 -72 45 -20 94 -36 109 -36 15 0 69 14 121 30 114 37 146 37
209 4 71 -38 232 -152 243 -172 5 -9 12 -57 15 -107 11 -144 13 -150 62 -197
25 -24 60 -72 77 -108 28 -57 32 -74 31 -145 -1 -50 -7 -94 -17 -119 -10 -21
-17 -44 -17 -50 0 -6 25 -39 56 -73 59 -67 89 -78 103 -40 9 24 61 378 61 414
0 13 -21 46 -50 78 -56 62 -90 123 -115 209 -57 200 -224 425 -367 495 -77 38
-211 64 -288 57 -30 -3 -94 -1 -142 3 l-87 8 -69 64 c-136 125 -242 171 -437
190 l-126 12 -21 41 c-35 70 -78 122 -116 143 -53 29 -136 46 -196 40 l-52 -5
-38 59 c-21 32 -39 59 -40 58 0 0 -11 -4 -22 -9z m711 -395 c101 -26 238 -99
284 -151 23 -26 41 -51 41 -56 0 -5 -19 3 -42 17 -124 76 -287 149 -423 191
l-80 25 80 -5 c44 -3 107 -12 140 -21z"/>
<path d="M6462 4452 c-10 -7 -3 -11 25 -16 66 -11 111 -36 124 -69 11 -27 10
-35 -13 -79 -14 -26 -23 -48 -19 -48 3 0 38 9 76 20 150 44 294 34 427 -28 48
-22 73 -28 105 -25 32 4 64 -4 135 -31 51 -20 100 -36 108 -36 8 0 -2 17 -25
41 -100 103 -277 198 -455 244 -91 24 -130 28 -290 32 -104 2 -191 0 -198 -5z"/>
<path d="M6450 3759 c0 -4 11 -29 25 -55 14 -26 25 -55 25 -64 0 -14 25 -22
133 -44 72 -14 135 -26 140 -26 4 0 7 22 7 49 l0 50 -57 16 c-32 9 -106 31
-165 49 -60 19 -108 30 -108 25z"/>
<path d="M6817 3643 c-13 -12 -7 -78 11 -112 9 -19 37 -49 62 -66 43 -30 46
-34 60 -110 l15 -78 92 -18 c298 -61 569 -222 726 -431 l36 -48 13 38 c7 20
13 73 13 117 l0 80 -48 62 c-26 34 -58 70 -72 81 -34 27 -43 57 -50 164 -4 51
-8 103 -11 115 -3 16 -43 49 -127 105 -118 80 -124 83 -177 82 -30 -1 -91 -14
-135 -29 -96 -32 -122 -30 -272 20 -108 36 -125 40 -136 28z"/>
<path d="M6502 3523 c-13 -63 -34 -90 -105 -132 -45 -27 -49 -41 -45 -151 4
-102 9 -106 94 -55 91 55 201 86 324 92 157 6 154 5 147 61 -4 38 -11 51 -40
75 -20 15 -51 49 -70 75 l-34 47 -104 18 c-57 10 -115 21 -129 23 -24 5 -26 2
-38 -53z"/>
<path d="M6830 3083 c-55 -9 -55 -12 1 -70 150 -154 333 -208 515 -152 l69 21
-58 53 c-113 103 -258 156 -416 154 -47 -1 -97 -4 -111 -6z"/>
<path d="M5593 2474 c3 -11 17 -49 31 -86 45 -120 59 -215 53 -372 -4 -114
-10 -158 -31 -231 -76 -253 -235 -453 -462 -580 l-87 -49 -118 -241 -118 -240
41 -42 40 -41 42 14 c22 8 77 30 121 49 115 49 399 160 486 189 189 63 441 90
638 67 133 -16 253 -47 411 -105 174 -65 260 -86 370 -93 153 -8 291 35 359
113 34 38 158 280 194 379 112 303 91 474 -77 638 -94 92 -206 187 -406 342
-91 70 -183 145 -206 167 l-41 39 -59 -20 c-102 -34 -221 -44 -444 -38 -262 8
-356 26 -580 109 -52 20 -110 39 -129 43 -30 6 -33 5 -28 -11z"/>
</g>
</svg>
