<?xml version="1.0" standalone="no"?>
<!DOCTYPE svg PUBLIC "-//W3C//DTD SVG 20010904//EN"
 "http://www.w3.org/TR/2001/REC-SVG-20010904/DTD/svg10.dtd">
<svg version="1.0" xmlns="http://www.w3.org/2000/svg"
 width="270.000000pt" height="260.000000pt" viewBox="0 0 270.000000 260.000000"
 preserveAspectRatio="xMidYMid meet">
<metadata>
Created by potrace 1.16, written by Peter Selinger 2001-2019
</metadata>
<g transform="translate(0.000000,260.000000) scale(0.100000,-0.100000)"
fill="#000000" stroke="none">
<path d="M1513 2548 c-48 -53 -68 -129 -65 -248 2 -90 -28 -151 -108 -220 -33
-29 -63 -50 -66 -47 -12 12 11 61 37 76 33 18 34 21 15 46 -12 17 -15 16 -51
-16 -20 -19 -45 -50 -55 -70 -18 -34 -20 -35 -73 -34 -49 0 -58 4 -91 37 -31
31 -36 42 -36 82 0 25 9 69 20 98 16 42 20 77 20 168 0 132 -7 151 -41 128
-22 -14 -24 -22 -25 -131 -1 -99 -5 -121 -23 -152 -22 -39 -30 -138 -11 -150
5 -3 10 -15 10 -26 0 -28 -45 -25 -76 6 -14 14 -36 28 -49 31 -14 3 -25 10
-25 14 0 5 -18 25 -40 46 -22 21 -37 40 -35 43 8 7 -26 41 -42 41 -7 0 -13 6
-13 13 0 13 -56 67 -70 67 -21 0 -18 -21 5 -47 13 -15 30 -34 36 -42 7 -7 22
-35 35 -61 13 -27 39 -61 59 -77 20 -15 44 -41 55 -58 11 -16 27 -41 37 -54
16 -22 12 -21 -48 12 -36 21 -80 37 -97 37 -43 0 -110 38 -159 91 l-42 44 -84
3 c-70 3 -91 0 -126 -17 -22 -12 -41 -28 -41 -36 0 -14 3 -14 30 0 40 21 73
19 95 -5 13 -14 31 -20 60 -20 28 0 47 -6 59 -19 35 -38 -10 -71 -109 -77 -68
-5 -115 -21 -115 -38 0 -7 -14 -34 -32 -60 -30 -46 -31 -50 -19 -90 7 -22 12
-58 12 -79 -1 -21 2 -36 8 -33 10 7 36 84 45 138 12 67 85 97 153 63 17 -9 44
-15 60 -15 56 1 125 -25 171 -65 36 -31 28 -56 -30 -100 -29 -21 -67 -51 -83
-67 -25 -22 -39 -27 -70 -25 -49 3 -57 -25 -10 -33 17 -3 30 -10 30 -17 0 -16
-130 -83 -160 -83 -28 0 -35 -27 -10 -36 16 -6 140 9 167 21 30 12 21 -21 -13
-49 -32 -27 -34 -56 -4 -56 19 0 19 -19 0 -44 -16 -21 -55 -23 -278 -11 -109
6 -131 5 -152 -9 -33 -22 -31 -35 5 -43 l30 -6 -25 -23 c-14 -13 -25 -27 -25
-32 0 -13 64 2 93 21 21 13 23 13 23 -4 0 -13 -14 -24 -46 -35 -92 -33 -100
-37 -100 -50 0 -7 10 -16 23 -19 39 -12 97 -57 97 -76 0 -35 35 -31 109 13 40
24 82 48 93 54 11 7 35 28 54 48 29 30 43 37 100 46 37 6 72 13 78 16 6 3 1
-3 -11 -14 -43 -38 -23 -40 62 -9 29 11 41 22 47 43 10 39 41 57 51 30 4 -9
-16 -37 -51 -71 -49 -48 -61 -55 -86 -50 -25 4 -28 3 -23 -17 4 -15 -2 -33
-18 -53 l-24 -32 -63 17 c-35 9 -71 20 -81 25 -12 5 -22 2 -32 -11 -21 -27
-18 -42 8 -50 12 -3 50 -24 84 -46 l62 -40 -23 -37 c-19 -28 -29 -35 -49 -33
-56 6 -43 -45 14 -54 49 -8 50 -19 2 -31 -49 -11 -57 -41 -14 -49 38 -8 41
-13 46 -67 5 -54 28 -100 80 -159 57 -63 60 -87 24 -174 -31 -73 -53 -94 -104
-94 -13 0 -40 -11 -59 -24 -39 -26 -91 -84 -84 -92 8 -7 96 14 128 31 l29 15
-6 -36 c-6 -35 -5 -36 18 -29 13 4 35 15 49 25 20 14 36 16 73 10 26 -4 55
-14 66 -24 23 -21 36 -8 46 47 4 20 11 40 16 43 5 3 10 35 10 72 1 37 3 59 6
49 6 -22 23 -12 23 14 0 11 -5 17 -10 14 -6 -4 -10 5 -10 21 0 15 -5 44 -12
65 -10 35 -9 42 10 62 11 12 22 33 24 47 3 23 8 25 55 28 45 3 55 -1 87 -28
46 -41 75 -48 192 -49 110 -1 201 17 275 54 l50 26 26 -21 c30 -24 77 -26 117
-5 39 21 44 19 60 -19 17 -42 38 -68 100 -128 44 -44 48 -51 42 -82 -4 -19 -1
-75 5 -123 7 -48 12 -100 12 -115 0 -15 3 -25 7 -23 5 3 13 -9 19 -25 12 -35
18 -37 45 -11 28 26 103 31 136 9 14 -9 38 -20 54 -24 29 -7 29 -7 23 29 l-6
37 37 -19 c40 -20 122 -36 122 -24 -2 32 -114 113 -156 113 -48 0 -81 29 -104
91 -25 65 -27 105 -11 165 6 23 12 79 13 125 2 72 -1 90 -21 125 -23 41 -23
43 -8 109 9 37 13 73 10 81 -3 8 2 25 11 39 21 32 21 32 -12 49 -21 11 -31 26
-39 60 -10 43 -9 47 19 78 51 57 78 94 78 110 0 27 -27 28 -51 1 -24 -25 -70
-53 -88 -53 -19 0 -51 44 -45 62 4 14 0 18 -19 18 -15 0 -46 21 -87 60 -35 33
-71 62 -81 65 -17 6 -37 44 -28 55 2 3 28 6 57 8 45 3 52 0 52 -16 0 -10 9
-27 19 -36 11 -10 18 -23 15 -29 -3 -8 15 -13 56 -15 49 -2 67 2 93 20 18 13
35 28 40 35 24 38 41 45 86 39 25 -4 96 -10 158 -15 92 -8 121 -14 162 -36 43
-24 57 -26 98 -21 65 10 121 38 166 84 34 35 39 46 42 98 2 32 7 87 10 122 5
50 3 67 -9 81 -11 12 -16 41 -18 96 -1 66 -7 88 -35 144 -43 86 -92 149 -123
157 -36 10 -127 -12 -164 -39 -25 -20 -48 -25 -121 -30 -89 -6 -90 -6 -125
-45 -36 -40 -66 -53 -132 -56 -20 0 -40 -4 -44 -8 -4 -5 -21 -8 -38 -8 -29 0
-102 -17 -151 -34 -19 -7 -19 -7 -2 7 20 17 22 38 5 55 -22 22 -42 13 -102
-43 -32 -30 -60 -55 -62 -55 -3 0 -16 7 -30 16 -15 10 -50 18 -87 19 -77 3
-77 3 -77 15 0 6 16 18 35 27 36 17 46 33 20 33 -26 0 -17 18 27 52 53 41 148
138 148 151 0 5 14 26 30 47 17 21 30 41 30 44 0 16 -21 3 -52 -31 -63 -72
-128 -133 -140 -133 -6 0 -2 10 9 23 11 12 43 56 70 97 28 42 58 82 67 89 10
8 21 22 27 32 8 16 6 17 -20 8 -27 -10 -63 -39 -47 -39 3 0 -2 -8 -11 -18 -10
-9 -26 -29 -36 -42 -17 -24 -17 -22 -15 92 2 64 5 114 7 112 8 -8 49 70 44 83
-7 18 -17 16 -40 -9z m-763 -1004 c0 -9 9 -29 20 -45 20 -27 20 -30 5 -59 -10
-19 -33 -39 -58 -51 -50 -22 -71 -24 -85 -6 -13 16 6 48 50 85 15 13 33 39 40
57 13 36 28 47 28 19z"/>
</g>
</svg>
