<?xml version="1.0" standalone="no"?>
<!DOCTYPE svg PUBLIC "-//W3C//DTD SVG 20010904//EN"
 "http://www.w3.org/TR/2001/REC-SVG-20010904/DTD/svg10.dtd">
<svg version="1.0" xmlns="http://www.w3.org/2000/svg"
 width="500.000000pt" height="500.000000pt" viewBox="0 0 500.000000 500.000000"
 preserveAspectRatio="xMidYMid meet">
<metadata>
Created by potrace 1.16, written by Peter Selinger 2001-2019
</metadata>
<g transform="translate(0.000000,500.000000) scale(0.100000,-0.100000)"
fill="#000000" stroke="none">
<path d="M2798 4364 c-30 -16 -32 -19 -29 -79 2 -31 -113 -612 -122 -621 -1
-1 -26 2 -56 8 -62 11 -71 5 -71 -54 0 -41 37 -94 77 -109 12 -5 23 -14 23
-21 0 -7 -21 -119 -47 -248 -48 -243 -68 -460 -43 -460 28 0 72 139 129 412
32 153 61 281 63 284 3 2 32 -2 66 -10 l61 -14 10 31 c17 48 13 64 -27 107
-27 27 -47 40 -65 40 -19 0 -27 5 -27 18 0 10 24 152 54 316 35 193 60 304 70
315 23 25 20 54 -7 79 -27 26 -24 25 -59 6z"/>
<path d="M2202 3508 c-64 -135 -104 -270 -109 -374 -7 -109 4 -161 60 -293 34
-80 41 -110 45 -181 7 -142 -25 -214 -117 -262 l-53 -28 44 0 44 0 14 -52 13
-52 16 24 c9 14 46 54 83 89 48 45 78 85 103 134 62 124 46 193 -80 337 -84
96 -117 167 -123 263 -6 94 7 161 63 336 24 74 42 137 40 139 -2 2 -21 -34
-43 -80z"/>
<path d="M2766 3054 c-5 -19 4 -48 33 -108 45 -93 65 -166 56 -208 -4 -15 -22
-46 -41 -69 -39 -47 -40 -52 -15 -97 l17 -34 37 41 c64 71 82 116 82 206 0 69
-5 89 -32 147 -28 60 -100 148 -122 148 -5 0 -12 -12 -15 -26z"/>
<path d="M2445 2945 c-14 -34 -18 -80 -19 -212 l-1 -168 -42 -90 c-22 -49 -57
-135 -77 -190 -20 -55 -41 -107 -46 -115 -75 -116 -83 -156 -51 -240 25 -65
26 -91 6 -130 -19 -37 -59 -65 -113 -79 -37 -10 -41 -14 -32 -30 27 -52 110
-91 162 -78 11 3 36 0 54 -8 23 -9 71 -13 166 -11 193 3 222 23 239 162 11 88
24 124 68 184 33 46 47 96 36 131 -7 22 -9 21 -27 -14 -20 -40 -27 -44 -46
-25 -22 22 -13 76 24 143 20 36 34 68 32 71 -3 2 -21 -3 -41 -11 -44 -18 -77
-8 -125 38 -57 54 -66 81 -62 177 10 217 8 231 -31 285 -50 69 -63 114 -55
191 4 35 5 64 2 64 -2 0 -12 -20 -21 -45z"/>
<path d="M2706 2772 c-62 -122 -88 -320 -51 -393 45 -88 116 -125 149 -77 26
37 19 71 -40 186 -49 97 -56 118 -56 169 1 32 8 80 16 108 8 27 13 51 11 53
-2 2 -15 -19 -29 -46z"/>
<path d="M2258 2343 c-9 -10 -29 -45 -45 -78 -42 -89 -85 -88 -125 3 -10 23
-21 42 -23 42 -11 0 -35 -63 -35 -92 0 -60 9 -77 44 -80 27 -3 31 -6 28 -28
-2 -14 -4 -48 -5 -77 -2 -47 1 -55 32 -87 44 -45 59 -46 32 -2 -33 53 -28 115
14 170 44 58 69 108 90 180 18 63 17 75 -7 49z"/>
<path d="M1920 2302 c-83 -88 -56 -218 50 -238 l35 -7 -21 24 c-12 13 -27 34
-33 46 -16 31 -14 113 4 163 8 24 13 45 10 48 -3 3 -23 -13 -45 -36z"/>
<path d="M2870 2285 c0 -3 7 -32 16 -64 20 -70 14 -114 -22 -166 -14 -21 -24
-39 -22 -40 9 -10 61 11 83 32 50 51 52 136 4 197 -20 25 -59 53 -59 41z"/>
<path d="M2016 2027 c-25 -37 -25 -105 0 -148 23 -41 84 -74 119 -65 36 9 31
26 -21 76 -55 54 -66 73 -74 125 l-5 40 -19 -28z"/>
<path d="M2785 1900 c-56 -60 -57 -61 -50 -106 5 -35 2 -54 -14 -85 -11 -21
-17 -39 -12 -39 16 0 88 89 110 135 21 45 43 155 31 155 -4 0 -33 -27 -65 -60z"/>
<path d="M3045 1861 c-44 -11 -73 -29 -91 -56 -25 -39 -10 -48 68 -42 68 6
158 44 158 67 0 24 -85 44 -135 31z"/>
<path d="M2847 1779 c-18 -49 -73 -114 -142 -167 l-30 -23 59 5 c116 10 180
101 150 214 -9 33 -17 27 -37 -29z"/>
<path d="M3050 1713 c-19 -2 -42 -6 -50 -9 -13 -5 -13 -6 0 -14 28 -16 473
-180 477 -176 2 2 -21 31 -53 65 -66 71 -147 114 -244 130 -36 6 -72 10 -80 9
-8 -1 -31 -3 -50 -5z"/>
<path d="M1846 1684 c-22 -8 -55 -26 -73 -40 -42 -32 -98 -107 -84 -112 28 -9
291 136 291 160 0 13 -91 8 -134 -8z"/>
<path d="M2912 1658 c-7 -7 -12 -17 -12 -23 0 -12 840 -356 852 -349 14 9 -15
54 -46 73 -43 26 -216 104 -366 163 -126 51 -396 148 -409 148 -4 0 -12 -5
-19 -12z"/>
<path d="M2005 1593 c-43 -18 -285 -160 -424 -250 -101 -65 -284 -203 -278
-209 22 -23 465 212 756 401 68 44 73 49 56 61 -24 18 -61 17 -110 -3z"/>
<path d="M2785 1576 l-40 -12 45 -26 c25 -14 146 -82 270 -151 124 -69 279
-157 345 -196 65 -39 124 -70 130 -68 5 2 11 23 13 46 3 33 8 44 28 53 54 25
21 46 -291 181 -143 63 -290 130 -326 150 -71 40 -105 44 -174 23z"/>
<path d="M2025 1469 c-82 -55 -179 -125 -215 -154 -101 -84 -205 -184 -198
-191 9 -9 179 85 306 168 59 39 138 101 176 137 69 67 119 141 94 141 -7 0
-80 -45 -163 -101z"/>
<path d="M2233 1548 c-6 -7 -25 -42 -44 -78 -26 -49 -70 -101 -184 -215 -82
-83 -180 -177 -216 -210 -59 -54 -118 -139 -105 -152 2 -3 20 0 39 6 62 21
348 281 441 401 40 51 114 173 129 212 12 33 -39 63 -60 36z"/>
<path d="M2656 1551 c-8 -13 428 -456 464 -471 40 -16 60 0 60 48 0 31 -8 44
-56 88 -44 41 -399 306 -451 337 -6 4 -14 3 -17 -2z"/>
<path d="M2517 1543 c-10 -9 -8 -152 3 -248 5 -44 14 -141 21 -215 10 -125 13
-137 37 -159 24 -22 26 -22 39 -5 7 10 13 36 13 58 0 38 -19 292 -36 494 l-7
82 -32 0 c-17 0 -35 -3 -38 -7z"/>
<path d="M2387 1533 c-24 -42 -108 -336 -117 -409 -12 -109 -13 -184 -1 -184
10 0 27 48 107 285 67 202 87 284 72 302 -11 14 -54 18 -61 6z"/>
</g>
</svg>
