<?xml version="1.0" standalone="no"?>
<!DOCTYPE svg PUBLIC "-//W3C//DTD SVG 20010904//EN"
 "http://www.w3.org/TR/2001/REC-SVG-20010904/DTD/svg10.dtd">
<svg version="1.0" xmlns="http://www.w3.org/2000/svg"
 width="849.000000pt" height="1200.000000pt" viewBox="0 0 849.000000 1200.000000"
 preserveAspectRatio="xMidYMid meet">
<metadata>
Created by potrace 1.16, written by Peter Selinger 2001-2019
</metadata>
<g transform="translate(0.000000,1200.000000) scale(0.100000,-0.100000)"
fill="#000000" stroke="none">
<path d="M0 11189 c0 -767 1 -810 18 -805 9 3 69 15 132 26 166 29 264 47 299
55 20 4 31 3 31 -4 0 -6 -1 -11 -3 -11 -16 0 -312 -56 -384 -72 l-93 -21 0
-460 0 -459 58 6 c78 9 217 24 334 36 108 11 251 12 316 2 l43 -7 -70 -26
c-67 -25 -71 -26 -71 -8 0 25 -21 24 -122 -1 -72 -19 -81 -19 -92 -5 -9 12
-17 13 -46 5 -19 -6 -73 -20 -120 -30 -78 -18 -86 -18 -97 -3 -13 17 -52 15
-106 -6 l-27 -11 0 -659 0 -660 38 -11 c20 -5 62 -15 92 -21 l56 -11 2 -47 c1
-26 -4 -55 -11 -65 -12 -17 -17 -17 -58 -3 -24 8 -61 17 -81 21 l-38 7 0
-1113 0 -1112 30 -146 c52 -245 62 -291 93 -410 16 -63 34 -139 41 -169 12
-57 36 -82 36 -37 0 21 4 25 22 23 13 -1 28 -9 35 -17 10 -13 12 -13 19 3 5
14 9 15 14 6 6 -9 12 -8 25 4 9 10 21 15 26 12 5 -3 18 -1 30 5 11 7 31 14 44
16 20 4 24 -1 30 -34 8 -47 -23 -176 -53 -224 l-21 -32 44 -86 c61 -119 61
-119 23 -175 -18 -27 -37 -48 -43 -48 -14 2 -35 70 -42 136 -6 62 -26 84 -47
55 -16 -22 -66 -12 -66 13 0 20 -15 26 -25 9 -10 -15 -25 -12 -25 6 0 9 -7 14
-18 12 -19 -4 -33 42 -102 342 -72 315 -68 326 -69 -204 l-1 -468 37 7 c57 10
203 25 253 25 l45 -1 -27 -20 c-22 -16 -26 -26 -22 -49 4 -15 -3 -69 -15 -118
-12 -50 -32 -149 -46 -220 -29 -156 -63 -286 -105 -407 -43 -124 -68 -223 -58
-233 5 -5 1 -25 -7 -46 -16 -38 -13 -56 9 -56 8 0 23 -21 34 -48 11 -26 46
-99 77 -163 41 -87 58 -133 63 -180 7 -58 9 -64 30 -63 21 1 22 -2 22 -97 0
-86 2 -98 18 -103 33 -11 68 -60 81 -111 12 -50 11 -51 -40 -160 -29 -61 -62
-124 -75 -141 -28 -36 -29 -57 -19 -289 6 -145 5 -167 -14 -235 -11 -41 -29
-103 -38 -137 l-17 -63 -44 0 c-24 0 -41 -4 -37 -9 3 -5 1 -12 -5 -16 -6 -4
-8 -10 -5 -15 3 -5 1 -12 -5 -15 -8 -5 -7 -11 1 -21 9 -11 8 -14 -6 -14 -9 0
-15 -6 -13 -12 7 -19 -17 -38 -46 -38 -25 0 -26 -2 -26 -60 l0 -60 113 -1
c395 -5 595 -1 604 13 2 5 23 9 46 9 39 1 113 15 93 18 -12 1 34 41 48 41 6 0
5 4 -2 9 -10 6 -8 10 10 15 22 6 22 7 5 20 -17 13 -15 15 20 20 21 3 177 5
346 4 l308 -2 16 -30 c9 -17 40 -89 70 -161 30 -71 58 -134 62 -138 5 -5 46 3
92 16 243 74 462 115 704 132 87 7 93 6 185 -29 52 -20 129 -56 170 -80 41
-23 100 -53 130 -65 30 -13 212 -102 405 -197 343 -171 447 -234 511 -310 l20
-24 104 45 c58 25 114 52 125 59 40 27 215 96 277 111 71 17 204 20 241 6 17
-7 28 -21 32 -43 7 -32 9 -135 3 -172 -7 -42 20 -20 72 60 61 94 96 127 185
171 109 55 339 109 425 101 87 -9 75 17 -36 81 -72 42 -106 84 -102 130 l3 36
95 7 c52 4 210 2 351 -4 162 -7 267 -7 285 -1 70 22 1112 3 1394 -26 134 -14
249 -21 365 -22 55 0 145 -7 200 -14 149 -20 322 -28 424 -20 l91 7 0 29 c0
33 -5 34 -40 14 -35 -20 -64 -18 -85 5 -18 20 -17 20 53 20 71 0 72 0 72 26 0
19 -4 25 -15 21 -8 -4 -17 -2 -19 2 -12 19 -74 21 -143 4 -68 -15 -74 -15 -91
0 -16 15 -29 16 -98 7 -68 -9 -83 -8 -111 7 -27 14 -40 15 -92 6 -77 -15 -113
-6 -122 31 -4 15 -10 70 -12 122 -4 93 -4 95 -37 122 -32 27 -32 29 -22 75
l10 48 -39 26 -39 26 0 82 c0 45 3 84 6 88 7 7 52 -11 76 -31 20 -17 46 -3
152 81 110 88 114 90 166 64 44 -22 54 -31 171 -162 35 -38 76 -79 92 -89 27
-18 28 -20 11 -27 -25 -9 -46 3 -63 35 -14 25 -56 46 -93 46 -31 0 -15 -24 23
-33 23 -6 43 -21 62 -49 28 -39 29 -40 73 -33 36 5 55 1 99 -19 51 -23 55 -23
55 -7 0 13 -19 28 -57 47 -72 35 -240 199 -270 264 -11 25 -30 54 -42 64 -13
12 -21 31 -21 50 0 17 -7 51 -16 76 -20 55 -48 172 -64 260 -6 36 -20 97 -32
135 -18 60 -19 76 -9 116 13 50 4 88 -28 124 -10 11 -21 31 -24 45 -2 14 -14
72 -26 130 -12 58 -27 125 -35 150 -7 25 -24 108 -36 185 -12 77 -27 178 -35
226 -13 81 -12 89 11 168 13 46 21 88 17 95 -15 24 -88 121 -97 128 -11 8 -37
243 -30 273 2 11 1 25 -3 31 -9 12 -134 74 -150 74 -11 0 -23 32 -23 64 0 11
-45 62 -105 120 -103 98 -106 102 -112 153 -3 29 -4 53 -2 53 2 0 58 7 124 15
66 8 154 15 196 15 41 0 80 5 85 10 6 6 62 21 125 34 l114 24 50 -26 c49 -26
54 -26 230 -24 202 3 265 9 265 26 0 8 -61 10 -222 8 -219 -3 -224 -3 -270 21
l-47 24 -108 -23 c-59 -12 -119 -26 -133 -31 -14 -6 -61 -11 -105 -12 -44 -1
-124 -9 -177 -17 -137 -20 -138 -20 -138 16 0 17 3 30 8 30 4 0 18 9 32 19
l24 19 -37 18 c-40 19 -42 28 -37 121 2 40 0 43 -39 63 l-41 20 0 74 0 73 -39
17 c-36 17 -39 21 -45 69 -8 67 -8 209 0 367 l7 126 81 11 c45 6 88 14 96 17
13 5 22 -16 48 -107 41 -145 73 -308 66 -334 -4 -15 0 -23 15 -28 11 -3 24 -4
28 -2 5 3 26 8 48 11 22 4 47 9 56 11 12 4 24 -14 49 -81 19 -47 39 -88 45
-90 7 -3 49 13 94 35 45 22 87 41 92 43 5 2 -7 55 -25 118 -19 63 -49 171 -66
240 -17 69 -41 153 -54 187 l-24 61 49 48 c27 27 49 51 49 54 0 3 -24 21 -52
40 -63 42 -138 109 -138 122 0 6 -18 46 -40 89 -40 80 -48 113 -30 124 17 10
11 63 -8 77 -18 12 -39 68 -27 68 4 0 38 -28 77 -61 39 -34 96 -77 127 -97 85
-54 232 -166 271 -207 19 -20 52 -50 73 -67 l38 -30 43 16 c59 23 188 46 201
37 5 -4 45 -36 89 -69 43 -34 83 -62 87 -62 5 0 9 8 9 19 0 15 -103 104 -167
144 -16 10 -118 -8 -201 -34 l-63 -21 -64 59 c-89 79 -195 163 -287 226 -110
75 -244 193 -256 225 -11 33 -63 245 -59 247 1 0 36 18 78 38 41 21 90 52 107
70 29 29 34 44 46 131 7 53 17 101 22 105 25 22 133 101 138 101 3 0 6 -26 6
-57 1 -56 2 -59 40 -85 51 -36 109 -115 110 -151 0 -33 -26 -98 -43 -109 -20
-13 -100 -8 -127 7 -60 34 -68 3 -10 -37 46 -32 50 -55 18 -98 -15 -21 -18
-33 -11 -42 6 -7 16 -30 23 -51 14 -45 9 -54 -76 -146 -31 -34 -54 -64 -50
-68 13 -13 61 24 116 92 32 38 72 84 90 100 96 90 180 228 180 296 0 63 -120
329 -160 354 -16 10 -12 181 7 251 9 35 14 66 11 69 -4 4 -18 -1 -32 -10 -15
-10 -45 -18 -67 -19 -35 -1 -46 4 -69 33 -30 35 -50 98 -50 156 0 30 8 44 48
83 49 50 101 72 165 72 40 0 47 -11 47 -75 0 -50 16 -99 29 -91 4 3 19 33 31
67 36 94 101 124 170 77 53 -37 56 -48 31 -121 l-22 -66 22 -51 c12 -27 27
-50 34 -50 7 0 27 26 46 58 19 31 39 57 44 57 6 0 23 -9 37 -21 l27 -21 -19
-104 c-10 -57 -26 -121 -35 -143 -21 -50 -10 -60 44 -41 24 8 56 15 72 15 l29
0 0 223 0 223 -28 21 c-15 11 -41 27 -59 36 -25 13 -34 26 -39 55 -7 41 -105
306 -134 362 -44 87 -176 227 -312 333 -43 33 -80 67 -83 76 -4 13 -35 233
-35 249 0 3 10 -3 21 -14 22 -19 79 -129 79 -151 0 -21 21 -25 40 -8 15 13 31
16 65 13 55 -7 65 5 31 37 -46 42 -88 177 -63 202 15 15 135 43 189 43 30 0
41 -6 61 -32 14 -18 27 -42 31 -54 7 -23 -23 -120 -54 -171 -10 -18 -15 -35
-10 -38 5 -3 32 4 62 16 l53 21 27 -33 c31 -37 33 -45 18 -84 -5 -14 -14 -55
-20 -90 -6 -36 -20 -86 -32 -110 -28 -57 -17 -72 35 -50 21 8 64 18 97 22 41
4 60 10 60 19 0 20 -95 13 -151 -10 -14 -6 -14 -1 2 51 10 32 25 93 35 136 19
85 16 99 -33 151 -21 23 -30 26 -60 20 -29 -5 -35 -4 -31 7 39 109 40 114 29
154 -6 22 -24 55 -41 74 -31 33 -32 34 -103 29 -40 -3 -100 -13 -135 -23 -51
-15 -63 -22 -69 -43 -7 -30 10 -108 37 -164 11 -23 19 -42 17 -43 -1 -1 -15
-5 -32 -8 -28 -5 -31 -2 -54 50 -27 62 -66 113 -86 113 -7 0 -18 6 -24 14 -16
19 -243 18 -262 -1 -7 -7 -14 -48 -17 -91 l-4 -78 91 -107 c87 -102 91 -108
91 -154 0 -58 -23 -159 -52 -231 -18 -46 -28 -57 -71 -79 -52 -26 -207 -63
-262 -63 -24 1 -14 7 44 30 53 21 89 43 123 76 45 45 49 47 73 34 30 -16 34
-13 69 54 34 65 34 123 0 182 -14 24 -33 44 -42 44 -10 0 -43 -11 -75 -25
l-59 -24 6 32 c20 113 20 110 -25 198 -23 46 -49 92 -57 101 -14 16 -10 23 41
77 63 66 66 79 47 196 -6 37 -6 63 0 69 6 6 4 13 -6 21 -14 10 -14 14 2 41 24
42 12 78 -39 115 -36 26 -49 30 -88 27 -25 -3 -67 -15 -93 -28 -46 -23 -136
-109 -136 -129 0 -12 51 -40 90 -51 23 -6 22 -8 -23 -28 -26 -12 -61 -30 -76
-41 l-29 -21 -37 35 c-20 19 -40 35 -45 35 -9 0 6 49 30 101 9 19 18 25 31 22
16 -4 25 9 54 71 47 104 46 131 -7 183 -57 55 -136 103 -169 103 -28 0 -57
-31 -94 -102 -20 -39 -50 -55 -59 -31 -3 8 -6 30 -6 48 0 39 -34 131 -57 157
-8 9 -28 20 -44 23 -29 7 -50 23 -97 76 l-22 26 23 44 c14 24 35 69 47 101
l23 56 -49 59 c-43 51 -78 85 -106 104 -5 3 0 27 12 53 27 63 25 80 -9 129
-41 60 -70 83 -121 101 -59 20 -86 20 -94 -1 -7 -22 -76 -118 -76 -107 0 5 9
33 20 62 11 29 18 57 15 61 -2 5 1 25 8 45 l12 36 45 -31 c109 -73 179 -109
214 -109 55 0 288 -30 313 -40 23 -9 74 -109 109 -210 10 -30 28 -65 39 -76
11 -12 28 -33 38 -48 18 -26 19 -26 150 -26 196 -1 265 -22 365 -114 43 -39
52 -56 30 -56 -7 0 -26 -16 -42 -36 l-29 -37 -19 51 c-18 49 -21 51 -83 72
-69 23 -196 31 -272 17 -40 -7 -43 -6 -43 16 0 28 -17 47 -42 47 -24 0 -31
-20 -18 -54 5 -15 13 -57 16 -94 8 -78 4 -74 212 -199 189 -112 272 -175 422
-319 30 -29 66 -58 80 -63 14 -6 36 -20 50 -31 18 -14 58 -24 135 -35 187 -27
378 -80 409 -113 25 -29 71 -138 116 -282 56 -176 54 -172 58 -120 2 34 -9 80
-44 180 -65 189 -98 248 -150 271 -67 30 -220 68 -359 90 -102 16 -136 25
-162 44 -17 14 -36 25 -42 25 -5 0 -48 35 -94 78 -123 114 -223 192 -329 257
-222 136 -256 159 -250 169 4 6 7 29 7 50 0 48 13 54 125 55 75 1 141 -10 192
-30 30 -12 48 -53 48 -110 0 -21 4 -40 9 -44 6 -3 28 19 50 49 22 30 45 57 51
61 14 8 49 -11 92 -52 33 -32 58 -37 58 -13 0 18 -192 209 -241 241 -68 43
-102 50 -273 58 l-149 6 -38 55 c-21 30 -44 71 -50 90 -15 47 -75 170 -94 194
-8 11 -27 20 -42 21 -169 14 -343 40 -376 56 -44 23 -177 108 -177 114 0 2 5
15 11 29 14 29 4 60 -45 143 -28 48 -34 53 -76 59 -81 12 -87 17 -92 75 -6 58
-4 55 -128 142 -170 119 -336 207 -375 200 -51 -10 -157 -50 -230 -86 -59 -29
-289 -120 -357 -140 -11 -4 -72 69 -98 118 -14 26 -62 94 -108 151 -86 107
-161 170 -238 200 -41 16 -48 16 -116 -1 -109 -26 -178 -57 -286 -128 -110
-72 -167 -122 -157 -137 4 -6 -5 -24 -18 -40 -23 -26 -56 -89 -71 -133 -6 -17
-7 -17 -35 -1 -15 9 -57 41 -92 71 -35 30 -90 71 -122 91 -71 43 -88 74 -112
199 -19 101 -17 124 13 116 16 -4 27 9 59 70 l39 75 -49 51 c-48 50 -67 61
-67 40 0 -24 -121 -135 -214 -198 -74 -49 -103 -74 -113 -100 -8 -18 -24 -46
-35 -62 -12 -16 -22 -41 -23 -56 -1 -15 -18 -84 -38 -153 -21 -68 -37 -129
-37 -136 0 -14 -152 -246 -192 -292 -15 -18 -40 -56 -54 -84 l-26 -51 21 -42
c37 -75 132 -349 147 -425 23 -122 21 -136 -26 -160 -22 -11 -68 -38 -102 -61
-78 -50 -76 -38 -70 -372 4 -214 3 -249 -10 -265 -9 -9 -31 -52 -48 -94 -18
-43 -36 -78 -40 -78 -3 0 -20 15 -36 33 -16 17 -55 52 -86 77 -43 35 -61 57
-77 98 -11 28 -18 58 -16 65 4 12 -18 28 -165 115 -184 110 -199 121 -206 161
-3 20 -14 72 -25 117 l-19 81 35 154 c45 193 67 296 101 474 21 110 31 144 47
157 16 12 18 19 10 30 -9 10 -9 31 0 81 10 63 13 68 34 63 12 -4 24 -2 27 3 4
5 28 4 59 -4 78 -20 145 -27 151 -17 3 5 8 27 12 50 6 39 5 41 -22 47 -16 4
-74 18 -129 32 -226 55 -475 97 -545 92 -44 -4 -45 -5 -48 -41 l-3 -36 78 -17
c109 -23 143 -35 143 -48 0 -7 -7 -44 -15 -82 -9 -39 -20 -95 -25 -125 -9 -57
-61 -294 -81 -367 l-11 -42 -33 39 c-20 25 -38 59 -44 90 -6 28 -18 67 -27 88
-22 51 -53 148 -65 202 -9 43 -99 331 -106 339 -1 2 -14 -1 -27 -7 -24 -11
-25 -12 -12 -54 8 -24 22 -72 31 -108 10 -36 24 -87 31 -115 8 -27 28 -104 45
-170 18 -66 38 -132 46 -147 25 -51 -1 -28 -52 44 -78 111 -213 273 -342 409
-34 37 -47 62 -62 115 -85 317 -150 585 -191 788 -66 327 -71 346 -88 346 -11
0 -12 -7 -7 -27 4 -16 33 -156 66 -313 87 -425 207 -888 235 -903 8 -5 29 -25
47 -45 18 -20 52 -59 78 -87 75 -83 190 -226 264 -328 39 -53 76 -97 83 -97
16 0 15 41 -2 87 -21 53 -66 207 -81 273 -7 30 -24 95 -38 143 -13 49 -21 85
-17 80 9 -9 61 -180 79 -258 7 -27 27 -91 46 -141 18 -49 37 -107 41 -128 4
-23 25 -60 51 -93 l44 -54 -15 -82 c-9 -45 -18 -99 -21 -119 -3 -21 -7 -38 -9
-38 -2 0 -48 11 -102 24 -54 13 -137 31 -184 40 -226 43 -356 67 -475 86 -72
12 -143 24 -159 27 -26 5 -28 4 -21 -18 4 -13 10 -27 14 -31 7 -8 114 -29 371
-73 214 -37 340 -61 447 -85 l95 -22 -7 -47 c-4 -25 -8 -47 -10 -49 -1 -2 -63
6 -136 17 -74 12 -163 25 -199 31 -36 5 -110 16 -165 24 -55 9 -131 20 -170
26 -38 5 -99 15 -134 21 -45 8 -66 8 -74 0 -8 -8 -5 -11 9 -11 18 0 23 -15 47
-159 15 -87 32 -176 39 -197 12 -36 16 -39 54 -42 47 -3 60 12 44 53 -14 36
-62 292 -58 309 2 11 9 12 38 2 26 -8 36 -17 38 -36 3 -26 46 -248 60 -310 7
-33 11 -35 57 -42 27 -4 51 -5 54 -3 2 3 -15 80 -38 173 -47 190 -48 205 -24
199 10 -3 35 -8 56 -12 28 -4 37 -11 37 -26 0 -37 80 -359 89 -360 53 -7 101
-5 101 6 0 7 -13 64 -28 126 -48 190 -54 220 -49 226 4 3 27 2 51 -1 36 -6 47
-12 50 -29 5 -26 56 -259 65 -302 9 -36 62 -58 86 -34 12 12 10 34 -11 149
-13 74 -29 148 -34 163 l-10 29 53 -7 c28 -4 55 -10 59 -14 5 -4 10 -34 13
-66 4 -47 -2 -92 -28 -205 -25 -106 -36 -139 -41 -122 -11 33 -39 26 -58 -13
l-18 -35 31 -35 c34 -39 34 -24 2 -197 -21 -115 -37 -131 -135 -136 -68 -4
-73 -6 -114 -47 -23 -24 -59 -48 -78 -55 -41 -13 -44 -28 -20 -91 15 -36 15
-42 2 -55 -13 -13 -17 -4 -36 74 -28 110 -27 128 3 177 28 46 32 63 10 45 -34
-28 -21 -1 31 62 42 52 65 71 103 85 27 10 48 23 48 28 0 13 -32 7 -84 -15
-44 -20 -53 -15 -53 30 0 10 -5 22 -11 26 -8 4 -10 -10 -7 -47 4 -51 2 -57
-37 -109 -23 -30 -48 -66 -55 -80 l-13 -25 -8 25 c-4 14 -17 69 -29 123 -12
53 -25 97 -30 97 -15 0 -16 -122 -1 -137 9 -10 11 -26 7 -52 -4 -30 -2 -42 13
-55 13 -12 20 -38 25 -92 4 -41 17 -110 30 -153 l22 -78 -23 -29 c-30 -38 -29
-55 8 -125 l31 -58 -31 -62 c-37 -75 -38 -83 -6 -125 23 -30 24 -35 12 -70 -8
-21 -16 -33 -19 -28 -8 13 -33 109 -63 244 -14 63 -32 142 -40 175 -8 33 -30
125 -49 205 -19 80 -44 195 -56 255 -12 61 -39 187 -60 280 -22 94 -51 240
-65 325 -25 158 -34 201 -80 416 -20 92 -24 129 -17 155 8 29 4 43 -21 94 -27
55 -29 64 -20 109 10 46 8 51 -23 98 -25 37 -35 63 -39 111 -11 107 -35 256
-65 408 -36 174 -37 195 -10 202 22 6 23 5 40 -103 16 -97 59 -317 75 -380 8
-30 17 -82 21 -115 9 -78 18 -95 46 -87 13 3 28 11 33 16 6 6 60 63 120 126
96 101 141 150 216 235 16 18 16 25 3 80 -8 33 -18 78 -23 100 -55 250 -86
395 -101 470 -10 50 -26 119 -35 155 -10 36 -32 130 -49 209 -20 92 -36 146
-45 149 -11 4 -12 -2 -7 -23 4 -15 10 -40 13 -56 5 -29 5 -29 -23 -18 -16 6
-78 24 -139 39 -60 16 -132 36 -160 44 -54 17 -242 22 -215 6 9 -4 56 -16 105
-25 112 -21 246 -63 261 -81 13 -16 36 -106 63 -249 11 -55 22 -108 26 -117 5
-12 -4 -23 -32 -41 -65 -41 -67 -47 -49 -124 9 -38 23 -126 31 -198 8 -71 19
-144 24 -161 5 -17 23 -104 41 -194 l33 -162 -54 -54 -54 -55 -16 78 c-8 43
-30 155 -48 248 -19 94 -41 201 -50 240 l-16 69 -50 0 -50 0 -7 -69 c-4 -39
-3 -83 2 -100 14 -49 72 -355 68 -366 -2 -5 -32 25 -68 68 -35 43 -104 124
-151 179 -101 117 -93 93 -174 510 -24 127 -53 269 -64 315 -11 46 -27 132
-37 192 -14 91 -20 107 -35 107 -18 0 -19 -28 -19 -811z m3550 370 c16 -18 30
-33 30 -34 0 -1 -13 -26 -29 -55 l-29 -54 -55 3 c-52 2 -56 0 -80 -31 -31 -41
-67 -122 -67 -152 0 -18 9 -25 39 -34 55 -17 61 -15 61 19 0 17 5 40 11 52 10
18 8 24 -16 43 -25 19 -27 25 -15 39 11 13 43 13 58 0 2 -2 12 -48 23 -102 25
-132 40 -162 97 -198 26 -16 78 -54 116 -84 84 -68 241 -179 316 -223 47 -28
51 -33 32 -36 -13 -2 -21 -9 -18 -15 3 -7 12 -37 22 -67 16 -54 30 -73 46 -64
5 3 13 -8 19 -25 8 -23 17 -31 35 -31 20 0 24 5 24 33 -1 17 -9 55 -19 84
l-18 52 46 -6 c86 -11 84 -9 110 -134 12 -63 29 -138 36 -168 l14 -54 -33 32
-33 32 -60 -65 c-66 -70 -72 -69 -73 14 0 46 -10 80 -23 80 -6 0 -7 -22 -3
-62 4 -35 9 -110 12 -168 3 -58 10 -115 16 -127 9 -19 5 -29 -32 -72 -23 -28
-45 -49 -50 -46 -17 10 -30 97 -33 215 l-3 125 -26 3 -26 3 -7 -95 c-4 -53 -5
-106 -2 -118 4 -15 -2 -33 -20 -57 -15 -19 -41 -65 -59 -102 -18 -37 -36 -69
-41 -72 -11 -7 -107 36 -117 51 -3 5 6 38 21 73 48 118 63 201 70 401 l6 188
-49 20 c-53 23 -90 42 -141 72 -28 17 -32 17 -47 3 -30 -31 -18 -49 69 -104
l85 -55 0 -110 c0 -146 -9 -214 -27 -218 -8 -2 -28 -39 -45 -83 -60 -163 -71
-187 -86 -193 -8 -3 -54 4 -102 16 -48 12 -109 22 -137 22 -77 0 -84 10 -105
146 -24 167 -25 162 17 125 20 -17 42 -31 50 -31 14 0 45 48 45 71 0 6 -39 49
-87 95 -86 81 -99 89 -240 144 -16 7 -23 20 -28 57 -4 26 -7 53 -8 58 -1 6 15
28 36 50 20 22 37 50 37 61 0 12 18 122 40 245 29 166 49 247 75 314 l36 90
100 64 c61 39 121 87 152 122 29 32 53 59 54 59 2 0 16 -14 33 -31z m-2730
-389 c18 -96 45 -238 60 -315 19 -97 25 -144 18 -152 -16 -19 -28 -16 -28 8 0
12 -11 67 -24 123 -13 55 -34 157 -45 226 -12 69 -31 174 -42 234 -17 89 -18
110 -7 117 18 11 29 -27 68 -241z m3736 121 c86 -50 298 -300 280 -330 -4 -5
-26 -17 -51 -27 -25 -9 -45 -22 -45 -28 0 -7 24 -18 53 -25 28 -7 78 -22 110
-32 49 -17 60 -17 72 -6 7 8 73 36 147 62 73 26 171 67 218 90 106 53 192 79
235 72 58 -9 413 -236 436 -279 5 -9 9 -34 9 -56 0 -33 -4 -41 -22 -46 -46
-12 -117 -135 -118 -203 0 -26 -15 -31 -24 -8 -3 8 -10 15 -16 15 -17 0 -11
-29 8 -41 18 -11 18 -18 -15 -153 -19 -78 -36 -151 -39 -164 -4 -20 -10 -23
-47 -21 -36 1 -95 -7 -183 -26 -15 -3 -34 -29 -62 -86 l-40 -81 -16 29 c-8 15
-48 63 -88 106 l-73 77 -64 -20 c-36 -11 -70 -25 -77 -31 -8 -6 -13 -5 -18 6
-5 14 45 43 152 85 25 10 32 18 30 34 -2 17 -9 21 -35 19 l-31 -3 -21 89 c-12
49 -21 93 -21 99 0 6 16 20 36 33 33 20 36 25 30 58 -21 119 -21 121 6 121 48
0 145 -32 244 -80 l100 -49 43 -90 42 -91 24 16 c29 19 27 32 -16 134 -25 60
-30 66 -66 74 -21 5 -78 26 -128 46 -49 21 -104 41 -122 44 -37 8 -51 28 -83
114 -22 62 -22 63 -4 76 60 43 67 51 60 83 -12 52 -25 55 -91 23 -81 -38 -222
-99 -262 -113 -38 -12 -39 -17 -16 -87 l17 -53 -44 -39 c-25 -21 -53 -41 -62
-44 -23 -7 -22 -23 2 -54 l19 -25 72 39 c69 37 73 38 86 21 16 -23 17 -35 2
-35 -20 0 -133 -82 -163 -117 -27 -32 -28 -36 -12 -45 27 -15 86 -69 86 -79 0
-5 -28 -23 -62 -40 -87 -43 -103 -62 -91 -104 10 -32 9 -33 -33 -53 l-44 -22
-13 33 c-32 77 -32 81 29 110 61 30 61 31 20 96 l-25 40 -63 -18 c-35 -10 -97
-32 -137 -49 -41 -18 -76 -31 -77 -29 -1 1 14 33 34 72 35 65 42 72 123 121
48 28 100 63 115 78 16 14 37 29 47 32 22 7 21 13 -7 48 -23 27 -25 28 -47 13
-22 -16 -23 -16 -65 73 -23 49 -45 99 -49 112 -13 40 -25 49 -48 37 -17 -10
-23 -8 -37 11 l-18 23 -65 -28 c-36 -15 -80 -40 -98 -54 l-32 -28 20 -44 c12
-24 28 -74 36 -112 14 -64 14 -68 -4 -78 -14 -7 -20 -6 -22 3 -8 32 -48 140
-81 218 l-35 85 22 18 c12 9 56 34 97 53 41 20 83 45 93 55 17 18 17 19 -3 39
-14 14 -18 28 -14 44 4 18 -2 29 -27 49 -29 23 -31 27 -19 42 13 15 11 20 -15
41 -40 32 -56 30 -121 -11 -50 -32 -74 -37 -74 -16 0 14 153 96 220 117 46 16
65 27 64 38 -2 22 3 20 62 -13z m-2431 -467 c72 -14 150 -31 175 -39 25 -8 71
-19 103 -25 55 -11 66 -21 49 -47 -8 -13 -105 -3 -158 17 -14 6 -42 10 -62 10
-56 0 -81 10 -84 33 -3 18 -18 24 -133 45 -71 13 -132 25 -134 27 -1 2 0 8 3
13 6 10 25 7 241 -34z m4006 -160 c29 -5 40 -13 52 -40 l17 -34 -40 -20 c-21
-11 -46 -20 -54 -20 -24 0 -25 -11 -8 -94 l15 -78 -24 -19 c-30 -23 -44 -23
-95 0 l-42 19 -4 108 c-8 170 27 204 183 178z m-4013 -120 c34 -14 37 -25 23
-87 -11 -47 -20 -57 -32 -35 -5 9 -32 24 -59 33 -28 9 -50 19 -50 21 0 3 5 25
11 50 11 44 13 45 43 38 17 -3 46 -12 64 -20z m-13 -258 l-16 -73 -57 -6 c-31
-3 -58 -4 -61 -2 -2 3 2 23 9 45 12 36 11 42 -3 53 -13 9 -15 19 -9 42 8 29
11 30 78 35 50 4 70 2 72 -7 2 -7 -4 -46 -13 -87z m3785 57 c0 -16 -5 -44 -10
-64 -8 -28 -7 -45 6 -74 8 -20 14 -38 12 -40 -2 -1 -13 -8 -25 -14 -15 -8 -23
-21 -23 -38 0 -14 -9 -66 -21 -115 l-21 -90 24 -26 c13 -15 32 -40 42 -55 l17
-28 -23 12 c-13 6 -31 19 -41 28 -18 15 -20 14 -42 -11 -13 -15 -25 -33 -27
-40 -3 -9 -22 -12 -66 -10 l-62 3 0 -40 c0 -67 -21 -52 -32 24 -3 17 -12 20
-68 23 -71 3 -146 -9 -144 -24 1 -5 5 -24 9 -41 9 -44 -8 -42 -29 2 -9 19 -21
37 -27 40 -5 4 -46 -18 -91 -49 -64 -44 -88 -68 -119 -118 -44 -72 -44 -74
-25 -114 27 -57 29 -74 8 -74 -14 0 -27 16 -46 59 -14 32 -26 63 -26 69 0 14
195 208 238 237 23 14 64 28 107 34 122 18 280 43 281 44 3 8 82 105 94 117
25 22 41 74 92 298 22 99 38 130 38 75z m455 -34 c41 -18 104 -72 105 -91 0
-3 -24 -9 -52 -13 -84 -10 -88 -13 -88 -48 0 -51 11 -60 63 -52 l47 7 -15 -48
c-9 -27 -18 -62 -22 -78 -7 -33 -41 -50 -118 -61 -83 -11 -82 -10 -89 -75 -4
-33 -9 -60 -12 -60 -4 0 -83 48 -93 56 -11 9 53 238 76 271 14 21 39 61 56 88
22 38 81 115 93 124 1 1 23 -8 49 -20z m-1952 -316 c7 -42 6 -43 -29 -58 -20
-8 -39 -15 -43 -15 -9 1 -56 66 -56 78 0 6 22 36 50 68 l49 57 11 -44 c7 -24
15 -63 18 -86z m1375 55 c-30 -91 -91 -124 -133 -73 -20 26 -20 26 -64 10 -24
-8 -46 -13 -48 -11 -3 2 6 22 19 44 22 39 25 41 93 50 38 5 87 10 107 11 l37
1 -11 -32z m-3783 -12 c44 -20 55 -29 54 -48 -1 -35 -33 -150 -41 -149 -5 1
-25 1 -45 1 -62 0 -67 9 -44 70 13 35 17 58 11 65 -8 10 -3 85 6 85 2 0 28
-11 59 -24z m973 -203 c-2 -10 -36 -43 -76 -73 -84 -63 -78 -32 -48 -245 9
-60 16 -145 16 -188 0 -75 1 -80 31 -108 17 -16 35 -29 40 -29 5 0 9 -29 9
-63 0 -75 6 -83 100 -126 50 -23 61 -31 47 -36 -30 -12 -84 2 -121 32 -34 26
-56 83 -56 143 0 18 -48 60 -69 60 -5 0 -15 -19 -21 -42 -45 -168 -57 -202
-116 -322 -22 -46 -32 -56 -52 -56 -37 0 -192 -163 -192 -202 0 -5 21 -8 46
-8 l47 0 -7 -65 c-8 -77 0 -85 66 -62 102 37 138 27 44 -12 -29 -12 -68 -33
-87 -47 l-34 -25 -5 80 c-3 44 -8 82 -10 85 -8 7 -161 -14 -182 -25 -33 -18
-31 -4 6 54 20 31 36 59 36 62 0 3 11 23 25 45 30 48 31 65 6 123 l-19 45 79
-1 c75 0 81 1 112 30 17 16 39 33 47 35 9 3 42 65 74 137 32 72 62 134 67 136
4 3 5 119 2 258 -3 139 -3 268 1 288 5 31 16 40 93 87 95 57 106 61 101 35z
m-995 -18 c41 -7 41 -6 28 -55 -5 -19 -12 -51 -15 -71 l-6 -36 -53 5 c-74 6
-78 13 -55 99 18 65 22 72 42 69 11 -3 38 -8 59 -11z m4605 6 c1 -1 -9 -24
-24 -52 -31 -61 -86 -115 -127 -123 -17 -3 -31 -14 -34 -25 -5 -19 -72 -71
-91 -71 -5 0 -16 8 -26 19 -15 17 -15 23 11 102 l28 84 85 12 c47 6 86 12 88
12 1 1 2 9 2 19 0 10 2 21 4 23 3 3 72 3 84 0z m-1888 -19 c0 -4 -31 -30 -68
-58 -37 -28 -118 -106 -180 -172 l-112 -121 -1 -53 c0 -52 -1 -54 -59 -100
-50 -41 -60 -45 -71 -32 -13 15 4 41 58 90 16 13 26 38 32 73 7 45 16 61 62
108 92 94 308 273 331 273 4 0 8 -3 8 -8z m-863 -26 c32 -19 57 -24 114 -25
73 -1 74 -1 119 -46 48 -48 60 -54 60 -31 0 18 -103 106 -125 106 -9 0 -13 5
-10 10 11 18 51 10 75 -15 13 -14 34 -25 47 -25 22 0 103 -63 103 -81 0 -18
-17 -9 -30 16 -15 28 -36 34 -25 8 4 -10 8 -40 9 -68 2 -27 7 -58 11 -69 7
-16 4 -16 -34 5 -34 20 -42 31 -47 61 -5 27 -16 45 -41 64 -43 33 -56 24 -15
-11 19 -16 34 -40 38 -61 5 -26 17 -41 51 -64 24 -17 49 -28 54 -25 16 11 10
-45 -8 -70 l-18 -23 -42 39 c-39 36 -73 53 -58 29 9 -14 -1 -12 -35 5 -17 9
-30 11 -30 6 0 -13 49 -43 60 -36 6 4 10 -8 10 -28 0 -19 9 -46 20 -60 24 -30
25 -38 5 -31 -29 12 -14 -17 19 -37 19 -11 47 -36 62 -56 l27 -36 -66 7 c-69
7 -83 -1 -46 -26 16 -10 24 -33 35 -102 8 -49 13 -91 11 -93 -2 -2 -25 33 -50
76 -34 59 -61 91 -100 119 -47 36 -73 61 -130 132 -10 12 -21 20 -24 17 -15
-16 81 -130 142 -168 33 -21 57 -51 99 -122 31 -52 56 -100 56 -105 0 -6 4
-12 10 -14 5 -1 12 -30 15 -63 6 -58 5 -59 -11 -37 -9 12 -20 22 -25 22 -16 0
-9 -25 14 -51 17 -18 26 -42 31 -87 8 -74 3 -87 -27 -68 -24 15 -127 21 -127
8 0 -5 12 -19 26 -33 30 -28 29 -35 -17 -139 -32 -73 -33 -79 -33 -211 0 -154
-3 -158 -63 -90 -27 29 -33 32 -33 16 0 -11 24 -42 55 -70 40 -38 55 -59 55
-78 0 -22 -5 -27 -24 -27 -16 0 -27 7 -31 20 -3 11 -11 20 -16 20 -6 0 -7 -9
-4 -20 5 -15 2 -20 -13 -20 -24 0 -36 -13 -58 -69 -10 -24 -39 -65 -65 -90
-54 -52 -59 -49 -59 44 0 37 -7 60 -25 87 -36 53 -41 90 -18 130 20 35 22 55
10 75 -4 6 -10 31 -13 55 -5 39 0 56 46 151 l52 108 -16 44 c-14 34 -15 49 -6
65 8 16 7 47 -5 127 -8 59 -18 109 -20 112 -13 12 -13 -13 -3 -103 8 -67 8
-108 1 -131 -8 -26 -7 -41 7 -72 l17 -39 -53 -108 c-49 -100 -52 -112 -51
-175 1 -38 -3 -74 -9 -82 -16 -20 4 -111 37 -169 20 -35 26 -61 28 -115 1 -38
6 -74 11 -80 5 -6 5 -52 0 -105 -5 -52 -10 -102 -10 -110 0 -8 -14 8 -32 35
-17 28 -48 70 -69 95 -31 36 -40 57 -45 100 -3 30 -8 57 -9 58 -2 2 -7 -17
-10 -41 -9 -62 -35 -72 -35 -14 0 23 4 57 10 76 7 27 5 49 -11 103 -20 66 -21
71 -5 106 9 20 15 49 14 63 -1 18 11 41 39 75 38 45 117 203 107 213 -8 8 -21
-13 -50 -79 -16 -36 -50 -91 -76 -123 -39 -47 -48 -65 -48 -97 0 -25 -7 -46
-19 -57 -19 -19 -51 -132 -51 -182 0 -40 -18 -49 -26 -14 -3 15 -12 50 -19 77
l-14 48 34 32 c31 30 64 85 79 134 13 39 -22 26 -44 -17 -17 -34 -53 -61 -65
-49 -2 2 6 37 18 77 18 58 34 86 75 131 61 69 66 85 17 64 -19 -7 -44 -14 -55
-14 -21 0 -24 -4 -34 -52 -7 -29 -29 -35 -69 -19 -15 5 -4 17 60 64 106 78
103 75 103 101 0 24 27 43 41 29 4 -4 10 -28 13 -52 7 -54 12 -59 34 -38 14
15 17 40 19 145 1 70 3 136 3 147 0 16 2 17 10 5 16 -25 23 -3 8 27 -11 23
-11 47 -2 128 6 55 12 88 13 73 0 -15 6 -30 13 -34 14 -9 3 68 -15 96 -13 22
-27 26 -27 9 0 -6 -9 -22 -19 -36 -16 -20 -18 -29 -9 -49 13 -28 -3 -74 -25
-74 -10 0 -8 26 9 128 31 174 32 169 -16 183 l-40 12 0 93 c0 77 3 95 17 103
13 7 17 24 18 75 0 60 2 66 21 66 22 0 94 -70 94 -91 0 -19 81 -92 91 -82 5 5
-5 22 -26 43 -19 19 -35 39 -35 45 0 6 -16 26 -35 45 -19 18 -33 35 -31 38 2
2 36 -18 76 -44 61 -41 74 -46 91 -36 27 17 47 15 81 -9 27 -20 30 -20 27 -4
-2 10 -16 27 -30 37 -24 18 -28 19 -62 4 -21 -8 -37 -12 -37 -8 0 4 -20 20
-45 35 -41 26 -45 32 -45 69 0 36 2 39 23 32 12 -3 34 -13 48 -20 25 -12 39
-10 39 7 0 4 -20 15 -45 25 -25 9 -45 22 -45 29 0 6 7 35 15 63 12 40 24 58
53 77 20 14 39 25 42 25 3 0 24 -11 47 -24z m-720 -106 c52 -22 63 -37 63 -91
0 -17 8 -29 23 -36 20 -9 23 -17 19 -45 -2 -18 -15 -56 -28 -85 -13 -28 -24
-55 -24 -60 0 -4 27 -44 60 -87 33 -44 60 -89 60 -99 0 -13 -17 4 -49 49 -27
38 -62 82 -79 98 l-30 28 5 107 c7 122 -3 153 -65 217 -20 21 -30 35 -22 32 8
-3 38 -16 67 -28z m-988 -495 c23 -93 51 -208 62 -255 11 -47 27 -110 36 -140
9 -30 17 -64 18 -75 6 -76 19 -117 41 -132 32 -21 30 -33 -11 -88 -20 -25 -33
-50 -30 -55 3 -5 35 5 71 22 36 17 67 28 70 25 3 -3 -9 -26 -28 -51 -32 -44
-64 -61 -145 -79 -29 -6 -29 -6 -47 84 -21 100 -21 107 15 236 18 61 29 118
26 127 -7 18 -60 46 -146 75 -77 27 -116 22 -126 -16 l-6 -26 -29 28 c-16 16
-28 31 -26 34 2 3 16 78 30 166 49 299 46 285 78 285 28 0 28 1 28 63 0 34 -4
76 -9 93 -8 28 1 110 16 154 3 8 20 -57 38 -145 18 -88 51 -236 74 -330z
m4562 215 l25 -80 -21 -18 c-11 -10 -33 -24 -48 -30 -24 -10 -26 -15 -17 -33
11 -20 21 -21 63 -4 14 6 17 2 17 -19 0 -21 -11 -33 -52 -60 -85 -54 -135 -75
-147 -63 -18 18 -12 82 14 163 29 89 30 112 10 161 -8 20 -13 38 -10 41 7 7
73 19 110 21 30 1 32 -1 56 -79z m-4494 2 c40 -22 106 -62 147 -89 67 -43 77
-53 96 -103 17 -43 42 -75 116 -148 52 -52 94 -98 94 -102 0 -5 -13 -18 -28
-29 l-28 -20 -65 62 c-35 34 -87 83 -115 107 -57 51 -79 92 -44 83 16 -4 19
-2 14 11 -5 12 -2 15 10 10 9 -3 16 -2 16 2 0 5 -66 52 -146 104 -80 52 -149
99 -153 105 -5 5 -12 26 -16 45 -7 34 -7 34 11 19 11 -9 51 -35 91 -57z m2676
-174 c-33 -37 -192 -138 -287 -182 -51 -24 -96 -48 -100 -54 -6 -10 -58 -2
-110 18 -22 8 -37 5 -87 -21 -57 -28 -89 -32 -89 -10 0 13 55 44 117 66 48 17
54 17 109 2 l58 -17 66 31 c78 37 219 120 279 165 46 35 75 36 44 2z m-2615
-94 c8 -5 -23 -74 -32 -74 -6 0 7 -18 29 -40 44 -45 51 -67 25 -75 -41 -13
-29 -41 51 -121 44 -43 79 -84 79 -91 0 -19 -22 -63 -32 -63 -5 0 -15 6 -22
13 -7 6 -31 28 -53 48 -47 43 -57 70 -109 294 -20 88 -39 166 -42 174 -3 7 19
-4 49 -25 30 -21 56 -39 57 -40z m4018 -8 c-9 -26 -16 -57 -16 -70 0 -29 -19
-46 -51 -47 -156 -3 -205 6 -256 48 -15 12 -20 22 -14 32 7 11 20 8 67 -18 48
-26 68 -31 125 -31 75 0 81 4 128 98 28 55 37 48 17 -12z m-4394 -21 c5 -5
-15 -108 -27 -138 -7 -18 -15 -18 -81 -2 -29 6 -31 9 -23 34 4 14 12 42 16 61
7 28 15 36 38 41 39 9 70 10 77 4z m3473 -74 c54 -36 62 -38 85 -26 14 7 51
16 82 20 68 9 63 16 106 -154 l26 -103 -32 -62 c-18 -33 -32 -67 -32 -75 0
-10 -12 -12 -53 -7 -42 6 -56 4 -66 -8 -12 -14 -16 -14 -42 -1 -35 18 -39 19
-39 1 0 -27 45 -44 138 -51 50 -4 92 -10 92 -14 0 -4 -26 -16 -57 -25 -32 -10
-71 -22 -88 -28 -78 -27 -82 -25 -112 38 -15 33 -35 60 -43 60 -8 1 -33 2 -55
3 -22 1 -45 5 -52 9 -6 4 -14 48 -19 103 l-7 97 39 12 c56 18 57 18 34 55 -13
21 -17 36 -10 40 15 9 12 25 -4 25 -14 0 -26 29 -26 67 0 18 49 62 70 63 3 0
32 -18 65 -39z m999 -105 c4 -34 13 -91 20 -126 11 -52 11 -126 -2 -429 -8
-201 -18 -375 -22 -386 -6 -15 -49 -37 -155 -79 l-148 -59 -55 61 c-29 34 -58
62 -64 62 -5 0 -36 -20 -68 -45 l-57 -46 -39 22 c-22 13 -41 24 -43 26 -3 2
14 22 36 46 37 38 41 48 48 111 4 38 14 84 23 102 14 31 14 35 -1 52 -9 10
-17 24 -17 30 0 7 -7 12 -15 12 -8 0 -15 -6 -15 -13 0 -8 -9 -22 -20 -32 -20
-18 -21 -18 -35 1 -36 45 -36 50 -5 144 39 119 38 140 -5 186 -19 20 -34 39
-32 40 8 8 99 -34 112 -52 12 -18 11 -26 -6 -63 -22 -49 -23 -63 -8 -78 7 -7
60 39 177 154 92 90 179 171 195 181 33 20 34 32 2 62 -23 22 -24 25 -8 42 9
10 44 34 77 53 34 19 72 46 85 60 13 14 27 25 31 25 4 0 11 -29 14 -64z
m-1421 -31 c-104 -77 -129 -110 -152 -204 -12 -46 -21 -93 -21 -104 0 -11 -25
-45 -55 -75 -30 -31 -55 -60 -55 -66 1 -6 11 -31 24 -56 l24 -45 -44 -56 c-49
-64 -67 -103 -59 -129 4 -13 -2 -19 -22 -23 -16 -3 -58 -28 -96 -57 l-67 -51
0 61 c0 59 -1 60 -27 60 -44 -1 -105 -33 -145 -78 -31 -34 -38 -50 -38 -83 0
-56 24 -99 55 -99 29 0 31 -10 9 -67 -16 -42 -16 -43 9 -77 15 -18 40 -47 57
-64 16 -17 30 -33 30 -37 0 -4 -7 1 -16 9 -21 22 -39 20 -63 -6 -14 -14 -19
-31 -17 -52 3 -30 5 -31 54 -31 49 1 50 0 41 -23 -8 -21 -4 -29 26 -57 19 -19
35 -36 35 -39 0 -10 -59 -6 -65 4 -3 6 -20 17 -36 26 -43 22 -68 3 -103 -80
-16 -36 -32 -66 -36 -66 -4 0 -19 30 -33 68 -32 79 -81 145 -106 138 -9 -2
-29 -7 -46 -11 l-30 -6 39 40 c36 37 41 39 56 26 27 -25 78 -19 106 13 43 46
45 54 17 115 -28 61 -48 71 -89 43 -19 -14 -21 -10 -48 113 l-28 127 69 69
c37 39 106 111 151 160 72 78 84 88 93 73 14 -25 31 -22 60 8 13 14 51 48 85
75 33 26 99 90 147 142 81 89 85 95 78 128 -4 18 -11 34 -17 34 -6 0 -44 -38
-86 -86 -42 -47 -104 -106 -136 -132 l-60 -47 -23 31 -24 30 -80 -53 c-44 -29
-118 -86 -164 -125 -46 -40 -87 -70 -92 -67 -5 3 -9 17 -9 32 1 23 20 40 137
122 75 52 158 114 186 138 56 46 62 49 71 27 11 -29 38 -14 144 78 287 247
399 329 425 315 17 -8 12 -15 -40 -53z m-3137 27 c12 -9 30 -32 40 -50 l19
-33 -35 -65 c-53 -99 -85 -107 -169 -44 -29 22 -59 40 -67 40 -7 0 -29 -14
-48 -31 -36 -31 -61 -31 -51 0 3 12 -3 22 -20 31 -24 13 -28 11 -63 -23 -21
-20 -41 -37 -45 -37 -18 0 -4 52 26 96 l32 49 70 7 c95 9 112 13 170 41 89 43
109 46 141 19z m3424 -36 c0 -2 3 -11 6 -19 3 -10 -3 -17 -19 -21 -33 -8 -143
-90 -158 -118 -31 -57 -11 -254 32 -311 15 -21 18 -32 10 -40 -6 -6 -12 -9
-13 -6 -13 20 -68 142 -68 150 0 6 -21 30 -47 54 l-48 43 40 58 c22 32 57 74
77 93 66 63 188 138 188 117z m-3113 -56 c35 -16 63 -31 63 -34 0 -3 -27 -15
-60 -27 -33 -12 -60 -26 -60 -31 0 -5 11 -20 25 -34 14 -14 25 -28 25 -32 0
-12 -104 -62 -131 -62 -22 0 -26 6 -36 54 -10 48 -9 59 8 93 11 21 17 44 14
50 -2 7 0 25 5 39 9 24 14 26 47 19 21 -4 65 -20 100 -35z m-1484 -27 c43 -57
44 -60 50 -153 7 -103 -1 -152 -34 -194 l-20 -25 125 5 125 5 7 -26 c3 -14 5
-28 3 -29 -2 -2 -62 -9 -134 -15 -71 -7 -154 -14 -182 -16 -29 -3 -53 -4 -53
-2 0 2 19 23 41 47 59 62 99 151 99 220 0 58 -32 143 -64 169 -9 8 -26 27 -37
43 l-20 28 25 0 c19 0 36 -14 69 -57z m4508 -116 c19 -37 20 -46 10 -91 -14
-60 -7 -67 57 -54 26 5 64 6 85 2 30 -5 42 -13 62 -49 30 -50 65 -62 119 -40
48 20 49 20 70 -20 11 -19 24 -35 31 -35 6 0 29 18 50 41 22 22 53 50 69 61
l28 21 -7 -44 c-9 -53 -21 -79 -38 -79 -7 0 -51 -12 -99 -27 -65 -21 -88 -32
-88 -45 0 -31 -45 -33 -82 -4 -28 21 -41 24 -73 19 -40 -6 -41 -1 -8 39 15 17
6 30 -26 35 -32 4 -142 66 -181 101 -43 38 -44 40 -44 104 -1 64 18 123 36
112 4 -3 18 -24 29 -47z m-3416 -47 c32 -11 74 -20 94 -20 20 0 41 -4 47 -8
17 -11 27 -141 13 -158 -10 -13 -14 -13 -28 0 -14 13 -22 11 -71 -19 l-54 -33
-39 44 c-62 70 -63 70 -152 9 -86 -60 -83 -59 -105 -45 -12 8 -13 13 -3 29 15
23 8 53 -16 68 -15 9 -25 6 -54 -18 l-35 -29 -18 28 c-10 15 -17 37 -16 50 3
41 92 101 122 82 7 -4 26 -4 41 2 27 9 164 35 200 37 9 1 42 -8 74 -19z m3266
-160 c12 0 59 -98 59 -123 0 -10 5 -27 11 -39 10 -19 12 -19 37 10 l27 31 45
-22 c25 -11 50 -28 56 -35 9 -13 20 -13 76 -2 64 13 66 13 100 -13 l34 -27 65
19 c35 10 88 28 116 39 l53 20 -5 -36 c-6 -47 -11 -51 -90 -70 l-66 -17 -22
-55 -22 -55 -58 -3 c-57 -3 -67 -11 -49 -40 7 -10 20 -10 63 -1 66 14 99 33
99 59 0 24 26 42 103 71 l57 22 26 -28 c29 -31 36 -22 -81 -104 -78 -55 -222
-131 -246 -131 -9 0 -41 9 -72 19 l-57 20 -55 -25 c-31 -13 -62 -24 -70 -24
-8 0 -44 25 -80 55 -35 30 -67 55 -70 55 -30 0 79 -126 132 -154 28 -14 33
-13 81 11 l51 25 51 -31 c28 -17 55 -31 62 -31 15 0 198 97 221 118 9 8 20 13
23 10 10 -10 -156 -157 -207 -184 -36 -18 -34 -18 -61 10 -21 22 -28 24 -87
18 -36 -4 -66 -12 -68 -18 -2 -6 31 -24 74 -40 l78 -29 -77 -9 c-88 -10 -105
-6 -117 26 -7 19 -23 27 -82 41 -77 18 -168 70 -196 114 -16 24 -43 31 -43 12
0 -7 19 -33 43 -59 23 -25 49 -60 59 -77 15 -29 20 -31 55 -26 32 4 42 1 62
-21 l24 -25 -28 -7 c-55 -14 -130 24 -217 108 -62 61 -86 78 -108 78 -36 0
-86 59 -75 87 7 19 7 20 50 -40 12 -17 15 -17 41 -3 60 32 60 29 5 104 -48 65
-63 102 -42 102 5 0 21 -21 37 -47 15 -27 40 -65 56 -85 25 -33 32 -36 63 -31
32 5 39 0 102 -61 64 -62 98 -85 110 -73 9 9 -50 75 -94 108 -24 17 -43 38
-43 49 0 10 -16 31 -35 47 -38 32 -135 152 -135 168 1 6 11 23 24 39 l24 29
34 -21 c18 -11 44 -32 57 -46 17 -18 35 -26 58 -26 27 0 37 -7 55 -35 20 -32
27 -36 58 -32 26 3 42 -2 64 -20 32 -26 25 -27 159 9 50 13 77 25 77 34 0 19
-27 29 -43 16 -12 -10 -124 -42 -148 -42 -8 0 -41 22 -74 49 -57 46 -79 56
-153 68 -24 4 -42 18 -67 51 -38 49 -41 59 -21 84 11 16 17 16 67 3 31 -8 57
-11 62 -6 15 15 0 28 -38 35 -39 8 -91 47 -100 77 -5 14 0 28 15 44 l22 24 54
-45 c30 -24 59 -44 65 -44z m-2837 -79 l13 -72 -36 -60 c-20 -34 -64 -86 -97
-116 -56 -50 -61 -58 -53 -82 14 -43 26 -161 17 -167 -4 -3 -8 -2 -8 3 0 13
-31 187 -36 206 -3 9 -11 17 -19 17 -14 0 -29 29 -19 39 3 3 15 -5 26 -18 25
-32 35 -26 121 80 80 99 88 120 57 161 -18 25 -21 37 -15 76 13 89 21 79 49
-67z m-715 -86 c20 -12 65 -37 100 -55 l64 -32 51 26 c28 14 75 34 103 45 58
23 62 21 77 -41 6 -25 1 -29 -83 -72 l-88 -45 -67 40 c-70 42 -85 43 -135 12
-19 -12 -28 -13 -49 -3 l-26 12 23 17 23 18 -25 29 -25 29 -42 -34 c-23 -18
-42 -31 -43 -30 -2 2 -8 12 -15 21 -11 14 -10 24 8 58 l21 42 46 -7 c25 -4 62
-17 82 -30z m1411 -33 c52 -32 124 -74 159 -92 97 -52 98 -55 61 -199 l-32
-121 23 -31 c20 -28 21 -35 10 -63 -42 -103 -52 -151 -40 -187 14 -46 8 -56
-36 -61 -40 -5 -42 2 -25 75 23 105 50 312 50 395 l0 90 -72 40 c-40 22 -113
65 -161 95 -48 31 -93 58 -100 60 -16 6 31 57 53 57 9 0 58 -26 110 -58z
m-1765 -4 c3 -13 14 -68 26 -122 28 -133 33 -146 58 -139 16 4 19 1 14 -15 -2
-11 5 -39 17 -62 l22 -43 -39 8 c-21 4 -41 8 -44 11 -9 5 -36 119 -53 229 -9
55 -19 112 -22 128 -4 16 -2 27 5 27 6 0 13 -10 16 -22z m-303 -104 c11 -97
30 -201 38 -214 5 -8 13 -9 21 -4 18 11 41 11 56 1 9 -6 15 -4 19 7 6 15 9 15
30 -5 l23 -22 6 25 c3 13 -1 68 -9 121 -23 139 -22 147 13 147 27 0 29 -2 36
-62 3 -35 8 -93 10 -131 2 -37 7 -72 11 -78 5 -8 -19 -91 -31 -107 -1 -1 -31
6 -66 17 -35 11 -80 22 -99 26 -68 13 -66 10 -79 103 -18 125 -20 134 -25 139
-2 2 -21 0 -42 -6 -21 -6 -39 -9 -40 -8 -1 1 -5 23 -9 50 l-7 47 38 1 c22 0
48 4 59 9 33 14 40 6 47 -56z m700 -184 c29 -33 59 -60 66 -60 8 0 47 12 88
26 73 26 75 26 89 8 17 -23 18 -22 -109 -57 l-90 -25 -67 60 -67 59 -43 -11
c-33 -9 -44 -9 -50 2 -15 24 -9 38 19 44 15 3 32 7 37 9 6 2 24 4 42 4 27 1
40 -8 85 -59z m4968 -9 c0 -3 -13 -31 -28 -61 -23 -47 -31 -55 -58 -57 -17 -2
-86 -21 -155 -43 -68 -23 -144 -43 -169 -47 -25 -3 -71 -14 -103 -25 -32 -11
-61 -17 -64 -14 -9 8 -8 8 82 43 269 104 446 176 451 184 3 6 1 16 -5 23 -6 7
-8 16 -5 19 7 6 54 -13 54 -22z m-5995 -30 c83 -16 188 -38 235 -49 47 -11
113 -26 148 -32 36 -8 62 -18 62 -25 0 -18 -28 -38 -44 -32 -8 3 -70 15 -138
27 -97 17 -283 61 -405 96 -11 3 -20 44 -10 44 2 0 70 -13 152 -29z m6000
-132 c9 -27 -2 -33 -79 -50 -33 -7 -106 -27 -160 -46 -98 -32 -160 -41 -170
-25 -3 5 63 30 147 56 84 27 172 56 197 66 58 24 57 24 65 -1z m-5253 -64 c24
-29 36 -35 57 -31 14 3 47 8 74 12 42 6 47 4 47 -12 0 -16 -15 -22 -83 -35
-81 -17 -82 -17 -100 4 -10 11 -22 27 -26 36 -8 13 -15 13 -64 -1 -50 -13 -57
-13 -62 0 -7 19 -8 19 56 41 71 25 65 26 101 -14z m4610 8 c38 -36 35 -55 -13
-77 -22 -10 -43 -25 -46 -32 -3 -8 6 -32 20 -53 l26 -39 -23 -21 c-22 -21 -60
-26 -101 -15 -16 4 -21 14 -23 48 -1 24 -6 55 -12 70 l-10 28 -41 -32 c-22
-18 -43 -29 -47 -26 -16 16 45 101 98 138 71 48 129 52 172 11z m866 -29 c-2
-9 -34 -26 -83 -42 -44 -15 -78 -31 -75 -37 8 -16 81 -11 118 7 l33 17 14 -32
c23 -51 65 -161 62 -163 -2 -2 -216 -72 -321 -105 -20 -6 -34 -5 -49 6 -12 8
-31 15 -44 15 -12 0 -25 5 -28 10 -10 17 -25 11 -25 -9 0 -25 18 -36 50 -33
20 2 22 1 10 -7 -8 -6 -32 -11 -53 -11 -21 0 -47 -5 -58 -11 -15 -8 -26 -7
-42 4 -13 9 -36 12 -56 9 -24 -3 -36 0 -43 12 -5 9 -19 16 -32 16 -36 0 -38
11 -6 40 18 17 30 38 30 53 0 22 6 25 63 36 34 6 74 14 90 17 18 4 27 12 27
25 0 24 1 24 -111 -5 -120 -30 -179 -39 -179 -27 0 6 33 20 73 31 39 12 95 29
122 38 28 9 55 17 60 17 6 0 27 8 47 18 21 10 68 25 105 33 37 9 76 20 85 25
10 5 24 9 31 9 7 0 19 6 25 12 15 15 108 46 140 47 16 1 22 -4 20 -15z m-5801
-17 c35 -8 59 -20 69 -36 9 -13 32 -29 50 -37 29 -12 34 -19 34 -47 0 -47 -20
-150 -32 -164 -5 -7 -7 -16 -4 -21 3 -5 -13 -89 -36 -188 -23 -98 -53 -236
-67 -306 -14 -69 -29 -130 -33 -133 -4 -4 -10 20 -14 54 -7 62 -19 79 -71 95
-18 6 -23 3 -24 -11 0 -13 -3 -12 -10 7 -10 23 -11 24 -24 7 -10 -14 -14 -15
-18 -5 -4 11 -7 10 -15 -1 -7 -9 -12 -10 -16 -2 -10 16 -26 3 -27 -22 0 -19
-2 -19 -11 6 -10 27 -28 37 -28 15 0 -7 7 -42 16 -78 38 -163 123 -569 131
-626 6 -43 -8 -64 -30 -46 -7 5 -21 6 -32 2 -11 -4 -26 -5 -32 -3 -7 3 -13 0
-13 -6 0 -21 -21 -11 -30 15 -6 14 -26 96 -45 182 -131 598 -223 1108 -210
1160 l7 27 9 -24 c6 -14 15 -21 24 -17 16 6 14 11 64 -187 16 -65 32 -121 35
-125 4 -3 16 5 27 17 15 15 24 19 29 12 3 -7 14 -9 23 -5 10 3 17 1 17 -5 0
-19 20 -12 20 7 1 16 2 16 15 -2 7 -10 18 -15 24 -12 5 4 12 2 16 -4 9 -15 25
-12 25 5 0 8 4 15 9 15 5 0 11 -7 15 -15 8 -21 26 -19 27 3 0 14 3 13 16 -5 8
-13 21 -23 29 -23 7 0 16 -9 19 -20 7 -22 25 -27 25 -7 0 6 10 0 21 -15 47
-63 48 -35 10 242 -12 85 -33 197 -45 248 -27 105 -30 100 61 79z m826 -73
c26 -15 36 -15 117 1 100 19 99 20 193 -53 59 -45 158 -79 322 -112 33 -7 145
-34 249 -61 127 -33 192 -46 200 -40 8 7 32 5 72 -4 97 -23 224 -65 224 -75 0
-9 -39 -112 -45 -118 -1 -2 -25 3 -51 11 -27 8 -85 23 -128 33 -100 24 -111
33 -91 80 14 34 14 35 -11 44 -29 11 -55 1 -77 -31 l-15 -21 -74 21 c-158 44
-435 114 -470 118 -39 5 -45 12 -28 29 14 14 5 36 -21 53 -19 11 -25 9 -54
-19 l-33 -32 -204 47 c-111 27 -239 56 -282 64 l-80 17 78 57 78 56 51 -25
c29 -14 65 -32 80 -40z m5317 -251 c0 -6 -25 -21 -55 -34 -39 -16 -55 -28 -55
-41 0 -29 23 -31 64 -7 41 24 47 21 66 -31 89 -255 149 -444 143 -450 -13 -11
-192 -48 -311 -65 -62 -9 -121 -18 -132 -20 -10 -2 -40 -7 -67 -11 l-48 -7 19
22 c15 16 31 21 73 21 l53 0 25 56 c20 45 23 60 14 77 -10 17 -8 23 15 40 14
10 26 25 26 33 0 19 -4 18 -51 -12 -34 -21 -40 -29 -34 -47 15 -50 15 -63 -3
-92 -16 -26 -23 -29 -60 -26 -36 2 -47 -2 -74 -29 -23 -24 -36 -30 -47 -23
-16 10 -22 74 -8 84 5 4 7 12 3 18 -5 7 -13 7 -26 -2 -16 -9 -19 -19 -14 -43
7 -37 -8 -44 -92 -44 -45 0 -52 3 -57 22 -8 30 -5 31 37 11 35 -16 37 -16 54
1 16 16 16 18 -2 32 -11 8 -27 14 -35 14 -8 0 -32 12 -54 27 l-38 26 43 38
c36 31 41 40 32 55 -15 25 -33 29 -41 7 -8 -23 -41 -55 -47 -45 -2 4 -7 25
-11 47 -4 22 -9 48 -11 57 -5 15 -2 16 27 6 30 -10 34 -9 60 23 28 33 37 59
22 59 -5 0 -19 -13 -33 -30 -34 -41 -57 -28 -36 21 14 34 17 36 95 49 96 16
102 19 94 49 -5 19 -10 22 -32 17 -14 -4 -69 -13 -121 -22 -52 -8 -99 -16
-105 -18 -5 -1 -32 15 -58 36 -27 21 -55 38 -62 38 -15 0 -271 -55 -327 -71
-21 -5 -38 -12 -38 -15 0 -3 8 -21 19 -42 29 -58 57 -157 81 -287 12 -66 25
-126 27 -132 3 -7 22 -13 43 -13 50 0 100 -10 100 -21 0 -6 -198 -1 -206 5 -1
0 -7 51 -13 111 -16 144 -33 228 -66 309 -14 36 -29 80 -31 98 l-6 33 69 13
c37 7 128 24 201 38 l133 26 56 -37 55 -36 101 16 c225 37 586 134 622 166 9
9 34 -25 35 -48z m-4894 7 c145 -38 144 -37 144 -76 0 -45 19 -126 34 -140 27
-27 172 -65 285 -75 64 -6 121 -12 127 -14 6 -2 16 -36 22 -77 18 -112 62
-423 62 -435 0 -19 -169 -266 -204 -298 -6 -5 -31 -34 -55 -63 -24 -29 -47
-49 -50 -44 -10 16 -82 53 -91 47 -5 -3 -11 -1 -15 4 -3 6 -12 8 -20 4 -8 -3
-15 0 -15 7 0 6 -5 8 -10 5 -6 -3 -13 2 -16 12 -39 113 -89 223 -100 219 -7
-3 -15 1 -18 9 -3 8 -16 12 -31 11 -19 -3 -27 2 -31 20 -8 30 -24 31 -24 2 -1
-20 -2 -21 -11 -6 -7 13 -15 15 -33 9 -28 -11 -39 -5 -60 37 -15 29 -34 40
-48 26 -3 -3 0 -29 8 -57 8 -29 23 -95 33 -147 16 -77 81 -304 130 -452 8 -25
4 -29 -85 -89 -105 -71 -99 -58 -109 -234 -10 -179 -11 -183 -60 -217 -34 -24
-44 -38 -49 -68 -3 -20 -15 -49 -26 -63 -18 -23 -27 -26 -66 -23 -25 2 -47 6
-50 9 -5 4 -10 29 -38 189 -8 47 -19 103 -25 125 -19 72 -61 325 -55 335 4 6
10 35 14 66 11 86 57 347 91 522 33 165 212 894 225 918 1 2 19 -1 39 -7 31
-8 39 -7 56 10 24 24 27 24 125 -1z m-708 -27 c17 -24 15 -43 -6 -43 -9 0 -47
11 -84 24 -65 24 -103 20 -56 -5 25 -13 55 -44 61 -62 3 -9 11 -8 31 3 24 12
28 12 36 0 14 -22 12 -49 -9 -147 -36 -161 -60 -297 -55 -305 3 -4 18 -8 34
-8 16 0 32 -5 36 -11 5 -9 -7 -10 -43 -7 l-50 5 -11 -56 c-28 -143 -54 -257
-61 -264 -4 -4 -29 2 -56 13 -26 11 -50 18 -53 15 -9 -9 22 -37 60 -52 21 -8
38 -19 38 -23 0 -4 -12 -58 -26 -121 -15 -63 -32 -150 -40 -194 -7 -44 -16
-86 -19 -93 -3 -7 9 -33 26 -58 l30 -44 -31 0 c-33 0 -39 -9 -43 -55 -2 -24 4
-32 33 -47 32 -16 33 -17 10 -18 -53 -1 -72 -11 -66 -35 4 -15 1 -25 -8 -28
-9 -4 -16 -34 -21 -94 -4 -48 -11 -108 -15 -133 -5 -25 -18 -101 -29 -169 -12
-68 -24 -128 -27 -133 -3 -5 9 -25 26 -45 51 -57 54 -72 32 -137 -18 -52 -18
-61 -5 -99 8 -23 12 -54 9 -69 -6 -30 11 -49 25 -27 5 8 9 30 9 50 0 20 7 55
15 78 8 23 21 90 29 149 9 59 20 121 25 137 5 17 21 84 36 150 14 66 46 184
70 262 32 102 55 204 81 365 19 123 39 232 44 243 13 29 57 218 70 299 6 38
17 84 25 103 8 20 12 47 8 65 -5 25 -1 34 17 48 20 15 22 22 14 41 -8 17 -5
45 13 113 12 50 23 109 23 131 1 68 44 207 66 215 10 4 66 11 122 15 98 6 104
6 98 -12 -34 -111 -52 -175 -91 -333 -71 -282 -129 -556 -161 -755 -9 -60 -21
-115 -25 -121 -5 -6 -10 -43 -11 -83 -1 -48 -6 -75 -14 -78 -7 -3 -23 -21 -34
-41 -18 -29 -21 -46 -16 -86 3 -28 7 -60 8 -71 1 -19 -12 -98 -31 -180 -53
-230 -141 -639 -156 -722 -8 -39 -23 -102 -34 -140 -11 -37 -31 -122 -46 -188
-14 -66 -35 -160 -46 -210 -11 -49 -31 -141 -44 -203 -26 -122 -38 -143 -129
-223 l-49 -43 33 -27 c23 -19 37 -43 46 -79 l13 -51 -40 -52 -41 -52 5 -105
c6 -116 6 -117 -106 -605 -14 -60 -38 -164 -52 -230 -47 -209 -41 -194 -91
-216 -24 -11 -44 -22 -44 -25 0 -3 12 -39 26 -79 l26 -73 -35 -129 c-58 -207
-86 -326 -107 -445 -43 -248 -59 -328 -66 -339 -4 -7 -8 -26 -10 -43 -1 -16
-9 -35 -17 -41 -9 -6 -15 -20 -14 -31 2 -17 -7 -20 -118 -26 -116 -7 -175 -4
-175 10 0 4 11 41 24 82 13 41 29 108 35 148 6 40 21 99 32 130 19 51 21 75
19 222 -1 91 -6 187 -11 214 -9 49 -9 50 41 114 27 36 51 70 54 76 3 6 13 2
24 -11 28 -32 37 -29 49 20 6 23 31 116 56 206 40 140 95 414 114 570 5 36 12
47 39 63 19 11 34 23 34 26 -1 4 -5 27 -9 51 -7 36 -3 67 20 160 111 441 143
575 156 641 9 41 24 116 34 165 42 199 107 600 100 613 -6 10 -12 7 -26 -14
l-17 -27 -34 59 c-19 32 -34 66 -34 74 0 8 14 28 31 46 l30 31 -20 59 c-10 32
-24 60 -29 62 -13 4 -15 -4 -48 -163 -41 -201 -45 -237 -29 -261 12 -19 11
-24 -11 -45 -16 -15 -21 -26 -14 -33 7 -7 31 10 75 54 36 35 65 61 65 56 0 -4
-7 -36 -16 -69 -13 -49 -24 -68 -55 -95 -42 -36 -44 -64 -2 -37 44 29 38 6
-11 -38 l-47 -44 7 -64 c5 -57 2 -76 -31 -174 -21 -60 -45 -114 -53 -120 -37
-24 -92 -78 -92 -91 0 -7 -14 -23 -30 -36 -30 -22 -40 -48 -18 -48 25 0 98 51
98 69 0 11 7 21 15 25 37 14 -4 -88 -69 -174 -54 -72 -57 -77 -55 -130 2 -34
-6 -80 -19 -120 -12 -36 -33 -122 -46 -191 -14 -69 -28 -133 -31 -141 -3 -8 3
-23 15 -33 37 -33 19 -75 -31 -75 -41 0 -43 -15 -8 -48 l31 -29 -26 -39 c-14
-21 -26 -47 -26 -57 0 -9 -11 -50 -25 -89 -14 -39 -25 -84 -25 -99 0 -15 -4
-30 -8 -33 -5 -3 -9 36 -10 87 -1 88 -3 93 -31 118 -16 15 -35 31 -43 35 -8 5
-22 39 -31 76 l-17 66 55 239 c31 131 64 263 74 293 10 30 22 88 26 129 6 59
12 77 31 94 20 17 24 30 24 79 0 38 11 92 29 151 17 51 37 128 46 172 9 44 27
112 40 150 13 39 33 126 44 195 11 69 40 233 65 365 25 132 50 269 56 305 16
91 62 253 75 263 5 4 22 10 38 14 32 7 33 12 7 46 -30 38 -33 73 -14 177 9 52
20 115 23 140 4 27 19 61 35 82 25 34 26 38 13 65 -8 15 -12 34 -10 41 3 7 0
19 -7 27 -9 11 -6 23 15 58 14 25 32 76 40 113 8 38 19 84 25 103 12 41 7 51
-26 51 -37 0 -27 32 13 42 30 8 32 12 53 101 11 50 27 121 34 157 l13 65 46
14 c59 18 63 41 6 41 -38 0 -41 2 -35 23 3 12 20 92 36 177 38 190 91 432 98
444 3 5 41 6 86 3 60 -5 84 -11 94 -24z m4001 1 c6 -5 21 -166 24 -254 l2 -84
33 -10 c37 -10 37 -12 17 -89 -22 -86 -20 -103 20 -138 23 -21 35 -40 35 -58
0 -56 13 -101 28 -101 12 0 13 9 9 48 -13 98 -29 313 -25 318 3 2 26 -1 51 -8
l46 -12 11 -62 c6 -35 15 -107 20 -161 25 -251 19 -224 61 -241 28 -11 39 -21
41 -40 2 -14 9 -28 17 -30 10 -3 12 0 8 12 -9 23 4 20 34 -8 23 -21 28 -36 33
-103 7 -80 23 -184 32 -207 4 -11 -23 -14 -128 -18 -149 -4 -166 -9 -144 -40
17 -24 126 -108 141 -108 6 0 21 -70 33 -157 26 -181 40 -293 36 -293 -1 0
-10 -3 -19 -7 -15 -5 -17 0 -10 44 5 37 2 61 -10 89 -9 21 -20 57 -24 79 -3
22 -11 38 -16 35 -11 -5 -10 -279 1 -367 l6 -52 -43 -11 c-24 -6 -59 -15 -76
-20 -18 -5 -33 -6 -33 -3 0 3 -6 1 -12 -5 -7 -6 -29 -13 -49 -17 l-35 -6 -11
68 c-6 37 -16 86 -21 108 -6 22 -15 87 -21 145 -7 58 -16 139 -21 180 -5 41
-9 125 -10 187 0 61 -3 118 -6 127 -13 33 -24 14 -24 -41 0 -32 -7 -96 -15
-143 -19 -107 -19 -144 0 -160 12 -10 15 -44 15 -186 0 -166 -1 -174 -20 -174
-17 0 -19 -5 -14 -52 9 -106 27 -234 35 -255 7 -19 4 -24 -19 -29 -57 -12
-138 -36 -175 -49 -20 -8 -48 -15 -61 -15 -27 0 -28 4 -47 290 -5 85 -14 225
-20 310 -6 85 -12 333 -14 550 l-3 395 56 58 c81 83 83 84 142 41 28 -20 57
-34 64 -31 12 5 13 64 9 365 -3 198 -3 372 1 386 6 23 10 25 34 20 15 -4 29
-8 31 -10z m-1100 -83 c11 -7 1 -25 -48 -85 -59 -72 -63 -75 -87 -64 -24 11
-30 7 -99 -63 -81 -83 -205 -229 -205 -242 0 -5 -13 -6 -28 -2 -25 5 -36 -4
-122 -96 -145 -157 -270 -303 -270 -316 0 -19 -25 -16 -44 6 -17 19 -16 22 20
78 58 91 147 195 233 273 44 39 90 87 103 105 21 31 27 34 68 32 l44 -2 60 90
c34 49 87 118 120 152 l59 63 33 -19 34 -20 52 59 c56 64 56 64 77 51z m-1165
-68 c3 -32 8 -107 11 -168 8 -142 33 -379 45 -430 5 -22 10 -71 10 -108 0 -66
-2 -73 -53 -155 -49 -79 -107 -192 -144 -282 -8 -19 -37 -72 -65 -117 -43 -70
-51 -92 -59 -160 -13 -102 -76 -469 -95 -555 -9 -38 -20 -68 -25 -68 -5 0 -9
4 -9 9 0 5 -23 44 -52 86 l-51 77 7 147 c4 80 9 168 10 194 3 39 0 50 -16 58
-29 15 -40 7 -43 -31 -10 -148 -31 -310 -42 -332 -20 -40 -16 -56 23 -111 43
-60 83 -146 112 -243 30 -100 59 -139 102 -139 28 0 38 -7 59 -37 49 -71 57
-73 159 -33 116 45 272 85 329 85 41 0 51 6 139 81 52 45 99 90 105 101 18 33
137 20 259 -26 101 -39 255 -118 330 -169 107 -72 230 -189 269 -254 37 -62
42 -66 103 -87 59 -20 154 -73 146 -81 -2 -2 -42 5 -88 15 -47 11 -103 20
-126 20 -39 0 -43 -3 -65 -45 -13 -25 -27 -45 -31 -45 -5 0 -8 24 -8 54 0 91
-11 107 -138 206 -64 50 -127 93 -140 96 -15 4 -33 -2 -56 -20 -19 -14 -37
-26 -39 -26 -3 0 -7 12 -10 28 -10 43 -44 91 -75 103 -59 24 -270 6 -336 -28
-17 -9 -84 -70 -151 -138 -99 -100 -129 -138 -173 -218 -29 -53 -57 -99 -61
-101 -4 -3 -22 19 -39 48 -65 106 -115 136 -225 136 -101 0 -286 -60 -303 -99
-4 -9 -12 -47 -19 -86 l-11 -70 -15 29 c-24 49 -44 55 -77 23 -31 -30 -112
-175 -112 -201 0 -18 53 -43 113 -53 34 -5 42 -3 59 18 l20 24 -6 -50 c-3 -27
-2 -56 3 -63 14 -22 147 -35 306 -29 167 6 286 27 358 63 60 31 265 98 293 96
23 -2 269 -121 262 -127 -2 -2 -45 9 -95 25 -51 16 -99 27 -107 24 -17 -7 -94
-118 -121 -175 -17 -34 -20 -36 -55 -32 -21 3 -40 1 -44 -5 -3 -5 -9 -41 -12
-80 l-7 -71 -49 44 c-28 25 -59 45 -69 45 -25 0 -62 -59 -138 -215 -82 -170
-81 -159 -29 -209 43 -41 162 -96 207 -96 25 0 66 48 87 99 10 25 20 39 22 33
2 -7 -1 -19 -7 -26 -8 -9 -8 -46 0 -127 5 -63 12 -120 14 -126 3 -9 -6 -13
-28 -13 -18 0 -48 -5 -68 -10 -47 -13 -68 -61 -76 -175 -6 -79 -5 -81 20 -98
31 -20 88 -33 189 -42 l77 -7 17 34 c10 19 19 65 22 110 l4 76 115 7 c98 6
311 -6 333 -20 19 -12 111 81 243 243 28 34 54 62 59 62 4 0 8 6 8 13 0 7 33
54 73 104 98 123 137 179 164 235 20 41 28 47 63 53 22 4 42 11 45 15 3 5 -1
37 -10 72 -9 35 -17 69 -18 77 -3 21 57 37 199 55 71 9 204 28 296 43 162 25
168 25 219 9 63 -21 112 -53 244 -161 174 -143 333 -328 430 -500 16 -27 41
-68 56 -90 15 -23 32 -61 39 -85 6 -25 22 -65 36 -90 21 -39 10 -30 -85 68
l-109 112 1 61 c2 56 -1 63 -28 85 -16 13 -50 34 -75 47 -47 26 -357 130 -498
167 l-82 23 -39 -26 c-22 -15 -54 -44 -72 -67 -18 -22 -35 -40 -38 -40 -3 0
-19 24 -34 54 -16 30 -35 57 -43 60 -8 3 -53 11 -101 18 -61 9 -88 9 -90 2
-13 -39 -27 -43 -142 -46 l-113 -2 -24 -37 c-13 -21 -73 -88 -133 -151 -102
-104 -131 -148 -98 -148 7 0 68 55 135 122 l123 122 36 -14 c34 -12 38 -11 51
9 15 22 38 27 61 12 16 -10 10 -20 -100 -171 -81 -111 -191 -278 -228 -346
l-23 -41 60 -125 c43 -92 65 -126 81 -131 12 -3 21 0 21 6 0 6 3 8 6 4 4 -3
-19 -34 -50 -69 -31 -35 -56 -72 -56 -83 0 -19 45 -139 69 -183 9 -17 5 -21
-30 -31 -29 -9 -39 -17 -37 -29 5 -23 33 -20 98 10 64 30 132 97 155 150 8 21
15 65 15 98 0 35 4 60 10 60 19 0 75 -33 88 -52 7 -10 31 -27 53 -38 39 -20
39 -20 77 -1 44 23 82 57 82 74 0 7 -6 22 -14 33 -13 17 -17 18 -38 5 -55 -35
-93 -49 -103 -40 -13 13 40 58 117 99 66 36 65 36 247 -26 190 -65 229 -87
392 -223 137 -115 147 -121 201 -131 59 -12 266 -81 343 -115 28 -12 82 -41
120 -63 l70 -41 -130 5 -130 6 -31 -33 c-18 -19 -56 -71 -87 -116 -45 -69 -59
-100 -81 -188 -14 -57 -26 -112 -26 -120 0 -9 13 -35 29 -58 25 -37 71 -131
71 -145 0 -9 -74 79 -90 108 -8 14 -37 56 -63 92 l-48 66 47 77 c42 70 46 81
40 121 -7 54 -41 138 -75 182 -42 57 -71 66 -206 65 -135 -1 -285 -34 -362
-78 -53 -32 -109 -96 -151 -174 -31 -59 -32 -64 -24 -126 l9 -65 -27 0 c-36 0
-116 -25 -196 -61 -76 -34 -78 -33 -88 44 -14 99 -55 158 -176 251 -88 68
-226 147 -244 140 -9 -3 -16 -8 -16 -10 0 -2 19 -34 42 -71 23 -38 52 -90 65
-116 l24 -49 -22 -65 c-19 -60 -89 -176 -127 -213 -13 -13 -14 -13 -6 5 14 30
12 207 -3 225 -6 8 -21 40 -32 70 -12 33 -37 71 -60 94 l-40 39 -113 -6 c-181
-10 -318 -63 -501 -196 -131 -95 -152 -105 -186 -92 -50 21 -209 51 -328 62
-232 22 -578 7 -898 -40 l-130 -19 -56 34 c-30 19 -71 39 -91 44 -33 10 -36
13 -41 63 -4 28 -9 62 -13 75 l-7 23 38 -26 c64 -43 72 -42 212 25 143 69 162
71 263 29 50 -20 72 -23 236 -23 l180 -1 98 90 c53 50 115 115 135 147 l38 56
6 -62 c8 -89 32 -134 76 -146 20 -5 44 -10 55 -10 14 0 16 -4 10 -18 -4 -9 -9
-38 -12 -64 -4 -44 -2 -47 30 -64 24 -13 63 -19 141 -22 l109 -4 50 53 c101
110 184 259 195 351 3 27 10 51 14 54 5 3 9 1 9 -4 0 -14 75 -52 103 -52 13 0
30 7 37 15 18 22 27 11 34 -43 3 -27 9 -51 12 -54 2 -3 24 1 47 9 27 9 80 15
145 14 149 0 144 7 -83 125 -38 20 -77 43 -85 50 -8 8 -46 39 -85 71 -38 31
-95 79 -125 107 -31 28 -77 70 -102 94 -26 23 -52 42 -58 42 -6 0 -50 -20 -98
-44 -48 -24 -134 -60 -192 -81 -58 -20 -130 -50 -160 -65 -30 -16 -85 -42
-122 -58 -86 -39 -183 -102 -282 -186 -44 -36 -81 -65 -83 -63 -1 2 2 30 7 63
21 126 14 135 -122 160 l-85 16 -50 -25 c-27 -14 -65 -43 -85 -65 -30 -33 -36
-48 -42 -105 -5 -51 -3 -74 9 -97 9 -16 13 -30 10 -30 -3 0 -42 27 -87 59
l-81 60 -61 -50 c-33 -27 -63 -49 -66 -49 -3 0 -18 19 -34 41 -16 23 -54 71
-86 108 -78 91 -100 125 -100 153 0 33 101 178 166 237 50 46 140 91 180 91
12 0 15 6 10 25 -4 14 -9 71 -12 127 -13 275 -25 401 -38 426 -8 15 -40 53
-71 84 l-58 55 -17 139 -18 139 44 87 c24 49 45 88 47 88 2 0 19 -20 40 -44
l37 -44 -41 -82 c-23 -46 -41 -92 -41 -105 0 -38 62 -150 120 -215 50 -56 54
-63 43 -86 -17 -38 -14 -48 25 -69 20 -11 65 -50 100 -88 l64 -69 0 -97 c0
-53 -7 -137 -15 -188 l-15 -92 53 -53 c34 -34 63 -77 82 -120 17 -37 34 -68
39 -68 13 0 -1 409 -19 555 -20 168 -20 169 26 89 30 -53 46 -70 61 -70 18 1
26 -12 47 -79 l26 -80 92 -70 c127 -97 169 -140 200 -207 14 -32 27 -58 28
-58 1 0 17 8 36 17 19 9 60 19 92 21 31 3 57 7 57 9 0 3 -10 18 -22 33 -13 15
-38 53 -57 84 -19 30 -66 90 -105 132 -71 76 -72 77 -124 78 -52 1 -52 1 -63
41 -6 22 -17 67 -23 100 l-13 60 -51 3 c-27 2 -55 8 -60 15 -14 18 -70 168
-81 218 -6 27 -6 48 0 55 6 7 -11 46 -51 119 -33 59 -60 110 -60 113 0 3 -11
19 -23 36 -13 17 -31 63 -40 101 -30 134 -42 152 -175 252 -67 51 -130 97
-141 103 -27 14 -27 42 -1 65 12 11 37 45 56 76 19 32 47 67 62 77 l26 20 -32
98 c-40 125 -86 357 -112 558 -9 69 -7 82 13 131 12 30 25 55 28 55 4 0 14
-26 23 -57 46 -152 72 -224 108 -292 21 -41 38 -80 38 -88 0 -18 25 -16 41 3
7 9 32 29 55 45 61 41 61 68 2 201 -32 71 -48 121 -48 148 0 111 70 341 161
528 52 107 65 127 106 155 25 18 85 60 131 94 110 80 254 153 315 160 26 3 50
9 53 14 7 11 -15 137 -31 176 l-13 32 71 24 c63 21 72 27 71 48 -2 37 -33 218
-49 279 -8 30 -25 120 -38 200 -39 225 -39 230 -24 224 19 -7 43 24 56 73 10
37 31 62 53 63 3 0 9 -26 12 -57z m-247 -170 c-6 -57 2 -76 43 -93 34 -14 35
-16 15 -130 -17 -96 -33 -150 -44 -150 -4 0 -5 49 -3 110 l4 109 -41 50 c-31
37 -41 57 -41 84 0 40 21 67 52 67 19 0 20 -4 15 -47z m4489 -284 c11 -19 -11
-30 -85 -41 -39 -6 -71 -14 -71 -19 0 -5 -8 -9 -19 -9 -25 0 -81 -20 -81 -29
0 -4 11 -13 25 -19 21 -10 31 -9 52 5 15 10 55 20 89 23 l63 5 16 -60 c17 -65
68 -273 92 -372 10 -40 20 -63 29 -63 8 0 14 -6 14 -13 0 -19 -265 -70 -503
-98 -83 -9 -141 -9 -255 -1 -81 7 -199 14 -262 17 -64 3 -143 8 -177 11 -59 6
-61 7 -71 43 -5 20 -26 99 -47 176 -20 77 -48 174 -61 216 -14 42 -25 92 -26
112 -1 21 -5 37 -10 37 -4 0 -8 6 -8 14 0 14 34 17 334 30 l109 5 56 -41 56
-40 90 6 c50 4 119 13 155 21 36 8 119 23 186 35 66 11 150 29 185 39 75 22
115 25 125 10z m-2367 -346 c-4 -27 -8 -56 -8 -65 -1 -10 -8 -18 -16 -18 -9 0
-15 6 -13 13 5 19 -16 21 -27 2 -8 -13 -4 -21 18 -39 34 -27 34 -52 2 -78 -28
-22 -33 -59 -10 -78 23 -19 18 -43 -15 -75 l-30 -29 27 -26 c15 -14 37 -25 48
-25 17 0 20 -6 18 -44 -2 -51 -10 -62 -27 -38 -17 22 -33 22 -46 -3 -8 -15 -6
-23 12 -40 12 -11 26 -20 30 -20 5 0 8 -19 6 -42 -2 -30 -7 -42 -17 -40 -17 3
-41 -16 -41 -34 0 -7 9 -16 20 -19 15 -5 20 -15 20 -40 0 -24 -5 -34 -20 -38
-24 -6 -27 -42 -5 -54 13 -7 13 -19 2 -83 l-12 -75 -77 0 c-91 0 -85 -14 -64
145 8 58 17 157 22 220 6 106 8 113 22 92 17 -25 50 -29 59 -7 7 20 -24 55
-49 55 -18 0 -19 7 -17 83 3 120 9 164 21 143 12 -21 36 -21 60 1 27 24 22 36
-12 30 -37 -8 -49 10 -21 29 12 8 21 19 21 25 0 14 -22 11 -42 -8 -17 -15 -18
-14 -17 18 1 19 4 45 8 58 l6 24 13 -27 c9 -20 18 -26 34 -24 25 3 37 28 14
28 -8 0 -20 9 -26 19 -8 17 -3 24 38 54 26 20 56 45 66 56 29 31 34 26 25 -26z
m-2150 -30 c17 -10 31 -22 31 -26 0 -5 -62 -70 -137 -146 -124 -123 -147 -142
-225 -179 -52 -25 -95 -54 -106 -70 -28 -40 -107 -208 -133 -282 -12 -36 -32
-73 -43 -83 -47 -39 -198 -139 -203 -134 -10 10 -32 131 -39 213 -8 95 -10 91
116 172 202 130 297 196 331 228 23 23 41 33 52 28 12 -4 19 1 26 18 5 14 20
32 33 41 12 8 75 65 138 126 63 61 118 111 122 111 3 0 20 -8 37 -17z m1907
-226 c-3 -13 -8 -57 -11 -98 -3 -41 -8 -94 -11 -117 -5 -40 -7 -42 -19 -25
-13 17 -14 17 -21 0 -4 -12 1 -29 14 -46 13 -18 19 -37 15 -50 -5 -19 -7 -20
-17 -5 -11 14 -13 14 -25 0 -17 -20 -11 -48 14 -61 17 -8 19 -18 17 -58 -3
-45 -22 -59 -22 -16 0 24 -12 24 -35 -1 -17 -19 -17 -21 0 -40 10 -12 25 -18
32 -16 15 6 16 -32 3 -74 l-7 -25 -11 28 c-14 33 -28 35 -38 5 -5 -16 0 -27
20 -44 17 -16 26 -33 26 -54 0 -34 -15 -41 -23 -10 -6 24 -32 26 -41 4 -8 -20
22 -57 41 -50 17 7 17 -1 -8 -89 -11 -41 -17 -79 -14 -85 11 -17 -2 -11 -78
38 -73 47 -74 47 -62 76 8 18 15 24 19 17 14 -21 25 -1 15 26 -13 34 -4 74 15
67 18 -7 31 15 17 29 -6 6 -11 19 -11 29 0 24 49 147 72 180 18 26 18 29 2 59
-15 29 -15 33 0 41 20 11 20 28 2 53 -11 16 -16 17 -29 6 -13 -10 -17 -9 -26
7 -11 21 14 74 121 255 40 67 76 92 64 44z m2752 -154 c22 -43 42 -90 46 -105
4 -19 33 -48 93 -93 47 -36 80 -65 73 -65 -7 0 -29 12 -49 28 -49 37 -80 52
-86 42 -3 -5 8 -39 25 -76 16 -36 27 -70 24 -76 -3 -5 -1 -15 5 -22 18 -21 57
-140 91 -276 17 -69 40 -156 51 -195 11 -38 22 -77 25 -86 3 -11 -16 -25 -66
-49 -38 -18 -71 -32 -73 -29 -2 2 -18 41 -36 87 -23 56 -38 82 -50 82 -15 0
-89 -16 -121 -25 -11 -4 -15 4 -16 29 -1 44 -18 124 -56 262 -34 126 -34 149
2 149 20 0 25 5 25 25 0 29 -7 29 -130 0 -72 -17 -128 -21 -139 -9 -2 2 -6 21
-10 42 -7 36 -6 37 22 37 30 0 42 14 42 49 0 25 -82 31 -185 14 -61 -10 -61
-11 -46 -158 6 -60 13 -138 15 -172 l4 -61 -52 -7 c-28 -3 -71 -8 -96 -11
l-46 -5 -22 108 c-24 114 -30 140 -85 376 l-34 149 25 9 c22 8 30 5 62 -26
l37 -36 59 17 c33 9 64 19 71 21 7 3 14 -10 18 -34 20 -130 45 -142 52 -26 2
40 9 70 16 72 22 8 452 119 464 120 7 1 30 -34 51 -76z m-1322 -106 c1 -1 5
-14 9 -30 8 -29 7 -29 -122 -31 -26 -1 -45 -14 -98 -66 -62 -62 -65 -63 -80
-45 -8 11 -15 23 -15 27 0 4 39 42 87 84 l88 76 65 -6 c35 -4 65 -8 66 -9z
m-2 -246 c18 -42 50 -61 70 -41 8 10 8 14 -2 17 -20 7 -42 33 -42 49 0 11 19
14 94 14 l95 0 25 -55 c21 -46 29 -55 51 -55 14 0 47 -5 72 -11 39 -10 47 -17
63 -55 10 -23 28 -91 40 -151 12 -59 24 -123 28 -142 7 -31 13 -36 62 -53 61
-20 70 -30 70 -74 l0 -31 -82 14 c-46 7 -130 24 -188 37 -58 13 -129 27 -159
31 -43 6 -59 14 -79 36 -26 31 -56 38 -66 14 -3 -8 -14 -15 -26 -15 -11 0 -25
-9 -32 -20 -7 -11 -19 -20 -27 -20 -7 0 7 22 33 50 53 56 57 80 20 109 -32 25
-45 19 -38 -18 7 -31 -33 -86 -72 -101 -13 -5 -33 -27 -46 -49 -13 -23 -25
-41 -28 -41 -16 0 -54 148 -54 215 l-1 74 20 -24 c11 -13 34 -30 50 -39 17 -9
38 -22 48 -29 14 -10 19 -9 27 3 18 27 10 38 -37 56 -27 9 -60 28 -75 42 -14
13 -31 22 -36 18 -5 -3 -15 5 -22 18 -11 21 -9 28 14 59 14 18 26 40 26 47 0
16 47 72 53 63 2 -5 5 -46 6 -93 1 -47 4 -87 7 -89 2 -2 28 -5 58 -6 52 -1 91
-18 81 -35 -3 -4 2 -13 10 -20 12 -10 17 -7 26 14 11 23 9 29 -11 51 -18 19
-34 25 -66 25 -51 0 -60 12 -69 91 -3 30 -8 63 -10 75 -3 15 6 29 38 52 23 17
47 31 53 32 5 0 18 -18 28 -39z m141 -528 c50 -8 149 -28 222 -44 72 -16 142
-29 154 -29 13 0 50 -6 83 -14 34 -8 99 -22 146 -31 l85 -17 -3 -94 -3 -94 31
0 32 0 -5 -107 c-6 -118 -6 -117 -115 -306 -42 -73 -45 -77 -56 -56 -13 26
-42 46 -52 36 -4 -4 0 -15 9 -25 10 -10 17 -23 17 -29 0 -6 6 -13 12 -15 8 -3
-6 -28 -37 -66 -44 -55 -51 -59 -57 -41 -10 27 -31 13 -25 -16 3 -18 -10 -37
-58 -85 l-63 -62 -67 133 c-38 74 -87 184 -110 244 l-42 110 56 6 c31 4 91 7
133 8 68 1 79 -1 92 -21 19 -26 6 -55 -29 -64 -28 -7 -41 -33 -24 -48 8 -8 13
-7 16 2 3 7 16 17 29 22 35 14 60 57 46 81 -7 10 -12 21 -12 24 0 3 32 5 70 5
l70 0 0 34 c0 19 -3 37 -7 39 -5 3 -108 8 -230 12 l-222 8 -43 -26 c-24 -14
-60 -42 -80 -61 -44 -43 -48 -44 -48 -11 0 18 14 34 60 67 58 40 60 44 56 79
-2 20 -9 46 -15 57 -6 11 -11 30 -11 41 0 20 5 21 134 21 124 0 303 -13 369
-26 20 -4 27 -2 27 10 0 9 -6 16 -12 16 -15 0 -296 35 -414 51 -45 7 -94 9
-109 5 -16 -4 -52 -32 -80 -62 -29 -30 -55 -54 -59 -54 -17 0 -3 32 24 52 17
12 30 28 30 35 0 8 11 24 25 36 25 21 25 23 12 62 -8 22 -17 55 -20 74 l-7 33
93 -4 c109 -4 121 -9 105 -43 -8 -18 -20 -25 -47 -27 -38 -3 -54 -29 -32 -51
9 -9 13 -6 18 12 5 19 11 22 34 17 24 -4 31 0 49 29 12 19 25 35 28 35 4 0 41
-9 82 -19 41 -11 78 -17 83 -14 15 9 6 53 -14 63 -25 14 -348 80 -390 80 -33
0 -70 -34 -147 -133 -55 -71 -53 -32 2 50 85 127 90 133 106 127 8 -3 56 -13
105 -21z m-537 -256 c55 -113 65 -140 54 -151 -11 -10 -8 -24 14 -75 l27 -62
-23 -24 c-17 -19 -20 -28 -12 -38 9 -11 -3 -16 -62 -26 -69 -11 -76 -11 -116
10 -39 21 -46 21 -94 9 -28 -7 -67 -20 -86 -30 -38 -19 -216 -35 -513 -46
l-168 -6 -58 38 c-54 35 -59 41 -59 74 0 51 12 67 78 100 57 29 70 43 52 54
-4 2 -30 -7 -57 -21 -28 -14 -75 -27 -107 -30 -55 -5 -58 -4 -69 21 -10 22
-10 37 0 74 27 103 65 125 146 88 30 -13 56 -22 59 -19 3 4 3 23 0 43 -5 32
-1 42 36 86 24 27 47 51 52 52 11 5 140 -73 162 -97 28 -31 31 -101 7 -154
-32 -69 -38 -107 -17 -107 11 0 25 18 37 46 l21 46 93 -4 c52 -1 99 -8 105
-14 6 -6 15 -53 21 -105 6 -52 13 -101 16 -109 8 -21 32 36 33 77 0 17 16 62
35 98 l35 67 -25 30 c-48 57 -25 138 46 159 32 10 42 9 64 -5 14 -9 25 -24 25
-34 1 -12 9 -7 33 19 38 44 126 111 138 107 5 -2 40 -65 77 -141z m-4419 -84
c1 -25 21 -32 21 -9 0 20 39 16 45 -4 2 -8 11 -44 20 -80 8 -36 22 -90 30
-120 17 -59 46 -203 42 -205 -2 -2 -311 -22 -314 -21 -2 2 54 251 81 356 14
52 28 115 31 140 4 25 10 50 13 55 7 10 29 -73 31 -112z m4394 -324 c27 6 65
11 85 11 32 0 40 -5 56 -35 16 -30 18 -41 8 -71 -10 -35 -7 -44 68 -199 76
-155 81 -163 132 -196 31 -20 73 -61 101 -98 41 -56 52 -65 80 -65 27 -1 37
-8 64 -51 18 -27 47 -70 64 -94 l32 -44 -20 -85 c-12 -47 -18 -93 -15 -103 4
-10 38 -44 77 -76 77 -65 79 -69 120 -243 40 -172 34 -163 131 -201 l86 -32
37 -76 c60 -119 126 -280 146 -351 9 -35 24 -69 32 -75 8 -6 21 -33 27 -59 11
-43 17 -50 51 -62 21 -7 43 -19 50 -26 12 -13 37 -106 50 -184 5 -31 12 -43
31 -50 18 -6 31 -24 44 -59 10 -27 36 -90 57 -140 30 -73 38 -105 41 -171 l4
-81 -34 -6 c-50 -9 -370 -12 -395 -3 -21 7 -24 20 -9 45 5 8 3 17 -5 22 -12 8
-12 11 1 18 8 6 12 12 9 16 -11 10 -442 25 -741 25 -207 0 -298 3 -298 11 0 6
9 47 21 92 22 89 36 115 117 226 l54 74 125 -7 c84 -4 145 -13 185 -27 63 -21
74 -20 65 5 -6 15 -155 106 -267 163 -78 40 -351 133 -390 133 -19 0 -57 24
-131 85 -228 188 -257 205 -469 275 -177 58 -178 58 -250 19 -34 -18 -83 -52
-109 -74 l-46 -42 -50 23 c-81 38 -85 36 -85 -51 0 -88 -14 -127 -65 -184 -55
-61 -67 -56 -109 45 -20 47 -36 93 -36 101 0 8 40 55 90 105 86 87 111 131 49
88 -18 -14 -40 -20 -61 -18 -29 3 -36 10 -63 65 -46 95 -65 138 -65 153 0 29
74 144 262 408 120 167 137 181 243 201 33 7 69 14 81 16 16 4 25 -5 42 -41
12 -24 22 -51 22 -59 0 -33 23 -20 98 56 63 64 84 80 99 75 10 -4 54 -16 98
-27 134 -33 436 -141 484 -174 46 -30 46 -30 47 -91 2 -57 4 -64 45 -109 24
-27 82 -85 127 -129 49 -47 100 -109 124 -148 39 -65 58 -78 58 -38 0 27 -49
138 -81 182 -14 20 -34 63 -44 95 -27 90 -179 330 -297 471 -68 81 -188 192
-298 277 -184 141 -206 147 -392 117 -73 -12 -177 -27 -232 -33 -311 -34 -352
-53 -355 -161 -2 -71 -78 -204 -208 -366 -38 -46 -47 -53 -45 -32 3 39 -22
231 -34 256 -9 18 -39 55 -67 82 -29 27 -88 93 -131 146 -43 53 -103 116 -131
138 -67 52 -87 101 -62 152 19 42 75 106 91 106 6 0 29 -16 49 -35 37 -35 37
-36 27 -81 -6 -25 -17 -59 -26 -75 -13 -26 -13 -30 1 -35 32 -13 86 65 125
181 l17 50 21 -49 c12 -26 27 -66 32 -87 14 -50 30 -49 54 2 22 49 73 78 108
62 18 -8 26 -24 36 -79 16 -84 47 -157 64 -151 7 2 11 11 10 18 -36 141 -36
142 -24 197 6 30 25 83 41 118 l29 62 65 7 c65 7 150 3 200 -10 20 -5 27 -4
27 6 0 11 23 15 98 16 53 1 189 8 302 14 184 10 212 14 275 39 38 15 77 30 85
32 8 3 37 -6 65 -20 45 -22 54 -23 98 -13z m1381 -88 c17 -19 16 -21 -21 -59
-21 -22 -74 -93 -118 -158 -43 -66 -80 -121 -82 -123 -5 -8 -42 45 -43 61 0 9
12 29 28 45 15 16 44 51 66 77 27 34 41 45 49 37 19 -19 29 -12 23 15 -5 19 2
36 31 74 21 27 41 49 44 50 3 0 14 -9 23 -19z m-5569 -93 c-3 -35 -16 -103
-30 -153 -14 -49 -38 -155 -54 -235 -27 -137 -60 -232 -87 -255 -7 -5 -22 -57
-34 -115 -12 -58 -60 -240 -106 -405 -47 -165 -92 -324 -100 -353 -14 -49 -20
-56 -107 -120 -51 -37 -130 -94 -175 -126 l-84 -58 7 34 c3 18 17 80 31 138
158 686 163 712 157 820 l-5 95 36 47 c42 54 44 80 17 167 l-19 61 25 38 c14
20 38 51 53 67 23 25 32 52 54 160 15 72 33 155 40 185 l12 55 115 3 c63 1
128 4 144 6 17 1 49 4 72 4 l42 2 -4 -62z m5824 -39 c85 -87 89 -94 96 -146
l7 -54 -89 -82 c-48 -45 -101 -97 -117 -114 -16 -18 -33 -33 -36 -33 -4 0 -12
12 -19 26 -10 23 -16 25 -45 20 -20 -4 -37 -2 -41 4 -3 5 -10 10 -16 10 -17 0
-9 -20 16 -36 19 -12 28 -14 39 -5 11 9 17 5 31 -16 l18 -27 -43 -38 c-50 -45
-50 -45 -75 55 l-17 69 31 38 31 39 -14 87 -14 87 82 103 c44 57 82 104 84
104 1 0 43 -41 91 -91z m243 -241 c12 -10 17 -34 20 -98 1 -47 0 -89 -4 -95
-9 -14 -28 -123 -28 -161 0 -39 6 -44 43 -37 23 5 27 10 27 39 0 19 4 34 9 34
4 0 24 -25 44 -54 l37 -55 -26 -68 c-32 -85 -68 -132 -191 -247 -173 -163
-320 -272 -340 -253 -7 8 111 290 144 343 24 39 38 50 78 64 27 9 51 22 53 29
7 20 -52 5 -134 -35 -62 -29 -76 -42 -108 -91 -57 -92 -115 -216 -129 -279
l-14 -59 -63 -3 c-61 -3 -62 -3 -55 20 22 74 16 86 -105 180 -36 28 -73 60
-83 71 -13 15 -34 22 -78 25 -69 5 -68 4 -36 107 l23 70 49 12 c28 7 90 17
138 22 l88 9 57 53 c31 30 93 81 136 114 44 33 111 90 150 126 39 36 105 90
146 121 41 31 86 67 99 82 28 30 31 31 53 14z m-742 -261 c0 -7 13 -52 28 -99
l28 -87 -28 -12 c-40 -16 -52 -8 -76 57 l-21 58 27 48 c27 47 42 60 42 35z
m810 -592 c0 -20 -37 -131 -56 -167 -13 -24 -18 -27 -35 -18 -16 9 -30 5 -72
-19 -29 -16 -64 -34 -79 -40 -48 -18 -31 3 27 33 77 40 99 66 124 145 12 38
27 72 34 75 27 10 57 6 57 -9z m80 -298 c71 -33 80 -41 80 -74 0 -26 -3 -27
-32 -12 -11 6 -61 19 -111 30 -88 18 -91 18 -126 -1 -21 -10 -55 -36 -77 -58
l-39 -40 -55 9 c-30 5 -101 12 -157 15 -78 5 -103 10 -103 20 0 12 24 13 131
10 l131 -4 86 49 c47 27 87 49 89 49 2 0 21 11 41 25 41 28 45 27 142 -18z
m-5986 -32 c-17 -81 -55 -178 -82 -213 -17 -21 -50 -74 -74 -118 -41 -76 -43
-82 -41 -157 2 -73 32 -198 54 -221 5 -6 9 -14 9 -19 0 -5 -20 8 -43 29 -24
22 -69 58 -100 81 -33 25 -57 50 -56 60 0 10 21 79 47 154 44 128 50 139 90
170 38 30 48 45 72 119 16 47 34 103 39 126 l11 41 40 -11 c38 -10 40 -12 34
-41z m5519 -332 c24 -16 114 -61 201 -102 123 -59 153 -77 140 -84 -12 -7 -33
-3 -70 13 -37 15 -63 20 -83 15 -25 -5 -36 -1 -59 22 -61 60 -67 64 -95 54
-38 -15 -87 27 -87 75 0 19 2 34 5 34 2 0 24 -12 48 -27z m-6545 -480 c41
-193 62 -259 82 -256 8 1 32 6 52 11 27 7 70 4 168 -13 148 -26 217 -48 257
-83 l28 -23 -257 5 c-248 5 -284 2 -240 -23 16 -10 16 -10 0 -11 -10 0 -18 -4
-18 -9 0 -5 8 -12 18 -16 15 -6 14 -8 -5 -16 -27 -10 -30 -29 -5 -29 14 0 15
-2 2 -10 -12 -7 -10 -11 10 -19 l25 -10 -25 -1 c-33 -1 -46 -11 -45 -35 0 -11
-5 -25 -11 -31 -15 -17 -244 -24 -244 -8 0 7 9 57 19 111 11 54 23 121 26 148
13 87 115 475 125 475 3 0 20 -70 38 -157z m4905 108 c28 -5 58 -18 73 -32 34
-31 82 -126 90 -178 6 -38 2 -48 -45 -122 -43 -68 -50 -84 -39 -97 11 -13 8
-14 -33 -8 -38 6 -276 24 -327 26 -9 0 -11 7 -7 19 4 13 0 21 -12 24 -16 4
-15 6 5 12 27 9 29 25 2 25 -25 0 -27 17 -2 23 13 3 11 6 -11 17 -28 14 -28
14 -7 22 24 9 18 28 -8 28 -14 0 -14 2 -3 9 20 13 4 31 -27 31 -25 1 -26 2 -8
15 10 7 15 18 12 23 -3 5 3 12 14 15 11 3 20 10 20 16 0 7 -32 11 -92 11 l-93
0 26 25 c42 43 262 101 389 103 19 1 56 -3 83 -7z m2117 -46 c0 -12 -18 -15
-101 -15 -116 0 -139 -8 -139 -50 l0 -29 93 -3 c89 -3 93 -2 129 26 37 28 38
29 99 17 79 -16 166 -50 173 -67 7 -17 13 -18 -80 6 -44 11 -96 20 -116 20
-32 0 -40 -5 -65 -45 -32 -51 -55 -56 -80 -19 -16 26 -20 26 -82 20 -37 -3
-79 -9 -95 -13 -28 -6 -29 -5 -23 27 4 18 7 54 7 81 l0 48 58 4 c157 10 222 7
222 -8z m-3950 -411 c0 -27 -190 -258 -229 -278 -30 -16 -104 -10 -223 18 -37
8 -127 18 -202 22 l-134 7 -17 -39 c-43 -106 -81 -173 -100 -178 -27 -6 -104
7 -135 23 -37 20 -80 63 -80 80 0 8 14 38 31 67 l32 51 161 6 c177 5 353 35
396 66 14 10 43 27 65 39 22 11 61 39 87 61 32 28 56 41 75 41 26 0 249 15
266 18 4 1 7 -1 7 -4z m445 -405 c72 -6 132 -15 133 -20 2 -5 12 -9 22 -9 10
0 22 -4 25 -10 3 -5 0 -10 -8 -10 -8 0 -20 -6 -26 -14 -13 -16 4 -26 47 -26
23 -1 25 -2 9 -11 -24 -14 -12 -29 24 -29 36 0 39 -17 4 -22 -35 -4 -35 -22 1
-29 28 -5 28 -5 7 -13 -13 -4 -23 -13 -23 -21 0 -7 -10 -15 -22 -17 -12 -2
-23 -7 -25 -13 -2 -6 115 -11 335 -13 185 -2 338 -5 340 -6 1 -2 -15 -22 -35
-45 l-38 -41 -190 -10 c-104 -5 -275 -10 -380 -12 l-190 -2 -73 32 c-40 17
-89 34 -108 38 -18 3 -34 8 -34 10 0 2 7 22 16 44 10 24 13 45 8 50 -5 4 -58
13 -119 19 -60 6 -129 14 -152 17 -40 6 -43 5 -43 -17 0 -31 -40 -88 -66 -95
-24 -6 -100 12 -109 26 -9 15 7 90 23 107 12 12 29 14 68 10 44 -5 51 -3 48
11 -1 10 -5 45 -8 78 l-5 61 207 -4 c114 -2 266 -8 337 -14z"/>
<path d="M2613 4813 c-16 -21 -39 -56 -52 -78 -22 -37 -22 -40 -5 -52 25 -18
48 -16 93 7 44 22 92 75 85 93 -4 11 -77 67 -87 67 -3 0 -18 -17 -34 -37z"/>
<path d="M6215 6673 c-27 -2 -60 -6 -73 -8 -26 -6 -26 -8 24 -165 48 -152 91
-300 99 -336 l6 -31 191 -9 c104 -5 194 -7 198 -4 5 3 -5 63 -22 133 -33 139
-32 173 3 141 20 -18 21 -18 64 5 50 26 59 42 41 67 -13 17 -15 16 -37 -9 -22
-25 -27 -26 -58 -17 -27 8 -38 6 -51 -5 -9 -8 -31 -15 -48 -15 -30 0 -31 1
-21 29 7 21 20 31 50 40 31 10 41 18 45 40 6 26 11 29 67 37 89 13 83 30 -13
37 -73 6 -87 10 -130 42 l-48 35 -118 -2 c-66 -1 -141 -3 -169 -5z"/>
<path d="M7378 3663 c-64 -65 -139 -145 -166 -179 -114 -138 -107 -134 -205
-141 -100 -7 -125 -18 -104 -47 13 -18 16 -18 90 3 91 25 107 26 107 6 0 -8 9
-19 20 -25 16 -8 21 -6 31 12 39 72 256 330 349 414 33 30 38 39 29 55 -5 10
-15 19 -22 19 -7 0 -65 -53 -129 -117z"/>
<path d="M260 11606 c0 -3 7 -33 15 -68 14 -64 78 -441 90 -535 8 -63 20 -79
64 -88 32 -7 33 -6 28 21 -4 16 -34 174 -69 352 l-63 322 -32 0 c-18 0 -33 -2
-33 -4z"/>
<path d="M750 10398 c0 -7 -3 -23 -6 -35 -5 -18 -1 -23 19 -28 22 -6 26 -14
32 -57 4 -28 13 -52 21 -55 21 -8 54 26 54 54 0 26 2 27 69 12 49 -10 50 -11
57 -56 7 -49 23 -61 58 -45 18 8 22 16 18 45 l-4 35 81 -20 c64 -16 81 -24 82
-39 1 -11 3 -23 4 -29 1 -5 3 -17 4 -25 1 -15 27 -20 55 -9 11 4 13 14 9 35
-5 26 -3 29 18 29 31 -1 142 -25 157 -34 7 -4 12 -21 12 -37 0 -17 5 -39 10
-50 9 -16 14 -17 32 -8 16 9 19 17 15 45 -6 37 -11 36 72 14 16 -4 27 -17 35
-40 11 -35 47 -53 67 -33 11 11 -11 84 -28 90 -7 3 -13 11 -13 17 0 7 -41 22
-97 35 -54 13 -134 34 -178 46 -44 13 -134 33 -200 45 -66 12 -191 42 -278 66
-174 49 -177 49 -177 32z"/>
</g>
</svg>
