<?xml version="1.0" standalone="no"?>
<!DOCTYPE svg PUBLIC "-//W3C//DTD SVG 20010904//EN"
 "http://www.w3.org/TR/2001/REC-SVG-20010904/DTD/svg10.dtd">
<svg version="1.0" xmlns="http://www.w3.org/2000/svg"
 width="800.000000pt" height="1153.000000pt" viewBox="0 0 800.000000 1153.000000"
 preserveAspectRatio="xMidYMid meet">
<metadata>
Created by potrace 1.16, written by Peter Selinger 2001-2019
</metadata>
<g transform="translate(0.000000,1153.000000) scale(0.100000,-0.100000)"
fill="#000000" stroke="none">
<path d="M4937 10962 c-33 -34 -40 -49 -54 -125 -15 -76 -15 -96 -4 -155 7
-37 15 -124 18 -194 5 -119 16 -164 26 -100 4 24 4 24 6 -6 1 -26 -4 -35 -19
-39 -11 -3 -20 -13 -20 -22 0 -9 -3 -26 -6 -38 -4 -14 -2 -23 5 -23 6 0 11 7
11 17 0 9 3 14 6 10 9 -9 -6 -48 -17 -42 -5 3 -6 -1 -3 -9 3 -9 1 -16 -4 -16
-6 0 -15 -15 -21 -32 -5 -18 -34 -105 -64 -193 -30 -88 -60 -185 -67 -215 -18
-84 -19 -87 -30 -70 -6 8 -10 27 -10 41 0 15 -8 33 -19 40 -14 10 -20 31 -25
79 -5 59 -4 63 9 46 8 -11 15 -32 15 -47 0 -15 3 -30 8 -33 14 -8 0 148 -16
179 l-16 30 -7 -45 c-14 -88 -9 -160 17 -252 20 -70 25 -103 20 -144 -4 -37
-2 -54 7 -57 7 -3 5 -6 -5 -6 -10 -1 -18 -6 -18 -12 0 -6 7 -9 15 -5 8 3 15 4
15 2 0 -1 -20 -40 -45 -86 -25 -46 -45 -86 -45 -89 0 -3 -16 -23 -35 -45 -19
-21 -35 -43 -35 -49 0 -20 51 45 87 111 20 37 47 83 60 102 12 19 23 45 23 59
0 21 2 22 17 10 15 -13 15 -12 4 10 -8 14 -9 26 -4 30 17 11 25 45 29 131 4
86 54 275 89 337 l16 28 -6 -35 c-10 -59 -27 -120 -36 -126 -5 -3 -9 -16 -9
-29 0 -13 -4 -26 -9 -29 -12 -8 -20 -58 -27 -166 -3 -47 -9 -123 -14 -170 -11
-126 -46 -210 -87 -210 -13 0 -23 -4 -23 -10 0 -5 7 -10 15 -10 9 0 12 -6 8
-15 -3 -9 -8 -14 -10 -11 -3 2 -19 -11 -35 -30 -17 -19 -28 -37 -25 -41 4 -3
16 5 27 18 l21 24 -21 -35 c-11 -19 -23 -42 -26 -50 -23 -58 -44 -101 -41 -82
3 12 1 20 -4 16 -5 -3 -9 -14 -9 -24 0 -10 -5 -22 -10 -25 -7 -4 -6 -13 1 -27
9 -16 8 -19 -1 -13 -10 6 -11 1 -7 -18 6 -22 4 -24 -14 -20 -11 3 -16 9 -10
12 5 4 12 30 15 58 2 29 8 58 12 65 6 10 3 9 -9 -1 -9 -7 -17 -26 -17 -42 0
-16 -4 -29 -9 -29 -4 0 -6 -27 -4 -60 3 -39 0 -66 -7 -76 -8 -8 -10 -30 -7
-54 3 -22 1 -43 -4 -46 -5 -3 -9 3 -10 13 -2 28 2 135 6 163 2 14 4 44 4 67 1
40 26 81 88 146 15 16 15 17 0 17 -9 0 -17 -4 -17 -9 0 -5 -20 -31 -45 -57
-42 -44 -53 -47 -39 -10 3 9 12 16 19 16 7 0 24 15 38 33 51 64 107 122 107
109 0 -7 5 -10 10 -7 6 4 8 15 5 24 -3 10 3 29 13 42 33 41 72 127 72 156 -1
24 -2 25 -11 10 -5 -9 -8 -21 -4 -26 3 -6 -6 -21 -21 -36 -22 -22 -30 -37 -33
-66 -2 -14 -73 -99 -79 -95 -4 3 -14 -10 -22 -27 -16 -37 -68 -93 -77 -83 -3
3 2 15 12 26 10 11 15 28 12 40 -3 11 -1 20 4 20 4 0 13 19 19 43 11 44 33
101 57 152 12 25 13 26 8 5 -18 -75 -12 -85 11 -18 l26 77 -32 43 -32 43 6
-37 c5 -28 3 -38 -6 -38 -7 0 -21 -20 -31 -44 -10 -24 -24 -52 -32 -62 -12
-17 -12 -15 -2 16 7 19 16 41 20 48 5 8 3 12 -7 12 -9 0 -16 -7 -16 -16 0 -8
-4 -13 -9 -10 -5 3 -15 -21 -24 -54 -8 -33 -11 -60 -6 -60 5 0 9 -16 9 -36 0
-33 -2 -35 -17 -23 -15 13 -15 12 -5 -8 10 -18 9 -24 -5 -32 -10 -6 -13 -11
-6 -11 8 0 5 -12 -8 -35 -11 -19 -18 -39 -14 -45 4 -6 2 -17 -4 -23 -6 -7 -12
-33 -13 -58 -2 -24 -6 -46 -10 -50 -4 -3 -11 -32 -16 -65 -6 -45 -5 -63 5 -72
9 -9 10 -18 1 -37 -6 -13 -15 -22 -19 -19 -5 3 -9 -3 -9 -13 0 -10 -3 -72 -7
-138 -3 -66 -3 -118 0 -115 2 3 8 52 11 109 3 58 9 107 12 110 9 8 -4 -206
-14 -244 -5 -16 -13 -29 -18 -27 -5 2 -19 -28 -31 -67 -11 -39 -34 -92 -50
-118 -15 -27 -35 -61 -43 -76 -8 -16 -25 -40 -38 -54 -19 -21 -25 -23 -38 -12
-13 11 -14 37 -8 191 5 126 3 178 -4 178 -16 0 -21 -46 -26 -225 -3 -127 -8
-173 -25 -225 -11 -36 -21 -67 -21 -69 0 -2 8 7 19 20 10 13 16 29 14 36 -4 9
0 11 11 7 11 -4 13 -11 7 -22 -5 -10 -16 -34 -26 -54 -18 -40 -35 -50 -35 -21
0 24 -17 4 -23 -27 -4 -23 -4 -23 -6 4 0 16 8 48 19 71 11 22 22 56 25 75 6
40 12 50 -58 -98 -41 -86 -51 -99 -62 -82 -3 5 -2 10 2 10 12 0 10 84 -2 90
-5 2 -23 23 -38 47 l-28 42 23 33 c12 18 30 42 39 53 22 26 30 67 19 85 -7 12
-10 8 -10 -13 0 -20 -14 -43 -45 -75 -49 -52 -62 -42 -15 11 17 19 30 39 30
43 0 5 -5 1 -11 -8 -5 -10 -19 -23 -31 -29 -14 -8 -18 -8 -14 0 4 6 2 19 -4
28 -8 14 -10 14 -9 3 2 -26 -13 -60 -26 -60 -7 0 -16 -6 -18 -12 -3 -7 -6 -4
-6 7 0 11 3 26 8 33 4 8 0 41 -10 79 -20 71 -36 101 -24 43 9 -39 9 -39 7 -98
-2 -40 -4 -43 -24 -36 -38 12 -107 5 -134 -13 -25 -16 -27 -16 -40 2 -9 12
-11 28 -6 44 11 39 2 206 -10 188 -11 -17 -10 -71 1 -101 10 -25 4 -96 -8 -96
-4 0 -12 15 -19 33 -11 32 -11 85 3 313 5 80 4 123 -6 150 -7 22 -14 34 -16
27 -2 -7 1 -21 7 -33 13 -25 -5 -280 -24 -347 -8 -25 -9 -47 -4 -57 7 -12 5
-16 -7 -16 -11 0 -15 -6 -11 -17 5 -18 26 -141 26 -156 0 -11 -87 75 -93 93
-3 8 -6 2 -6 -15 0 -40 17 -69 59 -98 37 -25 40 -39 15 -89 -12 -26 -12 -28 6
-28 10 0 19 -5 19 -10 0 -6 -10 -8 -24 -4 -17 4 -28 0 -39 -17 -11 -14 -21
-19 -33 -15 -14 5 -15 4 -4 -9 12 -14 7 -28 -20 -55 -3 -3 -18 -25 -35 -49
-16 -24 -40 -50 -52 -58 -28 -19 -30 -38 -3 -29 49 15 65 16 36 3 l-29 -14 22
-15 c19 -14 21 -20 12 -57 -5 -23 -6 -51 -3 -63 3 -14 1 -19 -6 -14 -8 5 -10
2 -6 -9 4 -8 13 -14 22 -13 20 4 27 -18 8 -25 -18 -7 -82 35 -79 51 4 15 -10
15 -25 0 -9 -9 -12 -9 -12 0 0 7 5 12 10 12 18 0 10 17 -15 34 l-25 16 7 -32
c6 -34 36 -83 63 -105 11 -9 12 -12 2 -13 -7 0 3 -17 22 -37 45 -48 37 -58 -9
-13 -36 34 -85 127 -85 159 0 10 -20 31 -45 49 -51 36 -57 34 -20 -6 14 -15
25 -30 25 -34 0 -17 -46 -7 -58 12 -7 11 -19 20 -27 20 -19 0 -19 -9 0 -34 20
-27 19 -43 -4 -51 -16 -5 -17 -9 -8 -29 7 -14 15 -22 19 -20 6 4 58 -44 104
-97 12 -13 46 -37 75 -52 48 -26 50 -28 19 -22 -75 16 -146 62 -195 130 -13
17 -14 18 -15 3 0 -12 -5 -16 -17 -11 -15 5 -16 3 -5 -8 21 -22 14 -31 -22
-27 -19 2 -32 0 -30 -4 3 -4 13 -8 24 -8 10 0 21 -7 24 -16 5 -12 1 -14 -17
-8 -28 8 -80 35 -87 43 -3 4 -25 17 -50 30 -25 12 -35 20 -22 17 12 -2 22 0
22 4 0 5 -17 12 -37 15 -21 3 -63 11 -94 16 -31 6 -64 9 -75 7 -16 -4 -15 -6
8 -16 14 -6 29 -16 33 -21 3 -6 18 -11 33 -11 14 0 42 -10 61 -23 81 -53 144
-88 154 -84 9 3 -45 38 -113 74 -14 7 -19 13 -11 13 16 0 134 -62 139 -72 2
-5 10 -8 18 -8 8 0 14 -4 14 -10 0 -5 6 -10 13 -10 17 0 71 -56 60 -62 -14 -7
-46 0 -100 21 -29 12 -53 17 -53 13 0 -10 -96 -32 -137 -32 -17 0 -43 4 -57
10 -20 7 -24 6 -19 -5 3 -8 17 -15 32 -15 l26 -1 -25 -13 c-16 -9 -79 -15
-174 -19 -131 -4 -153 -3 -190 14 -46 21 -127 27 -91 7 11 -6 50 -37 86 -69
52 -46 67 -54 75 -43 12 19 140 3 208 -26 34 -14 59 -18 82 -14 26 5 34 3 34
-9 0 -20 -21 -36 -58 -43 -17 -4 -37 -13 -43 -20 -6 -8 -17 -14 -23 -14 -6 0
-22 -9 -36 -20 l-25 -19 25 6 c24 5 25 5 5 -11 -19 -15 -18 -15 15 -10 l35 5
-40 -15 c-48 -19 -48 -19 -40 -6 3 6 1 10 -5 10 -6 0 -13 -7 -16 -15 -4 -8
-10 -15 -15 -15 -6 0 -4 10 2 23 11 20 11 21 -5 7 -13 -10 -39 -13 -91 -11
-87 3 -145 -11 -171 -40 -19 -22 -19 -22 8 -17 16 3 28 1 28 -4 0 -6 23 -7 55
-3 30 4 55 5 55 1 0 -8 -81 -48 -87 -43 -2 3 -20 1 -39 -4 -45 -13 -66 0 -28
16 l29 12 -36 7 c-44 8 -157 -7 -263 -36 -69 -18 -96 -20 -222 -15 -133 5
-152 9 -259 45 -63 22 -115 36 -115 32 0 -11 80 -80 105 -90 11 -4 52 -23 90
-41 55 -27 83 -34 130 -34 33 0 114 -7 180 -14 99 -12 125 -18 148 -38 35 -28
51 -29 83 -4 36 28 153 45 259 37 49 -3 92 -11 93 -16 2 -6 13 1 23 14 23 30
97 81 145 101 41 17 95 11 147 -17 l39 -20 28 33 c35 41 37 33 9 -24 l-21 -42
54 60 c30 33 68 75 83 93 24 29 72 62 91 62 11 0 -12 -170 -35 -258 -7 -23
-20 -60 -31 -84 -44 -97 -12 -84 40 16 19 36 37 60 41 55 3 -6 9 10 11 36 3
26 11 52 18 58 10 10 11 7 6 -13 -4 -14 -10 -49 -12 -79 -6 -68 -23 -102 -25
-51 -1 34 -1 34 -10 -10 -5 -25 -13 -46 -19 -48 -5 -2 -10 -9 -10 -15 0 -7 -5
-19 -10 -27 -9 -13 -11 -13 -20 0 -10 13 -11 13 -9 0 3 -29 -1 -36 -33 -60
-26 -18 -29 -19 -17 -4 28 33 32 50 4 19 -14 -16 -44 -49 -66 -72 -35 -37 -39
-46 -38 -90 1 -47 1 -48 8 -11 10 48 32 80 67 98 16 8 37 23 47 34 17 19 17
18 18 -10 1 -17 3 -22 6 -11 2 9 8 17 13 17 4 0 11 10 15 23 4 13 8 17 12 10
8 -21 20 -15 37 20 13 27 16 28 16 10 0 -12 -11 -42 -24 -67 -14 -26 -18 -42
-11 -40 7 3 24 30 38 61 19 43 23 62 16 85 -7 24 -4 36 11 56 12 14 20 40 20
62 0 21 7 43 15 50 8 7 15 18 15 26 0 8 -10 4 -27 -12 -14 -13 -28 -22 -31
-20 -4 4 33 91 45 105 2 3 9 -4 16 -14 13 -17 14 -17 21 0 3 9 9 45 12 78 4
34 12 66 20 72 7 5 27 34 42 64 16 29 32 49 36 43 9 -15 -5 -73 -20 -79 -7 -2
-10 -12 -7 -20 4 -10 2 -14 -4 -10 -6 4 -9 -15 -8 -51 0 -31 -5 -91 -12 -132
-6 -41 -10 -76 -8 -78 2 -2 15 49 30 112 15 64 30 116 35 116 4 0 5 -12 2 -27
-2 -16 -2 -25 2 -22 4 4 8 22 10 40 2 19 8 45 14 59 5 14 12 34 14 45 3 11 4
-8 2 -43 -1 -35 -8 -70 -15 -78 -6 -8 -8 -14 -5 -14 15 0 33 27 44 65 9 33 10
23 5 -61 -3 -62 -2 -104 5 -107 6 -4 11 32 14 96 7 148 27 175 28 37 1 -58 5
-114 10 -125 5 -12 7 9 4 55 -2 41 1 91 5 110 7 26 9 7 10 -77 1 -93 4 -113
16 -113 8 0 15 -3 15 -7 0 -5 -27 -8 -60 -7 -46 0 -60 -3 -56 -12 3 -8 1 -16
-4 -19 -4 -3 -10 -1 -12 5 -1 5 -28 -7 -59 -28 -67 -44 -166 -165 -209 -254
-38 -78 -100 -154 -100 -122 0 11 9 29 20 39 23 21 17 39 -10 25 -15 -8 -19
-6 -23 13 -2 14 -4 11 -3 -8 1 -36 -34 -125 -50 -125 -13 0 -78 -89 -71 -97 3
-2 29 18 57 47 55 54 80 61 37 11 -13 -16 -27 -27 -30 -25 -8 8 -37 -52 -37
-76 0 -12 -7 -28 -15 -36 -13 -14 -15 -13 -16 8 0 13 -6 1 -13 -27 -7 -27 -16
-61 -21 -75 -15 -46 25 -2 53 60 15 30 32 61 39 69 8 7 11 23 8 35 -5 17 -4
18 4 6 9 -13 11 -13 11 3 0 9 7 17 15 17 9 0 15 -9 15 -24 0 -25 -29 -88 -42
-94 -5 -2 -8 -13 -8 -23 0 -30 -28 -79 -66 -114 -22 -21 -34 -42 -34 -58 0
-14 -4 -29 -10 -32 -6 -4 -8 7 -4 27 4 25 3 29 -5 18 -6 -8 -11 -33 -11 -56 0
-46 -29 -97 -108 -189 -56 -64 -70 -96 -24 -52 16 15 31 24 35 20 4 -3 7 0 7
9 0 8 13 28 30 44 16 16 30 33 30 38 0 12 90 99 90 86 0 -5 -16 -28 -36 -50
-20 -22 -31 -40 -24 -40 6 0 -4 -17 -23 -37 -19 -21 -63 -69 -97 -108 -87 -96
-130 -138 -136 -132 -3 2 11 25 31 51 22 29 28 42 15 34 -10 -7 -27 -27 -36
-44 -10 -18 -22 -31 -28 -30 -6 2 -8 1 -3 -1 12 -8 8 -24 -6 -21 -28 6 -168
-147 -151 -165 12 -12 135 107 130 126 -1 7 -1 8 2 4 2 -4 10 -3 18 4 8 7 17
9 21 5 11 -11 -16 -56 -40 -65 -12 -5 -46 -27 -75 -50 -28 -23 -52 -38 -52
-34 0 5 -4 3 -8 -3 -8 -11 -79 -53 -156 -91 -60 -30 -92 -26 -134 16 -21 21
-39 31 -59 30 -22 -1 -23 -3 -7 -6 12 -2 36 -19 53 -38 46 -51 86 -68 142 -63
27 3 46 1 43 -4 -3 -4 -28 -8 -55 -8 -31 0 -48 -4 -44 -10 3 -6 18 -7 33 -4
26 6 26 6 7 -9 -11 -9 -15 -17 -7 -17 6 0 12 -5 12 -11 0 -8 -17 -10 -50 -7
-28 3 -50 1 -50 -3 0 -5 -6 -6 -14 -3 -8 3 -12 12 -10 19 8 19 -11 26 -41 15
-33 -13 -97 -61 -90 -68 3 -3 19 7 35 23 16 16 33 25 37 21 4 -4 0 -12 -10
-17 -9 -6 -17 -17 -17 -24 0 -8 -6 -15 -14 -15 -8 0 -18 -5 -22 -12 -5 -7 -2
-9 7 -4 8 4 6 1 -4 -7 -10 -8 -27 -13 -38 -10 -18 5 -19 6 -2 20 17 13 16 13
-7 7 -14 -3 -29 -10 -35 -14 -5 -4 -22 -10 -37 -14 -16 -4 -28 -13 -28 -22 0
-9 -3 -14 -7 -12 -5 2 -25 10 -45 18 -21 8 -38 18 -38 22 0 4 -8 8 -17 8 -14
-1 -11 -6 12 -26 85 -71 120 -69 281 12 91 46 126 59 174 62 l59 4 -6 29 c-4
19 -1 29 6 29 8 0 10 -8 6 -20 -4 -11 -2 -20 4 -20 6 0 8 -7 5 -15 -4 -8 -12
-15 -19 -15 -8 0 -22 -10 -32 -23 -10 -13 -31 -32 -46 -42 -21 -13 -25 -20
-15 -26 9 -6 6 -9 -10 -9 -14 0 -26 -8 -31 -23 -5 -13 -16 -29 -25 -36 -9 -7
-16 -19 -16 -25 1 -6 8 -2 18 9 26 31 113 95 129 95 15 0 2 -24 -47 -90 -39
-51 -42 -76 -19 -152 11 -38 21 -68 23 -68 2 0 2 18 -1 39 -8 56 2 84 43 125
34 34 40 36 83 31 25 -3 55 -8 66 -12 18 -5 18 -4 6 11 -8 9 -11 20 -7 23 4 4
11 1 15 -6 6 -9 11 -2 15 23 4 19 13 48 21 63 8 15 15 34 15 42 0 40 58 172
98 224 24 32 47 56 49 53 3 -3 0 -13 -8 -23 -9 -11 -10 -14 -1 -9 18 11 15 0
-11 -42 -13 -20 -34 -79 -48 -129 -13 -51 -27 -89 -31 -85 -4 4 -1 30 7 57 9
27 11 45 6 40 -15 -17 -32 -81 -25 -99 4 -9 3 -16 -2 -15 -19 3 -28 -2 -16 -9
17 -11 -28 -143 -68 -199 -17 -23 -30 -49 -30 -59 0 -16 -1 -16 -15 2 -16 19
-16 19 -13 -1 2 -14 11 -20 32 -20 15 -1 33 -8 40 -17 8 -11 17 -13 35 -6 17
6 27 5 32 -4 13 -20 52 58 81 162 19 70 27 86 27 61 2 -60 41 -184 68 -212 16
-17 21 -29 14 -33 -6 -4 -11 -5 -11 -1 0 3 -14 -2 -31 -10 -46 -24 -29 -28 36
-10 41 12 60 14 68 6 6 -6 25 -10 41 -10 17 1 24 3 15 6 -18 4 -26 52 -34 178
-2 39 -8 101 -14 140 -5 38 -7 83 -5 100 12 68 15 79 23 67 4 -7 25 -15 47
-18 34 -4 36 -3 17 7 -39 21 -45 60 -22 162 44 203 53 233 70 259 25 35 24 47
-1 17 -10 -13 -19 -19 -20 -13 0 6 8 19 19 28 17 16 21 14 77 -31 58 -48 56
-35 -6 33 l-32 36 42 43 c23 24 40 48 36 53 -6 10 26 123 66 232 11 30 24 75
27 100 8 45 10 44 30 -19 18 -55 13 -80 -19 -108 -16 -13 -30 -32 -30 -41 1
-14 3 -13 12 3 16 27 34 45 47 45 5 0 17 10 25 22 12 17 14 43 9 137 -5 107
-4 114 11 96 14 -19 15 -16 16 44 0 36 5 103 11 151 10 81 14 89 55 136 47 53
44 55 47 -18 0 -7 -3 -39 -7 -71 -7 -49 -6 -61 9 -77 25 -27 37 -25 24 4 -9
20 -7 41 10 104 14 53 19 93 15 119 -4 30 -2 42 11 53 15 13 16 6 11 -86 -4
-54 -11 -117 -16 -139 -11 -44 -13 -102 -4 -93 3 4 7 12 8 20 12 64 29 129 32
125 3 -2 -2 -38 -11 -78 -9 -41 -18 -86 -22 -101 -3 -18 -1 -28 6 -28 7 0 9
-5 6 -10 -4 -6 -11 -8 -16 -5 -5 4 -9 -3 -9 -14 0 -14 -5 -19 -15 -15 -11 5
-13 2 -8 -12 4 -11 2 -15 -4 -11 -5 4 -25 -16 -44 -44 -19 -28 -44 -66 -57
-85 -12 -19 -17 -34 -12 -34 6 0 8 -6 4 -12 -5 -9 -2 -9 9 1 23 19 21 -1 -3
-32 -11 -14 -20 -30 -20 -35 0 -6 -5 -14 -12 -18 -8 -5 -9 0 -6 14 8 31 -6 27
-22 -5 -16 -31 -66 -83 -80 -83 -5 0 -7 -6 -4 -14 4 -11 0 -13 -14 -9 -16 4
-22 -3 -32 -34 -7 -21 -16 -42 -21 -48 -13 -13 -11 -27 2 -19 8 4 9 -1 4 -17
-7 -23 -7 -23 14 3 24 30 28 46 6 28 -9 -8 -15 -9 -15 -2 0 6 8 17 18 24 10 7
29 28 43 47 28 40 56 71 65 71 13 0 -10 -45 -35 -66 -14 -13 -21 -24 -14 -24
6 0 15 5 18 10 11 18 24 10 21 -12 -3 -20 -29 -88 -43 -110 -2 -5 1 -8 7 -8 7
0 14 9 17 20 3 11 9 20 13 20 10 0 0 -123 -11 -135 -5 -5 -9 -18 -9 -28 0 -10
-13 -58 -29 -105 -16 -48 -33 -107 -36 -131 -5 -31 -10 -40 -17 -30 -6 10 -8
7 -7 -11 1 -14 -1 -45 -5 -70 -3 -25 -8 -108 -10 -185 -3 -142 -11 -189 -27
-164 -9 15 -44 -56 -55 -111 -4 -17 -13 -34 -20 -37 -8 -3 -14 -11 -14 -18 0
-6 -13 -30 -28 -51 -36 -50 -50 -106 -57 -227 -3 -54 -10 -107 -16 -118 -5
-11 -8 -25 -6 -32 8 -24 47 75 54 135 8 85 35 160 80 222 34 47 62 110 100
226 9 26 17 99 20 170 3 93 12 155 33 241 30 118 66 216 76 206 3 -3 1 -15 -6
-27 -6 -11 -10 -28 -8 -38 1 -9 -1 -22 -5 -28 -3 -6 -13 -38 -21 -70 -8 -33
-17 -68 -21 -79 -6 -19 -6 -19 8 -2 9 11 19 36 22 58 6 33 9 37 25 29 14 -8
20 -3 35 29 9 21 29 57 44 80 l28 41 11 -142 c7 -79 19 -195 28 -258 8 -63 19
-200 24 -305 10 -220 61 -591 120 -871 11 -53 20 -119 20 -145 0 -27 9 -72 19
-101 25 -68 42 -176 34 -207 -4 -15 -2 -22 4 -18 7 4 10 -66 9 -206 -1 -224 6
-282 59 -477 25 -91 108 -484 130 -615 7 -44 23 -184 35 -311 l23 -231 -37
-154 c-19 -85 -38 -173 -40 -197 -2 -24 -10 -50 -17 -58 -16 -20 -24 -215 -11
-269 9 -38 10 -38 12 -10 1 17 6 41 10 55 8 23 9 22 9 -10 -1 -19 2 -46 7 -58
6 -20 16 -6 65 98 32 67 61 137 65 156 3 19 8 33 10 31 2 -2 6 -76 9 -164 6
-158 6 -162 40 -231 19 -39 35 -75 35 -81 0 -5 4 -13 10 -16 6 -3 7 1 4 9 -3
9 -1 16 4 16 6 0 13 -10 16 -22 3 -13 3 19 1 70 -2 51 0 90 4 87 5 -2 14 -47
21 -100 8 -52 15 -93 18 -91 2 3 10 49 18 103 20 138 15 194 -52 533 -24 118
-14 595 16 790 6 36 22 151 35 255 14 105 34 236 45 292 13 69 22 170 26 320
7 215 6 219 -19 298 -14 44 -28 112 -32 150 -4 39 -11 87 -17 109 -6 26 -6 60
2 106 6 37 13 111 14 166 2 54 10 133 19 174 9 41 26 145 37 230 11 85 34 232
50 325 16 94 34 229 40 300 11 136 30 555 30 663 0 34 3 62 8 62 12 0 47 -61
76 -134 15 -38 40 -88 57 -112 16 -23 29 -54 29 -68 0 -32 -24 -103 -62 -186
-33 -69 -78 -180 -78 -189 0 -11 100 164 144 252 l45 88 23 -33 c13 -18 34
-56 47 -84 17 -37 49 -75 116 -137 52 -48 96 -87 100 -87 9 0 -11 32 -37 60
-29 31 -98 125 -98 134 0 3 43 -31 95 -76 92 -78 95 -83 95 -123 0 -23 -11
-70 -26 -104 -14 -35 -23 -65 -21 -67 5 -6 74 118 80 146 11 45 -49 139 -160
255 -57 58 -103 111 -103 117 0 6 10 3 23 -8 20 -19 104 -79 135 -98 7 -4 15
-1 18 8 4 10 -20 41 -72 92 -52 51 -87 97 -105 135 -15 31 -35 61 -44 67 -16
9 -16 16 -2 118 9 60 21 156 27 214 7 58 15 117 18 132 l7 28 45 -44 c25 -24
63 -65 85 -92 22 -27 87 -98 144 -159 58 -60 107 -112 109 -115 3 -3 -3 11
-13 30 -10 19 -46 64 -80 100 -39 41 -96 122 -155 220 -51 85 -101 167 -112
182 -20 28 -25 112 -8 138 8 12 16 8 50 -25 22 -21 40 -45 40 -51 0 -7 5 -16
11 -20 17 -10 1 34 -32 89 -16 27 -29 53 -29 58 0 5 19 8 43 8 23 -1 52 3 64
9 35 19 36 14 8 -34 -38 -65 -24 -65 25 0 23 31 46 56 50 56 4 0 10 9 13 20 3
14 14 20 32 20 22 0 25 3 20 20 -12 36 21 22 116 -50 50 -38 95 -67 100 -64 5
3 12 -2 15 -10 3 -8 31 -34 62 -57 121 -91 142 -117 162 -205 29 -123 41 -237
42 -379 1 -102 3 -120 10 -85 17 91 20 189 9 329 -6 80 -9 146 -7 149 3 2 21
-29 41 -70 37 -73 62 -109 74 -105 3 1 6 -1 6 -5 0 -13 70 -81 165 -159 108
-90 188 -190 279 -349 33 -58 78 -125 100 -150 22 -25 41 -48 41 -52 0 -9 80
-61 86 -56 2 2 -10 19 -26 37 -17 18 -30 37 -30 42 0 5 -13 35 -29 67 -15 31
-45 102 -66 157 -38 100 -76 160 -170 271 -93 109 -132 145 -149 138 -9 -3
-13 -10 -10 -15 3 -5 1 -9 -5 -9 -6 0 -15 10 -22 21 -8 15 -8 19 0 15 7 -5 10
0 8 13 -3 21 -87 101 -106 101 -6 0 -11 6 -11 13 0 7 -16 28 -35 47 -20 19
-53 62 -75 95 -22 34 -54 71 -70 84 -21 15 -29 28 -25 40 3 11 -2 24 -12 32
-15 12 -16 12 -10 -5 6 -16 5 -17 -8 -6 -13 10 -13 15 -3 21 12 8 -1 21 -177
182 -22 20 -44 37 -50 37 -5 0 29 -38 78 -85 48 -46 87 -87 87 -90 0 -8 -62
35 -72 49 -3 5 -20 9 -38 9 -17 0 -26 4 -19 7 8 6 8 9 0 14 -6 4 -15 5 -20 1
-5 -3 -18 6 -29 20 -11 13 -22 22 -26 20 -3 -3 -4 -2 -1 2 3 3 0 12 -6 19 -7
8 -7 14 1 19 8 5 4 12 -9 22 -12 8 -18 19 -15 25 4 6 3 8 -3 5 -5 -3 -32 17
-59 45 -27 28 -36 42 -20 30 15 -12 32 -19 37 -16 5 3 8 0 7 -6 -2 -6 20 -27
49 -45 41 -27 52 -31 57 -19 3 8 2 13 -3 10 -4 -3 -17 7 -28 22 -11 16 -59 59
-107 97 -49 40 -86 78 -86 88 0 10 -8 17 -21 17 -11 0 -18 4 -15 9 7 11 -49
66 -67 66 -14 0 -55 31 -76 58 -25 32 7 18 44 -20 19 -20 35 -32 35 -28 0 5
-10 19 -22 32 -41 44 -9 34 54 -16 35 -28 68 -56 75 -61 7 -6 15 -10 18 -10
16 0 188 -146 196 -166 4 -13 15 -24 24 -24 8 0 15 -4 15 -10 0 -5 6 -10 14
-10 8 0 17 -7 20 -16 5 -12 2 -15 -11 -9 -27 11 -62 17 -43 8 34 -18 110 -65
110 -69 0 -2 -8 -3 -17 -1 -35 4 -23 -18 13 -26 20 -4 45 -16 54 -27 10 -11
22 -20 27 -20 6 0 21 -10 35 -22 56 -51 88 -57 88 -17 0 20 15 26 25 9 3 -5
19 -10 36 -10 22 0 29 5 29 19 0 23 -23 43 -47 40 -10 -1 -27 1 -38 5 -11 5
-33 13 -50 19 -38 14 -128 81 -116 85 6 2 19 -1 30 -7 11 -6 37 -13 58 -16 31
-4 26 0 -29 21 -71 27 -97 53 -30 30 20 -7 58 -16 85 -20 26 -4 47 -11 47 -15
0 -4 24 -13 53 -20 59 -14 137 -19 137 -9 0 7 -109 33 -123 30 -10 -3 -160 38
-167 45 -3 3 9 2 25 -2 17 -4 102 -20 190 -35 88 -16 147 -29 131 -29 -16 -1
-34 -8 -40 -17 -13 -16 -58 -21 -121 -10 -36 6 -37 5 -12 -5 44 -17 21 -29
-29 -14 -39 11 -43 11 -33 -1 6 -8 30 -19 53 -25 22 -6 56 -19 75 -30 40 -23
58 -19 63 13 2 13 10 23 18 23 8 0 20 7 27 15 9 12 14 13 24 3 16 -16 75 -17
84 -3 5 8 11 7 21 -1 10 -8 14 -36 15 -88 1 -71 2 -74 12 -38 6 20 13 37 16
37 3 -1 34 -65 69 -143 69 -156 131 -369 113 -391 -12 -15 -8 -45 10 -74 15
-24 3 -44 -12 -22 -8 11 -8 8 -3 -10 9 -33 33 -81 49 -97 7 -7 15 -16 17 -20
7 -16 68 -66 68 -56 0 5 -18 31 -40 56 -22 25 -40 54 -40 65 0 11 -7 39 -15
62 -8 23 -15 66 -15 95 0 136 -17 212 -124 545 -14 46 -20 76 -13 79 5 2 58
-2 116 -9 58 -7 181 -13 272 -13 l166 0 26 -51 c35 -67 66 -190 73 -296 10
-131 25 -131 18 0 -6 129 -29 277 -50 329 -8 19 -13 35 -12 37 9 7 213 74 229
74 17 0 19 -8 19 -92 0 -50 2 -89 4 -87 3 3 10 46 17 96 11 90 12 91 41 97 17
3 42 6 56 6 14 0 22 3 18 7 -9 9 -156 10 -156 1 0 -5 -10 -7 -22 -7 -18 1 -19
2 -5 6 9 2 15 8 12 13 -3 5 10 12 30 16 29 5 35 10 35 32 0 114 -75 302 -156
387 -127 135 -158 167 -253 255 -56 52 -114 105 -129 117 l-27 23 57 0 c53 0
112 -18 321 -99 17 -7 26 -7 22 -1 -3 6 -10 10 -14 10 -7 0 -143 79 -219 127
-35 22 -20 27 24 8 22 -9 158 -43 304 -76 385 -87 476 -119 580 -204 37 -30
111 -121 160 -195 46 -71 45 -52 -3 49 -17 35 -39 66 -48 68 -11 3 -15 11 -12
20 4 10 -20 40 -72 90 -121 115 -214 156 -546 239 -145 36 -316 83 -379 104
-271 90 -345 111 -519 144 -101 20 -213 37 -250 37 -36 1 -79 4 -96 8 l-30 7
39 19 c49 23 116 86 116 108 0 11 -8 17 -25 17 -13 0 -35 5 -48 11 -21 9 -41
5 -122 -25 -53 -20 -113 -45 -133 -54 -58 -29 -107 -11 -75 26 38 44 590 126
923 138 166 5 222 3 378 -15 168 -20 201 -21 395 -12 329 17 420 15 467 -9 45
-23 73 -68 106 -170 l21 -65 4 60 c4 52 0 69 -27 125 -43 90 -85 121 -199 148
-78 19 -122 22 -330 23 -233 1 -275 4 -570 48 -101 15 -393 2 -644 -29 -129
-16 -237 -28 -239 -25 -3 2 4 17 14 32 10 15 18 31 16 35 -1 4 4 5 11 2 7 -2
71 20 141 50 111 48 138 65 196 120 75 70 158 122 318 199 122 58 137 56 172
-24 30 -71 33 -60 5 22 l-24 70 77 36 c42 19 93 42 112 51 19 9 79 42 133 74
55 32 101 58 103 58 13 0 136 61 132 65 -3 3 -21 -1 -40 -9 -20 -9 -71 -25
-114 -36 -70 -18 -192 -63 -219 -80 -5 -4 -29 -12 -52 -20 -39 -12 -60 -40
-30 -40 8 0 7 -4 -3 -10 -18 -12 -33 -13 -26 -2 5 9 -98 -2 -124 -12 -9 -4
-42 3 -74 14 -47 16 -85 20 -181 20 -108 0 -133 -4 -221 -31 -54 -17 -120 -35
-147 -40 -43 -9 -273 -125 -340 -171 -61 -43 -40 -7 56 96 l102 109 79 176
c97 217 143 392 152 571 3 63 4 113 1 110 -3 -3 -37 -101 -76 -219 -39 -118
-76 -219 -81 -226 -5 -6 -40 -12 -78 -13 -38 -2 -91 -9 -118 -16 -45 -11 -50
-16 -60 -52 -6 -24 -13 -33 -16 -24 -5 12 -7 11 -13 -5 -24 -63 -88 -222 -95
-236 -5 -9 -30 -22 -55 -29 -48 -13 -102 -51 -237 -166 -88 -75 -128 -99 -106
-64 7 10 15 17 19 14 4 -2 23 35 44 82 29 69 34 88 23 95 -10 7 -9 9 4 9 20 0
32 32 23 61 -5 15 -4 19 4 15 6 -4 11 -2 11 4 0 12 59 143 87 194 12 22 14 45
10 97 l-6 68 73 99 c65 88 84 106 176 168 71 47 145 110 232 198 71 70 127
131 124 134 -4 3 -16 -4 -29 -16 -13 -12 -28 -22 -34 -22 -6 0 -35 -18 -64
-40 -30 -22 -60 -40 -69 -40 -24 -1 -70 -44 -75 -70 -5 -27 -35 -63 -35 -42 0
7 5 12 12 12 6 0 8 3 5 6 -9 9 -38 -16 -32 -27 7 -10 -30 -49 -45 -49 -5 0
-10 -4 -10 -10 0 -5 -5 -10 -11 -10 -23 0 -99 -64 -109 -93 -5 -17 -28 -47
-50 -67 -22 -20 -40 -40 -40 -44 0 -5 -9 -20 -20 -36 -11 -15 -16 -31 -12 -35
4 -5 1 -4 -7 0 -11 6 -13 4 -8 -7 5 -14 -28 -96 -43 -108 -4 -3 -10 -12 -13
-20 -4 -11 -6 -9 -6 6 -1 11 6 29 14 40 16 21 20 54 6 54 -5 0 -16 -15 -24
-32 -9 -18 -30 -46 -48 -63 -30 -28 -31 -28 -18 -5 7 14 12 28 11 32 -1 4 10
16 25 27 14 12 22 21 18 21 -5 0 0 9 10 20 10 11 26 20 37 20 11 0 18 7 18 20
0 10 18 38 40 62 22 24 40 46 40 50 0 22 103 148 120 148 6 0 10 5 10 10 0 39
-66 -26 -136 -133 -59 -89 -54 -83 -83 -92 -21 -6 -18 -2 13 25 25 23 36 39
33 52 -3 10 4 37 16 61 11 23 22 47 23 53 1 7 14 40 30 74 18 42 36 66 56 76
17 9 26 19 22 26 -5 7 18 36 57 71 68 62 65 64 -14 9 -27 -18 -52 -31 -55 -28
-3 4 4 38 17 77 45 139 38 300 -20 455 -16 44 -27 68 -25 54 3 -14 11 -62 18
-108 8 -53 15 -76 20 -65 5 15 7 14 8 -7 2 -14 1 -29 0 -35 -8 -32 -15 -145
-9 -145 4 0 10 10 12 23 l4 22 2 -23 c0 -12 -12 -36 -29 -53 -17 -18 -32 -47
-35 -68 -14 -84 -17 -98 -27 -129 -5 -18 -14 -29 -20 -26 -7 5 -9 -2 -4 -20 5
-19 3 -26 -8 -26 -8 0 -24 -16 -36 -35 -12 -19 -27 -38 -33 -42 -20 -13 -47
-73 -47 -103 0 -16 -6 -34 -12 -40 -7 -5 -24 -19 -38 -30 -17 -13 -21 -22 -14
-27 7 -5 8 -16 3 -28 -7 -18 -8 -18 -9 5 -1 14 -4 19 -7 11 -6 -15 -43 -54
-43 -45 0 7 22 48 29 54 3 3 15 21 25 40 11 19 25 39 33 43 7 4 13 14 13 21 0
20 56 117 63 109 6 -6 12 29 8 50 -1 5 3 5 9 2 7 -4 10 -1 8 6 -4 21 35 80 49
75 7 -3 13 1 13 8 0 13 -20 26 -40 26 -5 0 -14 -16 -20 -35 -6 -19 -16 -35
-21 -35 -5 0 -9 -6 -9 -12 0 -18 -103 -218 -112 -218 -5 0 -8 7 -8 15 0 9 -6
12 -15 9 -8 -4 -15 -12 -15 -20 0 -8 6 -11 15 -8 22 9 19 -11 -8 -54 -13 -20
-39 -64 -57 -97 -36 -65 -70 -113 -70 -99 0 5 -5 1 -11 -9 -5 -9 -8 -21 -5
-25 3 -5 -6 -21 -20 -38 -14 -16 -22 -22 -18 -14 4 8 14 23 22 33 9 10 10 17
4 17 -6 0 -12 10 -15 23 -4 24 -11 14 -22 -37 -3 -15 -8 -26 -11 -23 -5 5 77
439 101 537 63 251 95 395 100 450 4 36 15 99 25 140 26 111 118 436 142 500
19 54 68 245 67 265 0 6 -15 -33 -33 -85 l-33 -95 -7 80 c-4 44 -16 117 -28
163 -18 74 -19 91 -8 164 6 45 23 104 36 130 13 26 21 48 16 48 -4 0 -25 -17
-45 -38z m603 -2205 c0 -2 -9 -21 -19 -43 -54 -113 -83 -181 -85 -201 0 -11
-4 -19 -7 -17 -3 2 -14 -15 -25 -37 -12 -28 -51 -70 -123 -132 -59 -50 -98
-82 -89 -71 10 11 21 43 24 70 4 27 22 79 40 116 19 37 34 74 34 83 0 28 57
129 92 162 38 36 158 89 158 70z m600 -424 c0 -5 -26 -16 -57 -27 -32 -10 -78
-35 -103 -56 -25 -21 -83 -64 -130 -96 -47 -31 -96 -66 -109 -76 -13 -10 -29
-18 -36 -18 -7 0 -55 -20 -106 -44 -149 -71 -348 -114 -426 -93 -42 11 -46 10
-153 -50 -30 -17 -86 -41 -140 -61 -21 -7 59 72 88 87 12 6 84 33 160 58 165
55 162 53 337 166 123 80 157 97 285 140 116 39 169 51 265 61 66 7 121 14
123 15 1 0 2 -2 2 -6z m-2464 -128 c-19 -14 -19 -15 5 -15 29 0 68 -25 57 -36
-4 -4 -3 -13 3 -21 15 -17 8 -16 -41 3 -23 9 -42 15 -43 13 -1 -2 -11 -15 -22
-28 l-20 -25 28 22 29 21 29 -21 c32 -24 35 -35 16 -60 -18 -22 -37 -25 -74
-9 -33 13 -53 51 -53 99 0 18 4 23 16 18 8 -3 13 -2 10 3 -3 5 4 12 17 15 21
7 21 7 2 15 -18 8 -17 9 10 13 17 3 35 6 40 6 6 1 1 -5 -9 -13z m858 -69 c-14
-26 -41 -59 -60 -74 -19 -15 -34 -31 -34 -35 0 -5 -15 -24 -32 -42 -45 -46
-60 -65 -52 -65 11 0 -28 -35 -46 -42 -31 -12 -100 -68 -97 -79 1 -6 -4 -14
-12 -17 -8 -3 -11 0 -7 7 4 6 2 11 -4 11 -6 0 -8 5 -5 10 3 6 2 10 -4 10 -5 0
-13 -4 -16 -10 -3 -5 -1 -10 6 -10 8 0 6 -7 -5 -19 -10 -11 -24 -17 -31 -14
-8 2 -24 -2 -36 -10 -12 -9 -29 -13 -38 -10 -9 4 -13 3 -9 -2 4 -4 3 -14 -3
-22 -18 -21 4 -15 41 12 37 27 45 30 35 15 -10 -16 -88 -67 -115 -75 -14 -4
-40 -18 -58 -32 -29 -22 -72 -38 -72 -28 0 3 18 14 40 25 43 22 57 46 18 31
-51 -21 -134 -64 -151 -79 -14 -13 -17 -13 -12 -1 5 14 54 47 155 102 30 17
82 49 115 72 33 23 93 52 134 65 50 16 88 36 120 64 66 57 119 119 114 133 -6
16 65 85 79 77 6 -4 9 -1 6 7 -5 13 51 83 59 75 2 -1 -9 -24 -23 -50z m-970
-148 c-3 -10 0 -18 7 -18 8 0 9 -3 0 -13 -7 -9 -9 -53 -5 -131 3 -70 1 -115
-4 -112 -5 3 -12 -7 -15 -22 -3 -15 -13 -36 -22 -47 -16 -20 -16 -20 -12 3 3
13 1 20 -5 16 -5 -3 -8 -18 -7 -32 2 -15 0 -32 -4 -39 -4 -6 -3 -14 3 -18 16
-10 12 -25 -5 -19 -20 8 -19 41 6 137 25 94 27 107 28 165 1 26 5 41 11 37 6
-3 10 1 10 9 0 9 -2 16 -5 16 -10 0 -57 -79 -51 -88 3 -5 -1 -15 -9 -22 -9 -7
-23 -29 -32 -48 -14 -30 -18 -32 -24 -16 -4 10 -3 23 2 29 5 5 9 13 9 19 0 5
-6 1 -14 -9 -8 -11 -12 -35 -9 -64 3 -37 2 -42 -7 -28 -6 9 -18 17 -27 17 -13
0 -13 3 -3 15 10 12 10 15 0 15 -6 0 0 14 15 31 14 18 35 48 46 68 11 20 28
51 39 69 11 18 18 37 15 42 -3 4 -1 10 5 12 5 1 11 14 12 28 2 14 8 30 13 37
15 17 47 -15 39 -39z m1736 -240 c0 -5 -8 -7 -18 -4 -10 4 -27 -1 -38 -9 -18
-15 -17 -16 16 -9 52 10 62 10 67 -1 2 -6 -23 -17 -54 -24 -32 -7 -96 -22
-143 -32 -47 -11 -130 -22 -185 -25 -55 -3 -122 -9 -150 -14 -51 -8 -77 -4
-37 7 12 3 22 9 22 13 0 5 18 6 40 3 22 -3 81 0 130 8 72 10 87 15 78 26 -13
16 -55 17 -60 3 -2 -6 -26 -13 -53 -16 -28 -2 -61 -7 -75 -9 -21 -4 -22 -3 -5
4 11 5 35 15 53 21 17 7 32 19 32 26 0 9 12 14 33 14 17 0 43 3 56 7 18 5 22
3 16 -6 -6 -10 -2 -11 16 -6 13 4 25 11 27 15 2 5 20 6 40 3 20 -3 53 -1 72 4
47 13 120 13 120 1z m-1016 -120 c15 25 24 11 10 -16 -7 -16 -15 -43 -17 -59
-2 -17 -11 -43 -20 -57 -19 -28 -22 -56 -7 -56 6 0 10 -6 10 -14 0 -8 -11 -13
-27 -13 -16 1 -50 -2 -78 -6 -27 -3 -36 -3 -20 1 25 6 27 9 12 15 -10 4 -33 7
-50 8 -43 1 -74 13 -59 23 7 4 17 4 22 1 6 -3 10 -2 10 3 0 5 10 8 21 8 12 -1
24 5 26 12 3 8 -1 10 -14 5 -16 -6 -16 -5 -4 11 8 9 20 15 27 12 8 -3 11 0 7
10 -4 12 0 15 18 12 16 -2 23 1 21 11 -4 19 37 61 59 61 10 0 21 5 25 12 5 8
-2 9 -24 5 -41 -8 -41 -1 1 16 28 12 33 12 38 -1 4 -11 8 -12 13 -4z m255 -45
c-8 -10 -22 -24 -32 -32 -13 -9 -15 -17 -9 -23 6 -6 8 -17 5 -24 -3 -8 5 -18
21 -24 14 -5 26 -15 25 -22 0 -10 -2 -10 -6 0 -2 6 -12 12 -21 12 -9 0 -32 9
-50 20 -18 11 -37 20 -43 20 -20 0 4 -22 45 -41 22 -10 35 -19 29 -19 -7 0
-13 -6 -13 -14 0 -8 19 -18 46 -25 26 -7 44 -14 41 -17 -13 -13 -84 22 -120
58 -21 21 -43 38 -50 38 -6 0 -31 8 -55 17 l-44 16 24 19 c26 20 51 23 78 8
11 -6 31 -8 45 -4 20 5 23 9 14 20 -14 17 -7 20 75 33 5 0 2 -7 -5 -16z
m-1363 -214 c3 -5 17 -9 32 -9 26 -1 26 -1 8 -15 -23 -17 -27 -16 137 -23 20
-1 37 -6 37 -11 0 -11 -16 -16 -72 -26 -46 -7 -51 -25 -5 -20 90 11 137 13
133 6 -3 -4 -41 -11 -86 -15 -44 -3 -92 -11 -107 -17 -26 -10 -44 -14 -82 -18
-8 0 -12 -4 -9 -7 10 -9 -84 -90 -150 -129 -35 -20 -78 -49 -95 -64 -51 -43
-76 -57 -33 -18 22 19 41 43 42 52 1 10 8 23 14 29 8 8 9 6 4 -9 -7 -18 -6
-19 10 -6 12 10 14 17 6 25 -17 17 -12 23 20 23 16 0 27 -4 24 -8 -2 -4 10 0
28 8 38 19 121 84 114 90 -5 5 -96 -58 -96 -67 0 -3 -9 -6 -20 -7 -22 -2 -26
13 -10 37 9 13 11 13 19 1 8 -12 16 -9 46 17 38 34 27 44 -15 15 -14 -10 -32
-18 -40 -18 -8 0 -22 -15 -30 -32 -15 -32 -35 -47 -24 -18 11 28 -8 15 -53
-35 -48 -53 -63 -61 -63 -32 0 25 36 62 79 79 20 8 51 31 68 51 25 28 33 33
33 19 0 -16 5 -14 29 10 20 21 28 37 26 56 -3 27 17 38 30 17 3 -5 1 -10 -4
-10 -6 0 -11 -5 -11 -12 0 -9 3 -9 12 0 15 15 48 16 48 2 0 -16 14 -12 27 8 9
15 8 19 -3 19 -7 0 -10 -5 -7 -10 4 -6 -1 -8 -11 -4 -10 4 -23 7 -29 8 -7 0 0
6 15 13 26 11 27 13 12 34 -8 12 -22 22 -30 22 -8 0 -14 4 -14 9 0 11 38 2 46
-10z m2222 10 l27 -1 -25 -8 c-41 -13 4 -11 90 5 41 7 80 10 85 5 6 -4 27 -13
47 -19 56 -18 60 -35 7 -27 -35 6 -40 5 -26 -5 11 -6 38 -12 60 -14 23 -2 48
-4 55 -4 25 -2 12 -31 -14 -31 -22 0 -25 -2 -14 -15 7 -9 8 -15 2 -15 -5 0
-17 11 -26 25 -11 17 -26 25 -44 25 -21 0 -24 -2 -12 -10 13 -9 13 -10 0 -11
-10 0 -8 -3 5 -9 19 -8 19 -9 -2 -9 -14 -1 -23 5 -23 14 0 8 -5 15 -11 15 -5
0 -7 -4 -4 -10 9 -15 -32 -12 -120 10 -44 11 -88 20 -98 20 -10 0 -15 5 -12
10 3 6 -4 10 -17 10 -13 0 -30 4 -38 10 -11 7 -9 11 13 19 15 6 34 8 42 5 15
-6 22 11 8 19 -5 2 -2 2 5 0 8 -1 26 -3 40 -4z m-1843 -318 c-4 -20 -2 -30 9
-34 8 -3 17 -20 21 -37 4 -18 16 -41 26 -51 12 -12 19 -33 19 -56 0 -25 -3
-33 -9 -25 -7 11 -10 10 -15 -3 -9 -26 -7 -42 4 -25 8 12 10 10 11 -10 0 -22
1 -22 8 -6 6 16 10 13 29 -22 12 -23 19 -42 16 -42 -3 0 4 -16 15 -36 12 -20
20 -38 17 -41 -6 -7 -47 55 -55 85 -5 19 -14 28 -32 29 -13 1 -17 -1 -7 -3 9
-3 19 -12 22 -21 5 -11 2 -13 -11 -8 -10 4 -26 9 -35 12 -10 3 -16 15 -16 31
0 15 -5 38 -11 52 -10 21 -10 16 -6 -30 4 -37 3 -52 -4 -45 -14 14 -36 228
-26 251 10 23 11 31 14 69 1 26 3 28 12 12 6 -10 8 -31 4 -46z m366 -12 c17
-15 19 -19 7 -15 -10 3 -18 1 -18 -3 0 -13 28 -21 47 -14 13 5 15 2 10 -16 -3
-13 -3 -20 0 -17 12 11 43 -16 43 -37 0 -17 -2 -19 -10 -7 -11 18 -23 9 -15
-12 3 -8 13 -15 21 -15 12 0 15 9 12 32 -4 31 15 64 27 46 3 -5 1 -11 -5 -13
-5 -1 4 -23 20 -47 35 -52 39 -47 9 12 -12 23 -21 43 -20 45 6 11 -2 23 -14
18 -9 -3 -19 3 -25 14 -6 11 -23 26 -38 34 -35 19 -12 20 33 2 18 -8 36 -11
40 -8 4 4 6 3 5 -3 -5 -24 1 -27 15 -9 12 16 14 17 15 2 0 -9 -5 -18 -12 -20
-8 -3 -7 -11 5 -28 11 -16 17 -19 18 -10 0 9 3 10 5 4 3 -7 14 -10 24 -7 16 4
20 0 20 -20 0 -20 -4 -24 -20 -20 -22 6 -26 -7 -9 -24 8 -8 8 -13 0 -17 -13
-8 4 -46 20 -46 6 0 7 5 4 10 -3 6 -1 10 5 10 7 0 10 -7 6 -15 -3 -8 4 -21 15
-29 20 -13 20 -14 2 -20 -10 -3 -29 -32 -42 -64 -37 -87 -46 -92 -55 -32 -3
19 -13 69 -22 110 -14 65 -19 76 -37 77 -12 0 -16 -1 -9 -4 14 -5 17 -33 3
-33 -21 0 -41 13 -41 26 0 8 -10 15 -22 16 -45 3 -53 4 -75 12 -13 4 -23 12
-23 18 0 6 -3 8 -6 5 -4 -4 -1 -13 6 -22 23 -27 4 -27 -29 0 -17 15 -31 33
-31 41 0 16 16 19 25 4 11 -18 26 -10 20 10 -5 15 -3 18 9 14 12 -5 13 0 4 30
-12 36 -4 61 11 37 7 -10 11 -10 22 3 18 20 23 20 50 -5z m2107 -36 c7 -11 15
-14 28 -7 11 4 37 9 59 9 35 1 53 -8 135 -69 52 -39 153 -127 223 -196 140
-136 175 -190 203 -315 23 -104 27 -98 -83 -123 -112 -25 -169 -30 -182 -17
-11 13 -270 360 -300 403 -13 18 -48 52 -79 75 -132 96 -165 145 -111 162 26
9 24 17 -11 40 -29 20 -39 35 -21 35 4 0 24 -11 43 -24 24 -16 44 -22 66 -18
30 4 31 5 17 25 -8 12 -15 25 -15 29 0 14 19 8 28 -9z m-1240 -244 c2 -5 17
-6 33 -2 20 4 35 0 48 -12 11 -9 33 -24 50 -33 16 -9 46 -32 65 -49 20 -18 39
-33 44 -33 5 0 26 -15 46 -34 20 -19 36 -32 36 -30 0 3 18 -10 40 -29 22 -18
58 -40 80 -47 22 -7 40 -17 40 -22 0 -5 5 -6 10 -3 6 4 16 3 23 -2 7 -5 35
-17 62 -27 28 -10 59 -22 70 -27 11 -5 31 -11 45 -13 14 -3 27 -5 30 -6 3 -2
7 -2 10 -2 3 0 10 -6 17 -13 10 -11 4 -12 -30 -8 -23 3 -40 4 -37 1 9 -10 185
-51 225 -53 47 -3 155 -14 208 -21 30 -5 36 -3 31 9 -4 12 4 14 49 10 30 -2
68 -8 83 -13 24 -8 21 -9 -24 -7 -28 1 -52 -1 -52 -5 0 -5 15 -8 33 -9 45 -1
79 -12 75 -24 -2 -5 16 -11 40 -13 23 -2 42 -7 42 -11 0 -10 -154 -4 -245 10
-103 15 -130 18 -240 23 -114 6 -257 25 -265 34 -3 4 -25 8 -49 10 -25 1 -64
11 -88 22 -24 10 -43 15 -43 11 0 -11 -49 -1 -57 12 -3 6 -1 7 5 3 7 -4 12 -3
12 3 0 5 -35 26 -77 47 -43 20 -93 44 -111 53 -19 9 -39 23 -46 32 -6 9 -27
23 -46 31 -20 8 -51 33 -70 54 -18 21 -36 39 -39 39 -4 0 -20 14 -36 31 -17
17 -50 41 -73 53 -24 12 -42 25 -39 27 10 11 134 -60 189 -107 31 -27 101 -72
155 -101 54 -28 110 -59 125 -67 94 -56 119 -69 149 -74 24 -5 30 -4 19 3 -8
5 -21 10 -27 10 -7 0 -36 15 -66 34 -29 19 -102 60 -162 92 -96 50 -146 85
-242 168 -12 11 -19 24 -17 31 3 7 -14 21 -40 34 -26 11 -46 24 -46 27 0 8 75
-8 78 -17z m1314 -231 c53 -57 122 -136 153 -176 l57 -73 -85 3 c-47 2 -83 6
-81 9 3 5 -50 17 -181 41 -27 4 -68 9 -90 9 -30 1 -47 8 -67 30 -34 35 -37 61
-5 30 26 -23 62 -19 53 6 -9 23 4 62 22 65 10 2 17 13 17 28 0 16 7 26 19 28
14 3 17 0 13 -12 -4 -9 -2 -16 3 -16 13 0 13 26 0 50 -18 34 -2 68 33 73 18 2
34 5 37 5 3 1 49 -44 102 -100z m-1891 72 c10 -6 19 -19 19 -30 0 -30 21 -69
35 -63 15 5 21 -11 31 -80 4 -32 13 -51 25 -58 11 -5 19 -20 19 -34 0 -27 17
-72 37 -96 8 -9 15 -28 17 -41 1 -13 6 -30 10 -37 9 -14 4 -13 -74 14 -31 11
-35 15 -32 44 9 81 -63 311 -116 374 -17 20 -3 23 29 7z m-65 -102 c23 -29 56
-91 74 -138 33 -85 52 -160 42 -160 -3 0 -37 18 -74 41 -51 30 -68 45 -64 57
3 11 -6 24 -27 37 -17 11 -35 31 -38 45 -4 14 -15 51 -24 83 -18 64 -13 106
11 86 11 -9 14 -8 14 8 0 30 13 36 30 14 8 -10 34 -43 56 -73z m-369 -47 c18
-20 33 -31 33 -24 0 6 -4 15 -10 18 -5 3 -10 11 -10 18 0 14 28 -24 32 -44 4
-17 6 -21 80 -109 35 -41 78 -88 96 -104 46 -40 32 -45 -26 -7 -27 17 -58 31
-69 31 -22 0 -33 18 -33 51 0 11 -7 19 -16 19 -13 0 -14 -3 -5 -14 7 -8 8 -17
3 -20 -5 -3 -37 51 -71 119 -56 115 -78 169 -48 121 7 -11 27 -36 44 -55z
m-39 -52 c13 7 107 -193 145 -306 21 -62 37 -131 37 -156 0 -25 5 -47 11 -49
7 -2 5 -9 -5 -17 -14 -12 -16 -10 -16 20 0 19 -7 57 -16 84 -33 106 -33 106
-21 99 7 -3 3 3 -9 13 -11 10 -27 34 -34 53 -17 47 -82 184 -90 190 -10 8 -40
77 -40 92 1 8 6 6 16 -7 8 -11 18 -18 22 -16z m-181 -168 c9 -9 12 -22 8 -35
-11 -32 -7 -73 8 -98 8 -13 20 -40 27 -60 6 -21 15 -40 20 -43 5 -3 -5 31 -21
76 -16 45 -29 89 -27 97 2 9 14 -16 27 -54 14 -38 51 -130 84 -204 78 -179 97
-233 97 -275 0 -19 5 -35 11 -35 11 0 8 100 -5 178 -6 36 8 44 18 10 14 -54
-5 -328 -24 -328 -4 0 -12 42 -18 93 -13 104 -27 153 -47 160 -10 4 -12 -4 -8
-36 7 -51 13 -60 14 -21 1 29 1 29 9 4 4 -14 8 -41 8 -60 0 -32 -1 -33 -8 -10
-7 20 -8 16 -9 -22 -1 -34 -5 -48 -15 -48 -16 0 -32 50 -18 59 12 9 8 57 -7
75 -7 8 -14 23 -16 33 -2 10 -4 20 -6 23 -1 3 -3 10 -3 15 -1 6 -7 20 -14 31
-10 19 -9 21 9 20 11 0 26 -12 33 -25 13 -24 13 -24 12 7 0 16 -4 28 -8 26 -4
-2 -10 1 -14 7 -3 6 0 15 7 20 8 5 9 9 3 9 -6 0 -16 10 -21 23 -10 19 -11 17
-8 -15 3 -43 -10 -51 -19 -13 -3 13 -17 41 -31 61 -14 20 -25 42 -25 49 0 7
-7 18 -15 25 -8 7 -15 22 -15 35 0 12 -3 25 -6 28 -4 4 -7 63 -8 132 -1 69 1
119 3 113 2 -7 11 -19 18 -27z m-193 -206 c-3 -26 -14 -55 -24 -64 -15 -14
-15 -19 -1 -48 13 -29 13 -34 -1 -50 -9 -10 -20 -36 -23 -58 -9 -50 -23 -77
-36 -70 -5 4 -9 -9 -9 -28 0 -19 -4 -47 -9 -63 -5 -16 -14 -54 -21 -84 -13
-59 -27 -83 -41 -74 -5 3 -9 -9 -9 -25 0 -19 -5 -30 -12 -29 -20 5 -39 -44
-34 -89 4 -32 1 -47 -14 -65 l-20 -23 7 30 c3 16 5 42 4 57 -5 66 -3 87 18
156 11 40 37 106 56 148 19 41 35 83 35 92 0 27 52 192 60 187 3 -2 15 22 25
53 20 61 44 107 52 99 2 -3 1 -26 -3 -52z m48 -39 c-6 -28 -13 -71 -16 -96 -9
-72 10 -15 23 69 12 76 29 105 55 95 12 -5 14 -13 8 -33 -4 -14 -7 -59 -7 -98
0 -40 -2 -73 -5 -73 -3 0 -6 -19 -8 -42 -1 -23 -10 -50 -19 -60 -17 -19 -10
-74 8 -63 6 4 7 -3 3 -19 -4 -16 -2 -26 5 -26 6 0 11 -7 11 -15 0 -8 -5 -15
-12 -15 -6 0 -3 -7 8 -16 10 -8 13 -13 6 -9 -7 3 -1 -10 13 -31 14 -20 25 -45
25 -55 0 -9 3 -26 6 -36 3 -11 2 -14 -3 -7 -13 17 -41 24 -47 11 -2 -7 -5 -2
-5 11 -1 12 -11 41 -22 64 -32 62 -40 182 -18 266 10 37 18 81 18 98 1 16 5
34 10 40 12 13 21 94 10 94 -9 0 -12 -10 -29 -105 -6 -33 -15 -78 -20 -100 -5
-22 -12 -53 -15 -68 -3 -15 -10 -25 -14 -22 -5 3 -12 -1 -14 -7 -15 -38 5 151
24 231 24 95 40 109 21 17z m923 -123 l90 -39 -4 -125 c-2 -68 -9 -155 -15
-194 l-12 -70 -14 40 c-7 22 -21 51 -30 65 -47 69 -48 72 -32 100 14 25 14 29
-14 71 -17 24 -29 52 -26 61 2 10 -10 29 -30 46 -95 83 -93 81 -79 91 18 12
59 0 166 -46z m-274 -40 c41 -71 64 -103 72 -103 5 0 5 10 1 23 -4 12 -9 29
-12 37 -10 32 95 -89 121 -139 26 -51 38 -85 16 -48 -6 9 -15 15 -20 11 -6 -3
-19 2 -30 12 -10 9 -19 13 -19 8 1 -14 39 -80 40 -69 0 6 9 -8 19 -30 10 -22
26 -49 36 -58 9 -10 14 -21 11 -24 -7 -7 -10 -2 -83 102 -34 48 -168 275 -181
307 -10 23 9 3 29 -29z m-51 -43 c8 -12 20 -28 27 -35 20 -21 63 -87 63 -97 0
-5 -4 -6 -10 -3 -6 3 -7 -1 -4 -9 5 -12 11 -13 25 -6 15 8 21 6 32 -12 8 -13
39 -64 71 -114 57 -92 65 -111 44 -98 -8 5 -9 0 -5 -17 5 -22 5 -22 -7 -6 -7
9 -18 17 -24 17 -12 0 -52 48 -52 62 0 5 5 6 12 2 6 -4 8 -3 5 4 -4 5 -15 8
-25 6 -12 -3 -29 14 -59 58 -24 35 -43 68 -43 75 0 6 -6 13 -12 16 -7 2 -10 7
-6 11 3 4 18 -10 32 -31 32 -46 34 -35 4 18 -12 22 -29 39 -39 39 -9 0 -20 7
-23 16 -4 12 -2 15 9 10 13 -5 14 -2 4 16 -9 17 -13 18 -21 7 -7 -10 -8 -8 -3
8 3 13 2 31 -4 40 -6 10 -11 12 -11 6 0 -7 -5 -13 -11 -13 -6 0 -8 8 -4 19 3
11 1 22 -5 26 -5 3 -10 16 -10 28 l1 22 17 -21 c9 -12 24 -32 32 -44z m-1291
-334 c-19 -13 -51 -81 -68 -142 -16 -60 -12 -87 5 -31 8 26 17 47 20 47 6 0
-7 -99 -17 -126 -4 -13 -3 -26 4 -33 9 -9 9 -14 -1 -20 -10 -6 -13 -38 -14
-117 0 -84 -2 -103 -10 -81 -5 15 -14 27 -19 27 -5 0 -9 5 -9 10 0 6 7 10 15
10 9 0 15 9 15 21 0 15 -4 19 -16 15 -14 -5 -16 -1 -10 26 4 24 3 29 -4 18
-24 -36 -1 -149 47 -237 17 -31 23 -58 23 -106 0 -35 -3 -67 -7 -71 -12 -12
-12 -40 0 -48 8 -5 9 -8 1 -8 -7 0 -19 12 -29 26 -10 15 -12 23 -4 19 9 -6 10
-3 5 11 -11 30 -25 108 -19 114 7 7 27 -30 35 -65 4 -18 6 -7 3 29 -2 32 -10
65 -18 75 -44 52 -84 170 -71 206 3 8 3 15 0 15 -4 0 -18 -24 -32 -52 -26 -56
-26 -43 2 34 9 26 19 46 23 44 3 -2 7 8 8 22 1 23 0 25 -11 10 -11 -15 -43
-93 -79 -191 -5 -15 -12 -26 -14 -24 -2 3 0 15 6 28 5 13 21 62 36 109 15 46
35 91 44 98 9 7 10 11 4 7 -17 -8 -17 12 0 22 15 9 32 51 43 103 6 32 5 34
-11 20 -17 -14 -17 -13 -6 7 6 13 17 22 24 20 8 -1 11 8 9 26 -2 21 0 27 9 21
8 -4 9 -3 5 4 -4 6 -2 29 3 50 8 29 20 43 48 59 39 21 60 20 32 -1z m-104 -88
c-9 -28 -55 -100 -72 -111 -7 -4 -13 -12 -13 -17 0 -20 -91 -138 -132 -169
-30 -24 -37 -27 -22 -10 76 88 23 53 -95 -63 -38 -37 -111 -75 -111 -57 0 5 5
9 12 9 22 0 124 85 221 183 53 55 97 104 97 108 0 5 18 27 40 51 22 24 40 47
40 52 0 10 30 46 37 46 2 0 1 -10 -2 -22z m1115 -675 c5 -61 7 -149 4 -195 -7
-85 10 -339 27 -415 8 -37 12 -123 9 -188 0 -11 0 -58 0 -104 0 -46 -4 -89
-10 -95 -13 -13 -13 -29 0 -21 7 4 10 -15 9 -57 -1 -35 1 -301 5 -593 4 -375
10 -572 21 -675 8 -80 18 -230 20 -335 3 -104 7 -234 10 -288 3 -81 2 -97 -11
-97 -24 0 -32 38 -38 190 -4 80 -11 246 -17 370 -8 159 -8 264 0 355 7 84 7
197 2 320 -9 189 -15 233 -86 580 -56 271 -69 481 -40 600 9 36 18 133 21 240
3 99 12 214 19 255 8 42 17 157 22 255 7 174 8 177 15 95 4 -47 12 -135 18
-197z"/>
<path d="M4906 9527 c-3 -14 -3 -45 0 -69 6 -47 -24 -209 -51 -274 -23 -55
-10 -53 20 3 24 44 29 38 10 -12 l-8 -20 16 20 c9 11 17 30 17 43 0 12 5 22
10 22 6 0 10 7 10 15 0 8 5 15 11 15 6 0 8 7 5 17 -4 10 -4 14 0 11 4 -4 15 3
25 16 21 27 25 41 8 30 -7 -4 -10 -1 -7 7 3 8 10 13 16 12 6 -2 17 7 23 18 9
18 13 19 21 8 8 -12 9 -11 5 1 -2 8 -10 14 -16 13 -16 -4 -14 4 9 35 22 29 38
112 22 112 -5 0 -12 -21 -15 -46 -3 -31 -13 -54 -32 -74 -33 -34 -41 -32 -50
13 -10 43 -16 52 -27 36 -6 -10 -7 -4 -4 16 8 39 -9 68 -18 32z"/>
<path d="M5420 5962 c0 -18 47 -52 73 -52 8 0 20 -7 27 -15 7 -8 16 -12 22 -9
12 8 38 -15 32 -29 -2 -7 53 -68 122 -137 140 -137 178 -190 236 -325 23 -52
55 -107 77 -130 21 -22 53 -65 71 -95 19 -30 39 -58 45 -62 16 -12 37 -9 32 5
-2 6 -11 11 -19 9 -15 -2 -23 20 -43 125 -4 17 -17 38 -29 46 -46 31 -82 75
-120 150 -21 42 -43 77 -49 77 -6 0 -8 3 -4 6 10 10 -30 81 -55 98 -12 9 -19
16 -15 16 14 0 -24 54 -51 75 l-27 19 26 -34 c14 -19 29 -42 34 -50 7 -13 6
-13 -7 0 -40 42 -118 141 -90 116 18 -17 32 -25 32 -19 0 6 -13 24 -30 40 -30
28 -41 51 -17 37 8 -5 8 -3 -2 9 -18 22 -34 11 -21 -14 6 -10 8 -19 4 -19 -13
0 -64 63 -58 71 3 5 -1 6 -8 4 -18 -7 -58 24 -40 32 16 6 -3 33 -24 33 -8 0
-23 9 -33 19 -20 20 -20 20 -16 -10 3 -26 2 -28 -16 -18 -11 6 -22 16 -25 24
-9 22 -34 27 -34 7z"/>
</g>
</svg>
