<?xml version="1.0" standalone="no"?>
<!DOCTYPE svg PUBLIC "-//W3C//DTD SVG 20010904//EN"
 "http://www.w3.org/TR/2001/REC-SVG-20010904/DTD/svg10.dtd">
<svg version="1.0" xmlns="http://www.w3.org/2000/svg"
 width="728.000000pt" height="881.000000pt" viewBox="0 0 728.000000 881.000000"
 preserveAspectRatio="xMidYMid meet">
<metadata>
Created by potrace 1.16, written by Peter Selinger 2001-2019
</metadata>
<g transform="translate(0.000000,881.000000) scale(0.100000,-0.100000)"
fill="#000000" stroke="none">
<path d="M2853 8739 c4 -48 16 -93 38 -142 41 -90 206 -317 339 -465 63 -69
96 -114 88 -117 -7 -2 -62 -14 -123 -26 -85 -18 -145 -23 -265 -23 -148 -1
-158 1 -214 27 -69 32 -80 33 -47 7 38 -33 11 -22 -63 23 -63 39 -70 47 -84
92 -9 29 -17 43 -19 33 -3 -9 1 -26 6 -37 21 -38 11 -31 -64 45 -41 42 -75 85
-75 95 0 10 -5 19 -11 19 -20 0 -2 -66 30 -110 17 -23 29 -46 26 -49 -10 -18
-5 -112 10 -166 25 -91 64 -190 91 -231 14 -20 23 -38 21 -40 -6 -7 -105 45
-156 81 -45 33 -80 75 -112 136 -8 14 -27 51 -44 82 -16 32 -35 57 -42 57 -18
0 -17 -79 3 -125 25 -60 12 -74 -18 -19 -15 27 -28 44 -28 37 0 -13 35 -78 56
-103 7 -8 17 -40 23 -70 6 -30 13 -66 17 -80 6 -22 1 -19 -41 20 -108 103
-172 241 -182 390 -5 92 -20 157 -33 143 -16 -16 -63 -280 -63 -353 0 -201
131 -526 309 -767 73 -98 86 -112 154 -164 l55 -41 -90 6 c-49 4 -106 9 -127
12 -25 4 -38 3 -38 -4 0 -6 23 -14 51 -18 28 -4 53 -13 56 -20 3 -8 11 -14 18
-14 7 0 15 -6 18 -13 3 -8 0 -14 -6 -14 -7 0 -40 -3 -74 -7 -39 -4 -64 -3 -68
4 -3 5 -15 10 -25 10 -35 0 -144 60 -187 102 -24 23 -43 38 -43 32 0 -27 144
-138 199 -154 24 -7 24 -8 6 -14 -11 -4 -43 -16 -72 -27 -48 -19 -53 -19 -90
-4 -44 19 -90 60 -139 127 -38 51 -104 239 -104 296 0 17 -4 32 -10 32 -14 0
-13 184 1 235 6 22 13 58 15 80 l5 40 -22 -25 c-11 -14 -34 -50 -50 -80 -16
-30 -39 -67 -50 -82 -37 -45 -50 -151 -54 -432 l-4 -259 36 -86 c43 -104 127
-267 151 -296 10 -11 49 -66 87 -123 73 -111 166 -204 282 -280 49 -33 62 -47
54 -55 -8 -8 -65 -13 -156 -15 -157 -4 -201 -21 -57 -23 115 -1 72 -14 -78
-23 -94 -5 -137 -3 -235 14 -136 24 -198 47 -313 114 -100 58 -186 137 -283
258 -120 148 -127 163 -143 295 -6 43 -13 53 -33 46 -14 -6 -15 -22 -10 -137
11 -224 78 -434 179 -564 56 -73 116 -161 183 -269 16 -26 29 -57 27 -67 -3
-27 41 -98 83 -132 119 -97 310 -180 454 -199 l53 -7 -43 -21 c-89 -43 -296
-22 -391 39 -21 13 -42 24 -47 24 -38 0 -240 178 -226 200 3 5 -6 17 -19 26
-36 23 -104 135 -130 213 -24 70 -54 100 -41 40 15 -70 76 -225 103 -264 16
-22 32 -57 36 -77 16 -88 78 -190 203 -335 61 -70 66 -84 22 -52 -21 15 -30
17 -27 8 2 -8 41 -36 85 -64 44 -27 100 -66 124 -86 60 -49 113 -81 182 -109
l59 -23 -60 -61 c-89 -91 -242 -266 -242 -276 0 -5 -13 -22 -29 -38 -39 -39
-49 -78 -28 -114 13 -23 14 -34 5 -53 -8 -19 -8 -31 0 -51 22 -47 -16 -181
-73 -259 -12 -16 -25 -38 -28 -47 -4 -10 -11 -18 -17 -18 -13 0 -13 -43 1 -57
8 -8 -7 -39 -53 -114 l-65 -104 7 -65 c4 -36 10 -72 14 -81 5 -11 -6 -21 -43
-38 -27 -13 -69 -43 -92 -67 -24 -24 -46 -44 -50 -44 -4 0 -20 -5 -36 -11 -25
-10 -26 -12 -9 -18 28 -11 226 27 265 50 18 11 35 18 37 16 18 -18 -81 -99
-193 -159 -42 -23 -71 -44 -65 -46 7 -2 33 8 58 22 51 29 58 31 49 16 -10 -17
7 -11 64 20 30 17 56 28 58 26 3 -2 -22 -22 -54 -44 -68 -47 -91 -75 -142
-182 -22 -44 -57 -101 -78 -127 -74 -92 -109 -143 -96 -143 5 0 22 18 39 40
16 22 32 40 36 40 4 0 4 -16 1 -35 -3 -19 -1 -35 4 -35 19 0 72 67 103 130 26
52 59 91 168 197 75 73 137 131 139 130 1 -2 -29 -36 -67 -77 -39 -41 -70 -79
-70 -83 0 -5 -12 -24 -26 -43 -15 -19 -24 -37 -21 -41 4 -3 31 13 61 36 65 48
74 51 48 14 -33 -48 -143 -245 -139 -249 2 -2 16 13 30 33 45 63 30 25 -19
-48 -25 -38 -44 -74 -42 -80 6 -17 122 115 185 208 48 72 73 103 73 90 0 -2
-22 -58 -49 -125 -27 -67 -47 -122 -45 -122 7 0 76 152 99 218 11 29 29 59 42
67 28 19 29 12 4 -23 -24 -35 -64 -147 -59 -164 3 -7 13 11 22 40 10 28 22 50
27 46 14 -9 11 -21 -27 -100 -20 -42 -34 -77 -32 -80 3 -2 17 25 33 61 29 69
45 82 45 38 0 -20 3 -24 9 -14 6 9 8 -2 5 -30 -2 -24 -5 -72 -8 -107 l-4 -63
30 6 c21 5 28 4 24 -4 -9 -14 -93 -15 -101 -1 -3 6 -15 5 -30 -2 -35 -16 -33
-55 5 -87 l31 -26 -25 -70 c-50 -142 -68 -178 -109 -222 -23 -24 -46 -51 -50
-59 -15 -26 -95 -64 -236 -113 -140 -48 -181 -70 -181 -98 0 -11 6 -10 26 6
32 25 141 62 177 59 15 -1 27 -4 27 -5 0 -2 -31 -45 -69 -96 -38 -50 -67 -94
-64 -97 3 -3 13 6 22 20 54 83 139 174 171 185 102 35 103 32 26 -45 -39 -39
-83 -79 -98 -88 -31 -18 -36 -32 -13 -32 19 0 19 -3 -6 -52 l-21 -41 56 48
c31 26 58 46 60 44 2 -2 -24 -34 -59 -70 -61 -65 -65 -67 -176 -103 -151 -48
-158 -54 -170 -146 -5 -40 -7 -75 -5 -78 3 -2 19 20 35 50 27 47 38 57 74 67
208 61 209 61 270 120 60 57 117 131 121 157 3 18 30 43 81 74 l40 24 -44 -47
c-25 -25 -48 -44 -53 -41 -5 3 -7 2 -6 -3 4 -12 -30 -62 -71 -105 -19 -21 -32
-40 -30 -43 8 -8 217 121 273 167 26 23 55 56 62 75 11 24 21 33 38 33 14 0
33 3 43 7 17 6 17 5 -1 -15 -39 -45 5 -39 123 15 30 14 69 41 87 60 18 19 38
32 44 28 6 -4 9 -3 8 2 -2 5 9 23 24 41 19 23 35 32 55 31 l28 -1 -25 -8 c-14
-4 -18 -9 -10 -9 21 -2 -35 -49 -140 -119 -93 -61 -102 -70 -95 -91 4 -9 0
-11 -11 -7 -8 3 -18 6 -20 6 -3 0 -2 6 2 13 4 7 3 9 -2 4 -5 -5 -9 -13 -9 -18
0 -5 -59 -34 -132 -63 -128 -52 -202 -91 -273 -144 -22 -17 -44 -25 -61 -23
-32 3 -63 -34 -57 -68 2 -13 -13 -37 -42 -67 -36 -38 -39 -43 -14 -26 17 12
37 28 44 37 19 23 28 19 35 -16 11 -51 -52 -206 -108 -264 -16 -16 -40 -46
-53 -66 -14 -20 -36 -42 -50 -50 -42 -22 -65 -64 -75 -137 -24 -168 -63 -236
-169 -293 -33 -17 -66 -42 -74 -54 -8 -12 -30 -92 -49 -176 -33 -148 -33 -156
-18 -197 8 -23 19 -42 23 -42 5 0 7 24 6 53 -1 54 2 83 29 227 22 117 32 133
111 176 86 47 142 101 197 189 25 39 58 81 75 93 46 34 90 101 90 135 0 21 13
46 43 81 64 76 77 97 77 131 0 16 10 45 23 64 12 19 27 42 32 51 26 42 61 80
76 80 9 0 42 9 75 21 32 11 66 22 74 22 8 1 31 14 51 29 51 39 161 76 144 48
-3 -5 -40 -35 -81 -66 -41 -31 -73 -59 -70 -62 3 -3 12 1 21 8 8 7 15 9 15 4
0 -4 -71 -78 -158 -163 -88 -86 -179 -185 -203 -221 -46 -68 -89 -139 -89
-147 0 -3 37 29 82 71 45 42 83 74 86 72 2 -3 -20 -54 -51 -113 -83 -165 -126
-281 -139 -377 -9 -76 -8 -91 11 -155 12 -39 25 -71 29 -71 5 0 1 34 -7 76
-13 67 -13 83 2 150 20 92 193 513 221 537 12 9 93 66 181 124 125 84 182 129
260 210 56 57 104 103 108 103 5 0 -41 -53 -101 -119 -118 -129 -171 -217
-211 -356 -38 -134 -60 -339 -38 -361 19 -19 37 28 51 129 26 182 48 251 119
375 33 59 45 72 61 68 10 -3 28 0 38 5 11 6 22 8 25 5 3 -3 -7 -40 -23 -83
-29 -81 -38 -193 -17 -214 7 -7 12 16 16 73 3 49 16 116 32 163 23 68 34 87
78 127 60 54 70 58 57 22 -13 -32 -13 -87 0 -100 6 -6 -1 -45 -20 -109 -16
-55 -30 -118 -29 -140 l0 -40 19 23 c11 13 25 43 32 65 12 44 28 71 28 48 0
-31 -75 -228 -95 -251 -50 -55 -102 -163 -93 -191 2 -6 20 12 40 41 20 28 38
46 40 39 5 -16 118 137 162 221 19 36 37 82 41 102 10 53 33 40 96 -55 57 -86
88 -111 196 -157 80 -33 126 -37 217 -15 l58 14 82 -83 c72 -74 90 -86 161
-114 119 -45 227 -69 343 -76 86 -6 108 -4 131 10 27 16 30 16 54 -2 14 -10
28 -27 30 -36 3 -10 14 -18 24 -18 28 0 127 62 137 86 5 12 24 26 41 33 39 14
112 75 120 101 12 37 51 24 110 -35 65 -65 106 -78 217 -73 70 3 81 6 101 30
29 35 59 42 96 24 17 -9 39 -16 51 -16 13 0 20 -7 20 -18 0 -28 40 -59 93 -74
53 -14 78 -6 87 28 3 10 12 19 20 19 8 0 29 21 45 47 26 42 39 50 104 75 45
17 90 42 113 64 35 33 38 40 38 93 0 52 -12 93 -30 106 -11 8 -24 163 -12 156
5 -3 12 -23 14 -44 5 -33 43 -132 52 -132 1 0 2 62 2 138 -1 127 1 141 25 197
15 33 30 79 34 103 6 36 9 41 21 31 23 -19 27 -3 8 28 l-17 28 26 -25 c22 -21
26 -35 28 -85 1 -33 -3 -84 -9 -114 -27 -125 -13 -170 77 -244 43 -35 71 -67
76 -84 3 -15 18 -52 33 -83 31 -66 32 -110 2 -292 -22 -137 -26 -214 -11 -220
5 -1 17 -39 26 -82 19 -93 27 -110 36 -76 10 37 10 250 0 286 -6 22 -3 57 9
117 10 47 21 139 25 204 4 65 12 126 17 135 10 20 28 24 28 6 0 -15 101 -170
107 -164 3 3 -11 41 -30 86 -19 44 -33 89 -30 99 3 11 -3 36 -13 56 -14 31
-15 38 -3 46 18 11 29 11 29 0 0 -5 8 -7 18 -5 23 7 42 -41 53 -131 4 -38 22
-119 39 -180 17 -60 35 -128 39 -151 9 -50 40 -105 127 -232 96 -137 158 -194
273 -249 53 -25 115 -58 138 -74 52 -36 58 -36 36 -2 -30 50 -87 104 -143 136
-71 40 -159 124 -217 207 -25 36 -67 90 -93 120 -26 30 -51 64 -57 75 -11 22
-29 191 -38 346 -3 52 -12 121 -20 153 -18 70 -19 85 -2 63 6 -10 39 -28 72
-42 l60 -24 6 -69 c7 -78 32 -168 60 -224 10 -20 58 -87 105 -148 75 -96 90
-110 115 -110 l30 0 -40 52 c-72 95 -89 133 -126 276 l-35 142 20 20 c48 48 0
157 -102 231 -37 26 -38 28 -19 39 12 6 21 17 21 24 0 8 15 17 35 20 38 7 135
68 149 94 6 10 9 71 8 137 -2 71 3 161 12 220 25 156 18 376 -13 495 -10 34
-28 60 -75 105 -66 64 -90 105 -81 136 5 14 -9 34 -54 78 -34 32 -61 62 -61
68 0 6 33 13 73 16 173 15 266 70 333 198 33 62 40 69 66 69 78 0 245 135 335
271 26 40 60 91 75 113 15 23 30 53 33 68 4 16 19 35 35 44 16 10 41 43 60 82
31 63 32 67 20 119 l-12 54 46 77 c67 115 116 227 123 281 10 83 -34 134 -101
117 -26 -6 -107 -103 -182 -216 -56 -85 -54 -83 -126 -170 -29 -36 -78 -96
-109 -135 -31 -38 -85 -101 -120 -138 l-64 -68 -100 -25 c-123 -31 -207 -28
-310 11 -104 39 -218 64 -264 58 -36 -5 -41 -3 -41 14 0 11 -10 42 -22 69 -20
45 -22 62 -19 189 2 112 0 149 -13 179 -9 21 -16 50 -16 64 0 18 -17 40 -60
79 -64 58 -143 157 -155 192 -10 33 -59 54 -114 47 -54 -7 -76 6 -87 50 -8 32
-56 93 -87 110 -18 10 -17 12 13 23 18 6 59 11 91 11 94 0 283 28 367 55 54
17 93 37 123 63 24 21 61 48 82 61 20 12 37 27 37 32 0 5 -11 2 -25 -7 -27
-18 -47 -12 -27 8 16 16 15 38 -2 38 -27 0 -10 39 30 69 23 16 53 45 67 63 34
45 137 271 137 301 0 14 11 55 25 91 14 37 25 80 25 96 0 24 -4 29 -29 32 -33
3 -36 -15 23 141 34 90 48 187 37 272 -8 66 -7 68 22 99 55 59 114 222 102
285 -4 20 -18 61 -32 92 -22 52 -24 61 -14 114 28 148 6 253 -64 310 l-43 35
5 64 c3 36 -1 105 -11 162 -18 114 -68 313 -74 296 -2 -6 6 -50 18 -97 12 -48
20 -89 17 -91 -2 -2 -19 33 -37 78 -31 77 -34 93 -37 213 -4 141 -8 175 -23
175 -19 0 -50 -45 -50 -74 -1 -17 -6 -41 -13 -54 -12 -20 -14 -11 -25 85 -22
215 -99 441 -212 623 -34 55 -65 99 -68 96 -3 -3 2 -14 10 -23 42 -49 24 -41
-39 17 -226 209 -352 310 -388 310 -7 0 -21 3 -31 7 -16 6 -15 4 2 -26 10 -18
40 -56 67 -84 73 -80 144 -189 167 -257 12 -35 23 -103 27 -158 l6 -97 -26 31
c-15 18 -45 39 -66 48 -22 8 -84 44 -138 79 -163 107 -401 244 -479 277 -40
17 -128 46 -196 66 -85 24 -134 44 -160 64 -45 37 -60 39 -28 5 13 -14 21 -25
17 -25 -26 0 -186 44 -217 60 -46 23 -67 26 -30 4 24 -14 22 -14 -30 -8 l-55
6 25 -19 c14 -11 66 -41 117 -68 50 -26 106 -61 123 -76 17 -16 35 -29 39 -29
5 0 24 -12 44 -27 19 -16 43 -33 53 -39 34 -21 -88 6 -124 27 -18 10 -30 15
-27 9 8 -14 -13 -13 -67 4 -25 7 -81 41 -127 76 -44 35 -83 61 -86 58 -3 -3
24 -29 60 -58 36 -28 65 -53 65 -55 0 -8 -151 45 -195 69 -27 14 -102 50 -166
80 -141 65 -259 142 -362 235 -42 39 -82 71 -89 71 -7 0 -9 -21 -5 -71z m317
-307 c14 -10 53 -36 88 -57 34 -21 62 -42 62 -47 0 -6 9 -17 21 -27 19 -15 19
-18 6 -30 -14 -11 -19 -7 -36 28 -20 39 -56 69 -69 57 -3 -3 0 -6 6 -6 6 0 21
-18 32 -40 11 -22 46 -70 76 -106 l56 -65 -44 27 c-79 50 -99 68 -205 184
-115 125 -185 221 -141 194 7 -4 8 -3 4 5 -4 6 -11 9 -16 6 -4 -3 -13 2 -20
10 -7 8 -9 15 -6 15 4 0 -2 10 -14 22 -11 12 -20 27 -20 32 0 6 44 -33 98 -86
53 -54 108 -106 122 -116z m235 -142 c46 -31 100 -55 210 -95 182 -67 219 -76
315 -82 92 -6 98 -7 185 -58 117 -69 164 -90 255 -115 65 -17 145 -28 100 -13
-8 2 -22 7 -30 10 -8 3 -19 7 -25 7 -58 6 -264 98 -340 153 -18 13 -17 14 18
8 24 -5 37 -3 37 4 0 6 -19 11 -48 11 -50 0 -97 23 -86 42 4 7 2 8 -4 4 -7 -4
-19 -3 -29 2 -14 8 -12 11 13 16 75 16 95 10 295 -93 108 -55 204 -111 215
-123 17 -21 17 -21 -9 1 -72 64 -5 -36 96 -142 22 -23 26 -32 15 -39 -9 -6 -6
-7 10 -3 13 4 22 2 22 -5 0 -6 5 -8 11 -4 7 4 8 9 1 13 -15 10 -103 114 -114
136 -17 35 148 -143 188 -203 21 -31 66 -93 99 -137 32 -44 61 -82 62 -84 2
-2 6 -1 9 2 4 4 -6 26 -22 49 -55 82 -161 223 -178 238 -10 7 -31 34 -48 58
-30 43 -30 44 -7 38 20 -6 21 -5 6 4 -9 6 -21 9 -25 6 -5 -3 -24 10 -42 29
-19 19 -29 35 -23 35 7 0 15 -4 18 -10 3 -5 15 -10 27 -10 17 0 18 3 8 15 -6
8 -15 14 -18 13 -14 -4 -96 45 -126 74 -45 42 -182 149 -243 188 -60 38 -74
64 -15 29 78 -48 362 -241 367 -250 9 -14 -7 -10 -29 6 -11 8 -25 15 -30 15
-19 0 57 -42 81 -45 13 -1 23 -1 23 1 0 16 -81 75 -322 235 -47 32 -90 63 -94
70 -4 6 6 2 22 -9 16 -11 68 -43 116 -70 48 -27 85 -52 82 -55 -3 -3 1 -5 8
-4 31 1 49 -4 44 -12 -3 -5 2 -8 12 -7 9 0 16 -4 15 -11 -2 -8 4 -10 14 -6 11
4 14 3 9 -5 -4 -7 -2 -10 7 -6 15 5 152 -129 193 -190 14 -20 29 -36 35 -36
13 0 64 -60 64 -76 0 -7 4 -16 9 -21 5 -5 6 -2 1 7 -4 8 7 -1 24 -20 17 -19
29 -41 26 -47 -2 -7 1 -12 7 -10 6 1 13 -4 16 -12 3 -9 0 -11 -8 -6 -9 5 -11
4 -6 -4 4 -6 11 -9 16 -6 12 7 32 -30 22 -40 -4 -5 -1 -4 7 0 11 6 13 4 8 -8
-4 -10 -2 -16 6 -14 7 1 11 -6 11 -15 -1 -10 2 -16 6 -13 4 3 11 -2 14 -11 4
-10 2 -13 -7 -8 -9 6 -9 4 1 -8 8 -10 10 -26 6 -42 l-6 -26 -24 36 c-13 19
-22 40 -18 45 3 5 2 8 -3 7 -4 -2 -9 0 -11 5 -1 4 -10 15 -19 25 -10 10 -43
47 -73 81 -115 132 -134 153 -152 162 -36 19 -16 -10 77 -117 102 -116 205
-259 205 -284 0 -8 -13 -42 -28 -75 l-28 -59 -34 49 c-18 28 -55 78 -81 112
-28 35 -46 68 -43 77 3 7 1 17 -5 21 -7 4 -9 -1 -5 -12 3 -10 -15 4 -40 32
-25 27 -46 45 -46 39 0 -15 38 -70 119 -174 92 -119 121 -158 121 -165 0 -14
-104 -162 -141 -201 -22 -22 -37 -43 -34 -46 6 -5 93 80 135 132 19 24 -19
-65 -109 -251 -22 -47 -41 -91 -41 -97 0 -6 -5 -12 -12 -14 -6 -2 -8 -10 -4
-17 7 -11 53 76 176 337 24 50 47 92 51 92 5 0 5 7 2 17 -4 11 -3 14 5 9 7 -4
12 -12 12 -18 0 -5 -30 -71 -66 -146 -141 -289 -184 -384 -178 -394 5 -7 94
161 94 177 0 2 195 409 223 464 l12 24 15 -36 c8 -20 18 -37 23 -37 12 0 7 43
-8 70 -16 28 -20 54 -6 46 4 -3 6 6 3 19 -2 15 0 25 7 25 6 0 11 -9 11 -20 0
-11 5 -20 10 -20 13 0 13 26 0 50 -8 14 -6 29 4 55 18 42 3 57 -18 18 l-14
-28 -7 26 c-6 26 16 136 37 177 7 12 17 21 23 18 14 -5 14 383 0 423 -6 16 -5
22 3 18 5 -4 35 -58 65 -120 49 -101 71 -158 120 -310 l15 -49 -21 20 c-25 22
-52 33 -61 25 -3 -3 2 -13 12 -22 65 -58 104 -185 127 -416 5 -48 5 -47 -14
20 -17 60 -61 163 -61 142 0 -4 14 -55 30 -114 17 -59 32 -139 35 -178 5 -80
-3 -57 -29 85 -17 92 -63 249 -77 265 -15 15 -10 -141 7 -243 30 -174 7 -688
-37 -817 -5 -16 -14 -60 -19 -98 -7 -44 -24 -95 -50 -147 -22 -44 -40 -83 -39
-87 0 -15 98 182 98 200 1 10 5 16 10 13 10 -6 48 76 57 124 4 16 10 30 15 30
5 0 13 9 20 21 14 27 39 180 39 242 0 28 4 46 9 42 9 -5 13 9 25 90 3 17 3
-18 0 -77 -3 -62 -1 -108 5 -108 11 0 22 109 30 305 l7 150 17 -37 c10 -21 21
-38 26 -38 5 0 20 -21 32 -47 16 -33 25 -42 27 -30 2 9 -6 33 -18 51 -24 40
-33 123 -21 206 7 50 8 52 15 25 4 -16 16 -61 27 -100 39 -141 51 -372 25
-507 -22 -113 -133 -357 -156 -343 -5 3 -12 0 -16 -6 -5 -8 -3 -9 6 -4 24 15
4 -20 -85 -150 -82 -122 -103 -163 -68 -134 14 12 16 12 11 -1 -3 -8 -12 -14
-20 -14 -10 1 -46 -52 -97 -142 -45 -79 -84 -144 -87 -144 -10 0 224 421 239
431 5 4 7 12 3 18 -5 7 -1 9 9 5 11 -5 14 -2 9 10 -5 13 -9 14 -20 5 -8 -6
-14 -17 -14 -23 0 -6 -9 -26 -21 -45 -17 -28 -23 -32 -31 -20 -8 11 -9 10 -4
-4 6 -18 -28 -96 -46 -108 -5 -3 -10 -10 -11 -15 -1 -5 -6 -8 -10 -6 -5 1 -6
-2 -3 -7 8 -12 -4 -42 -14 -36 -5 3 -12 0 -16 -6 -4 -8 -3 -9 4 -5 7 4 12 5
12 3 0 -2 -32 -60 -70 -128 -39 -68 -80 -145 -92 -171 -12 -26 -24 -45 -28
-43 -10 6 -45 -49 -125 -195 -37 -69 -71 -129 -77 -135 -5 -5 37 85 92 200
108 224 262 516 268 510 2 -2 -19 -49 -47 -104 -36 -72 -46 -101 -36 -101 8 0
15 7 15 15 0 13 140 292 180 357 9 16 20 25 24 21 4 -4 4 1 0 12 -4 11 -12 23
-17 27 -7 4 -4 17 7 33 12 18 14 31 8 37 -6 6 -30 -29 -67 -100 -61 -115 -102
-177 -90 -135 3 12 2 24 -3 27 -5 3 -8 -9 -6 -27 3 -36 -74 -170 -200 -352
-38 -55 -80 -124 -93 -152 -29 -63 -38 -69 -18 -12 27 75 15 65 -29 -26 -25
-49 -44 -83 -44 -75 0 29 94 225 108 225 7 0 15 7 17 15 4 13 3 13 -6 0 -7
-10 -11 -11 -11 -3 0 7 34 68 75 136 41 68 75 128 75 135 0 28 -19 7 -56 -60
-87 -158 -227 -398 -231 -394 -6 6 92 201 127 251 16 24 30 46 30 49 0 3 15
31 34 63 18 32 53 105 76 163 23 58 73 169 111 247 37 78 78 166 91 195 12 29
25 55 28 58 12 10 83 201 76 207 -3 3 -6 -1 -6 -10 0 -8 -6 -22 -12 -29 -7 -8
-20 -25 -28 -40 -55 -94 -107 -147 -61 -62 12 21 21 43 21 49 0 5 -12 -12 -26
-39 -13 -27 -22 -51 -20 -54 3 -2 -5 -19 -18 -36 -13 -17 -42 -74 -65 -126
-23 -52 -70 -147 -105 -210 -35 -63 -83 -150 -106 -193 -23 -42 -45 -75 -50
-72 -4 3 -7 -1 -6 -8 1 -13 -145 -299 -151 -294 -2 2 38 91 87 197 50 106 89
197 87 204 -3 6 -41 -63 -85 -154 -45 -91 -81 -163 -81 -160 -1 3 28 71 63
152 38 87 66 168 70 200 5 46 4 51 -7 36 -8 -10 -17 -15 -20 -11 -4 3 -25 -33
-47 -81 -22 -47 -42 -86 -45 -86 -5 0 14 46 70 165 20 44 57 132 82 195 25 63
54 132 64 152 21 42 23 48 10 48 -5 0 -39 -73 -76 -162 -37 -90 -81 -192 -97
-228 -74 -162 -117 -260 -138 -318 -29 -80 -35 -75 -9 9 11 35 26 87 34 114
13 46 61 183 115 328 12 32 20 60 18 63 -6 5 -40 -65 -62 -126 -20 -55 -33
-76 -41 -68 -4 3 0 17 8 30 18 27 50 134 76 251 10 45 22 91 27 102 7 17 6 18
-8 7 -9 -7 -22 -27 -29 -45 -12 -30 -49 -86 -76 -114 -6 -7 -15 -27 -18 -45
-4 -18 -45 -113 -91 -211 -46 -97 -84 -183 -85 -190 0 -8 -2 -9 -5 0 -5 11 19
73 71 187 27 60 30 72 16 80 -5 4 -7 -4 -3 -16 4 -17 2 -20 -11 -15 -10 4 -14
2 -11 -7 5 -12 -180 -396 -191 -396 -3 0 2 17 11 38 9 20 37 97 64 170 26 73
63 156 83 186 53 79 81 141 115 247 60 187 105 421 122 631 9 121 4 278 -9
278 -3 0 -6 -60 -7 -133 -1 -155 -33 -363 -95 -617 -46 -188 -81 -282 -145
-391 -24 -42 -44 -82 -45 -90 0 -25 -55 -150 -62 -143 -7 7 -11 -10 -8 -33 2
-15 -99 -276 -105 -270 -2 2 17 59 42 128 25 68 48 138 50 156 5 40 84 244 93
239 3 -2 7 6 7 17 1 12 5 33 9 46 6 17 5 22 -3 17 -14 -8 -50 -86 -92 -201
-34 -91 -45 -113 -55 -103 -3 3 17 62 45 131 27 68 50 128 50 131 0 15 -19 4
-25 -14 -4 -11 -11 -18 -16 -15 -5 3 -6 -1 -3 -9 3 -8 -5 -41 -19 -73 -14 -32
-31 -73 -38 -92 -7 -19 -15 -29 -17 -22 -3 8 -18 -19 -34 -58 -17 -40 -32 -70
-35 -68 -2 3 19 63 48 133 28 71 60 152 70 179 24 69 79 306 79 341 -1 28 -1
28 -15 9 -9 -10 -23 -43 -32 -72 -13 -40 -19 -50 -25 -38 -14 23 -29 18 -23
-8 4 -14 -7 -64 -27 -123 l-33 -99 -6 110 c-7 121 -19 182 -51 259 -46 109
-168 270 -229 301 -34 18 -48 3 -16 -18 28 -19 64 -52 102 -96 18 -21 2 -11
-40 25 -160 138 -335 251 -498 320 -86 37 -112 44 -169 44 -39 0 -68 -4 -68
-10 0 -5 22 -10 49 -10 52 0 79 -9 206 -71 93 -44 89 -48 -15 -15 -81 26 -235
51 -370 61 -104 8 -362 84 -558 164 -68 28 -183 118 -177 138 2 7 -1 15 -7 19
-7 5 -8 2 -3 -7 8 -14 -12 6 -50 50 -16 19 -17 24 -5 33 12 8 12 9 -2 4 -13
-4 -26 7 -46 37 -71 104 -51 93 98 -53 42 -42 254 -210 258 -205 3 3 -5 16
-18 30 -27 29 -17 34 14 8 21 -18 21 -18 2 4 -10 12 -26 21 -36 20 -19 -2
-147 109 -306 268 -94 93 -103 105 -114 157 -8 33 -17 55 -24 52 -6 -2 -16 13
-23 33 -6 21 -14 47 -18 58 -3 11 4 2 16 -20 12 -22 62 -79 111 -127 126 -121
244 -180 272 -135 9 14 7 21 -10 35 -24 19 -88 111 -82 117 2 3 16 -7 31 -20
14 -14 30 -25 35 -25 4 0 13 -5 20 -12 9 -9 7 -15 -6 -25 -15 -13 -14 -13 6
-3 20 10 33 5 94 -30 75 -43 201 -100 223 -100 6 0 27 -8 46 -17 20 -11 59
-18 94 -19 85 -1 185 -15 192 -27 4 -6 0 -8 -10 -4 -9 3 -19 2 -22 -3 -3 -5 8
-7 24 -5 21 3 35 -3 52 -22 l24 -25 -35 6 c-33 5 -34 5 -7 -5 21 -8 31 -8 43
2 14 12 14 14 -3 27 -16 13 -15 14 17 8 21 -4 31 -3 25 3 -6 5 -19 11 -30 13
-11 2 66 2 170 0 171 -3 198 -6 265 -29 72 -24 150 -59 160 -72 3 -3 39 -28
80 -56 88 -59 113 -85 161 -171 19 -35 38 -61 42 -58 8 8 -2 33 -26 67 -63 91
60 -31 133 -131 47 -66 49 -42 2 30 -47 72 -110 139 -236 251 -86 76 -105 100
-42 52 35 -26 46 -30 46 -16 0 4 -28 27 -62 50 -35 22 -60 41 -55 41 10 0 86
-49 114 -73 12 -11 20 -24 16 -30 -4 -6 -1 -7 7 -2 9 6 46 -26 119 -102 104
-108 186 -226 176 -250 -14 -34 -15 -46 -2 -25 13 23 14 21 47 -50 37 -82 38
-83 45 -76 11 10 -69 183 -133 288 -18 29 -112 142 -126 152 -6 4 -8 9 -6 12
8 7 105 -85 102 -96 -1 -5 2 -7 8 -3 5 3 10 11 10 17 0 15 -56 83 -116 140
-30 28 -51 54 -48 59 3 5 -5 13 -18 18 -13 5 -47 27 -75 50 -29 22 -54 41 -57
41 -2 0 -26 15 -54 34 -125 84 -419 200 -429 169 -2 -6 -22 -8 -48 -5 -56 6
-61 -14 -13 -52 34 -26 50 -27 28 -1 -14 17 -7 19 18 5 9 -6 49 -24 87 -40
l70 -29 -65 4 c-36 2 -85 11 -110 20 -24 9 -86 27 -136 40 -221 59 -412 184
-552 363 -37 47 -35 52 8 21 41 -31 122 -59 215 -76 94 -18 411 -25 505 -12
35 5 127 14 205 19 110 7 142 13 152 26 10 14 21 12 108 -20 54 -20 136 -57
183 -81 90 -47 112 -54 93 -32 -6 8 -7 18 -3 22 4 5 1 5 -6 1 -6 -4 -24 1 -40
12 -49 33 -135 75 -227 108 -72 26 -83 33 -57 34 18 0 31 4 27 9 -3 6 -22 9
-43 7 -43 -4 -62 1 -62 19 0 7 -7 16 -16 19 -8 3 -12 11 -8 17 4 8 3 9 -4 5
-6 -3 -28 3 -49 14 -21 11 -46 20 -57 20 -29 0 -225 175 -226 201 0 4 7 12 15
19 13 11 19 9 38 -7 39 -36 208 -130 382 -214 187 -91 180 -87 173 -94 -3 -3
-29 6 -58 21 -29 14 -71 29 -93 32 -42 5 -266 116 -324 160 -18 13 -30 29 -26
35 3 6 1 7 -5 3 -7 -4 -12 -3 -12 2 0 6 -7 12 -15 16 -12 4 -13 2 -6 -13 18
-33 86 -86 163 -125 42 -22 74 -44 71 -49 -3 -6 -1 -7 5 -3 6 4 44 -9 84 -29
40 -19 81 -35 92 -35 20 0 96 -40 96 -50 0 -4 20 -17 45 -29 50 -25 57 -32 23
-24 -40 10 -13 -6 50 -31 55 -22 192 -109 200 -128 2 -5 11 -8 19 -8 38 0 224
-155 253 -211 11 -22 9 -21 -21 6 -19 17 -26 21 -16 9 37 -44 14 -35 -40 17
-68 64 -161 135 -219 166 -68 37 -207 94 -218 89 -9 -3 75 -46 139 -71 l20 -7
-20 -8 c-20 -8 -19 -9 1 -9 12 -1 63 -38 113 -82 50 -45 94 -79 97 -77 3 3
-25 33 -62 67 -37 33 -62 61 -55 61 17 0 91 -51 86 -60 -2 -4 5 -16 18 -26 21
-19 21 -19 7 0 -29 38 9 11 90 -62 44 -41 80 -79 80 -85 0 -6 -12 0 -27 14
l-28 24 24 -27 c14 -16 27 -26 29 -23 3 3 14 -2 24 -12 36 -33 31 -2 -7 37
-35 35 -36 39 -15 37 17 -1 37 -23 78 -87 92 -142 102 -159 102 -170 0 -5 5
-10 10 -10 18 0 11 20 -25 75 -19 29 -34 59 -32 66 2 8 2 10 -1 6 -2 -5 -20
15 -39 43 -32 48 -34 53 -18 70 12 14 13 20 4 26 -7 4 -10 3 -6 -3 4 -6 0 -16
-7 -22 -12 -10 -20 -4 -44 32 -17 24 -38 49 -47 57 -9 7 -21 23 -27 34 -10 19
-9 19 4 8 22 -18 31 0 13 24 -12 15 -14 15 -9 2 4 -12 1 -16 -13 -13 -10 1
-17 8 -16 14 2 6 0 10 -5 8 -13 -4 -102 75 -95 86 3 5 1 7 -5 4 -5 -4 -50 26
-99 67 -48 40 -104 83 -123 95 -35 21 -26 30 12 10 11 -6 22 -8 25 -6 2 3
-119 66 -269 139 -254 125 -440 226 -497 270 -32 24 -14 23 24 -2z m1335 -317
c123 -85 118 -79 218 -245 10 -16 23 -28 30 -28 13 0 14 -26 3 -75 l-7 -30
-18 33 c-14 28 -15 36 -4 50 11 15 11 15 -3 4 -14 -10 -19 -8 -34 15 -10 15
-18 33 -18 40 0 7 -4 10 -8 7 -5 -2 -15 8 -23 24 -22 43 -149 190 -195 225
-23 17 -41 35 -41 40 0 9 3 8 100 -60z m546 -834 c18 -140 14 -312 -11 -444
-9 -44 -18 -99 -21 -122 -8 -59 -62 -224 -63 -193 0 14 6 46 13 72 8 26 25
104 38 175 19 111 22 162 23 385 0 141 1 255 3 254 1 -2 9 -59 18 -127z
m-2621 -86 c39 -13 123 -39 187 -57 l118 -32 -111 2 c-142 4 -201 21 -286 86
-94 70 -95 72 -33 48 30 -12 87 -33 125 -47z m519 -103 c139 -19 201 -32 305
-66 61 -21 66 -24 98 -70 15 -22 60 -85 99 -140 111 -156 164 -261 170 -336 2
-35 7 -76 9 -92 3 -16 -22 24 -54 90 -57 113 -59 120 -45 144 l15 25 -19 -22
-19 -22 -39 57 c-21 31 -53 75 -71 98 -18 22 -29 45 -25 49 4 5 2 5 -4 2 -6
-3 -24 8 -40 24 -33 35 -117 92 -168 113 -25 10 -37 11 -45 3 -17 -17 -13 -25
20 -42 89 -47 186 -139 284 -270 17 -22 36 -46 43 -53 19 -21 72 -100 72 -108
0 -4 -12 3 -27 17 l-28 24 24 -27 c13 -15 28 -26 34 -25 5 1 12 -4 15 -12 3
-9 0 -11 -8 -6 -9 5 -11 4 -6 -4 4 -6 11 -9 16 -6 9 6 24 -24 21 -42 -1 -7 2
-13 7 -13 4 0 16 -17 26 -37 15 -31 19 -72 23 -211 3 -122 1 -172 -6 -167 -14
8 -14 -12 1 -107 6 -42 15 -75 20 -72 5 3 7 -7 4 -23 -2 -15 -5 -31 -5 -35 -1
-5 -5 -8 -10 -8 -10 0 -25 100 -42 275 -5 60 -12 111 -14 113 -2 2 -7 -17 -10
-42 -10 -61 10 -269 30 -328 16 -45 16 -47 -4 -67 -26 -26 -30 -26 -29 -3 0 9
-9 62 -20 117 -32 156 -34 175 -33 258 2 81 -12 104 -24 40 -17 -93 6 -295 42
-368 l15 -30 -22 22 c-20 19 -51 116 -87 271 -6 26 16 114 27 107 3 -2 7 2 7
10 0 25 -12 17 -36 -26 l-23 -41 -41 74 c-22 40 -55 92 -73 115 -19 23 -34 45
-34 50 0 18 -75 110 -123 152 -58 50 -133 98 -204 131 -28 13 -49 28 -46 34 3
5 1 6 -4 3 -6 -4 -59 9 -117 28 -114 37 -246 57 -246 36 0 -6 4 -11 8 -11 5 0
17 -6 28 -14 10 -8 -32 1 -95 20 -63 19 -133 37 -155 39 l-41 5 29 -14 c20 -9
25 -15 15 -19 -8 -4 -3 -4 11 -2 36 7 353 -91 320 -99 -141 -33 -203 -34 -335
-2 -209 51 -320 101 -407 181 -16 15 -25 31 -22 40 7 18 -10 20 -24 3 -14 -18
-19 -53 -7 -53 6 0 38 -22 72 -48 79 -60 144 -89 303 -134 112 -32 138 -36
245 -36 90 0 129 4 158 17 29 13 43 14 60 6 21 -11 21 -11 3 4 -17 14 -17 16
-4 16 9 0 32 -13 50 -30 18 -16 36 -30 39 -30 4 0 31 -30 60 -67 29 -38 77
-96 107 -131 29 -34 47 -60 39 -56 -8 3 -17 -2 -21 -11 -3 -9 -2 -14 3 -11 11
7 33 -19 24 -28 -4 -4 -1 -5 7 -2 34 12 99 -73 280 -368 37 -61 5 -32 -42 37
-55 82 -171 227 -241 304 -32 34 -56 67 -55 75 2 7 -2 12 -9 11 -6 -1 -17 4
-23 12 -7 8 -17 15 -22 15 -5 0 10 -23 34 -51 68 -80 188 -232 199 -252 6 -11
-13 -1 -44 23 -61 45 -185 102 -202 92 -6 -4 -2 -8 8 -10 9 -2 14 -8 11 -14
-4 -7 -2 -8 4 -4 27 16 169 -74 257 -163 59 -60 150 -222 204 -366 21 -55 42
-108 46 -117 4 -10 3 -18 -1 -18 -5 0 -24 42 -43 93 -41 112 -71 174 -122 251
-21 32 -36 63 -32 69 3 5 1 7 -4 4 -11 -7 -120 110 -116 124 2 5 -7 5 -20 0
-12 -4 -29 -6 -37 -4 -13 4 -13 3 -1 -5 8 -6 19 -8 26 -6 18 7 87 -86 115
-156 6 -14 26 -53 45 -88 19 -35 31 -60 26 -57 -5 3 -11 0 -13 -7 -2 -6 -29
22 -60 63 -78 103 -168 191 -253 247 -40 26 -81 53 -91 60 -11 7 4 1 31 -12
107 -52 241 -170 322 -283 25 -35 47 -62 50 -59 8 8 -48 89 -108 157 -32 37
-55 70 -51 74 4 3 0 5 -8 3 -8 -2 -14 2 -13 9 2 7 -3 10 -10 8 -17 -6 -80 53
-71 67 4 6 3 8 -3 5 -6 -4 -48 16 -94 43 -103 62 -186 88 -313 101 -146 16
-190 -1 -94 -36 29 -10 47 -20 40 -23 -18 -6 -115 29 -129 47 -8 11 -12 12
-13 3 0 -9 -18 -11 -72 -6 -89 8 -82 -8 11 -24 105 -19 265 -103 356 -187 22
-21 55 -49 74 -64 56 -42 191 -196 191 -217 0 -4 -17 9 -37 27 -45 41 -180
113 -261 139 -126 42 -514 102 -542 85 -19 -12 -9 -24 23 -29 17 -3 88 -15
157 -26 128 -21 304 -60 297 -66 -2 -2 -48 6 -103 17 -67 14 -153 22 -269 25
-167 5 -206 0 -190 -26 6 -9 33 -11 107 -5 67 4 98 3 94 -3 -6 -11 -147 -45
-271 -67 -42 -7 -69 -17 -67 -24 1 -6 -11 -11 -27 -11 -37 0 -50 -18 -19 -24
13 -3 68 -9 123 -15 l100 -10 -100 5 c-145 6 -206 15 -198 27 6 10 -5 8 -89
-14 -42 -11 -50 -34 -15 -42 12 -3 69 -11 127 -18 58 -6 109 -15 113 -19 9 -8
-112 -25 -153 -21 -53 5 -182 44 -187 57 -3 8 -14 14 -25 14 -10 0 -16 -4 -13
-10 9 -15 -1 -12 -54 15 -27 13 -51 30 -54 37 -4 10 -8 10 -16 -2 -5 -8 -9
-15 -8 -16 1 -1 36 -21 77 -44 41 -23 64 -38 50 -34 -56 15 -180 88 -260 153
-104 83 -282 271 -275 289 3 7 1 11 -4 8 -15 -9 -46 33 -34 45 8 8 16 5 29
-10 10 -11 23 -21 28 -21 5 0 -10 18 -35 40 -24 22 -48 40 -54 40 -5 0 1 -9
14 -19 14 -11 19 -21 13 -25 -5 -3 -27 18 -49 46 -54 75 -60 87 -26 56 16 -16
33 -28 39 -28 5 0 32 -18 59 -41 28 -22 67 -52 88 -65 22 -14 36 -28 33 -31
-7 -8 33 -53 47 -53 5 0 -2 10 -17 21 -40 31 -26 33 33 4 143 -72 310 -99 571
-92 168 4 179 5 276 39 97 34 104 35 190 27 131 -11 183 -11 162 2 -10 5 -24
9 -30 8 -7 -1 -55 -1 -107 0 l-95 1 22 20 c12 12 22 25 22 30 0 6 7 10 15 10
19 0 19 7 0 26 -19 19 -20 38 -1 31 7 -3 35 -8 62 -12 200 -26 339 -83 446
-182 70 -64 91 -70 33 -10 -127 133 -301 216 -517 246 -122 17 -202 58 -313
160 -55 51 -68 72 -24 39 50 -37 183 -108 203 -108 10 0 45 -14 77 -31 33 -18
62 -29 65 -26 3 3 -4 10 -15 17 -12 6 -18 16 -15 22 5 7 2 8 -5 4 -7 -5 -51
15 -107 50 -53 31 -91 60 -85 63 5 4 -27 26 -72 49 -78 40 -164 102 -124 88
11 -3 16 -2 12 5 -4 5 -15 7 -24 4 -35 -11 -110 93 -160 222 -38 100 -33 108
18 25 55 -90 84 -130 145 -204 71 -86 58 -50 -27 75 -46 67 -97 145 -113 172
l-29 50 67 -59 c37 -33 64 -64 61 -70 -3 -5 -1 -6 5 -2 6 4 20 1 31 -6 11 -7
24 -8 28 -4 4 5 2 11 -5 13 -6 3 -9 10 -6 15 4 7 2 8 -5 4 -18 -12 -155 100
-147 120 3 7 0 11 -7 8 -10 -4 -97 121 -97 140 0 3 22 -15 49 -42 172 -166
487 -352 685 -403 82 -21 96 -23 96 -9 0 6 -4 10 -9 10 -5 0 -22 5 -38 11 -15
7 -38 13 -51 15 -13 1 -42 12 -65 22 -23 11 -76 36 -117 54 -70 32 -320 184
-320 195 0 2 13 2 28 -2 38 -8 80 9 94 39 23 52 232 123 313 106 39 -7 39 -8
8 -9 -18 0 -33 -5 -33 -10 0 -5 78 -7 173 -5 146 3 197 0 337 -22 91 -14 176
-28 189 -31 15 -4 22 -2 18 4 -4 6 -23 14 -43 18 -20 3 -34 9 -31 12 3 3 43
-6 89 -21 158 -49 323 -97 339 -100 26 -4 84 -54 134 -116 53 -67 74 -73 30
-10 -42 60 -158 166 -213 194 -26 13 -92 40 -147 61 -55 20 -108 41 -117 46
-14 7 -18 6 -18 -6 0 -8 6 -15 13 -15 19 0 278 -107 291 -120 6 -7 -7 -4 -29
5 -118 51 -265 101 -390 130 -107 26 -130 34 -97 34 24 1 41 5 38 10 -6 10
-141 28 -278 37 -54 3 -100 9 -102 12 -2 4 40 6 95 4 65 -2 99 0 99 7 0 6 -7
11 -15 11 -13 0 -19 12 -16 32 0 4 -5 5 -13 2 -8 -3 -17 -1 -20 4 -14 23 207
20 294 -4 19 -5 22 -4 14 5 -6 7 -33 19 -60 26 l-49 14 60 -6 c33 -3 107 -11
165 -18 62 -8 111 -10 120 -4 8 4 11 9 5 9 -43 3 -218 29 -222 34 -10 9 14 7
171 -14z m581 -218 c151 -104 256 -194 280 -242 44 -86 67 -180 72 -295 3 -60
9 -115 14 -121 6 -7 -10 -49 -39 -110 l-49 -99 -6 160 c-4 88 -13 192 -21 230
-23 115 -74 261 -104 296 -65 78 -146 159 -197 195 -30 21 -54 43 -55 47 0 10
8 6 105 -61z m1824 -37 c1 -76 -212 -449 -328 -575 -32 -35 -27 -25 22 44 151
207 241 391 268 542 12 69 12 69 25 39 7 -16 13 -39 13 -50z m61 -29 c0 -7 9
-22 21 -35 19 -20 20 -30 14 -87 -7 -63 -25 -81 -25 -23 0 16 -5 29 -11 29 -8
0 -10 -18 -7 -57 6 -59 4 -72 -26 -243 -17 -93 -55 -187 -74 -183 -5 1 -33
-25 -62 -57 -28 -33 -55 -58 -59 -56 -11 7 -94 -68 -97 -88 -1 -10 1 -15 4
-11 4 4 5 8 2 10 -7 5 42 55 53 55 6 0 0 -12 -13 -27 -12 -16 21 16 74 70 99
102 125 115 58 30 -47 -58 -168 -173 -184 -173 -6 0 -9 -3 -5 -6 3 -4 29 10
57 30 55 40 70 45 49 19 -13 -16 -12 -17 3 -4 10 7 16 17 13 21 -2 4 19 27 48
52 29 25 80 87 114 139 35 52 72 105 84 119 l20 25 -6 -35 c-13 -71 -36 -140
-46 -140 -6 0 -9 -7 -5 -15 3 -8 0 -15 -7 -15 -7 0 -19 -17 -26 -37 -15 -41
-79 -115 -92 -107 -5 3 -7 -1 -4 -8 3 -7 -16 -30 -43 -51 -26 -21 -67 -53 -91
-73 -24 -19 -58 -42 -75 -51 -36 -19 -136 -101 -223 -185 -35 -33 -63 -56 -63
-50 0 11 172 172 231 215 21 16 39 33 39 38 0 21 -33 6 -77 -36 -50 -49 -58
-53 -49 -29 3 9 2 12 -5 9 -6 -4 -8 -13 -6 -20 3 -7 -20 -37 -51 -66 l-56 -54
48 58 c35 42 46 61 38 69 -17 17 -32 -1 -91 -114 -72 -138 -101 -186 -101
-168 0 9 6 24 14 35 7 11 37 65 66 120 80 151 89 165 108 159 12 -4 13 -3 4 3
-10 7 -3 28 29 94 23 46 49 88 57 93 12 7 12 10 1 16 -22 14 -46 -7 -95 -83
-50 -78 -84 -116 -84 -95 0 7 -8 -1 -18 -19 -9 -18 -71 -121 -137 -230 -119
-197 -171 -294 -196 -365 -7 -21 -17 -38 -22 -38 -5 0 -7 3 -5 8 26 49 38 87
33 101 -6 14 -8 14 -21 -4 -8 -11 -12 -26 -9 -34 11 -29 -19 -71 -62 -87 -24
-9 -54 -28 -68 -42 -31 -30 -32 -16 -4 43 26 55 39 65 39 29 0 -27 0 -27 19
-8 10 10 17 22 14 26 -2 4 3 20 11 35 14 28 14 27 9 -16 -5 -33 -3 -42 6 -37
7 5 10 14 7 22 -6 17 18 76 37 93 12 9 16 9 19 -1 2 -6 31 33 63 88 32 54 103
172 157 261 54 89 98 167 98 172 0 6 5 11 10 11 6 0 10 6 11 13 0 6 11 28 25
47 13 19 34 50 45 68 12 18 24 30 27 28 3 -3 -16 -38 -42 -77 -26 -39 -45 -73
-42 -76 6 -6 116 160 116 176 0 6 -5 11 -11 11 -11 0 1 17 82 118 67 83 200
212 212 205 6 -3 7 -1 3 5 -7 12 71 89 86 84 5 -1 7 2 4 7 -3 5 17 30 44 55
28 26 50 49 50 51 0 17 -32 -2 -70 -40 -24 -24 -48 -41 -53 -38 -6 3 -7 1 -4
-4 4 -6 -53 -66 -126 -134 -100 -94 -119 -109 -77 -60 124 143 256 358 294
481 10 30 20 61 22 69 3 11 7 11 19 1 8 -7 15 -18 15 -24z m-2675 -213 c156
-54 297 -130 377 -202 15 -13 25 -28 22 -32 -3 -5 2 -6 10 -3 10 4 13 0 10
-13 -3 -12 9 -34 36 -63 68 -75 66 -89 -3 -20 -36 36 -70 65 -76 65 -7 0 -33
21 -59 46 -59 57 -117 96 -207 138 -38 18 -110 52 -160 76 -49 24 -97 46 -105
49 -51 20 72 -13 155 -41z m303 -316 c12 -6 21 -16 18 -23 -3 -8 0 -16 6 -20
7 -4 8 -3 4 4 -13 21 6 13 48 -21 23 -18 54 -41 69 -50 37 -24 134 -177 112
-177 -13 0 -84 73 -79 81 3 5 -1 6 -9 3 -9 -3 -38 22 -77 68 -35 40 -109 120
-164 177 -93 96 -95 99 -26 37 41 -37 85 -73 98 -79z m1277 51 c-35 -119 -82
-257 -110 -324 -19 -45 -35 -90 -35 -101 0 -17 -34 -90 -180 -384 -21 -42 -41
-94 -45 -117 -4 -23 -15 -52 -25 -65 -11 -14 -22 -43 -26 -66 -6 -36 -4 -41
10 -35 9 3 16 1 16 -5 0 -6 -10 -11 -22 -11 -30 0 -17 -10 21 -15 17 -2 58 6
91 17 64 21 80 34 29 23 -42 -9 -30 10 15 25 24 8 38 21 51 51 10 22 24 43 31
47 8 4 36 55 65 112 28 58 57 108 64 113 8 4 37 50 65 103 29 52 55 93 58 90
7 -7 -103 -231 -166 -339 -27 -45 -68 -133 -93 -194 -39 -99 -47 -113 -68
-113 -22 0 -23 -3 -18 -40 3 -22 1 -40 -3 -40 -5 0 -11 15 -13 33 l-4 32 -1
-33 c-2 -27 3 -34 24 -43 22 -8 30 -6 44 9 32 34 41 59 30 84 -15 33 50 187
179 421 55 102 101 193 101 204 1 22 38 104 39 83 0 -8 -6 -26 -14 -40 -8 -14
-14 -34 -15 -45 0 -10 -54 -134 -119 -275 -124 -264 -142 -320 -121 -371 12
-27 36 -43 28 -17 -2 6 11 25 29 41 18 16 38 39 45 52 7 13 29 48 49 77 20 29
40 64 44 77 9 28 352 641 367 656 6 6 -10 -28 -36 -75 -26 -47 -63 -119 -82
-160 -20 -41 -85 -175 -146 -298 -86 -171 -117 -225 -137 -235 -33 -15 -75
-99 -99 -196 -21 -86 -48 -113 -37 -37 6 40 5 45 -9 40 -11 -4 -19 2 -26 21
-10 27 -11 27 -33 9 -12 -10 -32 -29 -45 -41 -21 -22 -25 -22 -45 -8 -12 8
-28 32 -35 53 l-12 37 4 -42 c2 -23 11 -50 20 -58 18 -19 20 -31 6 -40 -6 -3
-7 1 -4 9 11 28 -5 17 -21 -14 -20 -38 -6 -38 34 -1 18 17 41 33 52 36 10 4
19 13 19 20 0 8 8 18 17 24 28 15 68 -34 57 -68 -9 -24 -15 -26 -87 -31 -54
-3 -81 -10 -88 -20 -8 -13 -13 -10 -35 15 -53 63 -67 75 -84 75 -10 0 -23 7
-30 15 -7 8 -9 15 -6 15 4 0 0 10 -8 22 -31 44 -22 53 71 65 47 7 91 17 97 23
13 13 13 13 -81 -5 -93 -18 -83 -17 -83 -5 0 6 6 10 14 10 7 0 20 7 27 16 12
15 11 16 -9 10 -13 -5 -22 -3 -22 3 0 16 -32 13 -58 -5 -20 -14 -22 -14 -22 0
0 9 -4 16 -10 16 -5 0 -7 -7 -4 -15 4 -8 1 -22 -6 -30 -16 -19 -4 -68 22 -91
21 -19 21 -19 13 1 -19 45 -2 107 25 90 8 -5 7 -12 -4 -24 -9 -10 -13 -26 -9
-41 8 -33 52 -80 74 -80 10 0 39 -24 64 -54 l47 -54 44 14 c24 7 44 9 44 5 0
-5 -23 -14 -51 -21 l-51 -12 -36 34 c-66 62 -132 100 -209 119 -42 11 -84 19
-94 19 -11 0 -19 2 -19 4 0 2 -3 11 -6 19 -4 13 1 14 30 7 20 -4 48 -15 61
-24 38 -25 30 -1 -11 32 -22 18 -32 32 -25 36 6 4 11 26 11 48 0 54 7 46 15
-17 4 -28 14 -58 23 -68 21 -24 25 -15 7 19 -8 16 -15 45 -15 64 0 37 -14 60
-37 60 -8 0 -13 -13 -13 -35 0 -19 -4 -35 -9 -35 -15 0 -22 -32 -10 -46 9 -11
7 -14 -8 -14 -10 0 -24 5 -31 12 -9 9 -12 6 -12 -15 0 -15 -4 -27 -10 -27 -12
0 -42 69 -38 89 5 25 27 24 39 -3 17 -36 30 -33 18 4 -11 29 -19 34 -48 31 -7
-2 -11 4 -9 11 3 7 20 13 38 14 33 0 51 16 31 28 -6 4 -5 18 4 39 16 39 35
168 35 239 0 78 -9 53 -20 -58 -6 -54 -18 -125 -27 -158 -13 -48 -21 -60 -44
-68 -16 -5 -30 -17 -33 -26 -9 -29 -10 -106 -2 -129 5 -16 3 -23 -6 -23 -21 0
-34 13 -35 35 -1 11 -5 39 -9 63 -6 39 -4 46 24 75 51 52 91 177 94 291 1 59
6 97 13 100 25 9 156 223 242 396 51 102 93 181 93 175 0 -22 -32 -111 -80
-227 -64 -151 -107 -237 -155 -308 -20 -30 -32 -56 -26 -58 6 -2 11 -13 12
-25 0 -21 1 -21 8 -2 5 11 5 22 0 25 -4 3 10 32 32 64 21 32 39 55 39 52 0
-12 -32 -70 -49 -90 -11 -14 -13 -20 -4 -23 9 -3 7 -17 -6 -51 -10 -26 -22
-83 -25 -127 -4 -44 -12 -95 -17 -112 -9 -27 -7 -36 7 -50 13 -14 18 -15 22
-5 3 10 8 10 21 -2 14 -13 23 -13 53 -4 29 9 40 19 53 50 8 21 15 55 15 76 0
29 12 57 53 117 55 84 92 143 115 185 72 132 97 183 147 298 32 73 59 131 61
130 3 -4 -122 -320 -156 -393 -22 -49 -66 -128 -128 -232 -17 -29 -29 -53 -27
-53 10 0 113 165 154 245 38 75 172 415 211 535 27 83 75 178 55 108z m994
-397 c-8 -26 -30 -57 -61 -86 -26 -26 -48 -43 -48 -38 0 4 -5 0 -11 -10 -15
-25 -88 -69 -102 -61 -7 4 -9 3 -4 -1 6 -7 -73 -45 -92 -45 -3 0 11 17 30 37
18 21 24 29 12 19 -12 -10 -28 -16 -35 -14 -8 3 1 12 20 22 18 9 38 14 44 10
7 -4 8 -3 4 4 -4 7 12 19 41 32 26 11 55 25 63 30 8 6 25 14 37 19 11 6 24 15
28 21 9 15 -58 -19 -67 -34 -4 -6 -11 -7 -15 -2 -4 5 0 13 11 20 10 6 38 26
63 45 37 27 47 31 55 20 8 -11 9 -10 4 4 -5 16 23 62 32 53 2 -2 -2 -22 -9
-45z m29 -83 c-14 -87 -80 -275 -105 -305 -14 -15 -21 -22 -17 -14 5 9 3 12
-5 7 -6 -4 -9 -12 -5 -17 8 -13 -28 -67 -75 -114 -23 -21 -41 -43 -41 -47 0
-16 43 0 60 23 10 13 22 21 25 17 15 -15 -80 -88 -160 -123 -30 -14 -74 -27
-98 -30 -23 -3 -68 -11 -100 -17 -66 -12 -81 -6 -40 16 l28 15 -35 -5 c-33 -5
-34 -5 -16 10 25 20 9 21 -61 3 -43 -11 -53 -11 -57 -1 -3 8 8 18 29 26 19 6
35 16 35 21 0 13 -57 -2 -99 -26 l-36 -20 35 36 c19 21 55 47 80 60 44 21 44
22 17 25 -19 2 -43 -6 -70 -25 -68 -46 -74 -49 -58 -30 18 23 231 164 231 154
0 -3 -20 -18 -45 -34 -51 -32 -54 -39 -24 -48 17 -6 19 -9 8 -17 -12 -8 -12
-9 0 -6 21 6 26 28 6 28 -14 0 -15 3 -5 15 14 17 35 21 24 4 -4 -8 0 -8 15 0
25 14 28 22 4 15 -12 -3 -9 2 6 13 14 10 45 35 70 55 46 38 116 68 158 68 14
0 21 -4 18 -10 -4 -6 14 0 39 12 25 12 44 24 41 26 -2 2 -17 -3 -33 -11 -28
-14 -82 -13 -82 2 0 3 28 20 61 36 33 17 63 33 65 37 8 12 -140 -43 -157 -58
-9 -8 -29 -19 -45 -23 -16 -5 -38 -12 -49 -16 -46 -17 63 50 167 101 62 31
127 67 145 80 19 15 39 22 50 18 12 -4 14 -3 5 3 -9 7 -6 15 14 34 24 21 26
22 20 4 -4 -11 -9 -27 -11 -35 -7 -31 -57 -154 -99 -245 -45 -96 -46 -127 -3
-57 61 96 140 288 162 395 10 50 22 28 13 -25z m-2652 -238 c54 -19 164 -83
164 -96 0 -3 -7 -13 -16 -21 -13 -14 -17 -14 -25 -2 -5 8 -9 11 -9 8 0 -4 -37
6 -82 22 -117 41 -258 40 -258 -1 0 -15 12 -18 93 -22 82 -4 101 -8 178 -45
47 -22 89 -45 93 -51 4 -6 -23 3 -59 20 -36 17 -78 32 -93 33 -15 1 -35 6 -46
10 -31 13 -229 12 -233 -1 -5 -16 28 -23 148 -30 101 -7 166 -25 154 -44 -4
-6 1 -7 11 -3 13 5 15 3 9 -8 -4 -8 -5 -11 0 -7 4 4 23 1 43 -8 53 -22 48 -11
-9 20 -61 34 -61 44 2 13 80 -40 162 -105 290 -229 69 -68 111 -111 94 -95
-47 41 -51 33 -9 -20 36 -47 36 -48 3 -12 -19 19 -57 62 -85 95 -127 146 -179
183 -312 220 -85 23 -101 30 -88 39 24 18 8 25 -27 13 -22 -8 -55 -8 -117 0
-121 17 -180 16 -180 -2 0 -8 8 -17 18 -19 9 -3 3 -5 -15 -6 -48 -2 -89 -19
-75 -33 7 -7 20 -7 43 1 17 6 53 10 78 10 l46 -1 -55 -10 c-30 -5 -94 -18
-141 -28 -48 -11 -103 -20 -122 -20 -46 0 -57 -17 -20 -31 19 -7 46 -7 89 0
108 19 102 10 -15 -20 -80 -21 -117 -26 -121 -18 -10 15 -130 -19 -130 -37 0
-14 17 -17 81 -14 24 1 38 -4 42 -13 4 -12 -11 -19 -65 -31 -39 -9 -79 -16
-89 -16 -9 0 -24 -6 -31 -14 -8 -8 -38 -15 -66 -17 -43 -3 -51 -1 -46 11 6 17
7 20 5 38 -2 18 -21 15 -21 -5 0 -30 -31 -53 -74 -54 -23 -1 -31 -4 -18 -6 37
-7 25 -23 -20 -25 -131 -6 -168 5 -286 79 -202 128 -243 155 -240 159 2 1 42
-17 90 -41 128 -64 212 -80 346 -66 100 10 237 42 251 57 3 4 -5 4 -19 1 -57
-14 -204 -37 -229 -36 -14 0 15 11 65 24 51 13 101 28 113 35 12 6 32 9 44 6
12 -3 17 -3 10 0 -15 7 90 63 121 65 20 2 20 2 0 6 -11 2 -42 -5 -69 -17 -30
-13 -44 -16 -37 -7 7 8 30 20 51 27 22 7 39 17 38 23 -1 6 42 23 95 39 89 26
175 65 165 74 -2 3 -26 -5 -53 -17 -47 -20 -146 -50 -151 -45 -11 10 39 49 99
78 118 57 222 79 508 109 58 6 107 15 108 20 5 11 -1 12 68 -11z m354 -401
c134 -124 246 -213 281 -224 11 -4 45 -4 74 0 42 5 59 13 86 41 18 18 39 34
46 34 17 0 16 4 -3 41 -8 17 -13 33 -10 36 3 4 12 -9 20 -28 15 -35 67 -69
106 -69 11 0 20 -4 20 -8 0 -5 15 -16 34 -25 20 -9 53 -42 80 -81 34 -47 55
-66 76 -71 17 -4 34 -14 39 -23 5 -9 13 -14 17 -9 10 10 -26 47 -46 47 -17 0
-38 21 -82 80 l-25 35 24 1 c18 2 23 -2 18 -14 -3 -8 3 -23 15 -34 11 -10 20
-14 20 -9 0 6 -8 14 -17 20 -10 5 -15 13 -10 17 11 12 46 -26 40 -44 -4 -14
-3 -15 6 -2 8 12 13 11 34 -8 32 -30 57 -30 31 1 -11 12 -5 9 13 -7 18 -16 30
-33 26 -39 -3 -5 4 -4 15 2 22 12 142 15 180 5 16 -5 22 -14 22 -35 0 -16 4
-29 9 -29 23 0 17 -40 -10 -66 -15 -14 -40 -55 -55 -90 l-26 -63 -63 -6 c-85
-9 -128 0 -120 26 4 11 1 27 -6 35 -9 12 -9 13 2 9 11 -4 14 5 13 37 -2 52
-24 65 -24 14 0 -31 -3 -36 -23 -36 -25 0 -65 -35 -54 -47 4 -3 18 -1 32 5 22
10 25 9 25 -8 0 -25 3 -26 -135 10 -94 24 -132 40 -198 82 -92 58 -119 79 -69
53 19 -9 36 -14 38 -12 4 4 -54 32 -67 32 -4 0 -24 14 -46 31 -26 22 -39 40
-41 60 -1 16 -11 41 -22 56 -14 19 -16 28 -7 31 6 3 -1 10 -16 16 -53 21 -122
74 -232 180 -60 59 -136 129 -167 158 -32 29 -58 55 -58 59 0 5 15 -6 33 -22
17 -17 88 -82 157 -145z m2190 132 c0 -5 -10 -13 -22 -17 -13 -4 -60 -33 -105
-66 -69 -50 -85 -58 -102 -49 -11 6 -23 11 -28 11 -4 -1 3 -7 16 -14 l23 -13
-28 -20 c-60 -43 -108 -60 -151 -55 -23 2 -79 -3 -123 -12 l-82 -17 -25 26
c-14 14 -23 25 -19 25 3 0 61 12 128 26 95 21 139 25 195 21 74 -6 102 8 42
20 -31 6 -31 6 22 23 30 9 99 40 154 68 115 59 105 55 105 43z m-2553 -108
c16 -6 15 -8 -7 -14 -23 -6 -23 -7 8 -8 18 -1 32 -6 32 -13 0 -8 6 -7 16 4 39
39 237 -74 418 -238 56 -50 107 -98 115 -107 7 -9 18 -17 23 -17 6 0 4 8 -3
17 -8 9 13 -2 46 -26 256 -184 515 -325 622 -337 43 -4 39 -2 -38 24 -80 27
-193 81 -186 89 2 2 21 -4 43 -13 98 -42 226 -52 389 -31 85 11 90 13 99 40 8
22 7 35 -6 58 -17 28 -16 30 7 45 30 19 49 11 35 -16 -7 -13 -7 -21 0 -25 5
-3 10 -1 10 4 0 6 6 11 13 11 20 0 38 -47 31 -77 -5 -17 -3 -24 3 -20 27 17
17 -25 -18 -76 -37 -53 -50 -97 -30 -97 14 0 30 23 45 66 8 21 20 53 27 69 7
17 12 37 11 45 -1 9 1 10 4 3 3 -7 11 -10 19 -7 7 3 16 1 19 -4 3 -5 17 -7 31
-5 16 4 26 0 29 -8 2 -8 12 -40 21 -71 19 -65 48 -95 120 -124 45 -18 46 -20
41 -54 -3 -19 -6 -47 -6 -63 0 -23 -11 -35 -72 -74 -39 -25 -126 -71 -192
-102 l-121 -56 -106 2 c-226 3 -554 43 -694 84 -61 18 -312 112 -418 156 -20
9 -40 14 -43 11 -3 -4 19 -15 48 -27 29 -11 103 -41 163 -66 278 -116 394
-140 848 -175 183 -14 437 11 437 42 0 6 -6 8 -13 5 -28 -10 -129 -28 -134
-24 -3 3 14 11 38 17 126 34 292 152 329 234 l18 38 25 -43 c15 -24 46 -64 70
-87 l44 -44 -28 -90 c-15 -49 -31 -93 -35 -96 -4 -4 -4 2 0 13 10 25 19 106
10 85 -4 -8 -19 -42 -34 -75 -15 -33 -34 -80 -41 -105 -16 -56 -13 -54 -37
-39 -17 11 -29 3 -109 -64 -114 -96 -198 -187 -214 -231 -12 -34 -14 -35 -103
-52 -191 -36 -404 -7 -522 71 -32 22 -92 54 -133 71 l-74 33 106 -1 c74 0 123
5 162 17 69 22 65 32 -6 15 -66 -16 -298 -7 -389 15 -36 8 -94 20 -130 26
-214 34 -419 95 -544 162 l-80 42 -18 85 c-38 178 -85 291 -174 417 -24 34
-44 68 -44 75 0 8 -13 27 -30 43 -32 31 -43 60 -12 32 10 -10 23 -17 28 -17 5
0 -6 12 -24 26 -18 15 -40 44 -49 65 -21 52 -111 132 -198 175 -69 34 -189 57
-258 50 -21 -3 -27 1 -27 15 0 36 45 52 158 57 67 3 99 8 87 13 -11 4 -35 8
-52 8 -18 1 -33 5 -33 10 0 8 69 6 135 -4 17 -3 48 -14 69 -26 45 -24 72 -20
33 5 -46 30 -99 45 -167 46 -64 2 -65 2 -33 16 39 17 50 33 32 46 -10 7 -3 8
21 4 123 -18 148 -18 191 1 40 18 109 82 109 102 0 16 85 35 217 50 6 0 20 -2
30 -6z m-698 -388 c52 -18 88 -46 110 -84 22 -39 71 -95 77 -88 3 3 -9 21 -27
41 -107 122 120 -40 245 -175 91 -98 142 -169 173 -237 37 -84 95 -302 89
-334 -3 -16 -1 -28 4 -28 15 0 2 -73 -32 -180 -37 -115 -67 -174 -108 -217
-35 -37 -46 -42 -28 -13 7 10 10 22 7 25 -8 7 -151 -30 -189 -50 -19 -10 -36
-30 -47 -56 -11 -29 -21 -39 -32 -36 -9 2 -23 -3 -30 -11 -10 -10 -27 -13 -58
-9 -52 6 -153 78 -164 117 -4 14 -7 22 -8 18 -1 -4 -20 13 -43 38 -69 75 -153
115 -282 134 -33 5 -63 15 -68 22 -7 9 -11 10 -14 2 -7 -18 -43 -4 -50 19 -6
18 -7 18 -16 4 -6 -12 -23 -17 -56 -17 -26 0 -64 -5 -85 -11 -28 -8 -42 -7
-53 1 -11 10 -15 9 -20 -4 -3 -9 -18 -16 -33 -16 -14 -1 -52 -7 -85 -15 -56
-13 -85 -31 -133 -85 -19 -21 -23 -22 -23 -7 0 9 -5 17 -12 17 -6 0 -2 10 9
23 38 40 113 159 113 178 0 11 7 19 15 19 8 0 15 5 15 10 0 6 -4 10 -10 10
-20 0 -9 40 15 56 13 9 32 30 41 47 24 47 44 196 34 243 -16 66 -13 84 17 95
39 15 47 -1 45 -88 -2 -86 5 -133 19 -133 5 0 9 6 10 13 1 23 64 65 104 68 34
4 41 0 54 -23 13 -23 14 -34 3 -75 -20 -76 -57 -148 -92 -182 -18 -17 -27 -31
-20 -31 8 0 -3 -16 -24 -35 -68 -62 -19 -37 57 30 113 98 187 194 187 242 0
11 -10 1 -25 -25 -24 -43 -106 -145 -111 -139 -2 2 7 30 20 62 37 93 39 118
12 157 -16 24 -30 33 -49 33 -15 -1 -27 1 -27 2 0 2 25 29 56 60 62 65 154
196 154 221 0 9 -17 -12 -37 -47 -37 -62 -144 -186 -222 -256 l-39 -36 -7 52
-7 52 58 51 c130 112 222 220 211 248 -4 8 -6 7 -6 -5 -1 -19 -238 -264 -246
-255 -3 3 2 19 11 37 9 18 13 35 10 38 -3 3 -9 -5 -14 -18 l-9 -23 -12 23
c-10 18 -18 21 -38 16 -26 -6 -52 15 -53 43 0 19 18 14 25 -8 11 -35 26 -22
19 16 -6 31 -2 40 27 70 l33 34 27 -33 c16 -17 29 -39 29 -47 0 -12 3 -11 11
3 14 25 31 21 24 -5 -5 -22 -5 -22 7 -3 7 10 25 32 41 48 29 31 37 48 12 27
-9 -7 -18 -10 -21 -8 -11 11 99 95 170 131 104 52 165 62 256 41 39 -9 73 -14
76 -11 2 2 -17 13 -43 23 -75 30 -172 25 -255 -13 -87 -41 -146 -82 -211 -149
l-54 -54 -22 24 c-17 18 -22 32 -18 49 12 44 222 243 304 286 12 6 33 11 46
11 13 0 36 10 51 21 44 35 169 48 235 24z m4385 -732 c-15 -26 -52 -90 -82
-141 -41 -69 -56 -105 -58 -137 -2 -33 -12 -57 -42 -97 -56 -76 -152 -181
-173 -192 -11 -5 -19 -13 -19 -18 0 -18 38 13 112 91 42 44 91 99 107 122 28
38 31 40 31 18 0 -42 -43 -112 -88 -144 -23 -16 -62 -56 -87 -89 -40 -52 -135
-146 -135 -133 0 3 7 18 15 33 8 16 14 49 14 74 l-1 45 -10 -45 c-7 -33 -20
-55 -51 -84 -40 -36 -34 -42 7 -7 16 14 18 14 14 1 -7 -23 -64 -57 -124 -75
-30 -8 -54 -21 -55 -28 0 -7 -18 -27 -40 -46 l-39 -33 0 34 c0 24 8 42 25 58
14 13 25 29 25 35 0 6 17 19 38 28 21 9 53 33 72 53 38 40 26 37 -31 -8 -26
-21 -60 -34 -124 -47 -94 -19 -102 -36 -13 -26 l53 6 -30 -26 c-68 -60 -233
-115 -292 -97 -19 6 -33 6 -33 1 0 -5 8 -9 18 -9 9 0 -5 -12 -33 -26 -27 -14
-56 -31 -64 -37 -12 -9 -13 -9 -7 1 10 17 -14 15 -39 -4 -22 -16 -199 -74
-228 -74 -10 0 -16 -4 -13 -9 8 -12 -33 -22 -61 -15 -14 4 -23 2 -23 -5 0 -17
105 -17 126 0 6 5 42 18 80 28 93 26 139 44 203 79 57 32 83 32 106 -1 21 -30
19 -34 -15 -39 -20 -3 -30 0 -30 9 0 9 -6 7 -19 -6 -12 -12 -27 -17 -40 -14
-12 3 -39 -5 -65 -20 -30 -17 -47 -21 -50 -14 -2 7 -5 5 -5 -4 -1 -8 -23 -26
-51 -40 -27 -13 -50 -30 -50 -37 0 -7 -4 -11 -9 -7 -5 3 -12 1 -16 -5 -3 -5
-15 -10 -26 -10 -15 0 -19 7 -20 33 0 31 -1 31 -10 7 -15 -36 -25 -40 -134
-41 l-100 -2 69 -8 c38 -4 73 -12 78 -17 5 -5 33 -5 66 -1 62 9 67 7 59 -15
-6 -14 -30 -23 -122 -45 l-40 -9 39 -1 c65 -2 117 19 139 56 10 18 23 33 29
33 5 0 33 15 61 34 29 18 76 46 105 61 28 16 52 33 52 39 0 6 5 5 12 -2 20
-20 -39 -70 -228 -193 -14 -9 -34 -26 -44 -37 -19 -20 -92 -46 -158 -56 -47
-6 -53 -16 -11 -16 99 0 195 35 243 89 30 33 40 25 15 -11 -32 -48 -141 -158
-156 -158 -7 0 -13 -4 -13 -10 0 -20 49 -9 81 17 21 18 34 24 37 15 2 -7 21
-12 43 -12 21 0 38 -4 37 -9 -2 -5 29 -32 67 -59 97 -68 128 -116 133 -202 2
-36 -1 -99 -7 -138 -14 -90 -66 -234 -98 -273 -14 -16 -20 -29 -14 -29 23 0
68 74 98 162 36 104 43 91 14 -24 -22 -85 -68 -183 -100 -212 -12 -11 -21 -24
-21 -29 0 -26 55 46 91 118 55 113 71 199 67 368 -2 96 0 133 7 121 6 -10 24
-34 41 -53 21 -24 33 -51 37 -81 3 -25 9 -55 12 -65 3 -11 -6 0 -20 25 l-26
45 6 -35 c3 -19 8 -54 11 -78 4 -23 1 -69 -5 -103 -16 -81 -68 -216 -87 -223
-7 -3 -14 -15 -14 -27 0 -30 -34 -85 -89 -142 -60 -63 -92 -79 -171 -86 -55
-5 -65 -9 -65 -25 0 -18 13 -25 167 -89 66 -27 39 28 -31 65 l-51 26 45 7 c50
7 124 56 140 93 5 12 15 22 22 22 7 0 13 5 13 11 0 18 19 -1 54 -52 18 -27 36
-46 39 -42 12 11 8 91 -4 99 -12 7 -9 55 9 196 9 67 18 80 31 47 9 -22 10 -21
9 11 -1 70 15 185 23 165 13 -34 10 -197 -6 -311 -9 -61 -13 -130 -10 -156 5
-32 3 -48 -4 -48 -6 0 -11 -16 -11 -35 0 -28 -8 -42 -41 -73 -75 -68 -159
-111 -159 -82 0 6 -10 10 -21 10 -12 0 -45 13 -73 29 -28 16 -80 39 -116 51
-74 25 -109 50 -72 50 13 0 22 6 22 14 0 12 -6 13 -30 4 -38 -13 -118 4 -177
39 -53 30 -55 44 -5 32 153 -36 344 39 420 164 18 29 32 58 32 65 0 23 -15 12
-35 -24 -11 -20 -36 -51 -57 -69 -36 -30 -44 -33 -140 -39 l-101 -7 -32 33
c-25 25 -30 35 -20 43 7 5 16 20 20 33 5 19 2 23 -24 28 -33 7 -50 37 -32 58
19 22 -5 82 -38 96 -34 14 -83 10 -88 -7 -3 -8 6 -10 30 -6 19 3 44 0 56 -6
24 -13 28 -41 6 -41 -24 0 -95 -31 -95 -42 0 -6 8 -7 17 -4 31 12 9 -1 -62
-39 -38 -21 -90 -44 -115 -51 -25 -7 -67 -28 -93 -45 -40 -26 -58 -31 -129
-36 -45 -2 -85 -6 -89 -9 -4 -2 -9 2 -12 8 -2 7 -8 10 -12 6 -4 -4 -1 -13 6
-20 9 -10 29 -12 83 -6 114 12 128 15 186 42 30 14 63 26 73 26 10 0 27 5 39
11 18 10 19 8 13 -12 -10 -31 -43 -56 -85 -64 -19 -4 -64 -18 -98 -32 -35 -14
-91 -27 -125 -30 -54 -4 -119 -24 -179 -54 -10 -5 -20 -5 -23 1 -8 13 -167 1
-176 -13 -9 -14 -262 -2 -291 14 -12 7 -27 12 -31 11 -5 -2 -6 14 -3 35 7 43
26 336 26 401 0 23 -4 42 -10 42 -5 0 -10 -7 -10 -16 0 -8 -4 -12 -10 -9 -24
15 -8 44 40 75 27 17 62 45 79 62 25 26 41 32 123 44 51 8 104 14 118 14 30 0
117 58 123 82 8 28 -10 22 -48 -16 -33 -33 -37 -34 -90 -29 -57 6 -71 -1 -32
-17 18 -7 12 -9 -28 -9 -28 -1 -75 -7 -105 -15 -54 -14 -54 -14 -32 4 33 27
27 29 -30 9 -29 -10 -65 -18 -79 -19 -14 0 -34 -7 -45 -15 -19 -14 -19 -14 1
-15 13 0 0 -14 -40 -43 -107 -77 -163 -89 -306 -66 -38 7 -69 16 -69 20 0 5 8
9 18 9 19 0 191 57 253 83 39 17 105 74 96 83 -3 3 -15 -3 -27 -13 -11 -11
-38 -25 -59 -31 -40 -13 -153 -16 -164 -6 -3 3 6 17 21 30 48 42 0 28 -122
-35 -132 -70 -168 -79 -220 -57 -38 16 -41 36 -6 36 33 0 127 41 157 69 22 20
42 28 76 30 59 3 109 23 142 58 31 34 33 54 2 25 -43 -40 -96 -55 -222 -60
-66 -2 -122 -6 -124 -8 -10 -9 11 -16 53 -16 25 -1 46 -5 46 -9 0 -4 -39 -22
-87 -40 -80 -29 -99 -32 -204 -33 -101 -1 -120 -4 -139 -21 -18 -16 -23 -17
-31 -5 -8 11 -12 12 -16 3 -2 -7 -13 -13 -23 -13 -23 0 -70 20 -70 30 0 10
110 33 147 31 17 -1 53 4 80 10 26 6 62 13 79 14 47 5 266 120 321 169 26 24
59 46 73 49 26 6 114 76 107 84 -3 2 -24 -10 -48 -26 -49 -34 -141 -61 -207
-61 -29 0 -41 -4 -36 -11 4 -7 29 -10 65 -7 33 2 59 3 59 1 0 -13 -127 -80
-221 -117 -128 -49 -241 -88 -245 -83 -7 7 175 136 236 167 38 19 78 43 89 54
23 21 44 78 38 103 -2 11 -8 2 -15 -24 -23 -79 -101 -122 -234 -130 -95 -6
-121 -23 -36 -23 76 0 49 -14 -82 -43 -97 -22 -138 -27 -119 -14 216 147 250
167 296 167 67 0 121 19 144 52 24 33 15 37 -17 7 -15 -14 -46 -24 -95 -31
-41 -6 -81 -17 -89 -23 -8 -7 -62 -37 -120 -67 -58 -30 -133 -74 -167 -99 -92
-66 -143 -94 -162 -91 -10 1 -31 -4 -47 -13 -22 -11 -25 -15 -9 -15 29 0 6
-15 -52 -34 -51 -17 -143 -14 -143 4 0 9 36 20 70 20 14 0 31 9 38 20 14 23
10 25 -21 9 -13 -7 -5 6 20 32 33 34 55 47 95 57 57 13 211 72 205 78 -2 2
-44 -10 -93 -26 -100 -34 -203 -60 -240 -60 -13 0 -24 -5 -24 -11 0 -8 13 -9
41 -5 l41 7 -28 -24 c-16 -14 -54 -39 -84 -57 -30 -18 -71 -43 -90 -56 -19
-12 -66 -30 -104 -39 -60 -15 -84 -16 -187 -6 -131 12 -221 30 -213 42 2 4 30
6 62 3 80 -8 77 -8 177 5 119 15 190 36 240 71 72 50 72 63 -1 26 -38 -19 -96
-41 -129 -50 -142 -36 -425 -40 -425 -6 0 6 25 9 60 7 44 -2 79 3 128 20 l67
23 -51 -5 c-28 -3 -65 0 -82 6 -24 8 -36 8 -46 0 -24 -20 -205 2 -326 41 -64
20 -130 68 -130 95 0 7 2 13 4 13 2 0 65 -7 139 -15 152 -17 279 -9 407 24 99
25 150 48 251 112 175 109 412 237 519 279 19 8 58 28 85 46 28 17 60 34 73
38 13 4 27 18 32 31 12 31 68 40 199 32 104 -6 160 -20 190 -49 24 -22 35 -23
27 -3 -3 8 -2 25 3 37 8 22 11 21 62 -33 30 -30 83 -87 119 -126 66 -71 137
-123 220 -158 25 -11 69 -39 98 -62 29 -24 69 -51 90 -62 49 -25 179 -51 254
-51 52 0 62 -3 83 -27 14 -17 24 -22 25 -14 0 11 3 11 15 1 9 -8 15 -9 15 -2
0 6 -4 14 -10 17 -5 3 -10 11 -10 16 0 9 60 -17 70 -31 6 -8 50 -20 50 -14 0
2 -18 20 -40 40 -23 21 -40 45 -40 58 1 21 1 21 12 1 14 -25 96 -108 123 -123
14 -8 16 -12 5 -12 -19 -1 -67 -37 -59 -44 3 -4 26 3 50 14 49 22 112 29 74 8
-24 -13 -75 -59 -75 -68 0 -9 61 -43 67 -36 3 3 -6 11 -21 17 -14 7 -26 16
-26 20 0 11 48 47 73 55 12 4 25 11 28 16 3 5 14 2 24 -8 16 -17 15 -20 -27
-60 -45 -43 -87 -118 -74 -132 4 -4 12 2 19 13 6 11 31 41 55 67 33 36 50 46
66 43 25 -6 39 2 55 32 10 20 17 22 54 17 37 -5 47 -2 89 30 26 20 54 36 62
36 9 0 16 5 16 10 0 15 -53 12 -96 -6 -34 -15 -36 -18 -19 -24 18 -7 17 -9
-10 -15 -16 -4 -36 -8 -42 -11 -16 -4 -17 18 -1 34 6 6 10 14 7 16 -7 7 -50
-33 -83 -78 l-30 -40 -11 33 c-14 43 -37 59 -94 67 -56 8 -71 19 -71 52 0 32
38 112 57 119 7 3 44 -3 82 -12 l69 -18 -19 -31 c-20 -33 -24 -105 -9 -141 11
-25 13 -14 11 50 -2 38 3 58 21 85 22 33 28 35 88 40 46 4 80 14 117 34 43 23
65 29 125 30 70 1 76 -1 154 -46 123 -73 143 -63 30 13 -36 24 -70 55 -76 68
-10 21 -8 27 12 44 l23 19 -28 -7 c-24 -5 -34 1 -79 50 -28 31 -59 71 -68 88
-17 32 -17 32 11 62 16 16 26 32 23 35 -3 3 -14 -6 -25 -19 -11 -13 -22 -22
-24 -19 -10 10 6 35 31 49 14 7 41 35 60 62 20 27 37 47 40 44 2 -2 -14 -36
-36 -75 -61 -109 -48 -104 30 10 67 99 234 290 312 358 34 29 41 31 68 21 17
-5 37 -8 44 -5 7 3 53 -10 102 -29 49 -19 113 -40 143 -47 63 -15 198 -8 278
14 60 17 133 56 133 72 0 7 44 56 98 110 134 137 242 266 347 418 86 124 125
157 69 59z m-1444 -124 c0 -111 0 -111 -50 -228 -40 -93 -65 -135 -125 -208
-71 -86 -80 -94 -170 -137 -57 -28 -140 -57 -203 -73 -103 -24 -115 -25 -307
-19 -110 3 -247 9 -305 12 -119 7 -135 0 -20 -9 41 -4 76 -7 78 -7 2 0 1 -4
-2 -9 -11 -18 130 -36 274 -36 126 1 158 4 245 28 154 43 174 48 205 52 15 2
37 8 48 14 12 6 31 11 44 11 13 0 37 9 53 20 17 11 37 20 47 20 33 0 108 147
108 213 0 19 70 136 82 137 3 0 9 -13 13 -28 4 -19 -5 -58 -25 -118 -39 -111
-66 -158 -130 -226 -27 -29 -45 -54 -40 -56 12 -4 -34 -44 -75 -64 -81 -41
-252 -59 -539 -58 -127 1 -245 0 -262 -2 -30 -4 -145 -84 -161 -112 -4 -7 -33
-30 -62 -50 -30 -20 -62 -47 -70 -59 -8 -12 -16 -24 -17 -26 -2 -2 -32 26 -67
63 -56 60 -71 71 -142 96 -44 15 -89 31 -100 36 -18 7 -18 6 -6 -9 7 -9 19
-17 26 -17 13 0 28 -38 19 -51 -2 -4 -15 2 -27 14 -13 12 -42 38 -65 57 -23
19 -42 40 -42 47 0 7 -14 20 -31 29 -18 9 -47 32 -66 52 l-34 37 20 -45 c11
-24 17 -49 13 -55 -4 -5 -8 0 -10 12 -2 12 -15 26 -32 33 -17 7 -46 30 -65 51
-32 35 -35 37 -35 17 l0 -23 -20 25 -20 25 0 -27 c0 -15 -5 -30 -10 -33 -13
-8 -40 55 -40 95 0 17 -9 39 -20 50 -24 24 -42 26 -34 5 10 -25 -13 -17 -35
13 -16 21 -20 23 -21 10 0 -10 -4 -18 -8 -18 -12 0 -44 143 -36 163 3 9 2 17
-2 17 -5 1 -20 9 -32 20 l-24 20 21 62 c12 34 21 71 21 82 1 21 1 21 15 2 8
-11 12 -29 9 -39 -4 -13 -2 -17 5 -13 6 4 39 -15 73 -42 99 -76 286 -187 488
-288 238 -119 356 -164 440 -169 l65 -5 -50 16 c-227 70 -513 200 -610 279
-150 122 -242 210 -269 257 l-29 50 39 -20 c47 -24 236 -85 318 -103 48 -11
56 -15 42 -24 -39 -29 -20 -43 170 -126 273 -119 411 -156 649 -170 171 -11
247 -5 402 31 148 35 275 118 303 198 9 26 26 65 37 87 12 22 21 42 21 45 1 3
3 12 5 20 35 121 40 133 57 137 18 5 25 21 66 151 2 7 8 10 14 7 6 -4 10 -53
10 -116z m-2496 -689 c-4 -22 -10 -40 -15 -40 -5 0 -6 -7 -3 -15 4 -8 1 -15
-5 -15 -6 0 -11 -6 -11 -14 0 -8 8 -13 18 -12 10 0 16 -5 14 -14 -3 -12 -1
-13 9 -2 23 22 33 12 11 -11 -12 -13 -22 -29 -22 -36 0 -7 -5 -9 -11 -6 -6 4
-8 14 -5 22 4 8 1 11 -5 8 -6 -4 -8 -13 -5 -20 6 -16 -10 -30 -49 -45 l-30
-10 23 18 c13 10 20 21 16 24 -3 4 -13 1 -20 -5 -8 -7 -20 -17 -27 -22 -27
-23 -245 -143 -279 -154 -20 -7 -53 -23 -73 -36 -80 -55 -263 -145 -281 -139
-15 5 -16 4 -5 -4 12 -8 0 -18 -52 -43 -45 -21 -67 -37 -67 -49 0 -21 -15 -26
-90 -29 -33 -1 -66 4 -83 12 l-28 15 35 6 c34 6 208 138 265 200 14 14 30 26
37 26 7 0 22 19 32 43 10 23 26 48 35 56 15 12 17 11 17 -8 0 -13 -4 -19 -11
-16 -6 4 -5 -2 3 -14 7 -12 14 -17 16 -11 2 5 14 7 28 4 13 -3 38 -1 55 5 57
20 43 3 -25 -31 -53 -26 -66 -37 -62 -51 4 -15 2 -16 -10 -6 -8 6 -17 9 -21 5
-3 -3 -1 -6 5 -6 7 0 12 -7 12 -15 0 -19 21 -19 46 0 23 17 38 19 28 3 -4 -7
-3 -8 5 -4 6 4 9 11 6 16 -6 10 158 172 211 207 22 15 41 29 44 33 3 3 26 20
51 38 26 17 60 53 78 80 32 51 91 110 91 91 0 -5 4 -8 9 -4 6 3 15 -4 21 -15
18 -34 27 -22 22 30 -3 34 0 55 9 66 12 15 16 12 32 -24 12 -29 15 -53 11 -82z
m-545 54 c-24 -25 -61 -54 -81 -65 -21 -11 -38 -24 -38 -29 0 -15 -78 -138
-124 -195 -115 -144 -286 -285 -346 -285 l-31 0 2 70 c1 56 4 68 15 60 9 -8
14 -6 19 10 4 12 28 45 53 73 26 29 57 66 70 82 21 26 23 27 19 8 -6 -28 -3
-28 36 -2 28 18 28 16 -6 -14 -30 -28 -41 -48 -52 -93 -9 -40 -10 -63 -3 -74
8 -12 9 -12 4 3 -4 13 20 45 87 115 126 134 197 213 208 233 7 14 -9 9 -67
-17 -42 -20 -78 -33 -81 -31 -2 3 40 28 95 57 55 28 121 69 146 91 55 49 61
40 9 -13 -62 -63 -28 -55 39 10 72 70 94 74 27 6z m3949 -32 c-13 -30 -80
-104 -114 -126 -22 -14 -71 -57 -109 -97 -38 -39 -92 -84 -121 -100 -52 -30
-214 -79 -259 -79 -39 0 -19 35 50 90 35 27 66 58 70 70 4 12 15 20 28 20 13
0 47 6 77 14 30 8 57 13 58 11 2 -2 -37 -23 -87 -47 -50 -24 -91 -47 -91 -52
0 -17 78 7 177 55 111 53 211 135 233 190 8 18 26 37 44 45 36 15 49 17 44 6z
m-178 -52 c0 -32 -29 -63 -84 -90 -80 -38 -126 -47 -126 -25 0 9 -11 27 -25
40 l-24 25 37 0 c44 0 144 25 181 44 32 17 41 19 41 6z m-1419 -95 c117 -20
218 -41 224 -46 7 -8 1 -9 -20 -5 -16 3 -37 2 -44 -3 -10 -6 -27 -5 -50 5 -19
8 -57 14 -85 13 -174 -3 -231 2 -251 23 l-20 20 25 -5 c14 -4 53 -9 85 -12 33
-4 71 -8 85 -11 18 -3 21 -2 11 5 -8 5 -53 15 -100 22 -47 6 -95 15 -106 20
-42 17 33 9 246 -26z m-278 -16 c41 -34 87 -48 156 -49 38 0 48 -5 75 -35 26
-30 39 -37 86 -42 42 -5 61 -13 80 -34 22 -22 34 -27 77 -27 33 0 68 -8 100
-23 59 -29 58 -28 50 -35 -4 -4 -18 1 -33 10 -14 10 -28 15 -31 12 -11 -10 42
-45 68 -46 30 0 56 -32 65 -78 5 -26 1 -28 -80 -60 -71 -28 -96 -33 -153 -31
-37 2 -80 7 -95 12 -26 8 -26 9 -10 36 10 19 24 28 41 28 43 1 97 18 84 26 -7
4 -29 1 -49 -8 -20 -8 -39 -13 -42 -10 -9 9 35 60 48 57 7 -1 10 3 7 10 -5 16
-36 11 -60 -10 -9 -8 -27 -20 -40 -26 -12 -6 -29 -26 -38 -43 l-16 -32 -31 19
c-30 19 -72 84 -72 114 0 8 6 17 13 19 9 4 8 8 -3 16 -13 9 -12 12 5 25 11 8
16 18 12 23 -5 4 -14 0 -21 -10 -15 -20 -38 -22 -68 -6 -18 10 -24 8 -41 -15
-25 -35 -69 -35 -115 0 l-34 27 -26 -27 c-22 -21 -23 -26 -9 -26 11 0 17 -8
17 -21 0 -11 16 -39 35 -62 20 -23 31 -43 25 -45 -5 -2 -10 -15 -10 -28 0 -33
-23 -40 -69 -22 -31 12 -41 13 -55 3 -15 -12 -14 -14 17 -24 19 -7 45 -23 57
-36 l23 -25 -35 0 c-110 0 -249 41 -320 93 -69 51 -11 39 108 -21 88 -45 143
-59 171 -43 17 10 17 10 -3 11 -21 0 -40 25 -35 45 4 12 8 44 16 116 4 40 13
62 28 77 85 79 93 105 17 57 -22 -14 -46 -25 -55 -25 -8 0 -15 -9 -15 -19 0
-18 -61 -135 -81 -156 -24 -25 10 -65 55 -65 8 0 20 -7 27 -16 24 -29 -47 -7
-142 45 l-87 46 23 45 c13 25 26 71 30 103 5 37 12 57 20 57 7 0 15 4 17 8 2
4 29 23 62 41 32 18 81 55 110 82 62 60 94 64 149 18z m375 -65 c28 -13 78
-36 110 -51 31 -16 62 -30 67 -32 20 -8 -30 40 -62 60 -19 12 -32 23 -31 25 8
7 78 -20 78 -30 0 -5 9 -19 20 -31 l20 -22 -20 -18 c-21 -19 -37 -16 -90 16
-43 26 -90 42 -135 47 -45 5 -84 29 -85 54 0 16 78 4 128 -18z m259 -100 c-4
-4 11 -16 33 -26 41 -21 112 -93 142 -145 l17 -29 -55 -1 -54 -1 0 32 c0 45
-57 109 -116 132 -42 16 -45 19 -28 31 18 13 73 19 61 7z m-453 -153 c3 -5
-10 -32 -29 -61 -19 -29 -35 -61 -35 -73 0 -13 9 -2 25 30 24 46 52 82 58 72
1 -2 13 -16 26 -32 l25 -27 -21 -15 c-25 -17 -53 -69 -53 -97 0 -29 -15 -21
-46 25 -33 50 -38 119 -11 161 17 25 50 35 61 17z m-1389 -338 c-34 -27 -157
-80 -220 -96 -112 -28 -127 -29 -123 -10 5 29 105 72 204 88 50 8 102 19 115
24 36 15 46 12 24 -6z m-285 -158 c30 -8 71 -15 91 -15 45 0 50 -6 37 -39 -31
-81 -49 -230 -49 -403 0 -98 2 -182 6 -188 3 -5 -2 -10 -12 -10 -64 1 -383 21
-405 26 -16 3 -28 1 -28 -4 0 -6 18 -13 40 -17 69 -12 53 -23 -43 -30 -50 -4
-136 -13 -190 -21 -91 -13 -101 -13 -128 3 -43 26 -41 86 6 163 19 32 35 63
35 70 0 7 23 41 51 77 27 35 49 69 47 75 -2 6 -26 12 -54 14 -27 1 -60 7 -74
12 -23 9 -24 13 -22 72 1 34 7 71 13 81 12 24 35 24 48 2 27 -47 27 -47 62 -9
27 29 55 44 139 72 58 20 125 38 150 41 25 3 74 13 110 23 84 22 103 23 170 5z
m296 -6 c76 -26 109 -35 219 -54 49 -9 94 -20 100 -25 5 -4 26 -10 45 -12 25
-2 34 -7 31 -18 -7 -24 -2 -75 11 -116 11 -33 20 -41 63 -57 54 -20 50 -7 -6
21 -29 14 -36 26 -48 74 -20 78 -10 91 62 74 29 -7 58 -11 65 -8 7 2 12 -4 12
-12 0 -16 18 -16 68 0 18 5 15 -135 -7 -280 -12 -84 -21 -121 -32 -124 -8 -3
-21 -11 -31 -19 -14 -13 -19 -12 -42 2 -18 12 -34 15 -53 10 -16 -4 -64 -9
-108 -11 -72 -4 -82 -7 -110 -34 -17 -17 -39 -30 -49 -30 -18 0 -52 -27 -44
-36 10 -9 62 18 100 51 30 28 47 35 81 36 136 5 169 4 173 -3 9 -14 51 -9 64
7 21 25 30 17 30 -24 l0 -38 -67 -7 c-38 -4 -160 -30 -273 -58 -113 -28 -212
-51 -220 -52 -20 -1 -39 -19 -33 -29 3 -4 26 -5 51 -2 35 5 43 4 32 -4 -14
-11 -159 -7 -217 5 -69 14 -73 492 -6 737 2 9 10 17 16 17 7 0 23 9 37 20 14
11 25 20 26 20 0 0 27 -9 60 -21z m-1191 -24 c28 -9 93 -19 145 -22 88 -6 92
-8 55 -16 -35 -8 -124 -68 -133 -89 -2 -5 -21 -8 -42 -8 -38 0 -39 0 -42 42
-5 64 -28 61 -66 -6 -17 -30 -36 -58 -43 -61 -6 -4 -29 -2 -50 5 -33 11 -48
11 -106 -5 -38 -10 -74 -22 -80 -28 -21 -16 -15 11 6 31 10 9 46 34 79 55 54
33 69 38 129 39 59 1 71 4 91 25 18 20 20 28 11 39 -14 17 -15 17 46 -1z
m1992 -113 c23 -21 29 -32 22 -43 -13 -20 -11 -29 6 -29 13 0 15 -9 11 -47 -3
-27 -8 -111 -11 -188 -6 -136 -7 -141 -34 -167 -36 -36 -100 -58 -129 -45 -14
6 -20 16 -17 26 24 78 54 416 38 432 -8 8 -13 0 -17 -28 -8 -44 -23 -201 -32
-325 -5 -64 -11 -88 -20 -88 -18 0 -18 -3 7 164 12 77 22 187 23 244 l1 103
30 8 c56 17 88 12 122 -17z m856 -459 c-20 -137 -38 -199 -68 -229 -57 -60
-320 -249 -387 -279 -73 -33 -87 -48 -35 -39 25 4 29 3 15 -5 -11 -7 -43 -9
-87 -5 l-71 7 0 124 c0 80 -4 122 -10 118 -5 -3 -10 -16 -11 -28 -1 -13 -6 -3
-14 23 l-13 45 -1 -43 c-1 -37 -5 -44 -28 -53 -47 -19 -170 -5 -241 27 -34 15
-62 31 -62 35 0 5 -6 6 -14 3 -8 -3 -17 -1 -21 5 -3 7 0 8 9 5 17 -7 21 6 7
22 -12 13 -53 126 -47 131 6 6 37 -55 61 -119 17 -46 38 -68 28 -29 -3 14 5
22 36 35 23 9 40 22 39 28 -4 19 46 22 132 8 96 -14 110 -19 107 -32 -1 -6 6
-12 16 -13 15 -3 17 6 17 75 0 78 6 110 19 110 4 0 6 -25 3 -56 l-5 -55 157 3
c86 2 156 3 156 2 0 0 -9 -20 -21 -43 -11 -24 -18 -46 -15 -49 9 -8 34 26 52
71 9 20 20 37 25 37 11 0 -16 -56 -38 -82 -8 -9 -12 -21 -9 -27 7 -11 -37 -25
-148 -46 -83 -16 -106 -24 -106 -36 0 -12 94 -11 140 0 179 46 375 166 356
217 -6 16 -9 16 -29 -7 -31 -35 -107 -93 -107 -81 0 11 104 102 134 117 12 6
26 26 32 45 6 19 16 36 23 38 6 2 11 15 11 28 0 13 4 24 9 24 4 0 6 -12 4 -27z
m-2233 -215 c19 -7 92 -12 161 -12 110 0 125 -2 112 -14 -8 -8 -17 -12 -20 -9
-7 8 -43 -11 -43 -22 0 -5 33 -12 73 -16 98 -10 171 -30 236 -66 35 -18 57
-25 61 -19 5 8 16 7 36 -2 29 -13 41 -23 99 -77 17 -16 58 -38 95 -49 36 -11
108 -34 160 -50 92 -29 247 -53 321 -50 31 2 34 4 23 15 -8 8 -46 16 -96 19
-45 3 -85 8 -88 11 -3 3 22 4 55 2 82 -4 124 7 118 30 -7 29 -50 54 -158 96
-243 92 -281 107 -289 116 -13 12 61 -8 109 -31 61 -27 176 -61 187 -54 5 3
-7 17 -26 30 -20 14 -36 26 -36 28 0 3 29 -5 64 -17 36 -11 63 -24 61 -27 -8
-13 202 -42 249 -35 25 4 43 11 40 16 -3 5 1 9 10 9 8 0 22 3 32 7 13 5 16 2
12 -13 -3 -11 -2 -44 2 -74 4 -30 5 -61 3 -67 -4 -9 -29 -13 -78 -13 -40 0
-80 -3 -89 -6 -31 -12 -16 -22 32 -21 26 0 60 0 75 -1 l28 -2 -26 -33 c-52
-63 -100 -131 -100 -142 0 -5 -11 -10 -25 -10 -26 0 -28 5 -14 72 5 24 1 36
-15 52 -23 23 -79 28 -111 11 -12 -7 -28 -7 -45 0 -20 7 -49 6 -106 -6 -44 -9
-90 -13 -103 -10 -32 8 -130 103 -114 109 7 2 2 5 -12 5 -14 0 -43 7 -65 15
-65 26 -125 18 -125 -16 0 -9 78 -46 110 -52 22 -4 59 -23 80 -40 8 -7 42 -27
74 -44 65 -34 65 -36 -2 -20 -73 17 -152 51 -152 66 0 8 -11 13 -28 13 -15 0
-43 10 -62 23 -19 13 -60 37 -90 52 -30 16 -67 37 -81 46 -14 10 -45 25 -70
34 -75 29 -127 54 -134 65 -20 32 -92 50 -215 53 -49 2 -70 7 -84 21 -11 11
-13 17 -5 14 8 -3 22 -9 32 -13 9 -4 17 -3 17 3 0 11 -58 34 -69 27 -4 -2 -25
3 -47 11 l-39 15 40 -5 c22 -3 73 -11 113 -19 39 -8 72 -11 72 -6 0 13 -146
47 -220 52 -39 2 -45 5 -48 26 -4 22 -2 23 50 16 29 -3 69 -11 88 -17z m2190
-86 c0 -48 0 -49 -64 -93 -83 -58 -162 -132 -172 -161 -4 -13 -7 -33 -5 -44 3
-28 -27 -39 -49 -19 -23 21 -52 19 -108 -7 -62 -28 -82 -46 -82 -75 0 -27 22
-30 67 -8 31 15 53 19 93 16 l25 -1 -25 -20 c-14 -11 -32 -20 -40 -20 -9 0
-20 -4 -25 -9 -6 -4 -27 -11 -48 -14 -32 -5 -43 -2 -63 18 -22 22 -51 77 -67
130 -6 19 -3 20 64 17 79 -4 129 11 129 38 0 12 13 23 38 31 20 6 39 15 42 18
3 3 28 16 55 29 114 53 173 96 189 135 8 20 12 37 10 37 -3 0 -28 -17 -57 -38
-54 -40 -147 -96 -112 -67 25 21 199 153 203 154 1 1 2 -21 2 -47z m-2530 11
c-1 -5 -7 -19 -15 -33 -18 -32 -18 -40 0 -40 8 0 15 5 15 10 0 22 19 8 29 -21
16 -45 118 -139 193 -176 88 -44 187 -43 212 2 15 27 28 35 46 30 8 -2 22 0
30 5 12 8 11 10 -5 8 -11 -2 -21 2 -23 7 -4 17 70 18 80 1 5 -9 15 -13 25 -9
13 5 15 2 10 -11 -5 -11 -3 -15 5 -10 7 5 9 2 5 -8 -3 -10 0 -15 10 -14 20 1
27 -69 9 -86 -22 -21 12 -73 64 -98 64 -32 243 -88 321 -102 58 -10 73 -9 113
6 29 11 46 24 46 34 0 10 9 23 20 30 22 14 27 3 8 -18 -11 -12 -10 -12 5 -1
15 12 20 11 36 -3 11 -10 25 -31 31 -47 14 -32 30 -38 31 -11 0 9 5 4 9 -12 6
-18 5 -36 -1 -48 -6 -12 -6 -18 0 -18 7 0 7 -9 -1 -25 -6 -13 -15 -22 -20 -19
-4 3 -6 9 -3 14 3 5 0 12 -6 16 -8 4 -9 3 -5 -4 10 -17 1 -15 -44 8 -31 16
-59 20 -131 20 -108 0 -296 32 -389 66 -84 31 -180 113 -180 154 0 16 -7 30
-15 34 -8 3 -58 -6 -110 -19 -104 -26 -118 -25 -214 24 -50 26 -123 90 -116
102 3 4 -3 13 -14 18 -10 6 -28 26 -40 46 -11 19 -28 35 -38 36 -11 0 -13 3
-6 6 9 3 10 10 3 23 -5 10 -7 26 -4 34 3 9 1 16 -5 16 -6 0 -11 -5 -11 -12 0
-6 -9 -3 -20 7 -35 32 -24 79 20 88 14 2 28 5 33 6 4 0 7 -2 7 -6z m3030 -136
c62 -85 103 -183 87 -208 -17 -27 -24 -24 -32 17 -5 27 -22 52 -66 94 l-60 57
7 51 c3 29 9 52 13 51 3 0 26 -28 51 -62z m-1007 -333 c24 -20 24 -20 6 -43
-17 -20 -27 -22 -122 -23 -87 -1 -109 3 -129 18 l-25 18 34 23 33 23 58 -37
c31 -19 52 -30 45 -23 -6 7 -9 20 -6 29 4 13 3 13 -5 2 -8 -12 -16 -10 -46 9
l-37 22 27 25 c14 13 29 21 33 17 3 -4 0 -9 -6 -11 -7 -3 -13 -10 -13 -16 1
-7 9 -2 20 11 11 13 24 21 30 17 5 -3 10 -2 10 3 0 17 -13 22 -28 9 -17 -13
-16 -10 12 45 l19 36 32 -67 c18 -37 44 -77 58 -87z"/>
<path d="M4367 7453 c-4 -6 1 -31 12 -55 10 -24 22 -64 26 -88 4 -25 13 -61
21 -82 22 -63 53 -239 58 -328 2 -46 -2 -150 -9 -230 -11 -128 -21 -174 -50
-243 -5 -13 -3 -16 8 -12 25 10 55 142 68 296 14 177 2 308 -43 478 -17 64
-33 130 -36 146 -2 17 -8 35 -13 41 -5 6 -15 28 -22 49 -8 21 -17 34 -20 28z"/>
<path d="M3727 4800 c-51 -10 -72 -30 -31 -30 26 -1 27 -2 12 -14 -25 -19 -24
-78 2 -101 11 -10 20 -14 20 -10 0 5 5 4 12 -3 18 -18 27 -15 38 12 9 24 10
24 38 10 17 -8 36 -22 43 -30 7 -9 22 -20 34 -25 16 -7 13 -8 -10 -4 -16 3
-39 8 -50 12 l-20 5 20 -16 c11 -8 29 -16 40 -16 11 -1 37 -7 57 -14 35 -13
40 -12 78 13 22 14 38 31 35 38 -7 19 6 16 21 -4 7 -10 16 -14 20 -10 13 13
-135 145 -193 172 -52 25 -95 29 -166 15z"/>
<path d="M4292 4631 c-7 -4 -24 -6 -36 -4 -29 6 -86 -22 -86 -41 0 -8 -3 -21
-6 -29 -3 -8 2 -22 11 -31 9 -9 13 -16 8 -16 -4 -1 3 -7 17 -15 l25 -14 -30
-1 c-23 0 -27 -3 -15 -10 20 -13 80 -13 80 0 0 6 -6 10 -12 10 -9 0 -8 3 2 10
9 6 17 5 22 -3 9 -15 58 30 58 54 0 12 5 16 14 13 19 -7 25 23 12 59 -11 27
-37 35 -64 18z"/>
<path d="M2807 5008 c3 -18 13 -46 22 -63 15 -29 15 -30 19 -6 4 23 4 23 34
-10 22 -24 31 -43 30 -65 -2 -49 46 -111 196 -251 75 -70 142 -132 148 -138 6
-5 31 -28 55 -50 161 -149 229 -192 424 -273 196 -81 226 -86 485 -87 221 0
226 1 307 28 56 19 96 41 128 69 25 22 44 42 42 44 -2 3 -42 -14 -88 -36 -119
-57 -192 -70 -399 -70 -158 -1 -182 2 -245 23 l-69 24 52 6 c28 3 65 1 82 -4
16 -6 35 -9 42 -7 6 2 -17 12 -53 22 -90 25 -367 141 -474 199 -53 29 -105 50
-128 52 -31 2 -52 14 -100 57 -34 31 -75 67 -92 80 -16 14 -54 70 -83 124 -76
143 -185 283 -245 314 -43 23 -66 47 -32 34 8 -4 15 -1 15 5 0 6 -17 11 -40
11 -39 0 -39 0 -33 -32z"/>
<path d="M2590 4795 c0 -11 106 -195 153 -265 127 -189 338 -427 462 -521 75
-57 155 -103 155 -90 0 6 -10 16 -22 22 -38 20 -148 103 -148 112 0 5 19 -4
43 -18 126 -77 257 -130 348 -140 24 -2 79 -11 122 -20 43 -8 111 -14 150 -14
l72 1 -95 13 c-222 29 -266 44 -432 148 -117 72 -468 343 -569 438 -35 33
-119 154 -193 277 -34 56 -46 71 -46 57z"/>
<path d="M3580 4355 c0 -6 433 -145 565 -182 88 -25 117 -28 245 -28 100 0
151 4 165 13 17 10 11 11 -41 6 -139 -14 -347 26 -737 141 -198 58 -197 58
-197 50z"/>
<path d="M4956 4018 c-8 -13 -20 -35 -27 -50 -7 -16 -16 -28 -21 -28 -4 0 -8
-5 -8 -11 0 -23 -115 -165 -174 -217 -64 -55 -203 -133 -284 -158 -26 -8 -101
-18 -167 -22 l-120 -6 85 -8 c265 -22 506 114 694 390 54 80 67 114 46 127 -5
3 -16 -5 -24 -17z"/>
<path d="M3045 3926 c11 -7 65 -40 120 -73 317 -191 479 -229 926 -221 178 4
232 8 264 21 l40 17 -50 -8 c-109 -16 -577 7 -713 34 -130 26 -253 73 -425
159 -161 81 -204 101 -162 71z"/>
<path d="M2230 4483 c0 -5 26 -23 56 -42 134 -81 266 -244 326 -403 29 -76 32
-93 32 -202 1 -89 3 -109 9 -80 13 60 2 202 -22 274 -51 160 -182 332 -315
415 -73 45 -86 51 -86 38z"/>
<path d="M1950 4434 c-6 -14 -10 -34 -10 -45 0 -12 -5 -19 -12 -17 -12 4 -18
15 -36 58 -8 19 -9 4 -5 -57 6 -89 -11 -270 -33 -342 -11 -39 -11 -43 2 -30
20 20 42 134 50 256 8 117 26 130 23 17 -1 -41 1 -77 5 -81 3 -3 6 21 6 55 0
34 4 62 9 62 35 0 188 -252 176 -290 -4 -13 2 -20 26 -29 40 -14 51 -6 15 10
-18 8 -26 20 -26 37 0 39 -75 172 -137 241 l-57 63 12 42 c6 22 14 49 17 59 4
10 3 17 -4 17 -6 0 -16 -12 -21 -26z"/>
<path d="M1986 3995 c-64 -69 -59 -220 9 -323 35 -53 42 -48 17 9 -11 24 -27
61 -36 82 -22 51 -20 142 4 195 17 38 23 42 54 42 27 0 34 -4 30 -14 -4 -10 6
-21 28 -31 46 -24 96 -73 120 -119 39 -76 88 -201 88 -224 0 -26 23 -26 28 1
4 18 -70 206 -100 255 -28 45 -62 78 -101 98 -18 9 -39 22 -47 29 -8 8 -27 16
-42 20 -22 6 -32 1 -52 -20z"/>
<path d="M5640 3174 c-89 -39 -208 -62 -222 -42 -8 10 -11 10 -15 0 -2 -6 -22
-15 -44 -18 -22 -4 -42 -11 -45 -15 -7 -11 62 -12 84 -1 9 5 28 6 42 2 l25 -6
-30 -20 c-35 -23 -176 -34 -199 -15 -10 8 -16 9 -21 1 -10 -16 40 -30 104 -30
84 0 118 9 151 40 16 15 50 33 76 39 55 14 108 40 149 75 37 31 37 31 -55 -10z"/>
<path d="M5200 2510 c0 -19 52 -43 94 -43 23 0 54 8 69 18 27 17 28 17 51 -4
19 -18 26 -40 36 -118 6 -53 9 -116 5 -140 -6 -41 -8 -43 -23 -30 -30 26 -100
57 -129 57 -23 0 -17 -5 33 -29 34 -16 65 -34 68 -40 10 -16 1 -14 -41 9 -21
11 -45 20 -54 20 -39 0 -150 -46 -211 -87 -68 -46 -93 -76 -40 -49 16 8 39 12
52 9 16 -4 21 -3 16 5 -10 16 17 15 32 0 9 -9 12 -7 12 11 0 20 4 22 26 17 22
-6 25 -4 20 12 -5 14 -1 21 14 25 16 4 20 0 21 -21 1 -26 2 -26 8 3 6 27 10
30 46 30 34 -1 42 -5 55 -30 14 -28 15 -29 18 -7 4 24 12 28 28 13 5 -5 17
-11 28 -13 16 -3 21 9 35 78 9 47 14 96 10 115 -4 19 -10 59 -13 89 -5 44 -12
60 -36 83 -34 30 -56 33 -84 12 -26 -19 -79 -19 -116 0 -17 9 -30 11 -30 5z"/>
<path d="M4973 2285 c-27 -22 -35 -24 -57 -14 -14 7 -26 16 -26 21 0 4 -5 8
-11 8 -5 0 -7 -4 -4 -10 7 -12 14 -11 -188 -12 -90 0 -160 -4 -163 -10 -4 -6
18 -7 58 -3 75 7 60 -9 -23 -25 -55 -11 -66 -16 -56 -26 7 -7 118 15 133 27
18 15 152 28 186 18 17 -4 34 -7 38 -4 16 10 79 -23 109 -58 37 -41 68 -47 94
-19 16 18 24 72 11 72 -4 0 -13 -8 -20 -17 -7 -10 -14 -13 -14 -7 0 5 7 19 15
30 14 19 15 18 35 -6 15 -19 20 -21 20 -8 0 22 -56 68 -83 68 -12 0 -36 -11
-54 -25z"/>
<path d="M4380 2180 c-8 -6 -27 -7 -42 -4 -22 4 -35 -2 -67 -33 -37 -35 -41
-44 -50 -112 -9 -66 -8 -76 7 -87 26 -21 107 -45 124 -39 9 4 33 -2 55 -13 52
-27 207 -55 260 -47 67 10 176 70 236 130 54 54 56 55 113 55 33 0 96 -6 140
-14 96 -15 141 -11 171 17 22 20 22 20 3 45 -11 13 -20 38 -20 54 0 19 -4 28
-12 26 -20 -7 -21 -35 -4 -70 9 -17 13 -34 10 -37 -3 -3 -88 -5 -187 -3 -112
2 -193 0 -209 -7 -17 -6 -28 -7 -28 -1 0 5 -7 7 -15 4 -8 -4 -15 -2 -15 4 0
12 24 22 51 22 11 0 34 7 50 16 24 12 34 13 45 3 21 -17 31 -2 12 18 -15 15
-21 14 -67 -5 -59 -26 -117 -28 -169 -7 -24 10 -38 12 -40 5 -2 -5 -15 -10
-28 -10 -14 0 -23 -4 -20 -9 3 -5 -1 -14 -8 -20 -11 -10 -17 -8 -24 6 -9 14
-6 21 11 30 18 10 7 11 -65 6 -63 -4 -88 -3 -88 6 0 6 4 11 10 11 15 0 151 62
146 67 -2 3 -45 -11 -94 -31 -49 -20 -100 -35 -113 -34 -20 3 -24 -1 -21 -22
4 -40 51 -109 91 -134 21 -13 65 -28 101 -33 64 -10 65 -10 35 -22 -23 -10
-38 -10 -61 -2 -17 6 -38 11 -46 11 -9 0 -18 5 -20 11 -2 5 -24 13 -48 16 -29
3 -55 15 -72 31 -31 29 -63 104 -55 127 4 8 2 15 -2 15 -29 0 -16 -71 24 -132
14 -21 21 -38 15 -38 -5 0 -15 9 -22 19 -8 14 -16 17 -24 10 -15 -13 -31 8
-44 57 l-10 39 4 -43 c5 -47 20 -72 45 -72 9 0 27 -9 41 -20 20 -16 22 -20 8
-20 -10 0 -18 4 -18 9 0 13 -42 21 -56 11 -7 -7 -24 -5 -48 5 -34 15 -36 17
-36 64 0 86 35 141 90 141 15 0 38 9 51 20 25 20 24 27 -1 10z"/>
<path d="M2920 3471 c0 -12 5 -21 11 -21 6 0 28 -17 49 -37 71 -69 361 -274
495 -350 85 -48 205 -97 205 -83 0 5 -17 14 -37 20 -63 20 -391 213 -393 230
0 3 24 5 53 6 64 1 127 21 127 40 0 11 -4 12 -19 5 -10 -6 -47 -13 -83 -17
-57 -6 -73 -3 -119 18 -30 14 -79 45 -109 69 -149 121 -180 141 -180 120z"/>
<path d="M3150 1910 c0 -17 41 -32 74 -27 37 6 197 -20 211 -34 6 -6 -2 -19
-21 -37 -29 -27 -32 -27 -165 -27 -112 0 -139 -3 -162 -18 -39 -25 -36 -60 7
-81 19 -9 42 -16 53 -16 10 1 1 7 -21 15 -52 18 -63 31 -50 53 19 29 108 46
207 38 83 -7 108 -18 69 -30 -9 -3 -33 -1 -52 4 -55 16 -175 13 -190 -5 -11
-13 -8 -14 19 -9 47 10 88 10 163 0 56 -7 72 -5 93 8 28 19 45 14 45 -13 0
-14 -7 -16 -36 -13 -19 2 -83 1 -142 -3 -137 -10 -107 -23 46 -21 61 0 112 -2
112 -6 0 -5 -28 -8 -62 -8 -87 -1 -208 -17 -224 -31 -14 -12 -19 -61 -7 -72 9
-10 33 13 33 31 0 13 -3 12 -15 -4 -12 -16 -14 -16 -15 -3 0 9 6 22 13 28 25
20 168 42 237 35 49 -5 75 -2 104 10 37 15 40 15 59 -1 20 -18 20 -18 2 10 -9
15 -18 27 -19 27 -1 0 -20 -9 -42 -19 -40 -20 -56 -19 -36 1 20 20 14 66 -9
79 l-21 11 21 22 c26 27 27 52 3 65 -29 15 -184 39 -219 34 -21 -3 -33 -1 -33
6 0 6 -7 11 -15 11 -8 0 -15 -4 -15 -10z"/>
</g>
</svg>
