<?xml version="1.0" standalone="no"?>
<!DOCTYPE svg PUBLIC "-//W3C//DTD SVG 20010904//EN"
 "http://www.w3.org/TR/2001/REC-SVG-20010904/DTD/svg10.dtd">
<svg version="1.0" xmlns="http://www.w3.org/2000/svg"
 width="800.000000pt" height="1280.000000pt" viewBox="0 0 800.000000 1280.000000"
 preserveAspectRatio="xMidYMid meet">
<metadata>
Created by potrace 1.16, written by Peter Selinger 2001-2019
</metadata>
<g transform="translate(0.000000,1280.000000) scale(0.100000,-0.100000)"
fill="#000000" stroke="none">
<path d="M4822 11888 c-18 -11 -32 -26 -32 -33 0 -8 13 -46 29 -87 15 -40 31
-81 34 -90 12 -36 77 -10 77 30 0 12 -4 31 -9 44 -5 13 -17 51 -26 85 -10 34
-23 64 -30 67 -6 2 -26 -5 -43 -16z"/>
<path d="M5176 11888 c-4 -12 -15 -126 -19 -203 -2 -29 -1 -30 49 -33 l52 -3
16 68 c9 37 18 88 19 113 2 43 1 44 -33 50 -19 4 -45 10 -58 14 -15 5 -23 3
-26 -6z"/>
<path d="M1590 11831 l-45 -6 -3 -45 c-2 -25 -1 -67 3 -95 7 -59 30 -75 107
-75 l49 0 -3 113 -3 112 -30 1 c-16 1 -50 -1 -75 -5z m80 -106 l0 -85 -44 0
-43 0 -7 61 c-10 99 -10 97 32 102 20 2 43 4 50 5 9 2 12 -21 12 -83z"/>
<path d="M1233 11635 c-17 -19 -38 -35 -47 -35 -20 0 -30 -18 -19 -33 5 -7 22
-42 37 -79 16 -38 32 -68 36 -68 18 0 110 44 110 52 0 13 -40 138 -54 167 -16
36 -29 35 -63 -4z"/>
<path d="M4937 11640 c-14 -11 -31 -20 -39 -20 -34 0 -36 -21 -12 -108 22 -80
31 -162 19 -162 -3 0 -28 16 -56 35 -81 55 -85 52 -93 -65 -4 -55 -5 -104 -1
-110 3 -5 27 -10 53 -10 130 0 148 -19 103 -109 -32 -62 -38 -83 -77 -251 -25
-110 -26 -120 -16 -235 7 -66 14 -181 17 -255 3 -75 12 -167 20 -205 20 -94
19 -169 -1 -190 -18 -18 -29 -60 -39 -151 -9 -84 -13 -88 -63 -64 -22 11 -51
20 -64 20 -13 0 -42 11 -65 24 -23 13 -59 30 -80 37 -21 6 -74 29 -118 49 -44
20 -109 47 -145 59 -81 27 -82 28 -99 76 -49 146 -138 280 -225 340 -62 42
-231 98 -351 114 -111 16 -345 13 -455 -4 -114 -19 -197 -45 -307 -96 -49 -24
-97 -39 -119 -39 -30 0 -44 -7 -73 -38 -88 -92 -221 -275 -221 -303 0 -36 25
-18 59 41 19 32 40 61 48 65 11 4 13 1 8 -12 -32 -74 -46 -154 -43 -240 l3
-92 -37 -18 c-43 -20 -43 -22 -23 -118 20 -96 20 -100 -20 -125 -32 -20 -101
-100 -230 -269 -30 -40 -60 -68 -75 -71 -25 -6 -32 -16 -130 -173 l-45 -72 -7
45 c-4 25 -12 90 -18 145 -6 55 -24 156 -40 225 -16 69 -34 152 -40 185 -7 33
-32 128 -56 213 -42 147 -43 156 -34 225 47 348 54 628 20 830 -30 175 -55
260 -81 277 -4 3 -5 24 -2 46 l5 40 82 12 c45 7 99 12 119 12 43 0 53 14 38
53 -6 15 -13 57 -17 94 -8 98 -7 96 -50 78 -20 -8 -65 -35 -100 -60 -34 -25
-66 -45 -70 -45 -4 0 -4 46 1 103 4 56 8 118 9 137 l1 35 -77 -4 c-69 -2 -77
-1 -88 18 -12 24 -40 28 -40 7 0 -7 9 -73 20 -146 11 -73 20 -134 20 -136 0
-2 -6 -4 -13 -4 -16 0 -87 145 -87 177 0 11 -6 26 -13 32 -11 8 -21 3 -45 -23
-17 -19 -52 -47 -77 -61 -40 -24 -60 -55 -35 -55 29 0 122 -112 106 -128 -3
-3 -42 3 -86 13 -44 10 -83 16 -86 13 -3 -4 2 -27 10 -52 9 -26 16 -62 16 -81
0 -43 9 -48 63 -34 24 6 57 9 72 7 25 -3 19 -7 -43 -33 -40 -16 -82 -38 -94
-47 l-23 -17 21 -23 c12 -13 25 -36 28 -53 4 -16 12 -33 18 -36 6 -4 40 9 75
28 35 20 67 33 70 30 3 -3 0 -21 -7 -39 -21 -60 -24 -242 -6 -388 40 -314 99
-527 182 -651 49 -74 49 -74 47 -149 -3 -83 18 -269 48 -432 19 -105 44 -200
116 -446 l36 -123 -26 -47 c-26 -49 -124 -374 -151 -502 -8 -41 -20 -120 -26
-175 -6 -55 -27 -176 -45 -270 -33 -163 -56 -316 -75 -493 -5 -49 -5 -198 0
-365 28 -845 25 -998 -21 -1181 -28 -114 -97 -342 -120 -398 -23 -56 -24 -68
-4 -68 8 0 32 26 54 58 37 55 71 92 71 78 0 -4 -26 -65 -59 -136 -66 -146
-133 -251 -248 -395 -289 -362 -357 -462 -333 -490 17 -21 37 -8 80 53 22 30
57 70 79 88 45 39 183 126 189 120 7 -8 -20 -80 -55 -145 -52 -97 -167 -240
-346 -431 -97 -103 -213 -244 -232 -281 -9 -17 -15 -40 -13 -52 7 -47 95 -27
333 76 78 34 112 49 285 127 110 50 221 92 227 86 8 -8 -52 -110 -121 -205
-166 -233 -251 -379 -242 -418 16 -63 116 -50 576 77 181 50 330 74 330 55 0
-13 -37 -76 -113 -189 -94 -142 -116 -188 -117 -237 0 -85 72 -91 275 -20 77
26 205 71 285 99 275 95 369 121 442 122 68 0 78 -6 78 -49 -1 -49 -32 -121
-130 -302 -83 -153 -101 -210 -68 -217 9 -2 79 40 155 92 365 251 535 361 628
407 107 54 185 73 185 47 0 -31 -26 -87 -92 -198 -69 -116 -73 -126 -62 -154
16 -40 77 -13 489 219 306 172 685 352 685 325 0 -10 -117 -125 -153 -149 -93
-63 -156 -141 -114 -141 13 0 169 91 292 171 143 93 194 125 355 222 236 141
440 237 440 206 0 -16 -56 -96 -133 -186 -46 -55 -67 -88 -63 -99 3 -9 10 -14
15 -12 5 2 110 102 233 223 216 212 299 278 329 260 7 -5 8 -32 4 -81 -6 -64
-5 -74 8 -74 10 0 20 14 26 38 38 148 55 207 105 363 31 97 56 184 57 195 1
23 19 -37 25 -86 13 -105 28 -187 37 -204 9 -19 10 -19 23 -1 9 12 14 46 14
95 0 91 14 212 41 340 24 119 43 593 34 850 -4 115 -3 172 3 165 9 -9 29 -127
47 -273 6 -41 11 -52 23 -50 12 2 16 21 18 103 1 55 14 168 29 250 34 193 40
306 26 540 -6 105 -13 262 -17 350 -7 200 -19 312 -43 401 -38 139 -93 333
-142 494 -27 91 -65 237 -84 326 -78 371 -246 782 -536 1319 -93 173 -116 208
-262 396 -45 59 -100 133 -122 165 -45 65 -93 114 -112 114 -17 0 -16 40 3
141 11 59 15 117 11 196 -2 62 -2 115 2 118 15 15 91 241 127 375 33 123 43
345 24 522 -10 93 -11 123 -2 126 7 2 12 13 12 25 0 12 4 28 9 36 8 12 12 12
26 -2 13 -13 36 -17 102 -17 l85 0 -7 -37 c-3 -21 -10 -42 -15 -46 -4 -5 -38
1 -75 12 -79 25 -105 26 -105 6 0 -8 17 -18 43 -25 23 -6 67 -19 97 -30 30
-11 58 -16 62 -12 9 9 38 107 41 137 2 18 -6 21 -92 27 -52 4 -99 9 -105 11
-16 6 121 47 158 47 74 0 75 1 69 108 -3 54 -8 100 -12 104 -3 3 -31 -9 -61
-27 -75 -47 -167 -95 -180 -95 -14 0 -7 25 27 100 14 30 28 73 30 96 l5 41
-43 7 c-88 15 -80 21 -108 -91 -19 -73 -30 -103 -41 -103 -35 0 -43 18 -52
117 -15 146 -27 165 -81 123z m-3279 -248 l-12 -112 -33 0 c-36 0 -36 -1 -53
110 -17 112 -18 109 48 112 31 2 58 3 59 2 2 0 -3 -51 -9 -112z m3761 -68 c1
-19 -6 -23 -51 -28 -29 -4 -83 -17 -120 -30 l-68 -24 0 39 c0 29 4 37 14 33
14 -5 124 47 181 85 l30 21 7 -38 c4 -20 7 -47 7 -58z m-327 29 l51 -16 -6
-85 c-4 -46 -8 -86 -10 -89 -3 -2 -22 -7 -42 -10 -30 -5 -41 -2 -51 12 -9 12
-20 16 -38 11 -18 -4 -26 -2 -30 11 -10 34 -18 161 -12 172 10 16 80 13 138
-6z m-3209 -97 c4 -38 6 -70 5 -71 -2 -2 -49 -6 -106 -10 -96 -6 -103 -5 -100
12 5 29 150 144 178 140 11 -2 17 -22 23 -71z m-233 -95 l0 -88 -37 -7 c-21
-3 -59 -6 -84 -6 l-46 0 -2 85 c-2 99 -13 91 147 103 21 2 22 -1 22 -87z
m3357 -295 c-5 -215 -9 -253 -32 -351 -35 -145 -55 -235 -69 -320 l-12 -70 -7
40 c-5 22 -12 119 -17 215 -5 96 -13 213 -16 260 -5 71 -2 105 21 210 41 193
77 273 116 263 22 -6 22 -7 16 -247z m112 77 c21 -256 -10 -458 -109 -714 -16
-43 -30 -87 -30 -99 0 -14 -7 -20 -21 -20 -20 0 -21 4 -15 54 3 30 17 97 31
148 14 51 32 129 40 173 8 44 22 118 30 165 9 47 20 153 25 235 10 157 18 215
30 215 4 0 12 -71 19 -157z m-3460 70 c12 -10 28 -43 36 -73 59 -220 79 -510
50 -740 -9 -74 -19 -174 -22 -222 -5 -78 -8 -88 -25 -88 -10 0 -24 -11 -30
-25 -6 -14 -14 -25 -17 -25 -3 0 -7 53 -8 118 -3 165 -21 335 -63 597 -22 138
-32 316 -19 336 6 10 9 3 9 -21 0 -19 7 -60 16 -90 8 -30 21 -104 29 -165 8
-60 21 -148 30 -195 13 -71 19 -189 24 -482 1 -17 7 -28 15 -28 31 0 25 372
-9 550 -8 41 -19 116 -25 165 -5 50 -19 127 -30 173 -23 95 -27 218 -7 225 20
9 24 8 46 -10z m-138 -218 c4 -93 14 -210 23 -260 35 -196 66 -476 66 -595 l0
-55 -21 34 c-28 47 -73 185 -103 321 -58 265 -72 515 -36 655 41 162 62 133
71 -100z m1999 -365 c132 -10 295 -50 378 -92 98 -50 211 -213 257 -372 27
-93 18 -216 -23 -298 -36 -73 -154 -209 -222 -256 -50 -34 -239 -96 -264 -86
-25 10 -30 -20 -12 -73 26 -74 24 -78 -55 -107 -82 -30 -89 -31 -89 -11 0 24
-39 95 -56 102 -29 11 -26 -6 10 -64 20 -31 33 -60 28 -64 -10 -9 -97 -36
-155 -47 -47 -10 -49 -9 -59 17 -6 14 -13 50 -16 79 -3 38 -9 52 -20 52 -12 0
-14 -10 -8 -57 13 -120 22 -105 -79 -125 -123 -24 -165 -23 -165 1 0 20 24 93
41 128 13 23 4 62 -10 47 -23 -24 -61 -144 -55 -172 l6 -31 -107 -3 c-59 -2
-109 0 -111 4 -3 4 14 44 36 89 41 81 44 97 16 86 -17 -7 -86 -137 -86 -162 0
-10 -10 -15 -34 -15 -47 0 -96 11 -96 21 0 17 120 211 161 259 23 27 39 55 36
63 -4 11 15 18 76 30 45 9 109 27 142 40 53 20 64 30 93 78 37 62 72 164 74
220 2 65 23 44 58 -58 26 -76 43 -108 75 -142 41 -43 44 -44 121 -51 93 -9
379 22 430 46 47 22 56 56 67 239 3 49 4 50 38 53 68 5 99 13 99 26 0 22 -18
24 -135 15 -60 -4 -184 -8 -274 -8 l-164 -1 99 101 c54 56 145 139 202 186 90
75 122 113 93 113 -19 0 -181 -139 -281 -242 -58 -59 -110 -108 -115 -108 -6
0 -19 17 -30 38 -13 25 -28 38 -45 41 -23 3 -24 2 -9 -15 16 -19 69 -109 69
-117 0 -2 -51 -7 -112 -10 -62 -4 -245 -20 -407 -37 -161 -16 -315 -30 -341
-30 l-49 0 -6 53 c-12 96 27 247 89 340 34 50 104 117 124 117 15 0 58 -108
87 -215 35 -132 43 -153 67 -161 23 -7 38 4 20 15 -7 4 -28 66 -47 137 -18 71
-45 156 -60 188 -32 72 -32 71 84 121 119 50 226 76 355 85 61 4 118 8 126 8
8 1 71 -3 140 -8z m1440 -469 c0 -59 -7 -148 -15 -197 -9 -49 -20 -129 -25
-179 -5 -49 -20 -155 -34 -235 -14 -80 -32 -190 -41 -245 -9 -55 -22 -139 -30
-186 -8 -47 -15 -105 -15 -128 0 -23 -5 -63 -12 -89 -12 -46 -12 -46 -19 -17
-20 91 -1 508 35 755 9 58 16 123 16 146 0 22 5 45 11 51 6 6 12 48 14 94 3
64 13 112 42 199 60 181 73 186 73 31z m-3181 -381 c81 -331 92 -388 112 -575
11 -104 24 -203 29 -219 6 -16 10 -41 10 -57 0 -15 8 -35 17 -45 18 -18 31
-129 19 -161 -6 -14 -9 -15 -20 -2 -19 20 -78 192 -135 393 -74 257 -88 317
-117 502 -28 180 -29 346 -4 409 l12 30 19 -55 c10 -30 36 -129 58 -220z
m2596 -34 c70 -53 97 -155 94 -350 -2 -140 3 -155 44 -118 12 10 34 27 49 37
l27 17 -22 -41 c-12 -22 -28 -41 -36 -41 -7 0 -11 -6 -8 -13 3 -8 1 -20 -4
-28 -7 -11 -12 -12 -29 -1 -25 15 -53 16 -48 0 3 -9 19 -21 46 -35 2 -1 -3
-14 -11 -29 l-15 -28 -16 32 c-17 33 -36 35 -36 3 0 -9 6 -26 14 -37 13 -17
12 -22 -6 -41 -29 -31 -35 -29 -49 12 -13 35 -14 35 -71 35 -45 0 -58 -3 -58
-15 0 -12 -9 -9 -40 11 -42 28 -48 39 -27 47 6 2 -6 8 -28 12 -47 9 -77 33
-116 94 -26 41 -29 53 -28 125 1 70 14 165 18 129 0 -7 7 -13 15 -13 8 0 16
16 20 42 10 64 34 104 78 133 26 17 38 31 34 41 -4 11 7 21 37 35 55 26 126
20 172 -15z m-1821 -416 l25 -9 -29 -53 c-16 -29 -30 -60 -30 -69 0 -21 100
-39 222 -39 94 0 95 0 108 -27 7 -16 15 -74 18 -130 4 -90 2 -106 -17 -145
-12 -24 -33 -56 -47 -72 -27 -31 -26 -31 -101 13 -48 27 -205 37 -264 17 -24
-9 -57 -16 -72 -16 -18 0 -40 -11 -59 -31 l-31 -30 -24 23 -25 23 33 5 c30 5
60 32 48 44 -3 3 -32 1 -64 -5 -50 -9 -60 -8 -74 6 -15 15 -12 16 34 14 57 -4
68 12 40 55 -27 40 -34 92 -24 164 11 78 39 129 106 194 69 68 158 95 227 68z
m1486 -170 c58 -16 163 -91 182 -130 9 -19 22 -70 29 -113 12 -69 11 -87 -4
-142 -9 -36 -28 -83 -42 -106 -29 -45 -27 -69 6 -69 17 0 224 -83 237 -95 2
-2 -36 -27 -84 -55 l-88 -52 -28 31 c-29 32 -58 41 -58 18 0 -8 11 -24 25 -37
14 -13 25 -27 25 -31 0 -8 -81 -59 -92 -59 -3 0 -13 16 -22 35 -9 19 -21 35
-26 35 -15 0 -12 -33 6 -59 19 -26 13 -34 -39 -51 -22 -7 -51 -18 -65 -26 -35
-18 -36 -11 -18 91 15 86 10 105 -28 105 -36 0 -173 50 -214 78 -90 63 -87 59
-73 89 8 15 16 67 19 115 5 92 -7 140 -50 200 -21 30 -22 27 22 80 8 10 25 18
37 18 16 0 23 6 23 20 0 26 57 90 95 106 36 16 175 18 225 4z m-522 -182 c40
-16 61 -32 90 -71 35 -49 37 -55 40 -143 3 -75 0 -99 -16 -135 -21 -46 -70
-98 -111 -119 -23 -12 -23 -15 -17 -90 l7 -78 -28 -6 c-39 -9 -247 -25 -253
-19 -2 2 2 18 9 36 23 58 25 68 8 62 -8 -4 -23 -21 -33 -40 -14 -27 -15 -36
-6 -48 11 -12 7 -15 -25 -19 -21 -3 -41 -3 -45 -1 -4 2 8 33 27 69 45 84 45
111 3 129 -52 21 -117 83 -143 136 -46 90 -28 147 77 250 89 87 123 103 205
96 49 -4 66 -2 70 9 7 18 68 10 141 -18z m-856 -202 c34 -12 173 -108 180
-124 2 -4 17 -17 33 -29 45 -32 85 -117 86 -184 3 -108 -63 -260 -129 -301
-79 -49 -121 -84 -122 -101 0 -10 7 -33 14 -52 l15 -35 -169 0 c-92 0 -175 3
-184 6 -24 9 -19 30 14 57 28 24 41 57 22 57 -16 0 -82 -68 -82 -85 0 -15 -6
-16 -47 -10 -27 4 -54 10 -60 14 -9 4 17 31 72 76 86 71 100 93 66 102 -21 5
-68 60 -97 113 -16 29 -19 56 -19 150 l0 115 50 95 c47 89 54 97 104 123 47
23 67 27 135 27 45 -1 98 -7 118 -14z"/>
<path d="M3462 8631 c-53 -51 -65 -84 -40 -109 18 -18 63 -15 81 6 24 26 47
87 47 122 0 45 -28 39 -88 -19z"/>
<path d="M2354 8325 c-13 -20 -16 -39 -11 -90 8 -80 21 -107 50 -103 31 4 48
45 44 103 -7 96 -49 142 -83 90z"/>
<path d="M5615 11480 c-98 -34 -113 -42 -119 -55 -3 -8 -1 -17 4 -20 6 -4 10
-22 10 -42 0 -32 2 -35 23 -29 12 4 49 12 82 18 80 15 86 20 78 76 -8 67 -18
73 -78 52z"/>
<path d="M2053 11379 c-54 -27 -69 -44 -54 -63 6 -7 9 -20 5 -29 -9 -24 25
-86 51 -93 12 -3 36 -4 51 -2 l29 3 -2 83 c-2 76 -14 122 -31 122 -4 0 -26 -9
-49 -21z"/>
<path d="M1024 11218 c-8 -9 -6 -32 5 -78 14 -56 19 -64 36 -61 11 2 44 5 73
8 54 5 66 19 36 44 -11 9 -14 23 -11 45 6 37 3 39 -74 49 -41 5 -58 3 -65 -7z"/>
<path d="M5444 11105 c-10 -54 -3 -61 73 -69 37 -3 82 -9 100 -12 30 -6 32 -4
44 35 8 26 9 45 3 51 -13 13 -106 30 -165 30 -47 0 -48 -1 -55 -35z"/>
</g>
</svg>
