<?xml version="1.0" standalone="no"?>
<!DOCTYPE svg PUBLIC "-//W3C//DTD SVG 20010904//EN"
 "http://www.w3.org/TR/2001/REC-SVG-20010904/DTD/svg10.dtd">
<svg version="1.0" xmlns="http://www.w3.org/2000/svg"
 width="387.000000pt" height="672.000000pt" viewBox="0 0 387.000000 672.000000"
 preserveAspectRatio="xMidYMid meet">
<metadata>
Created by potrace 1.16, written by Peter Selinger 2001-2019
</metadata>
<g transform="translate(0.000000,672.000000) scale(0.100000,-0.100000)"
fill="#000000" stroke="none">
<path d="M1387 6657 c-21 -65 -67 -140 -101 -162 -22 -15 -25 -22 -20 -54 4
-27 0 -52 -15 -87 -30 -70 -30 -91 3 -163 l28 -64 34 63 c34 65 66 105 95 121
25 13 63 -22 115 -103 25 -38 48 -67 53 -64 15 10 42 127 36 156 -4 16 -16 42
-28 57 -17 21 -21 39 -20 80 2 46 0 53 -20 59 -37 11 -66 45 -87 103 -34 93
-42 111 -49 111 -4 0 -15 -24 -24 -53z"/>
<path d="M684 6576 c-22 -17 -32 7 129 -286 132 -240 154 -270 187 -250 11 7
11 13 2 32 -43 87 -289 518 -296 518 -1 0 -11 -6 -22 -14z"/>
<path d="M1188 6385 c-16 -13 -47 -27 -73 -30 -25 -4 -45 -12 -45 -17 0 -5 16
-39 35 -75 40 -76 43 -108 15 -163 -21 -40 -54 -68 -107 -89 -39 -16 -40 -23
-12 -63 17 -23 20 -39 16 -75 -6 -55 -44 -98 -128 -143 -102 -54 -89 -63 46
-29 l85 21 36 57 c31 50 35 62 32 114 l-3 58 42 10 c39 10 41 13 37 42 -5 29
-1 34 33 49 68 32 67 26 23 125 -22 50 -40 96 -40 102 0 7 11 29 25 49 24 35
34 82 18 82 -5 0 -20 -11 -35 -25z"/>
<path d="M1600 6407 c0 -4 11 -34 25 -67 31 -74 31 -93 0 -177 -14 -37 -23
-73 -21 -80 3 -7 26 -23 51 -35 43 -21 56 -40 35 -53 -20 -12 -9 -33 21 -44
26 -9 30 -15 25 -35 -3 -13 1 -45 9 -72 8 -27 15 -58 15 -70 0 -16 16 -28 68
-53 38 -17 71 -31 75 -31 3 0 -18 24 -46 53 -75 75 -93 142 -57 210 l20 37
-21 0 c-11 0 -34 13 -50 29 -25 26 -28 33 -19 56 14 36 14 35 -21 35 l-32 0 7
47 c3 26 20 76 36 111 17 36 30 66 30 68 0 2 -12 4 -26 4 -31 0 -61 15 -96 48
-16 14 -28 23 -28 19z"/>
<path d="M1386 6247 c-13 -17 -34 -53 -44 -78 -34 -78 -69 -125 -106 -143 -40
-19 -40 -19 -26 -47 14 -25 63 -25 106 2 18 11 50 47 69 80 20 32 40 59 45 59
5 0 28 -26 52 -57 71 -94 135 -125 162 -79 8 14 8 20 -2 23 -35 13 -74 61
-116 142 -41 80 -83 131 -107 131 -4 0 -19 -15 -33 -33z"/>
<path d="M1396 6026 c-31 -46 -98 -96 -127 -96 -27 0 -29 -13 -7 -48 14 -23
28 -32 46 -32 15 0 41 -9 59 -20 l32 -19 -17 -30 c-9 -16 -14 -31 -12 -33 3
-2 24 -13 47 -25 42 -21 43 -21 67 -2 13 10 29 19 35 19 16 0 13 14 -9 43
l-20 25 26 21 c15 12 39 21 55 21 29 0 49 23 49 57 0 13 -15 24 -50 36 -38 14
-60 30 -91 70 -23 29 -44 53 -48 54 -3 2 -19 -17 -35 -41z"/>
<path d="M1144 5923 c-20 -4 -21 -10 -19 -69 2 -37 10 -75 19 -89 26 -40 82
-76 125 -80 22 -2 53 -11 68 -19 28 -14 54 -19 86 -17 30 2 18 30 -25 57 -46
29 -60 43 -54 59 1 6 -18 21 -43 35 -38 21 -71 60 -93 111 -4 10 -41 16 -64
12z"/>
<path d="M1648 5883 c-14 -29 -36 -55 -62 -72 -36 -23 -41 -30 -38 -58 3 -27
-2 -34 -26 -47 -39 -20 -58 -44 -45 -57 7 -7 30 -2 73 15 35 14 70 26 78 26
23 0 92 78 92 104 0 13 -7 40 -15 59 -8 20 -12 42 -9 50 3 8 -2 17 -11 20 -11
5 -21 -6 -37 -40z"/>
<path d="M1021 5670 c-39 -54 -76 -102 -81 -105 -18 -11 -11 -26 8 -16 10 5
74 24 142 41 69 17 128 34 132 38 4 4 -24 38 -62 74 l-68 68 -71 -100z"/>
<path d="M1686 5684 c-47 -43 -48 -45 -31 -64 9 -10 42 -25 73 -31 30 -7 70
-23 89 -36 33 -22 53 -29 53 -17 0 20 -116 194 -128 194 -4 -1 -29 -21 -56
-46z"/>
<path d="M2048 5713 c-8 -10 -35 -47 -60 -83 -26 -36 -56 -73 -67 -82 -12 -10
-21 -27 -21 -38 0 -39 -90 -293 -132 -372 -48 -90 -149 -206 -217 -250 -58
-36 -26 -38 46 -3 100 50 177 152 298 395 31 63 74 140 95 171 64 94 83 139
88 212 5 69 -3 82 -30 50z"/>
<path d="M918 5659 c-33 -9 -65 -31 -84 -58 -14 -19 -13 -25 9 -63 31 -55 39
-90 28 -121 -7 -18 -4 -36 15 -73 14 -29 30 -90 39 -147 27 -184 109 -305 227
-337 l33 -9 -25 17 c-71 47 -124 127 -155 235 -22 77 -64 290 -59 299 2 3 19
2 37 -3 49 -14 55 -12 49 17 -2 14 1 44 9 66 17 53 3 61 -67 35 -45 -16 -56
-18 -69 -7 -20 17 -13 48 21 100 31 46 29 59 -8 49z"/>
<path d="M1280 5631 c0 -22 52 -68 88 -79 47 -14 131 -16 165 -3 29 11 67 49
67 67 0 9 -12 9 -52 -2 -75 -21 -145 -19 -209 5 -63 24 -59 24 -59 12z"/>
<path d="M1226 5548 c-2 -7 -10 -46 -17 -86 -12 -70 -11 -73 10 -96 l22 -24
-20 -41 c-25 -48 -26 -58 -6 -78 12 -11 14 -27 9 -61 -5 -42 -3 -51 25 -86 33
-42 39 -58 43 -121 l3 -40 18 32 c9 18 38 55 62 83 44 50 85 117 85 142 0 7
17 24 36 38 29 21 43 44 70 115 38 98 51 164 38 188 -8 13 -17 11 -66 -11 -50
-23 -59 -32 -74 -72 -9 -25 -28 -65 -42 -90 l-26 -45 -7 30 c-4 17 -7 52 -8
78 -2 71 -23 112 -70 136 -46 24 -80 27 -85 9z"/>
<path d="M1647 5553 c-4 -3 -7 -40 -7 -81 0 -57 -4 -80 -20 -101 -10 -15 -29
-54 -41 -87 -13 -34 -36 -73 -56 -91 -18 -18 -40 -52 -49 -75 -8 -24 -32 -61
-53 -83 -70 -73 -157 -245 -123 -245 5 0 26 31 46 69 35 67 103 141 129 141 7
0 21 16 30 35 12 26 25 37 48 42 25 5 35 15 49 49 19 43 29 49 90 56 23 3 25
7 22 46 -2 32 1 42 13 42 9 0 32 7 53 16 l37 15 -63 57 c-59 54 -63 61 -77
125 -15 73 -18 81 -28 70z"/>
<path d="M1156 5492 c-12 -27 -46 -74 -82 -111 l-63 -64 28 -25 c26 -22 27
-27 17 -54 -10 -27 -8 -31 22 -54 18 -14 30 -30 27 -34 -10 -16 6 -58 24 -63
12 -3 21 -18 25 -41 4 -20 13 -36 19 -36 17 0 77 -62 77 -80 1 -11 3 -10 11 3
13 22 5 49 -38 119 -30 49 -34 62 -28 96 5 33 2 44 -20 70 l-26 31 24 47 24
48 -21 17 c-20 16 -20 20 -7 65 32 111 23 155 -13 66z"/>
<path d="M1920 5208 c-89 -169 -176 -276 -275 -339 -54 -35 -57 -39 -32 -39
36 0 96 -25 124 -52 l23 -22 69 75 c108 118 175 198 230 278 l51 75 -22 24
c-27 28 -61 47 -104 56 -30 7 -32 5 -64 -56z"/>
<path d="M464 5224 c4 -14 18 -43 32 -64 29 -43 29 -70 1 -165 -8 -27 -12 -55
-10 -61 7 -20 40 -4 76 37 42 47 72 50 116 13 26 -22 31 -33 31 -69 0 -38 -10
-59 -70 -149 -39 -58 -114 -153 -168 -211 -144 -158 -189 -213 -228 -281 -19
-33 -34 -64 -34 -68 0 -4 15 4 32 17 18 14 52 34 75 46 62 31 111 78 138 131
13 25 40 66 61 91 20 24 56 74 81 111 50 76 82 101 124 96 23 -2 32 2 42 22 9
18 22 26 45 28 30 3 32 1 32 -28 0 -30 0 -30 25 -14 43 28 34 80 -31 159 -70
87 -117 214 -107 289 l4 34 -86 31 c-54 19 -105 31 -137 31 -49 0 -50 -1 -44
-26z"/>
<path d="M2313 5210 c-29 -10 -65 -27 -80 -38 -19 -13 -34 -17 -48 -11 -11 4
-23 8 -26 8 -4 1 -38 -42 -75 -96 -38 -53 -106 -136 -151 -184 -115 -123 -139
-179 -91 -213 34 -24 49 -21 38 8 -6 18 -5 28 5 36 23 19 43 5 67 -45 21 -43
24 -45 56 -39 31 6 38 1 105 -63 40 -39 118 -100 173 -137 86 -56 108 -66 146
-66 51 0 80 -18 97 -58 9 -22 29 -36 87 -62 42 -18 82 -43 91 -56 19 -30 36
-31 28 -1 -23 72 -150 232 -248 309 -33 26 -42 30 -58 20 -10 -7 -30 -12 -44
-12 -30 0 -108 38 -147 72 -25 21 -123 140 -175 211 l-22 30 20 40 c25 48 62
87 84 87 9 0 38 -22 65 -50 53 -55 85 -63 116 -29 13 15 28 20 49 17 28 -3 31
-1 27 19 -3 16 0 23 11 23 11 0 16 17 21 68 6 57 32 149 60 215 7 15 1 17 -60
17 -42 -1 -90 -8 -121 -20z"/>
<path d="M826 5189 c-27 -4 -52 -13 -56 -19 -13 -21 0 -121 22 -172 12 -27 48
-84 80 -126 32 -42 58 -82 58 -89 0 -18 0 -18 83 23 l73 36 -61 62 c-69 68
-111 148 -129 238 -6 32 -13 57 -16 57 -3 -1 -27 -5 -54 -10z"/>
<path d="M593 4953 c-10 -10 -27 -31 -39 -47 -25 -34 -72 -40 -99 -13 -9 10
-18 17 -20 17 -2 0 -4 -35 -4 -77 -1 -91 -26 -193 -76 -300 -18 -40 -30 -73
-26 -73 14 0 115 112 176 195 32 44 85 115 117 158 73 99 75 132 11 151 -15 5
-28 1 -40 -11z"/>
<path d="M2116 4875 c-9 -13 -16 -31 -16 -40 0 -23 114 -179 160 -218 54 -46
127 -70 155 -51 36 25 57 15 134 -66 42 -44 82 -80 88 -80 6 0 -13 45 -43 99
-73 133 -94 198 -97 296 -2 78 -3 80 -28 83 -23 3 -25 0 -21 -27 5 -36 -12
-47 -51 -32 -23 9 -30 7 -51 -14 -14 -14 -36 -25 -49 -25 -25 0 -87 41 -121
79 -25 27 -40 27 -60 -4z"/>
<path d="M1370 4824 c-44 -85 -104 -97 -116 -23 -4 21 -8 39 -9 39 -2 0 -16
-7 -31 -15 -16 -8 -48 -15 -71 -15 -62 0 -73 -7 -73 -46 0 -43 -35 -64 -80
-47 -26 10 -28 9 -39 -27 -6 -21 -27 -62 -47 -90 l-36 -52 19 -27 c11 -14 29
-27 41 -29 55 -8 131 74 139 152 3 25 13 52 23 61 21 19 76 23 92 7 15 -15 58
-15 92 -2 18 6 34 6 51 -2 21 -9 35 -8 80 11 75 31 105 26 130 -22 11 -22 34
-54 50 -72 17 -18 47 -53 68 -78 39 -48 62 -58 160 -72 33 -4 59 -16 83 -37
29 -26 37 -29 45 -17 17 27 10 84 -13 106 -30 27 -82 53 -107 53 -24 0 -55 37
-77 96 -18 48 -25 52 -44 29 -37 -44 -136 6 -128 65 4 26 1 29 -31 35 -19 4
-58 19 -85 33 -28 15 -54 28 -57 30 -3 1 -16 -18 -29 -44z"/>
<path d="M1172 4624 c-22 -24 -38 -35 -51 -31 -13 3 -23 -4 -34 -27 -25 -54
-67 -95 -108 -107 -21 -7 -39 -18 -39 -26 0 -40 100 -203 125 -203 6 0 20 9
30 19 15 17 16 34 12 121 l-4 102 63 61 c54 51 64 66 64 94 0 43 -18 42 -58
-3z"/>
<path d="M1370 4644 c0 -33 41 -81 91 -108 58 -32 77 -59 120 -171 17 -44 36
-85 42 -91 24 -21 128 -56 151 -50 28 7 66 56 90 115 15 40 16 45 1 61 -9 10
-43 23 -76 29 -76 13 -113 36 -185 114 -57 61 -58 62 -106 59 -52 -4 -98 16
-98 43 0 8 -7 15 -15 15 -8 0 -15 -7 -15 -16z"/>
<path d="M1335 4550 c-18 -20 -55 -28 -55 -11 0 5 -7 12 -16 15 -10 4 -33 -10
-65 -41 -45 -43 -49 -50 -48 -92 0 -25 4 -68 7 -96 10 -72 5 -91 -28 -105 -41
-17 -94 -78 -130 -149 -16 -33 -30 -65 -30 -70 0 -5 19 -11 43 -13 l42 -3 -3
-43 c-4 -42 -3 -44 19 -37 12 4 43 18 67 31 25 13 51 24 58 24 7 0 29 -33 48
-74 20 -41 41 -78 47 -81 6 -4 36 16 67 47 32 30 74 68 94 86 l37 31 58 -35
c31 -19 62 -34 69 -34 7 0 25 16 40 36 26 33 31 35 66 30 21 -4 38 -2 38 3 0
19 -54 137 -82 178 -15 23 -41 52 -57 65 -21 16 -40 50 -65 115 -50 131 -62
150 -105 172 -20 11 -49 31 -62 45 -29 31 -31 31 -54 6z"/>
<path d="M583 4402 l-63 -3 0 -35 c0 -50 27 -91 78 -115 61 -30 189 -24 258
12 42 22 49 29 52 61 2 22 -2 41 -12 51 -20 20 -184 35 -313 29z"/>
<path d="M2240 4380 c-14 -4 -73 -8 -132 -9 l-108 -1 0 -32 c0 -17 9 -51 21
-74 18 -39 25 -44 66 -50 105 -16 223 17 258 70 13 19 14 28 4 43 -11 18 -70
64 -80 62 -2 -1 -15 -5 -29 -9z"/>
<path d="M2396 4266 c-101 -141 -188 -165 -346 -96 -37 16 -71 30 -75 30 -4 0
23 -33 59 -73 71 -80 105 -143 106 -195 l0 -34 51 46 c86 77 184 123 303 141
l39 6 -48 42 -47 42 13 61 c8 41 9 66 2 78 -9 16 -16 9 -57 -48z"/>
<path d="M1871 4261 c-24 -37 -46 -57 -86 -77 -30 -14 -55 -32 -55 -39 0 -8
18 -51 40 -96 53 -110 53 -119 -7 -119 -43 0 -50 -4 -93 -50 l-46 -50 -54 40
c-39 29 -60 38 -74 34 -21 -7 -126 -96 -180 -153 -16 -17 -33 -28 -38 -25 -5
3 -24 38 -43 78 -50 105 -53 106 -132 67 -73 -36 -77 -34 -88 31 -4 21 -11 41
-16 44 -17 10 -69 -7 -80 -27 -8 -17 -6 -24 15 -40 15 -12 28 -35 32 -57 9
-49 26 -81 62 -116 29 -27 32 -27 53 -12 13 9 26 16 30 16 5 0 98 -190 140
-289 l15 -33 31 26 c17 14 69 77 116 139 47 61 94 120 106 131 19 17 22 18 45
2 34 -22 39 -21 96 17 42 27 51 39 60 79 14 55 28 69 78 77 35 6 38 10 64 76
35 90 58 194 60 270 3 124 -3 130 -51 56z"/>
<path d="M444 4225 c6 -33 3 -40 -38 -87 -26 -27 -46 -53 -46 -57 0 -4 18 -5
39 -3 69 7 168 -33 232 -95 31 -29 61 -53 66 -53 7 0 6 20 -4 57 -17 66 -26
53 87 126 35 24 73 57 83 75 l19 32 -53 -27 c-103 -54 -238 -40 -343 34 l-49
35 7 -37z"/>
<path d="M2567 4013 c-18 -109 -108 -208 -254 -280 -51 -25 -93 -48 -93 -52 0
-13 34 -56 98 -126 36 -38 83 -94 105 -123 37 -49 42 -52 71 -45 82 19 178 -7
244 -67 41 -37 40 -28 -4 46 -93 153 -101 180 -109 389 -7 158 -17 234 -39
274 -13 23 -13 23 -19 -16z"/>
<path d="M380 3981 c0 -77 52 -140 160 -190 82 -39 102 -39 134 0 26 30 26 32
10 58 -69 106 -146 159 -245 168 l-59 6 0 -42z"/>
<path d="M280 3887 c-29 -101 -35 -140 -36 -222 l-1 -100 -52 -68 c-28 -38
-61 -87 -72 -110 l-21 -42 23 22 c54 49 160 60 232 24 42 -21 56 -16 57 17 0
7 49 63 108 125 98 101 140 153 130 162 -2 2 -44 20 -95 40 -130 52 -176 95
-204 188 -12 40 -24 75 -28 79 -3 4 -22 -48 -41 -115z"/>
<path d="M2420 3985 c-30 -17 -62 -25 -96 -25 -48 0 -54 -3 -98 -50 -25 -27
-46 -55 -46 -62 0 -10 34 -70 56 -97 7 -8 160 75 196 107 53 48 79 99 65 130
-12 27 -20 27 -77 -3z"/>
<path d="M780 3937 c0 -1 5 -18 11 -37 18 -60 12 -140 -11 -173 l-21 -28 30
-34 c27 -32 51 -89 51 -125 0 -8 22 -35 49 -61 27 -25 54 -63 61 -83 6 -20 33
-58 59 -84 33 -33 64 -84 108 -173 34 -70 66 -130 71 -133 9 -6 22 70 22 133
0 19 -9 53 -19 75 -11 23 -21 74 -24 116 -3 41 -17 111 -31 155 -22 69 -33 87
-81 135 -31 30 -102 115 -157 188 -84 110 -118 147 -118 129z"/>
<path d="M1995 3872 c-81 -43 -447 -285 -465 -307 -11 -13 -11 -26 -1 -68 11
-47 11 -56 -8 -97 -11 -25 -21 -64 -21 -87 0 -28 -8 -54 -25 -79 -27 -40 -34
-110 -14 -161 10 -27 11 -28 26 -8 8 11 31 53 50 94 31 68 67 111 182 216 6 6
22 24 36 41 14 19 52 44 89 60 56 24 65 32 70 60 8 41 46 79 102 100 32 12 49
26 59 48 8 17 20 39 27 48 10 14 8 24 -11 58 -18 32 -22 52 -18 81 3 21 2 39
-1 39 -4 0 -38 -17 -77 -38z"/>
<path d="M2102 3625 c-7 -14 -20 -25 -31 -25 -55 0 -103 -50 -116 -122 -6 -33
-11 -38 -35 -38 -16 0 -41 -5 -57 -11 -32 -12 -103 -77 -103 -95 0 -6 -13 -17
-29 -23 -59 -25 -171 -169 -197 -255 -12 -42 -14 -86 -8 -248 l7 -196 56 60
c81 88 107 127 140 208 36 87 57 110 175 194 111 79 152 122 199 206 19 36 44
73 54 82 25 23 84 46 106 43 23 -4 22 4 -5 33 -14 14 -23 38 -24 59 -2 37 -37
89 -90 129 l-31 24 -11 -25z"/>
<path d="M694 3594 c-19 -19 -36 -45 -39 -57 -4 -13 -25 -33 -52 -47 -26 -14
-46 -29 -45 -35 0 -5 29 -21 63 -35 34 -14 65 -32 69 -40 4 -8 15 -46 24 -85
26 -111 71 -187 168 -290 49 -51 88 -100 88 -108 0 -46 87 -237 139 -306 18
-23 18 -22 26 80 5 57 9 142 10 189 0 85 0 85 -66 221 -64 130 -121 212 -157
223 -10 4 -18 18 -19 36 -3 44 -42 108 -79 130 -25 16 -32 29 -37 64 -8 56
-26 96 -45 96 -8 0 -30 -16 -48 -36z"/>
<path d="M170 3354 c-19 -8 -56 -29 -82 -45 -37 -24 -46 -36 -46 -57 1 -15 -6
-42 -16 -59 -9 -18 -16 -43 -16 -57 0 -31 58 -99 99 -116 71 -29 110 18 52 61
-35 26 -38 34 -15 43 23 9 49 -17 69 -69 17 -46 42 -58 63 -32 6 6 12 60 14
119 3 105 4 107 36 140 17 19 32 41 32 49 0 38 -122 52 -190 23z"/>
<path d="M2503 3353 c-15 -5 -17 -35 -4 -48 20 -21 38 -99 31 -127 -5 -16 -5
-30 1 -33 5 -4 9 -30 9 -60 0 -90 23 -124 72 -106 18 6 23 17 25 51 1 24 8 50
17 58 21 21 63 7 81 -27 26 -51 74 -52 95 -2 31 75 -64 227 -175 281 -39 19
-121 26 -152 13z"/>
<path d="M614 3286 c-16 -32 -15 -35 4 -62 11 -16 32 -67 47 -113 22 -66 38
-95 77 -139 50 -55 78 -105 78 -140 0 -28 117 -228 127 -218 3 3 8 41 10 83 4
63 1 87 -16 126 -12 27 -21 55 -21 62 0 7 -32 44 -71 82 -105 99 -156 184
-189 311 -13 51 -25 53 -46 8z"/>
<path d="M2152 3278 c-11 -13 -29 -43 -40 -68 -21 -48 -50 -77 -151 -149 -79
-57 -162 -146 -191 -206 -23 -48 -39 -168 -26 -201 6 -15 9 -14 25 12 10 16
43 57 73 90 38 43 58 74 63 100 10 57 20 70 85 114 47 32 65 52 87 97 24 49
36 62 88 90 33 18 64 34 69 36 14 5 -11 61 -38 86 l-22 21 -22 -22z"/>
<path d="M563 3081 c-18 -33 -33 -71 -33 -85 0 -14 15 -49 32 -78 26 -42 34
-68 39 -124 5 -62 11 -78 46 -130 25 -36 45 -79 52 -112 14 -66 55 -148 120
-237 l51 -70 1 70 c0 39 4 95 9 125 25 149 25 140 -20 195 -50 59 -80 115 -80
148 0 47 -32 115 -79 168 -28 31 -52 69 -56 89 -9 39 -36 100 -44 100 -3 0
-21 -27 -38 -59z"/>
<path d="M2172 3095 c-17 -14 -44 -47 -61 -74 -17 -26 -54 -63 -82 -82 -51
-34 -81 -78 -93 -136 -5 -19 -34 -61 -71 -103 -76 -84 -79 -102 -68 -304 l8
-129 102 110 c90 96 104 116 108 153 7 57 13 66 89 137 42 39 66 69 66 83 0
31 24 73 75 130 29 32 45 60 45 76 0 26 -69 164 -82 164 -3 0 -20 -11 -36 -25z"/>
<path d="M2930 3095 c-5 -14 -24 -78 -41 -143 -17 -64 -34 -120 -38 -124 -3
-4 -28 33 -55 82 -74 140 -118 181 -132 126 -6 -27 11 -74 49 -129 14 -21 45
-75 68 -121 l42 -82 -35 -142 c-36 -143 -36 -162 3 -162 13 0 22 25 43 115 15
63 31 115 35 115 10 0 67 -100 81 -142 7 -22 9 -70 6 -121 -6 -102 3 -122 35
-78 12 17 29 31 36 31 21 0 33 -43 22 -86 -21 -91 -38 -59 246 -454 280 -389
375 -538 375 -585 0 -17 5 -22 18 -19 12 4 32 -15 69 -63 28 -37 66 -81 83
-98 32 -30 32 -30 26 -5 -4 14 -35 81 -68 148 -41 81 -62 135 -61 157 1 23 -3
32 -14 31 -13 -1 -69 109 -218 429 -12 28 -69 147 -125 265 -56 118 -124 261
-151 318 -27 56 -53 102 -59 102 -5 0 -22 -19 -36 -42 -25 -39 -27 -40 -40
-23 -18 25 -23 60 -26 185 -2 62 -7 105 -13 104 -5 0 -19 -20 -31 -43 -11 -24
-24 -42 -28 -42 -4 0 -28 35 -53 78 -51 89 -52 58 6 303 16 69 27 128 24 133
-9 16 -34 6 -43 -18z"/>
<path d="M2257 2832 c-20 -22 -47 -85 -47 -109 0 -10 -27 -43 -60 -75 -63 -60
-90 -107 -90 -158 0 -24 -19 -49 -100 -135 l-100 -105 -1 -193 c0 -105 -2
-199 -4 -208 -1 -9 1 -23 6 -30 7 -11 44 22 154 134 80 82 145 151 145 155 8
111 16 137 78 229 19 29 43 82 53 118 15 55 26 73 64 108 l47 42 -55 116 c-30
64 -59 119 -64 122 -6 4 -18 -1 -26 -11z"/>
<path d="M520 2821 c0 -6 -20 -33 -45 -61 -52 -59 -56 -86 -21 -143 20 -33 23
-47 19 -101 -5 -53 0 -79 27 -162 20 -59 35 -124 36 -162 3 -51 9 -71 35 -110
56 -82 184 -252 190 -252 7 0 41 220 47 303 5 77 1 91 -56 178 -67 100 -100
169 -108 221 -4 23 -20 60 -36 82 -27 38 -68 149 -68 186 0 11 -4 22 -10 25
-5 3 -10 2 -10 -4z"/>
<path d="M353 2530 c-24 -26 -69 -65 -100 -86 -32 -21 -72 -48 -90 -61 l-31
-24 30 -65 c26 -55 29 -72 24 -112 -23 -160 -24 -155 65 -335 49 -98 59 -128
59 -170 0 -73 35 -141 119 -232 39 -42 90 -104 112 -138 47 -70 98 -127 113
-127 8 0 10 61 9 187 -1 104 2 239 8 301 6 62 8 124 5 137 -3 13 -32 55 -63
93 -32 39 -79 105 -106 146 -47 75 -47 75 -46 158 1 70 -3 93 -26 148 -19 45
-30 90 -34 146 l-6 81 -42 -47z"/>
<path d="M1686 2509 c-19 -23 -47 -59 -62 -80 l-26 -38 18 -51 c29 -80 49 -86
108 -34 27 24 29 30 27 97 -1 40 -4 81 -6 92 -2 11 -4 28 -4 38 -1 27 -17 20
-55 -24z"/>
<path d="M952 2485 c-7 -14 -15 -43 -18 -65 -6 -34 -3 -42 21 -64 28 -26 109
-56 150 -56 24 0 65 40 89 87 9 18 16 34 16 36 0 3 -20 7 -44 9 -25 3 -77 22
-116 42 -39 20 -75 36 -79 36 -4 0 -13 -11 -19 -25z"/>
<path d="M2377 2492 c-21 -23 -37 -67 -37 -102 0 -16 -5 -32 -11 -36 -41 -25
-109 -181 -109 -251 0 -30 -15 -48 -128 -161 -71 -70 -134 -137 -140 -149 -7
-13 -12 -74 -11 -160 0 -76 -2 -145 -5 -153 -2 -8 -7 -42 -10 -75 -4 -33 -14
-111 -24 -172 -10 -62 -16 -113 -12 -113 5 0 77 63 348 302 60 54 112 104 115
112 3 7 9 34 12 60 8 53 114 244 176 318 32 39 40 57 48 113 10 68 36 121 88
176 l24 26 -68 54 c-92 71 -179 155 -204 196 -24 38 -30 40 -52 15z"/>
<path d="M949 2297 c0 -1 -1 -23 -2 -49 -3 -51 -28 -88 -59 -88 -10 0 -18 -3
-18 -7 0 -5 -7 -53 -15 -108 -8 -55 -15 -119 -15 -143 l0 -43 73 62 c92 78
101 90 132 169 18 47 40 80 75 115 28 27 50 52 50 55 0 3 -29 4 -64 2 -48 -3
-76 1 -110 17 -25 11 -46 19 -47 18z"/>
<path d="M1683 2229 c-59 -35 -59 -40 0 -108 37 -44 53 -82 62 -151 8 -71 22
-115 41 -130 12 -11 14 12 14 174 0 181 -1 186 -19 176 -29 -15 -31 -13 -31
30 0 22 -3 40 -7 39 -5 0 -32 -14 -60 -30z"/>
<path d="M933 1873 c-55 -74 -100 -110 -151 -123 -48 -13 -50 -15 -56 -54 -11
-70 -19 -419 -11 -471 l7 -49 29 34 c49 58 68 105 78 189 8 74 13 86 52 137
42 54 42 56 27 87 -29 61 -7 129 63 197 40 38 40 39 23 64 -9 14 -20 26 -25
26 -4 0 -21 -17 -36 -37z"/>
<path d="M2306 1390 l-106 -110 48 -73 c26 -39 74 -114 106 -164 32 -51 62
-93 67 -93 5 0 9 24 9 53 0 30 7 76 15 103 21 69 19 86 -17 154 l-31 60 13 86
c7 47 10 87 8 90 -3 2 -53 -45 -112 -106z"/>
<path d="M479 1163 c-24 -53 -58 -121 -75 -150 -32 -52 -32 -52 -13 -74 10
-12 19 -23 19 -25 0 -1 -24 -36 -52 -77 -220 -310 -267 -389 -254 -424 18 -46
138 -73 245 -54 97 17 140 45 165 106 42 101 64 128 122 154 63 27 78 49 69
97 -5 30 -3 35 19 44 l25 9 -33 68 c-44 90 -66 165 -66 229 0 50 -3 56 -61
123 -33 39 -62 71 -63 71 -2 0 -23 -44 -47 -97z"/>
<path d="M2177 1060 c12 -236 10 -394 -5 -412 -9 -11 -10 -23 -3 -40 7 -20 4
-33 -20 -67 -27 -41 -28 -44 -13 -73 8 -16 14 -40 12 -53 -2 -17 13 -39 55
-83 63 -66 67 -83 37 -142 -11 -22 -20 -48 -20 -59 0 -29 42 -73 95 -100 57
-29 157 -30 260 -4 65 17 70 20 83 55 13 35 12 39 -26 120 -100 209 -112 238
-102 262 6 18 4 34 -11 63 -15 29 -19 52 -17 95 4 58 4 58 -46 110 -39 40 -76
100 -150 243 -54 105 -107 202 -117 215 -20 25 -20 25 -12 -130z"/>
</g>
</svg>
