<?xml version="1.0" standalone="no"?>
<!DOCTYPE svg PUBLIC "-//W3C//DTD SVG 20010904//EN"
 "http://www.w3.org/TR/2001/REC-SVG-20010904/DTD/svg10.dtd">
<svg version="1.0" xmlns="http://www.w3.org/2000/svg"
 width="1352.000000pt" height="1500.000000pt" viewBox="0 0 1352.000000 1500.000000"
 preserveAspectRatio="xMidYMid meet">
<metadata>
Created by potrace 1.16, written by Peter Selinger 2001-2019
</metadata>
<g transform="translate(0.000000,1500.000000) scale(0.100000,-0.100000)"
fill="#000000" stroke="none">
<path d="M5738 13414 c-69 -16 -144 -53 -132 -64 5 -4 32 -15 61 -24 28 -10
78 -34 110 -55 58 -39 181 -156 172 -165 -2 -3 -47 15 -99 40 -52 25 -119 50
-149 55 -82 16 -328 -6 -413 -36 -99 -36 -218 -55 -337 -55 -188 0 -350 40
-581 142 -398 177 -624 199 -930 92 -187 -65 -284 -124 -480 -293 -73 -64
-141 -122 -150 -129 -8 -7 14 1 48 18 35 17 105 45 155 62 119 39 286 50 387
24 128 -33 267 -129 378 -260 41 -49 72 -76 90 -80 53 -11 299 -26 437 -26
158 0 182 -7 144 -39 -39 -34 -183 -101 -301 -140 l-110 -37 60 -70 c172 -200
260 -234 597 -234 346 0 566 68 939 290 243 144 345 184 496 197 138 11 240
-26 335 -122 79 -79 141 -198 169 -326 6 -26 4 -27 -71 -39 -41 -6 -98 -18
-124 -26 -54 -16 -58 -21 -200 -226 -72 -104 -76 -108 -134 -129 -264 -97
-750 -299 -961 -399 -130 -61 -168 -93 -231 -192 -53 -83 -54 -111 -17 -309
83 -442 137 -916 164 -1449 11 -218 13 -560 4 -560 -6 0 -196 105 -323 179
-57 32 -59 38 81 -208 172 -301 174 -308 257 -671 101 -441 119 -570 146
-1005 22 -381 28 -637 16 -758 -41 -416 -278 -989 -608 -1466 -36 -51 -61 -97
-56 -101 14 -14 224 -116 324 -158 99 -41 497 -173 654 -216 309 -85 683 -160
1195 -240 687 -107 623 -101 1040 -100 206 0 449 6 540 12 612 46 1299 161
1748 294 l142 42 0 105 c0 120 -14 354 -31 511 -15 148 -98 456 -309 1150
-114 372 -129 419 -198 590 -126 316 -539 1200 -560 1200 -4 0 -43 -26 -87
-58 -44 -31 -102 -67 -130 -79 -27 -12 -124 -56 -214 -98 -176 -82 -271 -110
-485 -140 -61 -9 -151 -22 -201 -30 -282 -45 -811 -64 -1040 -37 -464 56
-1000 216 -1247 374 -86 55 -159 135 -227 248 -65 107 -81 166 -19 69 94 -148
304 -264 610 -339 150 -37 324 -66 509 -85 169 -17 644 -38 769 -33 l85 3 12
65 c29 167 -74 830 -268 1710 -192 870 -618 2206 -739 2315 -26 23 -56 15
-157 -45 -46 -27 -83 -45 -83 -40 0 14 172 143 210 157 49 17 84 16 109 -4 51
-42 208 -491 416 -1188 340 -1138 532 -1961 645 -2765 11 -80 23 -158 26 -173
l6 -29 82 7 c161 13 373 42 479 66 37 9 47 15 42 28 -17 53 -173 767 -374
1711 -237 1110 -362 1646 -532 2272 l-61 223 -47 48 -47 48 -129 -16 c-72 -8
-139 -15 -151 -15 -21 0 -21 3 -16 144 6 168 -13 300 -60 435 -111 318 -375
571 -676 647 -110 28 -297 32 -394 8z m-374 -2187 c26 -19 15 -58 -49 -166
-99 -168 -115 -238 -91 -409 20 -142 20 -161 -1 -169 -42 -16 -81 91 -124 347
-33 198 -35 249 -14 290 42 82 221 150 279 107z m1469 -1354 c37 -113 66 -207
65 -208 -9 -7 -730 -156 -740 -153 -7 3 -23 65 -38 155 l-26 150 234 104 c258
113 373 158 413 158 24 1 28 -7 92 -206z m1013 -2461 c29 -103 129 -275 212
-364 50 -54 42 -67 -24 -42 -39 15 -68 16 -217 11 -95 -4 -196 -10 -224 -13
-69 -9 -69 3 3 77 43 46 69 87 115 186 82 176 102 212 111 207 4 -3 15 -31 24
-62z m-1116 -522 c142 -41 375 -125 398 -142 22 -19 13 -39 -52 -109 -34 -39
-86 -108 -114 -155 l-50 -84 -30 37 c-16 21 -73 108 -127 193 -54 85 -120 187
-147 227 -52 78 -56 88 -32 79 9 -3 78 -24 154 -46z m2384 -96 c-55 -54 -109
-167 -179 -367 -26 -76 -51 -134 -55 -130 -4 4 -13 31 -20 58 -31 121 -162
333 -237 382 -13 9 -22 18 -19 20 2 2 46 8 97 14 52 5 157 23 234 39 77 15
159 29 182 29 l42 1 -45 -46z m-925 -14 c249 -72 427 -235 499 -457 120 -366
-46 -848 -356 -1037 -134 -81 -338 -119 -527 -98 -305 34 -515 181 -653 457
-112 225 -143 482 -79 665 74 209 275 382 536 460 112 33 169 39 341 35 132
-2 180 -7 239 -25z m755 -794 c49 -37 88 -54 229 -101 73 -25 132 -48 132 -52
-1 -5 -66 -35 -145 -69 -173 -72 -194 -83 -254 -129 -25 -19 -48 -35 -49 -35
-2 0 2 28 9 63 18 89 34 222 34 289 0 32 3 58 7 58 3 0 20 -11 37 -24z m-2130
8 c10 -4 16 -18 16 -38 0 -62 96 -366 121 -382 25 -15 -3 -20 -123 -21 -73 0
-234 -8 -356 -17 -123 -10 -226 -15 -229 -13 -3 3 13 15 34 26 22 11 46 27 54
37 8 9 52 49 99 88 116 97 242 219 287 277 37 48 58 58 97 43z m1846 -766 c12
-29 60 -133 106 -230 46 -97 84 -184 84 -193 0 -22 -35 -19 -78 9 -87 54 -317
161 -423 195 -20 6 -46 22 -58 35 l-22 23 138 81 c76 45 154 92 173 106 19 14
40 25 46 26 6 0 22 -24 34 -52z m-1425 -68 c104 -105 232 -180 372 -219 l66
-18 -34 -20 c-19 -11 -106 -60 -194 -108 -88 -48 -175 -98 -192 -112 -18 -13
-33 -20 -34 -16 0 4 -4 71 -8 148 -6 88 -19 184 -36 258 -25 112 -27 147 -8
147 5 0 35 -27 68 -60z"/>
<path d="M7430 11975 c0 -5 7 -41 15 -80 8 -38 25 -133 39 -210 13 -77 56
-303 95 -502 39 -200 68 -369 65 -377 -3 -8 4 -59 16 -113 17 -81 301 -1376
475 -2168 25 -115 66 -301 91 -413 24 -111 44 -204 44 -206 0 -9 147 36 245
75 150 58 451 239 476 285 9 18 7 45 -9 136 -12 62 -26 151 -32 198 -7 53
-105 414 -260 955 -416 1457 -554 1976 -566 2125 -9 108 -26 143 -107 212 -64
54 -66 55 -158 68 -127 17 -429 28 -429 15z m899 -1932 c22 -93 41 -181 43
-198 l3 -30 -199 -9 c-141 -6 -200 -6 -205 2 -11 18 -96 371 -90 376 9 9 182
23 296 25 l111 1 41 -167z"/>
<path d="M9952 11973 c-7 -3 -23 -21 -37 -40 l-24 -36 41 -60 c52 -77 113
-200 126 -257 6 -25 13 -81 16 -125 l6 -80 -16 55 c-38 138 -78 259 -101 305
-59 116 -178 234 -222 220 -29 -9 -46 -63 -44 -140 1 -55 68 -487 76 -491 1 0
22 -6 46 -13 85 -24 205 -170 226 -272 4 -21 12 -28 41 -34 49 -9 123 -80 159
-152 22 -44 30 -76 33 -133 4 -85 -5 -84 -31 0 -19 62 -74 160 -115 203 -38
41 -78 59 -111 52 -28 -6 -28 -5 -41 57 -30 155 -74 216 -176 242 -109 28
-149 19 -212 -47 -30 -31 -32 -38 -22 -57 51 -95 99 -322 107 -506 10 -234
-22 -447 -107 -708 -23 -70 -40 -129 -38 -130 2 -1 75 -42 163 -91 226 -124
720 -431 665 -412 -8 3 -165 73 -348 156 -300 136 -499 216 -589 235 l-31 7
-16 -73 c-50 -224 -117 -417 -217 -625 l-59 -123 77 -97 c142 -182 306 -450
448 -732 75 -150 167 -349 179 -389 11 -32 -10 -27 -43 11 -65 73 -215 255
-321 387 -62 77 -114 139 -116 137 -10 -10 91 -277 143 -382 113 -225 255
-560 388 -913 15 -39 30 -70 34 -67 4 2 33 46 63 97 244 408 433 842 519 1192
13 53 26 96 29 96 3 0 29 -21 58 -46 30 -26 57 -43 61 -38 10 11 271 661 271
674 0 6 -34 46 -76 90 l-77 80 42 138 c68 226 117 471 141 711 13 133 13 489
0 622 -21 213 -71 458 -130 643 -115 359 -322 686 -487 770 -36 18 -93 22 -93
6 0 -6 22 -59 49 -118 71 -157 101 -246 117 -346 7 -50 11 -92 9 -94 -5 -6 -7
0 -34 111 -44 185 -134 382 -209 460 -61 63 -137 91 -190 70z"/>
<path d="M2667 11781 c-45 -50 -102 -167 -121 -251 -9 -36 -19 -130 -23 -210
-7 -158 -17 -156 -28 4 -8 105 5 173 59 319 l35 92 -20 22 c-89 94 -214 10
-279 -187 -32 -99 -60 -280 -60 -391 0 -54 -4 -99 -9 -99 -5 0 -11 37 -14 83
-5 91 10 213 48 383 14 61 25 114 25 118 0 3 -10 6 -22 6 -108 0 -262 -265
-343 -590 -50 -197 -60 -303 -59 -615 0 -312 13 -437 70 -689 74 -329 214
-688 386 -990 l46 -79 -39 -59 c-21 -33 -45 -79 -55 -104 -16 -43 -16 -45 12
-121 71 -196 224 -462 483 -838 l135 -195 25 17 c94 60 291 233 291 256 0 12
16 -1 48 -40 121 -145 437 -404 767 -628 573 -390 736 -578 816 -940 24 -107
35 -332 22 -428 -5 -37 -6 -64 -2 -60 14 15 87 209 123 326 19 65 49 184 65
265 l29 147 -2 455 c-2 461 -6 511 -47 760 -58 347 -172 649 -478 1268 -164
329 -170 339 -195 335 -14 -3 -26 -8 -26 -12 0 -4 12 -51 27 -106 24 -91 27
-117 27 -280 1 -190 -11 -272 -53 -385 -23 -62 -70 -126 -71 -98 0 9 10 66 22
125 29 142 31 352 5 465 -18 74 -20 78 -75 119 -31 24 -95 69 -142 99 -212
140 -432 360 -610 610 -29 41 -56 79 -60 83 -4 4 -77 -72 -162 -170 -340 -390
-605 -632 -666 -608 -20 8 -10 18 243 230 178 150 273 243 343 336 46 61 110
193 138 282 l18 57 -67 133 c-119 237 -174 407 -203 631 -17 129 -14 339 6
425 13 52 2 69 -66 102 -39 18 -49 19 -96 9 -29 -6 -75 -23 -103 -38 -73 -40
-97 -93 -103 -229 -4 -81 -8 -103 -18 -99 -7 3 -27 0 -43 -5 -61 -21 -126
-163 -140 -302 -7 -70 -8 -71 -20 -42 -50 115 17 320 118 363 36 15 37 18 38
69 2 97 80 232 163 285 l44 28 -3 163 c-5 290 -23 409 -69 443 -28 22 -48 16
-85 -25z"/>
<path d="M4674 4283 c-148 -240 -495 -749 -641 -942 -23 -30 -30 -47 -22 -52
6 -4 9 -11 6 -16 -8 -13 36 -54 93 -86 156 -89 588 -177 873 -177 132 0 218
15 827 145 687 147 796 166 980 172 103 3 141 1 130 -6 -8 -6 -44 -11 -78 -11
-47 0 -104 -12 -210 -44 -299 -91 -690 -188 -907 -226 -38 -7 -116 -25 -171
-40 -191 -53 -295 -65 -566 -65 l-248 0 -9 -25 c-6 -14 -39 -115 -75 -225
-110 -339 -183 -592 -260 -902 -47 -185 -102 -365 -127 -417 -12 -22 -51 -70
-87 -104 -85 -82 -79 -86 107 -80 107 4 186 15 371 52 129 25 284 55 345 67
144 27 262 62 349 103 116 53 763 547 1454 1109 l233 189 224 3 225 2 0 -166
c0 -180 -14 -415 -31 -526 l-10 -70 68 -64 c251 -235 475 -346 932 -462 189
-48 197 -49 343 -49 l148 0 -6 185 c-6 157 -5 185 7 185 16 0 145 129 200 200
250 320 398 755 411 1205 l3 100 -50 7 c-193 28 -189 28 -360 -14 -88 -21
-207 -50 -265 -64 -58 -13 -114 -27 -125 -30 -14 -4 -17 -3 -10 4 15 16 266
116 366 146 163 50 259 67 409 72 132 5 153 4 240 -19 52 -14 151 -46 220 -72
69 -26 149 -49 179 -52 l54 -6 -7 64 c-21 201 -79 449 -162 698 -30 92 -59
172 -62 178 -5 9 -25 8 -72 -2 -122 -25 -395 -64 -555 -80 -622 -58 -1613 -67
-2325 -19 -762 50 -1607 157 -2121 268 -91 20 -171 36 -176 36 -6 0 -33 -35
-59 -77z"/>
</g>
</svg>
